<?xml version="1.0" encoding="UTF-8" standalone="no"?>
<!DOCTYPE svg PUBLIC "-//W3C//DTD SVG 1.1//EN" "http://www.w3.org/Graphics/SVG/1.1/DTD/svg11.dtd">
<svg width="100%" height="100%" viewBox="0 0 125 125" version="1.1" xmlns="http://www.w3.org/2000/svg" xmlns:xlink="http://www.w3.org/1999/xlink" xml:space="preserve" xmlns:serif="http://www.serif.com/" style="fill-rule:evenodd;clip-rule:evenodd;stroke-linejoin:round;stroke-miterlimit:2;">
    <g id="Page-1" serif:id="Page 1" transform="matrix(0.250552,0,0,0.176389,0,0)">
        <rect x="0" y="0" width="498.898" height="708.662" style="fill:none;"/>
        <g transform="matrix(22.8544,0,0,32.4636,-6134.4,-16230.4)">
            <clipPath id="_clip1">
                <path d="M268.118,510.871C268.118,517.065 273.139,522.087 279.333,522.087C285.528,522.087 290.549,517.065 290.549,510.871C290.549,504.677 285.528,499.655 279.333,499.655C273.139,499.655 268.118,504.677 268.118,510.871Z" clip-rule="nonzero"/>
            </clipPath>
            <g clip-path="url(#_clip1)">
                <g transform="matrix(1,0,0,1,279.894,503.22)">
                    <path d="M0,4.73C-0.123,4.73 -0.245,4.677 -0.33,4.575C-0.481,4.393 -0.456,4.123 -0.274,3.972C0.041,3.71 0.373,3.467 0.713,3.249C0.9,3.131 1.084,3.008 1.266,2.88L-3.769,2.88C-4.005,2.88 -4.197,2.688 -4.197,2.451C-4.197,2.215 -4.005,2.023 -3.769,2.023L1.442,2.023C1.414,2.002 1.387,1.98 1.359,1.959C1.133,1.791 0.899,1.621 0.661,1.449C0.369,1.238 0.071,1.037 -0.226,0.852C-0.427,0.727 -0.489,0.463 -0.364,0.262C-0.24,0.061 0.025,0 0.226,0.124C0.541,0.32 0.856,0.532 1.163,0.755C1.403,0.927 1.641,1.101 1.875,1.275C2.107,1.453 2.33,1.626 2.549,1.8C2.662,1.893 2.767,1.981 2.87,2.069C2.967,2.151 3.022,2.271 3.021,2.398C3.02,2.517 2.97,2.63 2.883,2.71C2.861,2.733 2.837,2.754 2.811,2.772C2.805,2.776 2.8,2.781 2.794,2.785C2.702,2.861 2.61,2.937 2.517,3.011C2.087,3.356 1.635,3.68 1.174,3.972C0.865,4.17 0.562,4.392 0.273,4.631C0.194,4.698 0.096,4.73 0,4.73" style="fill:rgb(21,60,103);fill-rule:nonzero;"/>
                </g>
                <g transform="matrix(1,0,0,1,284.687,507.278)">
                    <path d="M0,7.213C-0.052,7.213 -0.104,7.204 -0.155,7.184C-0.215,7.161 -0.267,7.125 -0.31,7.08C-0.339,7.053 -0.364,7.021 -0.385,6.985C-0.387,6.982 -0.39,6.978 -0.392,6.975C-0.459,6.884 -0.525,6.801 -0.592,6.726C-0.956,6.282 -1.283,5.83 -1.575,5.372C-1.776,5.053 -1.996,4.745 -2.232,4.455C-2.381,4.271 -2.353,4.001 -2.169,3.852C-1.986,3.703 -1.716,3.731 -1.567,3.915C-1.309,4.232 -1.068,4.568 -0.851,4.914C-0.731,5.102 -0.604,5.29 -0.471,5.476L-0.471,0.428C-0.471,0.192 -0.279,0 -0.043,0C0.194,0 0.386,0.192 0.386,0.428L0.386,5.629L0.588,5.355L0.953,4.848C1.166,4.56 1.365,4.264 1.548,3.963C1.67,3.76 1.933,3.695 2.136,3.818C2.339,3.941 2.403,4.204 2.281,4.406C2.085,4.731 1.87,5.05 1.644,5.354L0.928,6.326L0.609,6.735C0.513,6.852 0.418,6.963 0.317,7.073C0.234,7.164 0.118,7.213 0,7.213" style="fill:rgb(21,60,103);fill-rule:nonzero;"/>
                </g>
                <g transform="matrix(1,0,0,1,279.788,518.516)">
                    <path d="M0,-4.725C0.076,-4.725 0.152,-4.705 0.221,-4.663C0.545,-4.467 0.864,-4.253 1.169,-4.027L1.879,-3.516L2.549,-2.991C2.667,-2.895 2.777,-2.8 2.888,-2.699C3.019,-2.58 3.063,-2.393 2.999,-2.228C2.976,-2.168 2.94,-2.115 2.895,-2.072C2.867,-2.043 2.835,-2.018 2.8,-1.997C2.796,-1.995 2.793,-1.992 2.79,-1.99C2.699,-1.924 2.616,-1.857 2.541,-1.791C2.097,-1.427 1.646,-1.1 1.187,-0.807C0.868,-0.606 0.56,-0.386 0.27,-0.15C0.086,0 -0.184,-0.029 -0.333,-0.213C-0.482,-0.396 -0.454,-0.666 -0.27,-0.815C0.046,-1.073 0.382,-1.313 0.729,-1.531C0.917,-1.651 1.105,-1.778 1.291,-1.911L-3.757,-1.911C-3.994,-1.911 -4.186,-2.103 -4.186,-2.34C-4.186,-2.576 -3.994,-2.768 -3.757,-2.768L1.444,-2.768L1.075,-3.038L0.663,-3.335C0.375,-3.549 0.079,-3.748 -0.222,-3.93C-0.425,-4.052 -0.49,-4.316 -0.367,-4.518C-0.286,-4.651 -0.145,-4.725 0,-4.725" style="fill:rgb(21,60,103);fill-rule:nonzero;"/>
                </g>
                <g transform="matrix(1,0,0,1,273.875,514.512)">
                    <path d="M0,-7.248C0.237,-7.248 0.429,-7.056 0.429,-6.82L0.429,-1.619L0.63,-1.892L0.995,-2.399C1.209,-2.687 1.408,-2.984 1.59,-3.285C1.713,-3.487 1.976,-3.553 2.179,-3.43C2.381,-3.307 2.446,-3.044 2.323,-2.841C2.127,-2.517 1.913,-2.198 1.687,-1.893L0.971,-0.922L0.651,-0.513C0.556,-0.396 0.46,-0.285 0.359,-0.174C0.24,-0.044 0.053,0 -0.112,-0.064C-0.172,-0.087 -0.225,-0.123 -0.267,-0.167C-0.297,-0.195 -0.322,-0.227 -0.342,-0.263C-0.345,-0.266 -0.347,-0.269 -0.35,-0.273C-0.416,-0.364 -0.483,-0.447 -0.549,-0.522C-0.913,-0.966 -1.24,-1.417 -1.533,-1.875C-1.733,-2.194 -1.954,-2.502 -2.19,-2.793C-2.339,-2.977 -2.311,-3.247 -2.127,-3.396C-1.943,-3.545 -1.673,-3.517 -1.524,-3.333C-1.267,-3.016 -1.026,-2.679 -0.809,-2.334C-0.688,-2.145 -0.561,-1.958 -0.428,-1.772L-0.428,-6.82C-0.428,-7.056 -0.237,-7.248 0,-7.248" style="fill:rgb(21,60,103);fill-rule:nonzero;"/>
                </g>
            </g>
        </g>
    </g>
</svg>
