<?xml version="1.0" encoding="UTF-8" standalone="no"?><!DOCTYPE svg PUBLIC "-//W3C//DTD SVG 1.1//EN" "http://www.w3.org/Graphics/SVG/1.1/DTD/svg11.dtd"><svg width="100%" height="100%" viewBox="0 0 30 30" version="1.1" xmlns="http://www.w3.org/2000/svg" xmlns:xlink="http://www.w3.org/1999/xlink" xml:space="preserve" xmlns:serif="http://www.serif.com/" style="fill-rule:evenodd;clip-rule:evenodd;stroke-linejoin:round;stroke-miterlimit:2;"><rect id="Export" x="0" y="0" width="30" height="30" style="fill:none;"/><clipPath id="_clip1"><rect x="0" y="0" width="30" height="30"/></clipPath><g clip-path="url(#_clip1)"><g><path d="M6.965,16.73l0.251,-9.472l3.799,0c2.089,0.015 4.194,0.023 6.314,0.023l1.556,0c2.441,0.031 4.92,0.061 7.436,0.091l0.709,0c1.048,0 2.085,0.008 3.112,0.023l0,9.472l-0.754,0c-1.312,0 -2.297,0.016 -2.952,0.046l-0.366,0l-0.983,0.023c-0.764,0.015 -1.717,0.015 -2.862,0l-5.124,-0.092l5.124,0.092c1.145,0.015 2.098,0.015 2.862,0l0.983,-0.023l0.366,0c0.655,-0.03 1.64,-0.046 2.952,-0.046l0.754,0l0,5.571c-0.64,-0.015 -1.281,-0.027 -1.922,-0.033c-1.403,-0.015 -2.807,-0.024 -4.209,-0.024c-2.823,0 -5.644,-0.06 -8.465,-0.183c-0.596,-0.015 -1.206,-0.029 -1.831,-0.045c-0.032,-0.214 -0.084,-0.443 -0.16,-0.687c-0.26,-0.533 -0.618,-0.923 -1.076,-1.167c-0.016,-0.014 -0.046,-0.03 -0.091,-0.046l-0.115,-0.045c-0.152,-0.092 -0.321,-0.16 -0.503,-0.206c-0.306,-0.061 -0.595,-0.045 -0.869,0.046c-0.839,0.183 -1.396,0.693 -1.671,1.533c-0.062,0.168 -0.099,0.328 -0.115,0.48c-0.732,-0.029 -1.464,-0.052 -2.196,-0.068l0.046,-5.263Zm3.981,5.972c-0.061,-0.061 -0.091,-0.13 -0.091,-0.205c-0.061,-0.214 -0.016,-0.406 0.137,-0.573c0.137,-0.168 0.32,-0.236 0.549,-0.206c0.076,0.015 0.144,0.045 0.206,0.092c0.137,0.06 0.237,0.167 0.297,0.32c0.031,0.168 0.015,0.328 -0.046,0.481c-0.121,0.198 -0.29,0.305 -0.502,0.32c-0.153,0.015 -0.283,0 -0.39,-0.046c-0.061,-0.062 -0.114,-0.121 -0.16,-0.183" style="fill:#fff;fill-rule:nonzero;"/><path d="M13.715,22.154c0.075,0.518 -0.062,1.029 -0.413,1.533c-0.534,0.732 -1.243,1.059 -2.128,0.983c-0.335,-0.03 -0.632,-0.13 -0.891,-0.297c-0.274,-0.153 -0.511,-0.344 -0.71,-0.572c-0.381,-0.55 -0.533,-1.129 -0.458,-1.738c0.016,-0.153 0.055,-0.313 0.114,-0.481c0.276,-0.838 0.832,-1.349 1.671,-1.531c0.274,-0.092 0.564,-0.107 0.87,-0.046c0.182,0.046 0.351,0.114 0.503,0.206l0.114,0.045c0.046,0.014 0.076,0.03 0.092,0.046c0.458,0.244 0.816,0.632 1.076,1.166c0.075,0.244 0.13,0.472 0.16,0.686m-3.432,2.219c-0.26,-0.153 -0.474,-0.344 -0.641,-0.572c-0.488,-0.655 -0.602,-1.387 -0.344,-2.196c0.26,-0.838 0.809,-1.342 1.648,-1.509c0.29,-0.107 0.58,-0.122 0.869,-0.045c0.169,0.03 0.321,0.082 0.458,0.16c-0.137,-0.078 -0.289,-0.13 -0.458,-0.16c-0.289,-0.077 -0.579,-0.062 -0.869,0.045c-0.839,0.167 -1.388,0.671 -1.648,1.509c-0.258,0.809 -0.144,1.541 0.344,2.196c0.167,0.228 0.381,0.419 0.641,0.572m0.663,-1.67c0.046,0.06 0.099,0.122 0.16,0.183c0.107,0.046 0.237,0.062 0.39,0.046c0.212,-0.016 0.381,-0.123 0.502,-0.321c0.061,-0.152 0.077,-0.311 0.046,-0.48c-0.06,-0.152 -0.16,-0.259 -0.297,-0.319c-0.062,-0.046 -0.13,-0.077 -0.206,-0.092c-0.23,-0.031 -0.412,0.037 -0.549,0.206c-0.153,0.167 -0.199,0.358 -0.137,0.571c0,0.077 0.03,0.145 0.091,0.206" style="fill:#153c67;fill-rule:nonzero;"/><path d="M11.417,25.367c-0.098,0 -0.2,-0.004 -0.301,-0.013c-0.441,-0.04 -0.839,-0.173 -1.186,-0.392c-0.335,-0.19 -0.631,-0.429 -0.875,-0.712c-0.017,-0.019 -0.031,-0.038 -0.045,-0.058c-0.324,-0.468 -0.518,-0.959 -0.578,-1.469c-0.51,-0.019 -1.018,-0.033 -1.527,-0.045c-0.375,-0.007 -0.675,-0.315 -0.672,-0.692l0.045,-5.261l0,-0.014l0.253,-9.471c0.009,-0.371 0.314,-0.668 0.685,-0.668l3.799,0c2.093,0.015 4.196,0.023 6.314,0.023l1.557,0l8.145,0.091c1.051,0 2.091,0.007 3.121,0.023c0.38,0.005 0.682,0.318 0.677,0.696c-0.006,0.38 -0.337,0.688 -0.697,0.677c-1.023,-0.016 -2.057,-0.023 -3.101,-0.023l-0.041,0l-0.215,8.155c0.627,-0.021 1.511,-0.033 2.612,-0.033l0.755,0c0.38,0 0.687,0.307 0.687,0.687c0,0.379 -0.307,0.686 -0.687,0.686l-0.755,0c-1.297,0 -2.279,0.016 -2.919,0.046l-0.398,0l-0.968,0.022c-0.769,0.016 -1.739,0.016 -2.885,0l-5.129,-0.091l-9.443,-0.107l-0.034,3.899c0.324,0.008 0.648,0.02 0.971,0.031c0.001,-0.003 0.002,-0.006 0.002,-0.007c0.34,-1.036 1.079,-1.72 2.135,-1.962c0.378,-0.119 0.777,-0.137 1.185,-0.056c0.257,0.063 0.473,0.149 0.67,0.261l0.069,0.026c0.07,0.023 0.144,0.06 0.211,0.107c0.561,0.313 1.005,0.799 1.317,1.443c0.016,0.031 0.029,0.063 0.039,0.095c0.023,0.075 0.044,0.147 0.064,0.219l1.289,0.033c2.811,0.121 5.649,0.182 8.447,0.182c1.406,0 2.813,0.007 4.219,0.023c0.643,0.007 1.287,0.019 1.93,0.034c0.38,0.01 0.68,0.326 0.67,0.704c-0.01,0.379 -0.334,0.678 -0.704,0.669c-0.636,-0.016 -1.274,-0.027 -1.912,-0.034c-1.401,-0.016 -2.801,-0.023 -4.203,-0.023c-2.818,0 -5.676,-0.061 -8.495,-0.184l-1.128,-0.027c-0.07,0.416 -0.244,0.825 -0.521,1.221c-0.62,0.851 -1.46,1.289 -2.449,1.289m-0.759,-1.568c0.165,0.105 0.355,0.167 0.579,0.188c0.64,0.054 1.12,-0.17 1.511,-0.705c0.242,-0.347 0.337,-0.686 0.287,-1.029l0,-0.004c-0.024,-0.161 -0.064,-0.338 -0.12,-0.528c-0.194,-0.38 -0.442,-0.647 -0.759,-0.815c-0.011,-0.007 -0.023,-0.013 -0.034,-0.02l-0.087,-0.034c-0.033,-0.012 -0.064,-0.026 -0.096,-0.044c-0.071,-0.04 -0.152,-0.068 -0.247,-0.085c-0.017,-0.002 -0.034,-0.007 -0.051,-0.011c-0.154,-0.041 -0.3,-0.033 -0.458,0.026c-0.033,0.012 -0.067,0.022 -0.103,0.028c-0.593,0.119 -0.94,0.44 -1.126,1.04c-0.194,0.606 -0.117,1.106 0.239,1.584c0.115,0.159 0.258,0.284 0.438,0.39c0.01,0.006 0.018,0.011 0.027,0.019m7.145,-7.628l4.435,0.079c1.129,0.015 2.082,0.015 2.834,0l0.328,-0.007l0.217,-8.193l-7.617,-0.083l-0.197,8.204Zm-10.133,-0.12l8.76,0.1l0.197,-8.184c-1.885,-0.001 -3.757,-0.01 -5.617,-0.022l-3.125,0l-0.215,8.106Z" style="fill:#153c67;fill-rule:nonzero;"/></g></g></svg>