<?xml version="1.0" encoding="UTF-8" standalone="no"?><!DOCTYPE svg PUBLIC "-//W3C//DTD SVG 1.1//EN" "http://www.w3.org/Graphics/SVG/1.1/DTD/svg11.dtd"><svg width="100%" height="100%" viewBox="0 0 30 30" version="1.1" xmlns="http://www.w3.org/2000/svg" xmlns:xlink="http://www.w3.org/1999/xlink" xml:space="preserve" xmlns:serif="http://www.serif.com/" style="fill-rule:evenodd;clip-rule:evenodd;stroke-linejoin:round;stroke-miterlimit:2;"><rect id="Export" x="0" y="0" width="30" height="30" style="fill:none;"/><g><clipPath id="_clip1"><path d="M-1.811,14.999c0,9.286 7.527,16.811 16.811,16.811c9.284,0 16.811,-7.525 16.811,-16.811c0,-9.283 -7.527,-16.809 -16.811,-16.809c-9.284,0 -16.811,7.526 -16.811,16.809Z" clip-rule="nonzero"/></clipPath><g clip-path="url(#_clip1)"><path d="M10.296,13.632c0.631,-0.541 1.333,-0.876 2.105,-1.005c0.707,-0.14 1.409,-0.096 2.104,0.135c0.708,0.272 1.249,0.709 1.622,1.313c0.475,0.786 0.508,1.532 0.096,2.24c-0.411,0.695 -0.933,1.248 -1.564,1.66c-0.67,0.438 -1.313,0.837 -1.93,1.196l-1.872,1.083l0.135,0.056l2.296,1.411l-0.096,0.115c-0.258,0.36 -0.438,0.631 -0.541,0.811l-0.172,0.27l-4.287,-2.47l0.965,-1.43l1.043,-0.405c0.631,-0.258 1.312,-0.578 2.046,-0.965c0.67,-0.334 1.243,-0.797 1.718,-1.389c0.271,-0.297 0.367,-0.682 0.289,-1.159c-0.09,-0.477 -0.449,-0.766 -1.08,-0.869c-0.657,-0.116 -1.28,0.033 -1.872,0.443l-0.116,-0.135c-0.168,-0.205 -0.381,-0.43 -0.638,-0.676l0,0c0.257,0.246 0.47,0.471 0.638,0.676l0.116,0.135c0.592,-0.41 1.215,-0.559 1.872,-0.443c0.631,0.103 0.99,0.392 1.08,0.869c0.078,0.477 -0.018,0.862 -0.289,1.159c-0.475,0.592 -1.048,1.055 -1.718,1.389c-0.734,0.387 -1.415,0.707 -2.046,0.965l-1.043,0.405l-0.965,1.43l4.287,2.47l0.172,-0.27c0.103,-0.18 0.283,-0.451 0.541,-0.811l0.096,-0.115l-2.296,-1.411l-0.135,-0.056l1.872,-1.083c0.617,-0.359 1.26,-0.758 1.93,-1.196c0.631,-0.412 1.153,-0.965 1.564,-1.66c0.412,-0.708 0.379,-1.454 -0.096,-2.24c-0.373,-0.604 -0.914,-1.041 -1.622,-1.313c-0.695,-0.231 -1.397,-0.275 -2.104,-0.135c-0.772,0.129 -1.474,0.464 -2.105,1.005m7.607,-0.87c0.836,0.85 1.395,1.821 1.679,2.916c0.206,0.836 0.257,1.725 0.154,2.664c-0.231,2.226 -1.364,3.957 -3.396,5.192c-1.919,1.185 -3.92,1.397 -6.005,0.637c-0.347,-0.128 -0.625,-0.244 -0.83,-0.347c-2.046,-1.093 -3.32,-2.773 -3.822,-5.038l0.019,-0.039c-0.09,-0.348 -0.154,-0.733 -0.193,-1.158c-0.013,-0.464 0,-0.843 0.039,-1.14c0.012,-0.244 0.057,-0.508 0.135,-0.791c0.244,-1.081 0.778,-2.097 1.602,-3.05c1.48,-1.634 3.236,-2.394 5.27,-2.278c2.059,0.09 3.842,0.9 5.348,2.432" style="fill:#d1d3d4;fill-rule:nonzero;"/><path d="M12.741,25.239c-0.862,0 -1.735,-0.161 -2.618,-0.483c-0.375,-0.138 -0.667,-0.261 -0.897,-0.375c-2.218,-1.187 -3.61,-3.021 -4.15,-5.46c-0.013,-0.057 -0.018,-0.115 -0.013,-0.172c-0.08,-0.339 -0.137,-0.709 -0.173,-1.103c-0.016,-0.526 -0.003,-0.925 0.038,-1.252c0.016,-0.28 0.069,-0.583 0.154,-0.899c0.259,-1.15 0.846,-2.268 1.733,-3.293c1.616,-1.784 3.555,-2.617 5.776,-2.493c2.204,0.096 4.142,0.978 5.754,2.617c0.912,0.925 1.529,2 1.839,3.196c0.224,0.911 0.281,1.879 0.171,2.888c-0.251,2.416 -1.494,4.32 -3.693,5.657c-1.265,0.781 -2.576,1.172 -3.921,1.172m-6.419,-6.447c0.485,2.025 1.623,3.494 3.476,4.485c0.17,0.084 0.428,0.192 0.753,0.312c1.911,0.695 3.698,0.505 5.461,-0.583c1.879,-1.143 2.894,-2.688 3.105,-4.728c0.096,-0.866 0.048,-1.691 -0.139,-2.452c-0.252,-0.974 -0.763,-1.86 -1.518,-2.627c-1.405,-1.429 -3.018,-2.163 -4.932,-2.247c-1.863,-0.107 -3.421,0.572 -4.782,2.074c-0.744,0.859 -1.237,1.794 -1.457,2.77c-0.072,0.267 -0.11,0.489 -0.12,0.685c-0.002,0.017 -0.003,0.033 -0.005,0.05c-0.034,0.262 -0.045,0.613 -0.034,1.041c0.034,0.349 0.093,0.706 0.174,1.019c0.018,0.066 0.024,0.134 0.018,0.201m6.155,4.747c-0.104,0 -0.212,-0.027 -0.31,-0.084l-4.285,-2.47c-0.15,-0.087 -0.256,-0.231 -0.295,-0.399c-0.039,-0.167 -0.006,-0.344 0.09,-0.488l0.965,-1.429c0.07,-0.105 0.172,-0.185 0.291,-0.23l1.041,-0.407c0.6,-0.244 1.27,-0.56 1.983,-0.935c0.597,-0.298 1.105,-0.71 1.523,-1.229c0.113,-0.126 0.221,-0.295 0.161,-0.67c-0.015,-0.076 -0.053,-0.27 -0.569,-0.354c-0.5,-0.088 -0.962,0.023 -1.416,0.341c-0.262,0.181 -0.62,0.136 -0.829,-0.107l-0.115,-0.135c-0.159,-0.196 -0.355,-0.403 -0.592,-0.629l-0.246,-0.225c-0.13,-0.121 -0.202,-0.291 -0.199,-0.469c0.003,-0.177 0.082,-0.345 0.217,-0.46c0.715,-0.613 1.524,-0.999 2.407,-1.145c0.791,-0.159 1.607,-0.107 2.403,0.158c0.86,0.327 1.509,0.855 1.954,1.576c0.595,0.981 0.63,1.975 0.105,2.879c-0.462,0.778 -1.054,1.406 -1.761,1.868c-0.674,0.44 -1.332,0.848 -1.957,1.214l-0.949,0.547l1.52,0.933c0.154,0.095 0.259,0.251 0.287,0.429c0.03,0.178 -0.019,0.36 -0.135,0.499l-0.08,0.098c-0.294,0.412 -0.432,0.629 -0.494,0.74l-0.191,0.297c-0.117,0.184 -0.318,0.286 -0.524,0.286m-3.396,-3.297l3.19,1.837c0.036,-0.055 0.075,-0.115 0.12,-0.18l-1.78,-1.074c-0.215,-0.093 -0.362,-0.3 -0.376,-0.535c-0.013,-0.234 0.107,-0.458 0.31,-0.576l1.873,-1.081c0.605,-0.352 1.245,-0.749 1.902,-1.178c0.547,-0.358 1.007,-0.848 1.368,-1.457c0.292,-0.502 0.264,-1.011 -0.093,-1.6c-0.3,-0.486 -0.73,-0.832 -1.311,-1.054c-0.572,-0.19 -1.156,-0.228 -1.762,-0.106c-0.457,0.076 -0.87,0.227 -1.259,0.458c0.06,0.062 0.117,0.122 0.17,0.18c0.587,-0.285 1.208,-0.372 1.848,-0.258c1.19,0.194 1.503,0.939 1.584,1.366c0.138,0.851 -0.163,1.389 -0.442,1.692c-0.505,0.631 -1.153,1.154 -1.899,1.527c-0.736,0.388 -1.443,0.721 -2.089,0.985l-0.871,0.339l-0.483,0.715Z" style="fill:#153c67;fill-rule:nonzero;"/><path d="M20.215,5.957c0.415,0.151 0.802,0.331 1.16,0.538c0.333,0.179 0.672,0.407 1.017,0.685c0.179,0.137 0.4,0.331 0.664,0.58c0.828,0.87 1.429,1.962 1.803,3.275c0.635,2.279 0.296,4.325 -1.017,6.136c-1.284,1.824 -3.06,2.978 -5.326,3.461c-1.285,0.277 -2.508,0.221 -3.67,-0.165c-0.897,-0.318 -1.74,-0.795 -2.528,-1.432c-1.878,-1.546 -2.797,-3.613 -2.757,-6.197c0.069,-2.445 1.059,-4.387 2.965,-5.825c0.234,-0.193 0.511,-0.379 0.829,-0.559c2.182,-1.23 4.456,-1.403 6.818,-0.518l0.042,0.021Zm-1.969,3.108l0,0c-0.427,0.18 -0.745,0.325 -0.954,0.436l-0.434,0.186c-0.138,0.042 -0.339,0.119 -0.601,0.228l-0.622,0.333l0.166,0.434c0.138,0.347 0.234,0.601 0.289,0.768l0.27,0.704l0.415,-0.082c0.207,-0.015 0.393,-0.021 0.559,-0.021c0.414,0.04 0.829,0.117 1.244,0.228c0.429,0.124 0.808,0.346 1.14,0.664c0.317,0.317 0.532,0.691 0.643,1.118c0.069,0.18 0.124,0.38 0.164,0.601c0.056,0.457 0.015,0.884 -0.122,1.286c-0.042,0.124 -0.111,0.304 -0.209,0.538c-0.165,0.373 -0.4,0.74 -0.704,1.099c-0.276,0.304 -0.615,0.574 -1.016,0.809l-0.85,0.456c-0.014,-0.014 -0.117,-0.263 -0.311,-0.747l-0.206,-0.58c0.386,-0.222 0.739,-0.463 1.056,-0.725c0.125,-0.125 0.27,-0.291 0.436,-0.498c0.276,-0.331 0.393,-0.704 0.353,-1.12c-0.015,-0.193 -0.056,-0.365 -0.125,-0.518c-0.18,-0.4 -0.463,-0.67 -0.85,-0.808c-0.359,-0.138 -0.761,-0.186 -1.202,-0.145c-0.332,0.041 -0.664,0.118 -0.995,0.227l-0.704,0.333l-1.244,-2.633c-0.318,-0.705 -0.643,-1.402 -0.975,-2.094c0.152,-0.083 0.374,-0.186 0.664,-0.311c0.192,-0.082 0.324,-0.137 0.393,-0.166l3.026,-1.347c0.222,-0.11 0.45,-0.207 0.684,-0.29c0.25,-0.097 0.616,-0.235 1.098,-0.415l0,0c-0.482,0.18 -0.848,0.318 -1.098,0.415c-0.234,0.083 -0.462,0.18 -0.684,0.29l-3.026,1.347c-0.069,0.029 -0.201,0.084 -0.393,0.166c-0.29,0.125 -0.512,0.228 -0.664,0.311c0.332,0.692 0.657,1.389 0.975,2.094l1.244,2.633l0.704,-0.333c0.331,-0.109 0.663,-0.186 0.995,-0.227c0.441,-0.041 0.843,0.007 1.202,0.145c0.387,0.138 0.67,0.408 0.85,0.808c0.069,0.153 0.11,0.325 0.125,0.518c0.04,0.416 -0.077,0.789 -0.353,1.12c-0.166,0.207 -0.311,0.373 -0.436,0.498c-0.317,0.262 -0.67,0.503 -1.056,0.725l0.206,0.58c0.194,0.484 0.297,0.733 0.311,0.747l0.85,-0.456c0.401,-0.235 0.74,-0.505 1.016,-0.809c0.304,-0.359 0.539,-0.726 0.704,-1.099c0.098,-0.234 0.167,-0.414 0.209,-0.538c0.137,-0.402 0.178,-0.829 0.122,-1.286c-0.04,-0.221 -0.095,-0.421 -0.164,-0.601c-0.111,-0.427 -0.326,-0.801 -0.643,-1.118c-0.332,-0.318 -0.711,-0.54 -1.14,-0.664c-0.415,-0.111 -0.83,-0.188 -1.244,-0.228c-0.166,0 -0.352,0.006 -0.559,0.021l-0.415,0.082l-0.27,-0.704c-0.055,-0.167 -0.151,-0.421 -0.289,-0.768l-0.166,-0.434l0.622,-0.333c0.262,-0.109 0.463,-0.186 0.601,-0.228l0.434,-0.186c0.209,-0.111 0.527,-0.256 0.954,-0.436Z" style="fill:#d1d3d4;fill-rule:nonzero;"/><path d="M16.944,21.426c-0.787,0 -1.555,-0.123 -2.294,-0.37c-0.972,-0.344 -1.884,-0.859 -2.723,-1.537c-2.029,-1.669 -3.032,-3.919 -2.989,-6.69c0.075,-2.641 1.156,-4.762 3.212,-6.312c0.242,-0.199 0.55,-0.408 0.898,-0.604c2.341,-1.319 4.813,-1.508 7.343,-0.559c0.021,0.007 0.04,0.016 0.06,0.025l0.012,0.006c0.433,0.161 0.845,0.354 1.223,0.571c0.349,0.189 0.721,0.44 1.094,0.738c0.187,0.144 0.421,0.348 0.703,0.614c0.917,0.963 1.574,2.151 1.972,3.557c0.688,2.464 0.314,4.708 -1.11,6.67c-1.367,1.941 -3.286,3.191 -5.7,3.705c-0.576,0.124 -1.144,0.186 -1.701,0.186m0.305,-15.428c-1.22,0 -2.41,0.333 -3.589,0.999c-0.285,0.16 -0.534,0.328 -0.741,0.497c-1.785,1.346 -2.672,3.094 -2.737,5.362c-0.039,2.399 0.789,4.267 2.53,5.7c0.726,0.584 1.514,1.031 2.342,1.325c1.037,0.344 2.161,0.395 3.33,0.143c2.128,-0.454 3.747,-1.504 4.949,-3.212c1.213,-1.671 1.514,-3.502 0.926,-5.61c-0.343,-1.206 -0.9,-2.221 -1.654,-3.012c-0.225,-0.212 -0.432,-0.393 -0.592,-0.517c-0.326,-0.26 -0.636,-0.47 -0.934,-0.631c-0.34,-0.197 -0.699,-0.363 -1.078,-0.501c-0.022,-0.009 -0.043,-0.018 -0.064,-0.029l-0.012,-0.006c-0.913,-0.337 -1.802,-0.508 -2.676,-0.508m0.375,13.473c-0.162,0 -0.321,-0.063 -0.441,-0.182c-0.105,-0.104 -0.111,-0.111 -0.448,-0.955l-0.216,-0.603c-0.1,-0.283 0.017,-0.599 0.278,-0.748c0.344,-0.198 0.662,-0.413 0.947,-0.646c0.102,-0.105 0.226,-0.247 0.369,-0.425c0.177,-0.213 0.242,-0.423 0.218,-0.67c-0.01,-0.135 -0.033,-0.239 -0.071,-0.323c-0.111,-0.247 -0.267,-0.398 -0.494,-0.479c-0.28,-0.108 -0.59,-0.144 -0.933,-0.111c-0.26,0.031 -0.543,0.096 -0.823,0.187l-0.67,0.315c-0.31,0.145 -0.681,0.013 -0.828,-0.297l-1.244,-2.632c-0.32,-0.71 -0.643,-1.404 -0.972,-2.091c-0.144,-0.298 -0.027,-0.656 0.263,-0.815c0.171,-0.093 0.405,-0.202 0.715,-0.336c0.2,-0.085 0.336,-0.142 0.407,-0.171l3.006,-1.338c0.218,-0.111 0.471,-0.217 0.729,-0.309c0.233,-0.091 0.602,-0.231 1.089,-0.412l0.263,-0.1c0.308,-0.119 0.656,0.024 0.791,0.326l0.704,1.576c0.071,0.154 0.074,0.329 0.009,0.487c-0.062,0.157 -0.187,0.282 -0.344,0.344l-1.451,0.581c-0.399,0.166 -0.702,0.304 -0.892,0.406c-0.016,0.009 -0.031,0.016 -0.048,0.022l-0.435,0.188c-0.022,0.009 -0.045,0.016 -0.067,0.024c-0.076,0.022 -0.228,0.074 -0.513,0.194l-0.111,0.059c0.125,0.315 0.215,0.556 0.269,0.716l0.075,0.197c0.24,-0.017 0.451,-0.038 0.64,-0.018c0.445,0.045 0.896,0.127 1.343,0.245c0.536,0.156 1.005,0.429 1.41,0.816c0.397,0.397 0.664,0.857 0.805,1.379c0.076,0.207 0.139,0.434 0.184,0.676c0.072,0.587 0.021,1.113 -0.148,1.602c-0.042,0.127 -0.115,0.321 -0.22,0.573c-0.195,0.442 -0.465,0.861 -0.805,1.263c-0.332,0.366 -0.723,0.678 -1.175,0.944l-0.871,0.468c-0.093,0.049 -0.194,0.073 -0.294,0.073m0.237,-1.681l0.037,0.105c0.012,0.028 0.023,0.057 0.035,0.084l0.247,-0.134c0.324,-0.19 0.618,-0.423 0.848,-0.677c0.251,-0.297 0.456,-0.616 0.598,-0.934c0.083,-0.201 0.147,-0.367 0.185,-0.483c0.111,-0.32 0.142,-0.65 0.097,-1.013c-0.028,-0.144 -0.073,-0.309 -0.129,-0.454c-0.009,-0.023 -0.015,-0.045 -0.021,-0.068c-0.084,-0.32 -0.239,-0.595 -0.481,-0.834c-0.252,-0.242 -0.539,-0.41 -0.874,-0.505c-0.358,-0.096 -0.731,-0.165 -1.1,-0.204c-0.135,0 -0.285,0.006 -0.448,0.016l-0.373,0.075c-0.301,0.06 -0.595,-0.105 -0.703,-0.388l-0.27,-0.705c-0.063,-0.184 -0.154,-0.428 -0.286,-0.758l-0.169,-0.444c-0.113,-0.293 0.01,-0.623 0.287,-0.77l0.622,-0.331c0.017,-0.011 0.033,-0.018 0.051,-0.026c0.266,-0.111 0.472,-0.19 0.628,-0.24l0.381,-0.163c0.226,-0.118 0.549,-0.265 0.982,-0.447l0.86,-0.344l-0.202,-0.448c-0.348,0.13 -0.618,0.232 -0.814,0.308c-0.228,0.081 -0.433,0.168 -0.631,0.267l-3.052,1.36c-0.087,0.034 -0.214,0.088 -0.401,0.167c-0.027,0.012 -0.054,0.024 -0.08,0.035c0.241,0.511 0.478,1.025 0.712,1.544l0.974,2.061l0.143,-0.068c0.022,-0.01 0.045,-0.019 0.069,-0.027c0.37,-0.123 0.745,-0.21 1.115,-0.255c0.554,-0.052 1.053,0.009 1.502,0.182c0.529,0.189 0.947,0.583 1.194,1.134c0.098,0.218 0.158,0.463 0.177,0.729c0.057,0.566 -0.109,1.097 -0.495,1.562c-0.176,0.218 -0.334,0.398 -0.475,0.539c-0.013,0.014 -0.028,0.027 -0.043,0.039c-0.216,0.18 -0.45,0.351 -0.697,0.513" style="fill:#153c67;fill-rule:nonzero;"/></g></g></svg>