<?xml version="1.0" encoding="UTF-8" standalone="no"?>
<!DOCTYPE svg PUBLIC "-//W3C//DTD SVG 1.1//EN" "http://www.w3.org/Graphics/SVG/1.1/DTD/svg11.dtd">
<svg width="100%" height="100%" viewBox="0 0 125 125" version="1.1" xmlns="http://www.w3.org/2000/svg" xmlns:xlink="http://www.w3.org/1999/xlink" xml:space="preserve" xmlns:serif="http://www.serif.com/" style="fill-rule:evenodd;clip-rule:evenodd;stroke-linejoin:round;stroke-miterlimit:2;">
    <g transform="matrix(1,0,0,1,0,-652.387)">
        <g id="Export" transform="matrix(0.250552,0,0,0.176389,0,652.387)">
            <rect x="0" y="0" width="498.898" height="708.662" style="fill:none;"/>
            <clipPath id="_clip1">
                <rect x="0" y="0" width="498.898" height="708.662"/>
            </clipPath>
            <g clip-path="url(#_clip1)">
                <g transform="matrix(22.5843,0,0,32.08,402.448,506.099)">
                    <path d="M0,-0.752C0,-0.919 -0.013,-1.75 -0.038,-3.256L-0.039,-3.397C0,-4.119 0.019,-4.804 0.019,-5.447C0.006,-6.068 0,-6.752 0,-7.499C0,-8.245 -0.019,-8.988 -0.058,-9.706C-0.064,-9.832 -0.111,-9.956 -0.2,-10.057C-0.209,-10.067 -0.218,-10.077 -0.227,-10.086C-0.291,-10.149 -0.366,-10.195 -0.447,-10.222C-0.504,-10.241 -0.566,-10.252 -0.631,-10.252L-2.103,-10.252C-2.335,-10.252 -2.574,-10.258 -2.816,-10.27C-3.263,-10.295 -3.717,-10.284 -4.174,-10.307C-4.49,-10.335 -4.818,-10.342 -5.123,-10.328L-6.786,-10.328C-6.909,-10.328 -7.033,-10.322 -7.157,-10.31C-9.498,-10.335 -11.051,-10.36 -11.785,-10.386C-12.607,-10.398 -13.445,-10.392 -14.277,-10.366C-14.402,-10.362 -14.522,-10.318 -14.619,-10.24C-15.477,-9.549 -16.179,-8.956 -16.71,-8.477C-17.14,-8.086 -17.569,-7.676 -17.988,-7.258C-18.781,-6.618 -19.443,-6.062 -19.955,-5.605C-20.191,-5.394 -20.212,-5.031 -20.001,-4.795C-19.79,-4.559 -19.427,-4.538 -19.191,-4.749C-18.72,-5.17 -18.116,-5.678 -17.395,-6.263C-16.644,-6.283 -15.89,-6.288 -15.159,-6.277C-14.6,-6.257 -13.577,-6.238 -12.051,-6.218C-12.38,-5.94 -12.672,-5.686 -12.925,-5.457C-13.338,-5.082 -13.75,-4.689 -14.153,-4.288L-15.471,-4.288C-16.065,-4.301 -16.66,-4.32 -17.279,-4.345C-17.772,-4.345 -18.279,-4.364 -18.8,-4.402C-19.051,-4.414 -19.303,-4.424 -19.556,-4.431C-19.864,-4.442 -20.137,-4.191 -20.146,-3.875C-20.155,-3.558 -19.906,-3.294 -19.59,-3.285C-19.343,-3.278 -19.098,-3.268 -18.87,-3.258C-18.335,-3.219 -17.817,-3.193 -17.304,-3.199C-16.701,-3.174 -16.098,-3.154 -15.483,-3.141L-14.393,-3.141L-14.393,2.539C-15.112,2.522 -15.804,2.508 -16.468,2.497C-17.325,2.485 -18.131,2.478 -18.885,2.478L-19.573,2.478C-19.89,2.478 -20.146,2.735 -20.146,3.052C-20.146,3.368 -19.89,3.625 -19.573,3.625L-18.885,3.625C-18.136,3.625 -17.336,3.632 -16.485,3.644C-15.816,3.654 -15.119,3.668 -14.393,3.687L-14.393,8.117C-14.393,8.434 -14.136,8.69 -13.82,8.69C-13.503,8.69 -13.246,8.434 -13.246,8.117L-13.246,3.692C-12.099,3.677 -10.797,3.68 -9.375,3.702C-8.721,3.712 -8.051,3.726 -7.365,3.744C-7.348,4.027 -7.34,4.304 -7.339,4.585C-7.314,5.206 -7.295,5.82 -7.283,6.416L-7.283,9.073C-7.283,9.389 -7.026,9.646 -6.709,9.646C-6.567,9.646 -6.437,9.594 -6.336,9.509C-6.229,9.601 -6.096,9.646 -5.964,9.646C-5.809,9.646 -5.655,9.584 -5.542,9.461C-5.231,9.123 -4.915,8.789 -4.603,8.465L-3.291,7.152C-3.271,7.134 -3.252,7.115 -3.235,7.095L-2.705,6.489C-2.331,6.066 -1.945,5.648 -1.569,5.26C-1.108,4.812 -0.654,4.364 -0.206,3.916C-0.099,3.808 -0.038,3.663 -0.038,3.51L-0.039,3.35C0,2.628 0.019,1.943 0.019,1.301C0.006,0.667 0,-0.017 0,-0.752M-15.13,-7.423C-15.402,-7.427 -15.676,-7.429 -15.952,-7.429L-16.156,-7.429C-16.084,-7.496 -16.012,-7.562 -15.939,-7.628C-15.457,-8.063 -14.822,-8.6 -14.049,-9.225C-13.299,-9.246 -12.545,-9.25 -11.813,-9.239C-11.246,-9.22 -10.223,-9.2 -8.706,-9.181C-9.035,-8.903 -9.327,-8.648 -9.58,-8.42C-9.959,-8.075 -10.337,-7.716 -10.709,-7.349C-12.946,-7.374 -14.43,-7.398 -15.13,-7.423M-7.283,2.599C-7.991,2.58 -8.682,2.565 -9.357,2.555C-10.201,2.542 -11.001,2.536 -11.755,2.536C-12.278,2.536 -12.775,2.539 -13.246,2.545L-13.246,-3.237C-12.734,-3.236 -12.224,-3.224 -11.74,-3.2C-11.204,-3.161 -10.679,-3.139 -10.174,-3.142C-9.567,-3.116 -8.954,-3.103 -8.353,-3.103L-7.372,-3.103C-7.35,-2.786 -7.34,-2.476 -7.339,-2.162C-7.314,-1.542 -7.295,-0.927 -7.283,-0.331L-7.283,2.599ZM-7.037,-4.25L-8.353,-4.25C-8.938,-4.25 -9.534,-4.263 -10.15,-4.288C-10.642,-4.288 -11.149,-4.307 -11.67,-4.345C-11.914,-4.357 -12.162,-4.366 -12.411,-4.372C-12.325,-4.452 -12.24,-4.53 -12.155,-4.608C-11.67,-5.045 -11.031,-5.586 -10.252,-6.216C-10.211,-6.218 -10.171,-6.219 -10.131,-6.219L-8.444,-6.219C-8.164,-6.231 -7.886,-6.225 -7.599,-6.2C-7.102,-6.174 -6.673,-6.187 -6.222,-6.162C-5.957,-6.149 -5.699,-6.142 -5.448,-6.142L-5.083,-6.142L-7.037,-4.25ZM-4.224,6.282C-4.224,6.343 -4.226,6.405 -4.228,6.469L-5.42,7.661C-5.661,7.91 -5.9,8.161 -6.136,8.414L-6.136,6.404C-6.149,5.789 -6.168,5.167 -6.193,4.562C-6.193,4.227 -6.206,3.873 -6.231,3.509L-6.231,3.507C-6.068,3.31 -5.906,3.119 -5.75,2.94C-5.375,2.528 -4.987,2.115 -4.609,1.724C-4.469,1.588 -4.33,1.452 -4.193,1.316C-4.198,2.804 -4.196,3.8 -4.186,4.287C-4.173,4.895 -4.186,5.556 -4.224,6.282M-4.224,-0.465C-4.224,-0.403 -4.226,-0.34 -4.229,-0.275C-4.611,0.117 -5.008,0.513 -5.42,0.913C-5.66,1.161 -5.899,1.412 -6.136,1.667L-6.136,-0.343C-6.149,-0.959 -6.168,-1.581 -6.193,-2.186C-6.193,-2.521 -6.206,-2.875 -6.231,-3.238L-6.231,-3.434L-4.214,-5.388C-4.208,-5.104 -4.205,-4.82 -4.205,-4.537C-4.205,-3.781 -4.199,-3.088 -4.186,-2.461C-4.173,-1.852 -4.186,-1.191 -4.224,-0.465M-3.903,-7.289L-5.448,-7.289C-5.68,-7.289 -5.919,-7.295 -6.161,-7.307C-6.608,-7.332 -7.062,-7.321 -7.519,-7.344C-7.732,-7.363 -7.951,-7.372 -8.164,-7.372C-8.267,-7.372 -8.368,-7.37 -8.468,-7.366L-9.033,-7.366C-8.958,-7.435 -8.884,-7.503 -8.81,-7.571C-8.325,-8.008 -7.686,-8.548 -6.907,-9.179C-6.866,-9.181 -6.826,-9.182 -6.786,-9.182L-5.099,-9.182C-4.818,-9.193 -4.541,-9.188 -4.254,-9.163C-3.757,-9.137 -3.328,-9.15 -2.877,-9.125C-2.612,-9.112 -2.354,-9.105 -2.103,-9.105L-2.04,-9.105L-3.903,-7.289ZM-1.183,3.27C-1.573,3.659 -1.97,4.05 -2.381,4.45C-2.601,4.677 -2.82,4.909 -3.037,5.145C-3.033,4.842 -3.034,4.547 -3.039,4.263C-3.052,3.666 -3.052,2.276 -3.04,0.131L-2.705,-0.258C-2.329,-0.683 -1.943,-1.101 -1.569,-1.488C-1.433,-1.62 -1.297,-1.752 -1.163,-1.884C-1.152,-1.235 -1.147,-0.858 -1.147,-0.752C-1.147,-0.009 -1.141,0.683 -1.128,1.312C-1.128,1.909 -1.146,2.558 -1.183,3.27M-1.183,-3.477C-1.573,-3.088 -1.97,-2.698 -2.381,-2.298C-2.6,-2.072 -2.819,-1.839 -3.037,-1.602C-3.033,-1.905 -3.034,-2.2 -3.039,-2.484C-3.052,-3.105 -3.058,-3.789 -3.058,-4.537C-3.058,-5.183 -3.073,-5.831 -3.103,-6.467L-1.156,-8.366C-1.15,-8.078 -1.147,-7.789 -1.147,-7.499C-1.147,-6.743 -1.141,-6.051 -1.128,-5.435C-1.128,-4.839 -1.146,-4.19 -1.183,-3.477" style="fill:rgb(21,60,103);fill-rule:nonzero;"/>
                </g>
            </g>
        </g>
    </g>
</svg>
