<?xml version="1.0" encoding="UTF-8" standalone="no"?>
<!DOCTYPE svg PUBLIC "-//W3C//DTD SVG 1.1//EN" "http://www.w3.org/Graphics/SVG/1.1/DTD/svg11.dtd">
<svg width="100%" height="100%" viewBox="0 0 125 125" version="1.1" xmlns="http://www.w3.org/2000/svg" xmlns:xlink="http://www.w3.org/1999/xlink" xml:space="preserve" xmlns:serif="http://www.serif.com/" style="fill-rule:evenodd;clip-rule:evenodd;stroke-linejoin:round;stroke-miterlimit:2;">
    <g transform="matrix(1,0,0,1,0,-652.387)">
        <g id="Export" transform="matrix(0.250552,0,0,0.176389,0,652.387)">
            <rect x="0" y="0" width="498.898" height="708.662" style="fill:none;"/>
            <clipPath id="_clip1">
                <rect x="0" y="0" width="498.898" height="708.662"/>
            </clipPath>
            <g clip-path="url(#_clip1)">
                <g transform="matrix(25.029,0,0,35.5526,495.237,421.751)">
                    <path d="M0,0.14L-1.18,0.108C-1.576,0.1 -1.972,0.095 -2.368,0.093L-2.368,-0.735C-2.368,-1.51 -2.364,-2.284 -2.357,-3.058L-1.636,-3.058C-1.108,-3.058 -0.57,-3.053 -0.021,-3.043C0.234,-3.046 0.46,-3.248 0.465,-3.511C0.47,-3.775 0.26,-3.993 -0.004,-3.998C-0.558,-4.008 -1.102,-4.013 -1.636,-4.013L-2.345,-4.013C-2.33,-5.103 -2.322,-6.196 -2.32,-7.275L-0.951,-7.275C-0.688,-7.275 -0.474,-7.489 -0.474,-7.752C-0.474,-8.016 -0.688,-8.23 -0.951,-8.23L-6.848,-8.23C-8.377,-8.251 -9.772,-8.267 -11.031,-8.278L-11.032,-8.278C-12.177,-8.299 -13.231,-8.32 -14.206,-8.342L-15.225,-8.342C-15.486,-8.342 -15.698,-8.132 -15.702,-7.871C-15.723,-6.486 -15.734,-5.075 -15.734,-3.68L-15.734,-3.679C-15.734,-2.298 -15.712,-0.89 -15.67,0.49L-15.67,0.904C-15.67,2.122 -15.654,3.383 -15.622,4.653L-15.622,4.658C-15.608,5.242 -15.594,5.835 -15.583,6.434C-15.577,6.698 -15.371,6.908 -15.096,6.902C-14.832,6.897 -14.623,6.679 -14.628,6.416C-14.637,5.981 -14.646,5.549 -14.656,5.122C-13.594,5.14 -12.511,5.149 -11.429,5.151C-11.412,6.075 -11.399,7.027 -11.39,8.005C-11.387,8.269 -11.167,8.482 -10.908,8.478C-10.644,8.476 -10.432,8.26 -10.435,7.996C-10.444,7.021 -10.457,6.073 -10.474,5.152L-7.548,5.152C-7.563,6.073 -7.571,7.029 -7.571,8.001C-7.571,8.264 -7.357,8.478 -7.093,8.478C-6.83,8.478 -6.616,8.264 -6.616,8.001C-6.616,7.026 -6.608,6.068 -6.593,5.145C-5.501,5.13 -4.412,5.118 -3.326,5.108C-3.329,5.449 -3.33,5.792 -3.33,6.138C-3.331,6.401 -3.117,6.615 -2.854,6.616L-2.853,6.616C-2.59,6.616 -2.376,6.403 -2.376,6.139C-2.375,5.791 -2.374,5.446 -2.372,5.104L-1.349,5.104C-1.085,5.104 -0.872,4.89 -0.872,4.627C-0.872,4.363 -1.085,4.149 -1.349,4.149L-2.368,4.149L-2.368,1.048C-1.978,1.05 -1.59,1.055 -1.203,1.063L-0.025,1.094L-0.012,1.094C0.246,1.094 0.458,0.889 0.465,0.629C0.472,0.366 0.264,0.147 0,0.14M-14.754,-7.387L-14.217,-7.387C-13.385,-7.368 -12.486,-7.35 -11.517,-7.332L-11.517,-4.113C-12.601,-4.122 -13.688,-4.134 -14.779,-4.15C-14.777,-5.229 -14.769,-6.314 -14.754,-7.387M-14.778,-3.195C-13.687,-3.179 -12.599,-3.167 -11.514,-3.158L-11.489,0.006C-12.569,-0.007 -13.655,-0.007 -14.729,0.006C-14.758,-1.062 -14.774,-2.135 -14.778,-3.195M-14.679,4.167C-14.703,3.081 -14.715,2.005 -14.715,0.96C-13.643,0.948 -12.559,0.947 -11.479,0.961C-11.463,2.009 -11.451,3.088 -11.441,4.197C-12.525,4.194 -13.61,4.185 -14.679,4.167M-7.535,4.197L-10.487,4.197C-10.496,3.089 -10.508,2.011 -10.525,0.967C-9.498,0.968 -8.477,0.972 -7.462,0.98C-7.499,2.016 -7.523,3.094 -7.535,4.197M-7.444,-0.322L-7.443,0.025C-8.468,0.018 -9.498,0.013 -10.534,0.013L-10.559,-3.15C-9.496,-3.141 -8.439,-3.129 -7.389,-3.114L-7.444,-0.322ZM-7.376,-4.068C-8.432,-4.084 -9.494,-4.096 -10.562,-4.105L-10.562,-7.319C-9.568,-7.31 -8.494,-7.297 -7.339,-7.282C-7.355,-6.217 -7.367,-5.146 -7.376,-4.068M-3.322,4.153C-4.405,4.163 -5.491,4.175 -6.58,4.19C-6.568,3.095 -6.544,2.023 -6.507,0.984C-5.453,0.988 -4.386,1.004 -3.322,1.033L-3.322,4.153ZM-3.322,-0.735L-3.322,0.078C-4.38,0.05 -5.441,0.033 -6.489,0.03L-6.489,-0.313L-6.434,-3.102C-5.393,-3.093 -4.352,-3.081 -3.311,-3.065C-3.319,-2.289 -3.322,-1.512 -3.322,-0.735M-3.3,-4.02C-4.34,-4.035 -5.381,-4.048 -6.421,-4.057C-6.412,-5.136 -6.4,-6.209 -6.384,-7.275L-3.275,-7.275C-3.277,-6.199 -3.285,-5.107 -3.3,-4.02" style="fill:rgb(21,60,103);fill-rule:nonzero;"/>
                </g>
            </g>
        </g>
    </g>
</svg>
