<?xml version="1.0" encoding="UTF-8" standalone="no"?><!DOCTYPE svg PUBLIC "-//W3C//DTD SVG 1.1//EN" "http://www.w3.org/Graphics/SVG/1.1/DTD/svg11.dtd"><svg width="100%" height="100%" viewBox="0 0 30 30" version="1.1" xmlns="http://www.w3.org/2000/svg" xmlns:xlink="http://www.w3.org/1999/xlink" xml:space="preserve" xmlns:serif="http://www.serif.com/" style="fill-rule:evenodd;clip-rule:evenodd;stroke-linejoin:round;stroke-miterlimit:2;"><rect id="Export" x="0" y="0" width="30" height="30" style="fill:none;"/><g><clipPath id="_clip1"><path d="M-1.563,14.954c0,9.15 7.416,16.566 16.564,16.566c9.149,0 16.565,-7.416 16.565,-16.566c0,-9.146 -7.416,-16.562 -16.565,-16.562c-9.148,0 -16.564,7.416 -16.564,16.562Z" clip-rule="nonzero"/></clipPath><g clip-path="url(#_clip1)"><path d="M21.917,22.184l-13.331,-0.297c-0.061,-0.135 -0.099,-0.265 -0.114,-0.387c-0.092,-0.379 -0.152,-0.773 -0.183,-1.184c-0.015,-0.167 -0.03,-0.334 -0.044,-0.502c-1.445,-0.592 -2.424,-1.656 -2.941,-3.19c-0.44,-1.245 -0.653,-2.514 -0.638,-3.805c0.183,-0.319 0.381,-0.608 0.592,-0.867c0.335,-0.455 0.722,-0.88 1.162,-1.276c0.153,-0.152 0.312,-0.312 0.479,-0.479c0.425,-0.394 0.904,-0.713 1.436,-0.957c0.227,-0.091 0.449,-0.198 0.661,-0.319c0.197,-0.091 0.402,-0.181 0.615,-0.273c0.531,-0.227 1.063,-0.425 1.595,-0.592c0.577,-0.167 1.17,-0.29 1.778,-0.365c0.638,-0.077 1.291,-0.114 1.96,-0.114c0.288,0 0.592,0.008 0.911,0.023c0.304,0.031 0.607,0.067 0.911,0.113c0.259,-0.227 0.517,-0.447 0.776,-0.66c0.409,-0.365 0.858,-0.691 1.344,-0.981c0.182,-0.104 0.372,-0.211 0.57,-0.319c-0.198,0.108 -0.388,0.215 -0.57,0.319c-0.486,0.29 -0.935,0.616 -1.344,0.981c-0.259,0.213 -0.517,0.433 -0.776,0.66c-0.304,-0.046 -0.607,-0.082 -0.911,-0.113c-0.319,-0.015 -0.623,-0.023 -0.911,-0.023c-0.669,0 -1.322,0.037 -1.96,0.114c-0.608,0.075 -1.201,0.198 -1.778,0.365c-0.532,0.167 -1.064,0.365 -1.595,0.592c-0.213,0.092 -0.418,0.182 -0.615,0.273c-0.212,0.121 -0.434,0.228 -0.661,0.319c-0.532,0.244 -1.011,0.563 -1.436,0.957c-0.167,0.167 -0.326,0.327 -0.479,0.479c-0.44,0.396 -0.827,0.821 -1.162,1.276c-0.211,0.259 -0.409,0.548 -0.592,0.867c0,-0.396 0.024,-0.79 0.069,-1.186c0.213,-1.67 0.948,-3.091 2.21,-4.261c1.292,-1.17 2.818,-1.952 4.58,-2.347c1.778,-0.396 3.516,-0.441 5.218,-0.137c0.927,0.137 1.831,0.425 2.713,0.865c0.682,0.336 1.351,0.754 2.004,1.254c1.474,1.124 2.484,2.386 3.031,3.783c0.532,1.382 0.79,2.568 0.775,3.555c-0.046,1.824 -0.819,3.236 -2.324,4.239c-0.091,0.045 -0.197,0.113 -0.319,0.205l0,0.114c-0.136,0.867 -0.296,1.708 -0.479,2.53c-0.03,0.091 -0.061,0.174 -0.09,0.251c-0.016,0.09 -0.031,0.167 -0.047,0.227c-0.015,0.075 -0.045,0.167 -0.09,0.273m-7.567,-11.895c-0.227,0.288 -0.44,0.6 -0.636,0.935c-0.305,0.455 -0.594,0.919 -0.867,1.39c-0.319,0.577 -0.6,1.177 -0.844,1.8c-0.045,0.136 -0.09,0.273 -0.136,0.409c0.046,0 0.091,-0.015 0.136,-0.046c0.684,-0.135 1.368,-0.212 2.052,-0.227c0.592,-0.015 1.184,0.007 1.777,0.068c0.35,0.046 0.707,0.092 1.072,0.137c0.379,0.061 0.752,0.145 1.115,0.251c0.213,0.046 0.434,0.114 0.662,0.206c0.562,0.181 1.116,0.379 1.663,0.592c0.229,0.092 0.449,0.189 0.661,0.295c0.471,0.229 0.926,0.488 1.368,0.776c-0.031,-0.152 -0.069,-0.312 -0.115,-0.479c-0.061,-0.273 -0.152,-0.532 -0.274,-0.775c-0.258,-0.561 -0.561,-1.086 -0.911,-1.572c-0.394,-0.531 -0.828,-1.034 -1.298,-1.505c-0.517,-0.486 -1.056,-0.933 -1.619,-1.344c-0.517,-0.394 -1.056,-0.774 -1.617,-1.138c-0.456,-0.29 -0.935,-0.541 -1.436,-0.754l-0.023,0.024c-0.242,0.319 -0.486,0.638 -0.73,0.957c0.244,-0.319 0.488,-0.638 0.73,-0.957l0.023,-0.024c0.501,0.213 0.98,0.464 1.436,0.754c0.561,0.364 1.1,0.744 1.617,1.138c0.563,0.411 1.102,0.858 1.619,1.344c0.47,0.471 0.904,0.974 1.298,1.505c0.35,0.486 0.653,1.011 0.911,1.572c0.122,0.243 0.213,0.502 0.274,0.775c0.046,0.167 0.084,0.327 0.115,0.479c-0.442,-0.288 -0.897,-0.547 -1.368,-0.776c-0.212,-0.106 -0.432,-0.203 -0.661,-0.295c-0.547,-0.213 -1.101,-0.411 -1.663,-0.592c-0.228,-0.092 -0.449,-0.16 -0.662,-0.206c-0.363,-0.106 -0.736,-0.19 -1.115,-0.251c-0.365,-0.045 -0.722,-0.091 -1.072,-0.137c-0.593,-0.061 -1.185,-0.083 -1.777,-0.068c-0.684,0.015 -1.368,0.092 -2.052,0.227c-0.045,0.031 -0.09,0.046 -0.136,0.046c0.046,-0.136 0.091,-0.273 0.136,-0.409c0.244,-0.623 0.525,-1.223 0.844,-1.8c0.273,-0.471 0.562,-0.935 0.867,-1.39c0.196,-0.335 0.409,-0.647 0.636,-0.935m0.753,-0.981c0.365,-0.44 0.76,-0.843 1.185,-1.206c0.167,-0.123 0.326,-0.251 0.478,-0.389c-0.152,0.138 -0.311,0.266 -0.478,0.389c-0.425,0.363 -0.82,0.766 -1.185,1.206m-6.858,10.506c-0.092,-1.216 -0.092,-2.439 0,-3.669c0.15,-0.106 0.317,-0.205 0.5,-0.295c0.44,-0.198 0.897,-0.381 1.368,-0.548c0.577,-0.197 1.162,-0.356 1.754,-0.479c-0.592,0.123 -1.177,0.282 -1.754,0.479c-0.471,0.167 -0.928,0.35 -1.368,0.548c-0.183,0.09 -0.35,0.189 -0.5,0.295c-0.092,1.23 -0.092,2.453 0,3.669m4.123,-1.412l0,0Zm10.255,0.387c0.091,-0.547 0.152,-1.086 0.183,-1.617c-0.061,-0.031 -0.116,-0.062 -0.16,-0.092c-0.077,-0.061 -0.167,-0.13 -0.273,-0.205c0.106,0.075 0.196,0.144 0.273,0.205c0.044,0.03 0.099,0.061 0.16,0.092c-0.031,0.531 -0.092,1.07 -0.183,1.617m-4.945,-0.16c0,0.107 0.016,0.175 0.046,0.206c-0.03,-0.031 -0.046,-0.099 -0.046,-0.206m-2.963,1.733l0,0Z" style="fill:#fff;fill-rule:nonzero;"/><path d="M8.585,21.888l13.331,0.297c-0.486,1.472 -1.337,2.695 -2.552,3.669c-1.443,1.138 -3.084,1.632 -4.923,1.481c-1.853,-0.167 -3.342,-1.01 -4.466,-2.53c-0.411,-0.563 -0.744,-1.148 -1.003,-1.755c-0.167,-0.379 -0.297,-0.768 -0.387,-1.162m7.976,2.052c-0.046,0.379 -0.129,0.691 -0.251,0.933c-0.121,0.227 -0.266,0.38 -0.433,0.456c-0.167,0.092 -0.319,0.167 -0.455,0.228c-0.289,0.06 -0.563,0.053 -0.821,-0.022c-0.213,-0.061 -0.402,-0.16 -0.57,-0.297c-0.151,-0.092 -0.25,-0.213 -0.296,-0.365c-0.121,-0.288 -0.205,-0.57 -0.251,-0.843c0.046,0.273 0.13,0.555 0.251,0.843c0.046,0.152 0.145,0.273 0.296,0.365c0.168,0.137 0.357,0.236 0.57,0.297c0.258,0.075 0.532,0.082 0.821,0.022c0.136,-0.061 0.288,-0.136 0.455,-0.228c0.167,-0.076 0.312,-0.229 0.433,-0.456c0.122,-0.242 0.205,-0.554 0.251,-0.933" style="fill:#153c67;fill-rule:nonzero;"/><path d="M15.079,28.045c-0.229,0 -0.459,-0.011 -0.694,-0.03c-2.052,-0.184 -3.719,-1.128 -4.96,-2.803c-0.441,-0.605 -0.805,-1.242 -1.082,-1.895c-0.172,-0.391 -0.31,-0.802 -0.409,-1.215c-0.067,-0.16 -0.113,-0.319 -0.135,-0.474c-0.096,-0.405 -0.159,-0.829 -0.192,-1.262l-0.009,-0.091c-1.42,-0.696 -2.41,-1.849 -2.942,-3.433c-0.462,-1.305 -0.689,-2.663 -0.675,-4.027c0.002,-0.42 0.025,-0.844 0.074,-1.26c0.234,-1.835 1.049,-3.408 2.424,-4.684c1.381,-1.251 3.026,-2.094 4.896,-2.513c1.859,-0.414 3.706,-0.461 5.488,-0.144c0.974,0.144 1.954,0.457 2.895,0.928c0.721,0.351 1.434,0.797 2.119,1.323c1.566,1.195 2.66,2.566 3.251,4.075c0.561,1.462 0.838,2.744 0.821,3.815c-0.05,2.057 -0.935,3.669 -2.627,4.797c-0.018,0.012 -0.034,0.022 -0.052,0.031c-0.131,0.812 -0.285,1.619 -0.458,2.397c-0.006,0.024 -0.011,0.048 -0.019,0.07c-0.026,0.078 -0.053,0.149 -0.078,0.217c-0.015,0.082 -0.03,0.153 -0.046,0.214c-0.015,0.081 -0.055,0.204 -0.112,0.344c-0.527,1.583 -1.458,2.917 -2.767,3.963c-1.395,1.101 -2.977,1.657 -4.711,1.657m-5.558,-5.453c0.025,0.062 0.051,0.123 0.077,0.183c0.241,0.564 0.552,1.109 0.929,1.626c1.01,1.365 2.312,2.102 3.976,2.253c1.672,0.138 3.124,-0.3 4.437,-1.337c0.852,-0.682 1.514,-1.511 1.974,-2.471l-11.393,-0.254Zm-0.413,-1.377l12.289,0.274c0.006,-0.021 0.014,-0.04 0.021,-0.059c0.022,-0.057 0.044,-0.117 0.067,-0.182c0.172,-0.78 0.324,-1.586 0.454,-2.399l0,-0.047c-0.001,-0.035 0.002,-0.069 0.006,-0.105c0.002,-0.009 0.003,-0.016 0.003,-0.023c0.065,-0.387 0.114,-0.774 0.147,-1.155c-0.034,-0.025 -0.07,-0.052 -0.108,-0.08c-0.412,-0.269 -0.842,-0.513 -1.279,-0.724c-0.204,-0.102 -0.408,-0.193 -0.618,-0.277c-0.525,-0.204 -1.072,-0.399 -1.62,-0.576c-0.015,-0.005 -0.029,-0.011 -0.044,-0.017c-0.191,-0.075 -0.375,-0.133 -0.55,-0.171c-0.016,-0.003 -0.032,-0.007 -0.048,-0.012c-0.336,-0.097 -0.683,-0.176 -1.033,-0.232c-0.342,-0.043 -0.701,-0.088 -1.051,-0.134c-0.542,-0.055 -1.111,-0.077 -1.672,-0.062c-0.612,0.013 -1.231,0.08 -1.842,0.196c-0.087,0.039 -0.177,0.062 -0.269,0.073c-0.546,0.113 -1.094,0.264 -1.627,0.446c-0.443,0.158 -0.887,0.335 -1.31,0.524c-0.039,0.019 -0.08,0.041 -0.122,0.065c-0.065,1.077 -0.057,2.158 0.023,3.22l0.044,0.496c0.025,0.337 0.072,0.656 0.139,0.961m-3.759,-8.208c0.006,1.143 0.208,2.283 0.6,3.389c0.323,0.96 0.834,1.694 1.55,2.226c-0.02,-0.839 0,-1.685 0.062,-2.527c0.017,-0.205 0.122,-0.391 0.29,-0.51c0.179,-0.125 0.377,-0.242 0.588,-0.348c0.483,-0.216 0.96,-0.408 1.444,-0.579c0.483,-0.166 0.971,-0.304 1.458,-0.42l0.015,-0.042c0.264,-0.68 0.561,-1.313 0.892,-1.913c0.285,-0.492 0.585,-0.972 0.896,-1.439c0.191,-0.325 0.421,-0.663 0.666,-0.974l0.727,-0.953c0.018,-0.024 0.037,-0.046 0.058,-0.067c0,0 0,-0.001 0.001,-0.001c0.168,-0.202 0.344,-0.399 0.526,-0.588c-0.712,-0.009 -1.394,0.03 -2.057,0.108c-0.566,0.071 -1.129,0.186 -1.669,0.343c-0.492,0.155 -1.008,0.347 -1.516,0.564c-0.198,0.086 -0.388,0.17 -0.573,0.254c-0.229,0.13 -0.471,0.247 -0.719,0.345c-0.431,0.198 -0.854,0.48 -1.224,0.823l-0.46,0.461c-0.431,0.388 -0.79,0.783 -1.094,1.198c-0.173,0.211 -0.324,0.424 -0.461,0.65m17.695,3.516c0.019,0.012 0.042,0.024 0.067,0.036c0.243,0.122 0.393,0.378 0.376,0.651c0,0.007 -0.001,0.015 -0.001,0.022c0.707,-0.775 1.068,-1.734 1.097,-2.904c0.013,-0.889 -0.232,-1.999 -0.729,-3.293c-0.498,-1.269 -1.442,-2.443 -2.808,-3.484c-0.516,-0.396 -1.044,-0.739 -1.579,-1.024c-0.081,0.046 -0.159,0.092 -0.238,0.136c-0.441,0.263 -0.858,0.567 -1.234,0.901c-0.271,0.223 -0.522,0.439 -0.774,0.66c-0.161,0.145 -0.333,0.284 -0.508,0.414c-0.167,0.143 -0.33,0.294 -0.486,0.45c0.23,0.124 0.457,0.256 0.678,0.395c0.58,0.378 1.14,0.771 1.667,1.174c0.57,0.416 1.136,0.886 1.67,1.39c0.509,0.506 0.968,1.038 1.38,1.595c0.379,0.528 0.709,1.096 0.984,1.694c0.135,0.271 0.246,0.585 0.32,0.911c0.019,0.072 0.04,0.151 0.059,0.23c0.019,0.015 0.04,0.031 0.059,0.046m-4.132,-1.955c0.567,0.183 1.131,0.385 1.68,0.598c0.176,0.071 0.348,0.145 0.513,0.223c-0.18,-0.334 -0.375,-0.647 -0.588,-0.941c-0.366,-0.493 -0.781,-0.975 -1.226,-1.419c-0.48,-0.451 -1.001,-0.885 -1.537,-1.276c-0.513,-0.392 -1.041,-0.764 -1.588,-1.118c-0.272,-0.173 -0.558,-0.333 -0.855,-0.479l-0.417,0.547c-0.003,0.003 -0.004,0.007 -0.007,0.01c-0.208,0.263 -0.405,0.552 -0.585,0.858c-0.316,0.476 -0.599,0.93 -0.864,1.385c-0.174,0.315 -0.34,0.644 -0.493,0.984c0.366,-0.041 0.731,-0.065 1.094,-0.074c0.618,-0.016 1.244,0.009 1.863,0.073c0.366,0.047 0.722,0.093 1.085,0.138c0.423,0.067 0.818,0.155 1.201,0.266c0.235,0.052 0.479,0.127 0.724,0.225m-4.41,-9.193c-0.935,0 -1.879,0.107 -2.829,0.318c-1.636,0.366 -3.073,1.102 -4.27,2.186c-0.793,0.735 -1.351,1.567 -1.682,2.513c0.08,-0.075 0.161,-0.15 0.242,-0.224l0.452,-0.453c0.497,-0.461 1.04,-0.825 1.635,-1.096c0.229,-0.093 0.423,-0.186 0.606,-0.291c0.018,-0.011 0.035,-0.02 0.053,-0.027c0.204,-0.094 0.414,-0.188 0.634,-0.282c0.549,-0.235 1.107,-0.443 1.658,-0.616c0.623,-0.18 1.257,-0.31 1.898,-0.39c0.665,-0.08 1.35,-0.119 2.044,-0.119c0.299,0 0.615,0.007 0.944,0.023c0.235,0.022 0.452,0.047 0.665,0.075c0.184,-0.159 0.369,-0.314 0.555,-0.466c0.255,-0.229 0.536,-0.449 0.833,-0.657c-0.428,-0.139 -0.861,-0.24 -1.297,-0.305c-0.706,-0.125 -1.422,-0.189 -2.141,-0.189m0.212,15.671c-0.096,0 -0.193,-0.021 -0.286,-0.064c-0.343,-0.158 -0.492,-0.564 -0.334,-0.907l0.821,-1.778c0.158,-0.343 0.564,-0.493 0.907,-0.334c0.343,0.158 0.493,0.564 0.334,0.907l-0.82,1.778c-0.115,0.25 -0.363,0.398 -0.622,0.398m3.009,-1.528c-0.175,0 -0.349,-0.067 -0.483,-0.2c-0.247,-0.247 -0.247,-0.579 -0.247,-0.689c0,-0.378 0.307,-0.684 0.684,-0.684c0.363,0 0.659,0.283 0.682,0.639c0.098,0.245 0.046,0.536 -0.152,0.734c-0.134,0.133 -0.308,0.2 -0.484,0.2m-5.356,-0.251c-0.376,0 -0.682,-0.305 -0.682,-0.683l0,-0.182c0,-0.378 0.306,-0.684 0.682,-0.684c0.378,0 0.684,0.306 0.684,0.684l0,0.182c0,0.378 -0.306,0.683 -0.684,0.683" style="fill:#153c67;fill-rule:nonzero;"/><path d="M15.046,26.281c-0.217,0 -0.432,-0.029 -0.637,-0.09c-0.282,-0.081 -0.543,-0.214 -0.774,-0.394c-0.261,-0.17 -0.447,-0.407 -0.542,-0.687c-0.136,-0.328 -0.23,-0.653 -0.282,-0.968c-0.062,-0.372 0.189,-0.725 0.561,-0.785c0.371,-0.064 0.725,0.189 0.788,0.561c0.035,0.22 0.104,0.452 0.205,0.69c0.01,0.023 0.019,0.045 0.025,0.069c0.028,0.018 0.049,0.01 0.074,0.031c0.096,0.078 0.202,0.133 0.325,0.168c0.136,0.04 0.273,0.048 0.425,0.024c0.103,-0.047 0.216,-0.105 0.337,-0.171c0.015,-0.008 0.029,-0.015 0.044,-0.022c0.01,-0.006 0.056,-0.049 0.112,-0.155c0.077,-0.156 0.139,-0.395 0.176,-0.695c0.044,-0.375 0.386,-0.642 0.761,-0.596c0.373,0.044 0.641,0.385 0.596,0.76c-0.056,0.463 -0.161,0.841 -0.319,1.158c-0.196,0.368 -0.44,0.619 -0.735,0.761c-0.177,0.096 -0.34,0.176 -0.486,0.242c-0.044,0.019 -0.09,0.034 -0.137,0.044c-0.175,0.036 -0.347,0.055 -0.517,0.055" style="fill:#fff;fill-rule:nonzero;"/></g></g></svg>