<?xml version="1.0" encoding="UTF-8" standalone="no"?>
<!DOCTYPE svg PUBLIC "-//W3C//DTD SVG 1.1//EN" "http://www.w3.org/Graphics/SVG/1.1/DTD/svg11.dtd">
<svg width="100%" height="100%" viewBox="0 0 125 125" version="1.1" xmlns="http://www.w3.org/2000/svg" xmlns:xlink="http://www.w3.org/1999/xlink" xml:space="preserve" xmlns:serif="http://www.serif.com/" style="fill-rule:evenodd;clip-rule:evenodd;stroke-linejoin:round;stroke-miterlimit:2;">
    <g id="Page-1" serif:id="Page 1" transform="matrix(0.250552,0,0,0.176389,0,0)">
        <rect x="0" y="0" width="498.898" height="708.662" style="fill:none;"/>
        <g transform="matrix(24.1695,0,0,34.3317,406.042,451.109)">
            <clipPath id="_clip1">
                <path d="M-17.698,-2.819C-17.698,3.375 -12.677,8.397 -6.483,8.397C-0.288,8.397 4.733,3.375 4.733,-2.819C4.733,-9.013 -0.288,-14.035 -6.483,-14.035C-12.677,-14.035 -17.698,-9.013 -17.698,-2.819Z" clip-rule="nonzero"/>
            </clipPath>
            <g clip-path="url(#_clip1)">
                <path d="M0,-5.636C0.234,-5.636 0.423,-5.825 0.423,-6.059L0.423,-9.105C0.423,-9.218 0.378,-9.326 0.297,-9.405C0.217,-9.485 0.104,-9.524 -0.005,-9.528L-3.017,-9.494C-3.138,-9.492 -3.254,-9.439 -3.333,-9.346C-3.412,-9.253 -3.448,-9.131 -3.431,-9.011C-3.412,-8.884 -3.408,-8.754 -3.418,-8.614C-3.427,-8.376 -3.433,-8.146 -3.434,-7.924L-4.471,-7.933L-4.484,-9.092C-4.485,-9.209 -4.534,-9.319 -4.62,-9.398C-4.705,-9.477 -4.819,-9.519 -4.935,-9.51C-5.094,-9.499 -5.249,-9.494 -5.398,-9.494L-5.592,-9.493C-5.792,-9.505 -5.998,-9.511 -6.21,-9.511L-6.43,-9.511C-6.618,-9.511 -6.813,-9.505 -6.988,-9.494C-7.199,-9.494 -7.41,-9.488 -7.597,-9.477C-7.714,-9.477 -7.831,-9.47 -7.948,-9.457C-8.163,-9.434 -8.325,-9.253 -8.325,-9.037L-8.325,-7.958L-9.458,-7.967L-9.458,-9.105C-9.458,-9.338 -9.648,-9.528 -9.881,-9.528L-12.91,-9.528C-13.023,-9.528 -13.131,-9.482 -13.211,-9.402C-13.29,-9.322 -13.335,-9.213 -13.333,-9.1L-13.299,-6.088C-13.298,-5.966 -13.244,-5.851 -13.152,-5.772C-13.059,-5.692 -12.936,-5.657 -12.816,-5.674C-12.679,-5.694 -12.54,-5.704 -12.419,-5.704C-12.255,-5.697 -12.093,-5.693 -11.933,-5.69L-11.941,-4.858L-12.944,-4.858C-13.057,-4.858 -13.166,-4.812 -13.245,-4.731C-13.325,-4.65 -13.369,-4.541 -13.367,-4.428L-13.316,-1.433C-13.314,-1.317 -13.264,-1.206 -13.179,-1.128C-13.093,-1.049 -12.979,-1.009 -12.863,-1.018C-12.715,-1.028 -12.567,-1.034 -12.436,-1.034C-12.26,-1.027 -12.087,-1.022 -11.916,-1.019L-11.925,-0.002L-12.91,-0.002C-13.144,-0.002 -13.333,0.188 -13.333,0.421L-13.333,3.467C-13.333,3.58 -13.288,3.688 -13.208,3.768C-13.127,3.847 -13.018,3.892 -12.905,3.89L-9.91,3.856C-9.794,3.855 -9.683,3.805 -9.604,3.72C-9.525,3.634 -9.485,3.519 -9.493,3.403C-9.504,3.255 -9.509,3.101 -9.509,2.943L-9.509,2.443L-8.472,2.461L-8.46,3.455C-8.459,3.571 -8.41,3.682 -8.324,3.761C-8.239,3.84 -8.125,3.881 -8.009,3.872C-7.849,3.861 -7.689,3.856 -7.548,3.856C-7.282,3.867 -7.011,3.873 -6.734,3.873L-6.599,3.873C-6.378,3.873 -6.151,3.867 -5.939,3.856L-5.618,3.856C-5.602,3.856 -5.586,3.855 -5.571,3.854C-5.321,3.826 -5.154,3.839 -4.978,3.82C-4.764,3.796 -4.602,3.615 -4.602,3.399L-4.602,2.486L-3.486,2.486L-3.486,3.467C-3.486,3.701 -3.296,3.89 -3.063,3.89L0,3.89C0.113,3.89 0.222,3.844 0.302,3.764C0.381,3.683 0.425,3.573 0.423,3.46L0.372,0.448C0.37,0.327 0.316,0.212 0.224,0.133C0.131,0.055 0.01,0.019 -0.111,0.037C-0.239,0.055 -0.374,0.059 -0.541,0.049L-1.129,0.049L-1.121,-0.784L-0.012,-0.797C0.109,-0.798 0.225,-0.852 0.304,-0.944C0.383,-1.037 0.419,-1.159 0.402,-1.28C0.382,-1.418 0.372,-1.557 0.371,-1.661C0.383,-1.818 0.389,-1.976 0.389,-2.133L0.389,-2.641C0.389,-2.875 0.383,-3.097 0.372,-3.284L0.372,-3.656C0.372,-3.676 0.371,-3.696 0.368,-3.716C0.359,-3.776 0.355,-3.841 0.355,-3.91L0.355,-4.198C0.355,-4.431 0.166,-4.621 -0.068,-4.621C-0.179,-4.621 -0.29,-4.626 -0.401,-4.636C-0.414,-4.637 -0.427,-4.638 -0.44,-4.638L-1.151,-4.638L-1.151,-5.636L0,-5.636ZM-3.452,0.506C-3.452,0.607 -3.457,0.712 -3.468,0.849C-3.477,1.134 -3.482,1.398 -3.484,1.64L-4.597,1.64C-4.592,1.145 -4.593,0.738 -4.602,0.426C-4.609,0.197 -4.796,0.015 -5.025,0.015L-8.071,0.015C-8.184,0.015 -8.292,0.06 -8.372,0.141C-8.451,0.221 -8.495,0.33 -8.494,0.443L-8.482,1.615L-9.509,1.597L-9.509,0.76C-9.509,0.63 -9.516,0.508 -9.529,0.391C-9.553,0.177 -9.734,0.015 -9.949,0.015L-10.326,0.015C-10.598,0.007 -10.849,0.002 -11.079,0L-11.07,-1.023C-10.986,-1.026 -10.905,-1.029 -10.829,-1.034L-9.915,-1.034C-9.682,-1.034 -9.492,-1.223 -9.492,-1.457L-9.492,-1.833C-9.481,-2.21 -9.475,-2.553 -9.475,-2.861L-9.475,-4.435C-9.475,-4.668 -9.665,-4.858 -9.898,-4.858L-11.095,-4.858L-11.087,-5.692C-10.99,-5.695 -10.897,-5.699 -10.812,-5.704C-10.602,-5.704 -10.386,-5.71 -10.186,-5.721L-9.898,-5.721C-9.665,-5.721 -9.475,-5.91 -9.475,-6.144C-9.475,-6.246 -9.47,-6.358 -9.46,-6.481C-9.459,-6.493 -9.458,-6.504 -9.458,-6.516L-9.458,-7.121L-8.325,-7.112L-8.325,-6.953C-8.336,-6.604 -8.336,-6.308 -8.324,-6.072C-8.313,-5.847 -8.127,-5.67 -7.902,-5.67L-4.873,-5.67C-4.76,-5.67 -4.652,-5.715 -4.572,-5.796C-4.493,-5.876 -4.449,-5.985 -4.45,-6.098L-4.462,-7.087L-3.424,-7.078C-3.422,-7.041 -3.42,-7.003 -3.417,-6.966C-3.406,-6.771 -3.401,-6.582 -3.401,-6.397L-3.401,-6.093C-3.401,-5.859 -3.212,-5.67 -2.978,-5.67C-2.867,-5.67 -2.755,-5.665 -2.644,-5.655C-2.543,-5.646 -2.439,-5.649 -2.326,-5.638C-2.312,-5.637 -2.298,-5.636 -2.284,-5.636L-1.997,-5.636L-1.997,-4.638L-3.029,-4.638C-3.262,-4.638 -3.452,-4.448 -3.452,-4.215L-3.452,-1.186C-3.452,-1.073 -3.406,-0.965 -3.326,-0.885C-3.246,-0.806 -3.14,-0.765 -3.024,-0.763L-1.967,-0.775L-1.975,0.049L-2.132,0.049C-2.201,0.049 -2.267,0.055 -2.329,0.066C-2.471,0.067 -2.611,0.073 -2.724,0.083L-3.029,0.083C-3.262,0.083 -3.452,0.272 -3.452,0.506" style="fill:rgb(21,60,103);fill-rule:nonzero;"/>
            </g>
        </g>
    </g>
</svg>
