<?xml version="1.0" encoding="UTF-8" standalone="no"?><!DOCTYPE svg PUBLIC "-//W3C//DTD SVG 1.1//EN" "http://www.w3.org/Graphics/SVG/1.1/DTD/svg11.dtd"><svg width="100%" height="100%" viewBox="0 0 30 30" version="1.1" xmlns="http://www.w3.org/2000/svg" xmlns:xlink="http://www.w3.org/1999/xlink" xml:space="preserve" xmlns:serif="http://www.serif.com/" style="fill-rule:evenodd;clip-rule:evenodd;stroke-linejoin:round;stroke-miterlimit:2;"><rect id="Export" x="0" y="0" width="30" height="30" style="fill:none;"/><path d="M5.056,19.189l-1.111,2.363c-0.178,0.378 -0.629,0.541 -1.007,0.363c-0.378,-0.177 -0.541,-0.629 -0.363,-1.007l8.869,-18.864c0.178,-0.378 0.629,-0.54 1.007,-0.362c0.229,0.107 0.379,0.316 0.422,0.547l2.083,0.98c0.212,-0.137 0.488,-0.164 0.733,-0.049c0.369,0.173 0.533,0.608 0.374,0.981c0.231,0.015 0.464,0.067 0.69,0.158c0,0 4.745,1.433 4.017,10.873c-0.112,1.448 0.127,2.443 0.655,3.095c1.175,1.45 3.364,1.155 3.364,1.155c1.232,-0.122 2.33,0.779 2.452,2.01c0.122,1.232 -0.779,2.33 -2.01,2.452c0,0 -4.712,0.388 -7.29,-2.795c-1.081,-1.334 -1.871,-3.299 -1.642,-6.261c0.366,-4.744 -1.279,-6.358 -1.352,-6.428c-0.254,-0.121 -0.476,-0.285 -0.66,-0.48l-7.104,15.111c-0.047,0.096 -0.111,0.183 -0.193,0.253c-0.074,0.063 -0.16,0.112 -0.253,0.142c-0.089,0.03 -0.184,0.043 -0.279,0.039c-0.084,-0.005 -0.168,-0.024 -0.246,-0.056c-0.077,-0.031 -0.149,-0.075 -0.211,-0.13c-0.176,-0.153 -0.273,-0.386 -0.258,-0.619c0.006,-0.095 0.03,-0.187 0.07,-0.273l1.094,-2.328l-1.851,-0.87Zm0.644,-1.37l1.851,0.871l0.399,-0.849l-1.851,-0.87l-0.399,0.848Zm1.043,-2.218l1.851,0.87l0.399,-0.849l-1.851,-0.87l-0.399,0.849Zm1.043,-2.219l1.851,0.871l0.399,-0.849l-1.851,-0.87l-0.399,0.848Zm1.043,-2.218l1.851,0.87l0.399,-0.849l-1.851,-0.87l-0.399,0.849Zm1.043,-2.219l1.851,0.871l0.399,-0.849l-1.851,-0.871l-0.399,0.849Zm5.185,-0.495c0.007,0.003 0.013,0.005 0.02,0.008l-0.037,-0.016l0.017,0.008Zm-4.142,-1.723l1.851,0.87l0.399,-0.849l-1.851,-0.87l-0.399,0.849Zm1.043,-2.219l1.851,0.87l0.399,-0.848l-1.851,-0.871l-0.399,0.849Z" style="fill:#153c67;"/></svg>