<?xml version="1.0" encoding="UTF-8" standalone="no"?>
<!DOCTYPE svg PUBLIC "-//W3C//DTD SVG 1.1//EN" "http://www.w3.org/Graphics/SVG/1.1/DTD/svg11.dtd">
<svg width="100%" height="100%" viewBox="0 0 125 125" version="1.1" xmlns="http://www.w3.org/2000/svg" xmlns:xlink="http://www.w3.org/1999/xlink" xml:space="preserve" xmlns:serif="http://www.serif.com/" style="fill-rule:evenodd;clip-rule:evenodd;stroke-linejoin:round;stroke-miterlimit:2;">
    <g id="Page-1" serif:id="Page 1" transform="matrix(0.250552,0,0,0.176389,0,0)">
        <rect x="0" y="0" width="498.898" height="708.662" style="fill:none;"/>
        <clipPath id="_clip1">
            <rect x="0" y="0" width="498.898" height="708.662"/>
        </clipPath>
        <g clip-path="url(#_clip1)">
            <g transform="matrix(22.9185,0,0,32.5547,-6152.45,-12109.8)">
                <g transform="matrix(1,0,0,1,291.987,378.84)">
                    <path d="M0,9.105L-4.963,9.105C-6.398,9.105 -7.827,9.119 -9.249,9.146C-10.015,9.16 -10.787,9.173 -11.566,9.187C-12.729,9.201 -13.884,9.208 -15.032,9.208C-15.046,9.016 -15.053,8.825 -15.053,8.633C-15.066,7.991 -15.087,8.628 -15.114,7.972C-15.142,7.302 -15.155,7.656 -15.155,7.013L-11.095,7.013C-9.632,7.013 -8.169,6.999 -6.706,6.972C-5.462,6.945 -4.225,6.972 -2.994,7.054C-2.146,7.095 -1.299,7.115 -0.451,7.115L0,7.115L0,9.105ZM-12.059,4.983C-12.195,4.983 -12.339,4.976 -12.489,4.962C-13.132,4.921 -13.768,4.839 -14.396,4.716C-14.643,4.675 -14.882,4.62 -15.114,4.552C-15.347,4.484 -15.572,4.408 -15.791,4.326C-16.297,4.149 -16.776,3.909 -17.227,3.609C-17.391,3.499 -17.555,3.383 -17.719,3.26C-17.869,3.151 -18.02,3.027 -18.17,2.891C-18.621,2.494 -18.99,2.03 -19.278,1.496C-19.537,0.991 -19.729,0.457 -19.852,-0.103L-13.207,-0.103C-12.646,-0.103 -12.086,-0.097 -11.525,-0.083C-10.938,-0.083 -10.35,-0.076 -9.762,-0.062C-9.174,-0.049 -8.579,-0.042 -7.978,-0.042C-7.39,-0.028 -6.809,-0.014 -6.234,-0.001C-5.688,0.013 -5.134,0.033 -4.573,0.061C-4.368,0.074 -4.163,0.088 -3.958,0.102C-3.985,0.156 -4.02,0.211 -4.061,0.266C-4.402,0.772 -4.778,1.25 -5.189,1.701C-5.366,1.906 -5.551,2.105 -5.742,2.296C-6.111,2.679 -6.515,3.034 -6.952,3.363C-7.376,3.677 -7.82,3.957 -8.285,4.203C-8.764,4.436 -9.256,4.613 -9.762,4.737C-10.021,4.805 -10.288,4.86 -10.562,4.901C-10.931,4.983 -11.3,5.017 -11.669,5.003C-11.806,5.003 -11.936,4.996 -12.059,4.983" style="fill:white;fill-rule:nonzero;"/>
                </g>
                <g transform="matrix(1,0,0,1,276.955,378.122)">
                    <path d="M0,10.541C-0.323,10.541 -0.591,10.291 -0.614,9.969C-0.628,9.763 -0.636,9.557 -0.636,9.351C-0.637,9.279 -0.639,9.227 -0.64,9.189C-0.683,9.04 -0.69,8.873 -0.697,8.715C-0.708,8.444 -0.716,8.354 -0.722,8.289C-0.732,8.187 -0.738,8.137 -0.738,7.731C-0.738,7.391 -0.463,7.116 -0.123,7.116L2.358,7.116L2.358,6.284C1.749,6.24 1.125,6.157 0.518,6.038C0.265,5.996 -0.001,5.935 -0.255,5.86C-0.499,5.789 -0.741,5.708 -0.975,5.621C-1.515,5.431 -2.044,5.167 -2.535,4.839C-2.709,4.723 -2.882,4.6 -3.056,4.471C-3.215,4.355 -3.384,4.216 -3.551,4.065C-4.048,3.628 -4.466,3.102 -4.787,2.506C-5.075,1.946 -5.286,1.357 -5.42,0.747C-5.46,0.565 -5.416,0.375 -5.299,0.229C-5.182,0.084 -5.006,0 -4.819,0L1.825,0C2.391,0 2.956,0.006 3.522,0.02C4.086,0.009 4.692,0.027 5.285,0.041C5.868,0.054 6.458,0.061 7.055,0.061L8.813,0.102C9.365,0.116 9.924,0.137 10.489,0.164L11.115,0.206C11.32,0.22 11.505,0.335 11.608,0.514C11.71,0.692 11.717,0.91 11.625,1.094C11.581,1.182 11.527,1.269 11.464,1.353C11.125,1.856 10.727,2.363 10.299,2.833C10.123,3.037 9.927,3.248 9.725,3.449C9.343,3.846 8.911,4.226 8.45,4.573C8.001,4.906 7.526,5.206 7.035,5.465C6.501,5.725 5.962,5.92 5.416,6.053C5.153,6.122 4.87,6.18 4.583,6.224C4.253,6.296 3.92,6.334 3.589,6.339L3.589,7.116L3.938,7.116C5.393,7.116 6.866,7.102 8.315,7.075C9.57,7.046 10.838,7.075 12.079,7.158C12.901,7.198 13.746,7.218 14.581,7.218L15.032,7.218C15.372,7.218 15.648,7.494 15.648,7.834C15.648,8.174 15.372,8.449 15.032,8.449L14.581,8.449C13.726,8.449 12.861,8.428 12.008,8.387C10.792,8.306 9.562,8.279 8.34,8.305C6.881,8.333 5.401,8.346 3.938,8.346L0.517,8.346C0.521,8.42 0.527,8.52 0.533,8.665C0.536,8.749 0.539,8.806 0.542,8.846C0.585,8.991 0.591,9.154 0.594,9.31C1.544,9.308 2.499,9.301 3.459,9.29L5.772,9.249C7.191,9.222 8.637,9.208 10.07,9.208L15.032,9.208C15.372,9.208 15.648,9.483 15.648,9.823C15.648,10.163 15.372,10.438 15.032,10.438L10.07,10.438C8.645,10.438 7.206,10.452 5.795,10.479L3.477,10.52C2.309,10.534 1.151,10.541 0,10.541M3.05,5.09C3.149,5.101 3.254,5.106 3.363,5.106C3.699,5.118 4.021,5.088 4.337,5.018C4.351,5.015 4.365,5.013 4.379,5.01C4.63,4.973 4.877,4.922 5.114,4.86C5.586,4.745 6.042,4.58 6.478,4.368C6.895,4.147 7.317,3.881 7.714,3.587C8.12,3.282 8.503,2.944 8.847,2.587C9.036,2.398 9.212,2.209 9.379,2.017C9.57,1.806 9.753,1.591 9.927,1.371C9.545,1.355 9.162,1.342 8.783,1.332L7.04,1.291C6.46,1.302 5.849,1.285 5.256,1.271C4.673,1.258 4.09,1.251 3.507,1.251C2.936,1.237 2.381,1.23 1.825,1.23L-4.003,1.23C-3.917,1.471 -3.814,1.706 -3.698,1.933C-3.453,2.389 -3.125,2.801 -2.732,3.147C-2.59,3.275 -2.456,3.385 -2.325,3.481C-2.163,3.602 -2.008,3.712 -1.853,3.815C-1.447,4.086 -1.01,4.304 -0.555,4.464C-0.338,4.545 -0.127,4.616 0.091,4.68C0.299,4.741 0.516,4.791 0.737,4.827C1.353,4.948 1.968,5.027 2.582,5.066C2.729,5.08 2.854,5.086 2.973,5.086L2.98,5.086C3.004,5.086 3.027,5.087 3.05,5.09" style="fill:rgb(21,60,103);fill-rule:nonzero;"/>
                </g>
            </g>
        </g>
    </g>
</svg>
