<?xml version="1.0" encoding="UTF-8" standalone="no"?>
<!DOCTYPE svg PUBLIC "-//W3C//DTD SVG 1.1//EN" "http://www.w3.org/Graphics/SVG/1.1/DTD/svg11.dtd">
<svg width="100%" height="100%" viewBox="0 0 125 125" version="1.1" xmlns="http://www.w3.org/2000/svg" xmlns:xlink="http://www.w3.org/1999/xlink" xml:space="preserve" xmlns:serif="http://www.serif.com/" style="fill-rule:evenodd;clip-rule:evenodd;stroke-linecap:round;stroke-linejoin:round;stroke-miterlimit:1.5;">
    <g id="Page-1" serif:id="Page 1" transform="matrix(0.250552,0,0,0.176389,0,0)">
        <rect x="0" y="0" width="498.898" height="708.662" style="fill:none;"/>
        <g transform="matrix(3.09165,0.783,-0.508216,4.04885,10.9376,-70.6315)">
            <path d="M49.757,41.442L62.5,66.929L37.014,66.929L49.757,41.442Z" style="fill:rgb(237,232,35);stroke:rgb(21,61,103);stroke-width:5.51px;"/>
        </g>
        <g transform="matrix(3.16817,-0.600701,0.389892,4.14906,183.859,310.569)">
            <path d="M49.757,41.442L62.5,66.929L37.014,66.929L49.757,41.442Z" style="fill:rgb(210,34,41);stroke:rgb(21,61,103);stroke-width:5.41px;"/>
        </g>
        <g transform="matrix(3.99118,0,0,5.66929,22.4691,-92.3237)">
            <rect x="56.87" y="33.991" width="17.016" height="17.016" style="fill:rgb(210,34,41);stroke:rgb(21,61,103);stroke-width:4.17px;"/>
        </g>
        <g transform="matrix(3.99118,0,0,5.66929,-45.4451,341.105)">
            <rect x="56.87" y="33.991" width="17.016" height="17.016" style="fill:rgb(21,60,103);stroke:rgb(21,61,103);stroke-width:4.17px;"/>
        </g>
        <g transform="matrix(3.99118,0,0,5.66929,-16.5642,-4.88662)">
            <circle cx="66.65" cy="63.362" r="9.049" style="fill:rgb(237,232,35);stroke:rgb(21,61,103);stroke-width:4.17px;"/>
        </g>
        <g transform="matrix(3.99118,0,0,5.66929,-153.944,46.4129)">
            <circle cx="66.65" cy="63.362" r="9.049" style="fill:rgb(116,209,247);stroke:rgb(21,61,103);stroke-width:4.17px;"/>
        </g>
        <g transform="matrix(3.99118,0,0,5.66929,133.165,62.0904)">
            <rect x="56.87" y="33.991" width="17.016" height="17.016" style="fill:rgb(116,209,247);stroke:rgb(21,61,103);stroke-width:4.17px;"/>
        </g>
    </g>
</svg>
