<?xml version="1.0" encoding="UTF-8" standalone="no"?><!DOCTYPE svg PUBLIC "-//W3C//DTD SVG 1.1//EN" "http://www.w3.org/Graphics/SVG/1.1/DTD/svg11.dtd"><svg width="100%" height="100%" viewBox="0 0 30 30" version="1.1" xmlns="http://www.w3.org/2000/svg" xmlns:xlink="http://www.w3.org/1999/xlink" xml:space="preserve" xmlns:serif="http://www.serif.com/" style="fill-rule:evenodd;clip-rule:evenodd;stroke-linejoin:round;stroke-miterlimit:2;"><rect id="Export" x="0" y="0" width="30" height="30" style="fill:none;"/><g><clipPath id="_clip1"><path d="M-0.961,14.999c0,8.816 7.146,15.962 15.961,15.962c8.815,0 15.961,-7.146 15.961,-15.962c0,-8.814 -7.146,-15.959 -15.961,-15.959c-8.815,0 -15.961,7.145 -15.961,15.959Z" clip-rule="nonzero"/></clipPath><g clip-path="url(#_clip1)"><path d="M11.704,12.978c0.121,0.121 0.244,0.24 0.374,0.361c0.213,0.197 0.424,0.39 0.63,0.579c0.026,0.026 0.056,0.056 0.091,0.09c-0.112,0.112 -0.223,0.228 -0.335,0.349c-0.19,0.215 -0.382,0.425 -0.58,0.63c-0.31,0.327 -0.614,0.662 -0.915,1.006c-0.283,0.318 -0.566,0.635 -0.851,0.954c-0.257,0.3 -0.519,0.592 -0.785,0.875c-0.326,0.327 -0.632,0.674 -0.915,1.044c-0.181,0.232 -0.369,0.46 -0.567,0.682c-0.121,-0.111 -0.236,-0.222 -0.348,-0.334c-0.188,-0.173 -0.373,-0.339 -0.554,-0.503c-0.162,-0.155 -0.326,-0.304 -0.489,-0.451c-0.275,-0.249 -0.55,-0.489 -0.824,-0.721c-0.087,-0.069 -0.173,-0.137 -0.258,-0.207c-0.396,-0.291 -0.778,-0.596 -1.147,-0.915c-0.336,-0.291 -0.666,-0.583 -0.992,-0.875c-0.087,-0.07 -0.168,-0.142 -0.245,-0.219c0.111,-0.13 0.227,-0.266 0.348,-0.413c0.121,-0.155 0.279,-0.326 0.476,-0.515c0.198,-0.189 0.43,-0.287 0.696,-0.296c0.266,-0.008 0.537,0.051 0.811,0.181c0.275,0.128 0.594,0.347 0.954,0.656c0.319,0.257 0.64,0.519 0.966,0.785c0.207,-0.23 0.413,-0.458 0.619,-0.681c0.215,-0.241 0.434,-0.473 0.658,-0.696c0.351,-0.362 0.696,-0.73 1.03,-1.109c0.309,-0.36 0.64,-0.7 0.992,-1.017c0.06,-0.06 0.125,-0.117 0.193,-0.168c0.224,0.215 0.447,0.43 0.671,0.644c0.094,0.094 0.193,0.19 0.296,0.284" style="fill:#153c67;fill-rule:nonzero;"/><path d="M7.851,19.935c-0.097,0 -0.191,-0.037 -0.263,-0.104c-0.124,-0.113 -0.243,-0.229 -0.357,-0.344l-0.541,-0.49c-0.167,-0.158 -0.327,-0.306 -0.488,-0.449c-0.272,-0.246 -0.547,-0.487 -0.816,-0.713l-0.25,-0.201c-0.39,-0.287 -0.783,-0.6 -1.157,-0.923c-0.339,-0.295 -0.67,-0.588 -0.998,-0.881c-0.079,-0.063 -0.173,-0.145 -0.26,-0.234c-0.144,-0.143 -0.152,-0.374 -0.019,-0.526c0.11,-0.127 0.222,-0.262 0.342,-0.406c0.124,-0.159 0.296,-0.347 0.507,-0.548c0.269,-0.256 0.587,-0.393 0.95,-0.404c0.328,-0.013 0.659,0.063 0.989,0.218c0.309,0.144 0.651,0.377 1.041,0.713c0.219,0.178 0.445,0.36 0.673,0.546c0.125,-0.139 0.25,-0.276 0.375,-0.412c0.217,-0.241 0.443,-0.481 0.669,-0.706c0.343,-0.352 0.685,-0.72 1.015,-1.092c0.313,-0.366 0.659,-0.72 1.022,-1.049c0.058,-0.058 0.138,-0.126 0.22,-0.189c0.152,-0.114 0.363,-0.101 0.5,0.03l0.669,0.643c0.479,-0.556 0.986,-1.096 1.512,-1.608c0.349,-0.348 0.693,-0.718 1.021,-1.097c0.492,-0.561 1.003,-1.119 1.519,-1.662c0.148,-0.155 0.393,-0.161 0.548,-0.013c0.154,0.147 0.16,0.391 0.013,0.546c-0.509,0.536 -1.013,1.086 -1.497,1.638c-0.339,0.39 -0.696,0.773 -1.062,1.139c-0.522,0.509 -1.024,1.044 -1.497,1.595c0.036,0.034 0.073,0.07 0.11,0.104c0.212,0.195 0.423,0.389 0.629,0.578l0.101,0.101c0.074,0.072 0.114,0.171 0.114,0.273c0,0.103 -0.04,0.201 -0.113,0.273c-0.108,0.108 -0.216,0.222 -0.325,0.339c-0.184,0.209 -0.382,0.426 -0.584,0.635c-0.304,0.321 -0.609,0.656 -0.902,0.992l-0.854,0.956c-0.255,0.297 -0.524,0.598 -0.793,0.884c-0.321,0.321 -0.617,0.66 -0.889,1.014c-0.187,0.239 -0.383,0.476 -0.585,0.703c-0.068,0.079 -0.166,0.126 -0.27,0.131l-0.019,0m-4.319,-4.649c0.323,0.289 0.636,0.565 0.952,0.841c0.359,0.307 0.737,0.609 1.123,0.895l0.269,0.215c0.285,0.239 0.566,0.485 0.844,0.737c0.163,0.147 0.33,0.299 0.495,0.457l0.548,0.497c0.021,0.02 0.041,0.04 0.061,0.059c0.098,-0.118 0.195,-0.239 0.289,-0.358c0.29,-0.379 0.609,-0.743 0.946,-1.08c0.254,-0.269 0.514,-0.56 0.766,-0.854l0.855,-0.959c0.299,-0.342 0.611,-0.683 0.924,-1.014c0.195,-0.204 0.385,-0.412 0.569,-0.621c0.026,-0.027 0.051,-0.054 0.075,-0.08c-0.139,-0.128 -0.284,-0.262 -0.432,-0.399c-0.132,-0.122 -0.258,-0.243 -0.38,-0.365c-0.105,-0.097 -0.205,-0.192 -0.302,-0.289l-0.408,-0.393c-0.318,0.293 -0.609,0.596 -0.881,0.912c-0.342,0.386 -0.693,0.763 -1.048,1.126c-0.219,0.219 -0.435,0.448 -0.646,0.684c-0.207,0.225 -0.412,0.452 -0.616,0.682c-0.138,0.155 -0.373,0.174 -0.533,0.043c-0.326,-0.266 -0.648,-0.528 -0.967,-0.786c-0.34,-0.292 -0.632,-0.494 -0.873,-0.607c-0.221,-0.103 -0.429,-0.151 -0.635,-0.144c-0.172,0.006 -0.312,0.065 -0.441,0.189c-0.184,0.175 -0.332,0.335 -0.439,0.474c-0.039,0.047 -0.078,0.094 -0.115,0.138" style="fill:#153c67;fill-rule:nonzero;"/><path d="M14.848,20.85c-0.035,0.086 -0.069,0.172 -0.103,0.258c-0.172,0.464 -0.344,0.928 -0.516,1.392c-0.086,0.214 -0.167,0.434 -0.245,0.657c-0.094,-0.164 -0.184,-0.332 -0.271,-0.502c-0.162,-0.294 -0.321,-0.581 -0.476,-0.864c-0.163,-0.318 -0.339,-0.632 -0.528,-0.941c-0.172,-0.3 -0.343,-0.606 -0.515,-0.915c-0.113,-0.232 -0.232,-0.455 -0.362,-0.67c0.138,-0.051 0.283,-0.098 0.438,-0.141c0.577,-0.155 1.143,-0.315 1.701,-0.477c0.43,-0.112 0.86,-0.24 1.289,-0.387c0.094,-0.025 0.184,-0.055 0.271,-0.09c0.094,-0.025 0.18,-0.051 0.257,-0.078c-0.06,0.198 -0.125,0.4 -0.193,0.606c-0.12,0.369 -0.249,0.739 -0.387,1.109c-0.043,0.137 -0.09,0.279 -0.141,0.424c-0.069,0.198 -0.143,0.404 -0.219,0.619" style="fill:#ede823;fill-rule:nonzero;"/><path d="M13.984,23.543c-0.137,0 -0.265,-0.073 -0.334,-0.194c-0.097,-0.168 -0.192,-0.343 -0.282,-0.522c-0.155,-0.277 -0.315,-0.566 -0.47,-0.851c-0.163,-0.319 -0.337,-0.626 -0.519,-0.925c-0.178,-0.312 -0.352,-0.618 -0.524,-0.928c-0.117,-0.24 -0.232,-0.455 -0.354,-0.659c-0.059,-0.098 -0.071,-0.217 -0.033,-0.326c0.037,-0.109 0.121,-0.194 0.229,-0.234c0.148,-0.056 0.306,-0.107 0.47,-0.153c0.575,-0.155 1.144,-0.314 1.696,-0.475c0.43,-0.112 0.854,-0.239 1.272,-0.381c0.103,-0.029 0.18,-0.054 0.252,-0.084c0.013,-0.006 0.027,-0.01 0.041,-0.014c0.087,-0.023 0.167,-0.047 0.238,-0.07c0.137,-0.046 0.288,-0.012 0.391,0.089c0.104,0.101 0.143,0.251 0.1,0.389c-0.06,0.201 -0.125,0.406 -0.195,0.616c-0.121,0.37 -0.253,0.749 -0.391,1.12c-0.037,0.122 -0.087,0.269 -0.14,0.42c-0.031,0.087 -0.062,0.176 -0.094,0.269c0.84,0.309 1.728,0.469 2.645,0.478c1.275,-0.04 2.437,-0.471 3.439,-1.281c0.165,-0.134 0.409,-0.108 0.544,0.059c0.133,0.166 0.108,0.409 -0.059,0.543c-1.135,0.918 -2.453,1.406 -3.916,1.452c-1.02,-0.009 -1.999,-0.185 -2.924,-0.528l-0.474,1.281c-0.087,0.219 -0.167,0.431 -0.242,0.648c-0.05,0.144 -0.178,0.245 -0.329,0.259c-0.013,0.002 -0.024,0.002 -0.037,0.002m-1.582,-4.054c0.048,0.092 0.095,0.185 0.139,0.278c0.161,0.288 0.332,0.592 0.504,0.891c0.185,0.305 0.368,0.629 0.536,0.957c0.108,0.197 0.221,0.402 0.338,0.612l0.567,-1.515c0.076,-0.21 0.148,-0.412 0.215,-0.607c0.052,-0.144 0.097,-0.281 0.138,-0.413c0.127,-0.343 0.244,-0.674 0.352,-1.002c-0.363,0.121 -0.746,0.234 -1.123,0.33c-0.536,0.158 -1.1,0.316 -1.666,0.469" style="fill:#153c67;fill-rule:nonzero;"/><path d="M21.096,10.994c0.121,-0.121 0.241,-0.245 0.361,-0.375c0.197,-0.215 0.391,-0.424 0.58,-0.63c0.026,-0.026 0.056,-0.056 0.09,-0.091c0.112,0.112 0.227,0.223 0.348,0.336c0.215,0.189 0.426,0.381 0.631,0.579c0.327,0.31 0.662,0.615 1.006,0.915c0.137,0.121 0.275,0.245 0.411,0.374c0.181,0.154 0.362,0.313 0.541,0.477c0.302,0.257 0.593,0.519 0.877,0.785c0.327,0.326 0.674,0.632 1.044,0.915c0.232,0.18 0.458,0.369 0.682,0.567c-0.111,0.121 -0.224,0.236 -0.335,0.349c-0.172,0.187 -0.338,0.372 -0.502,0.553c-0.155,0.164 -0.304,0.326 -0.451,0.49c-0.249,0.274 -0.49,0.549 -0.722,0.824c-0.068,0.086 -0.138,0.172 -0.206,0.257c-0.292,0.396 -0.596,0.779 -0.915,1.147c-0.292,0.336 -0.583,0.666 -0.875,0.992c-0.07,0.087 -0.142,0.168 -0.219,0.245c-0.13,-0.111 -0.266,-0.228 -0.413,-0.347c-0.155,-0.121 -0.326,-0.279 -0.515,-0.477c-0.189,-0.198 -0.288,-0.43 -0.296,-0.696c-0.009,-0.266 0.051,-0.536 0.179,-0.811c0.13,-0.276 0.349,-0.594 0.658,-0.954c0.257,-0.318 0.519,-0.64 0.785,-0.966c-0.23,-0.206 -0.459,-0.413 -0.681,-0.619c-0.241,-0.215 -0.473,-0.434 -0.696,-0.657c-0.164,-0.154 -0.323,-0.309 -0.477,-0.464c-0.215,-0.188 -0.426,-0.377 -0.632,-0.567c-0.36,-0.309 -0.7,-0.64 -1.017,-0.992c-0.06,-0.059 -0.117,-0.125 -0.168,-0.193c0.215,-0.224 0.429,-0.447 0.644,-0.67c0.094,-0.094 0.19,-0.194 0.283,-0.296" style="fill:#153c67;fill-rule:nonzero;"/><path d="M23.441,20.09c-0.089,0 -0.181,-0.031 -0.253,-0.094c-0.127,-0.11 -0.262,-0.223 -0.404,-0.342c-0.164,-0.126 -0.346,-0.294 -0.55,-0.508c-0.256,-0.267 -0.391,-0.587 -0.402,-0.95c-0.012,-0.327 0.061,-0.659 0.216,-0.989c0.145,-0.309 0.379,-0.651 0.713,-1.04c0.178,-0.22 0.361,-0.445 0.546,-0.674c-0.138,-0.125 -0.276,-0.25 -0.411,-0.375c-0.242,-0.217 -0.481,-0.441 -0.707,-0.669c-0.158,-0.15 -0.32,-0.306 -0.477,-0.464c-0.199,-0.174 -0.411,-0.364 -0.619,-0.555c-0.361,-0.309 -0.716,-0.655 -1.044,-1.018c-0.059,-0.058 -0.127,-0.138 -0.19,-0.22c-0.114,-0.151 -0.101,-0.363 0.032,-0.5l0.641,-0.669c-0.555,-0.478 -1.095,-0.986 -1.606,-1.512c-0.349,-0.349 -0.719,-0.693 -1.097,-1.021c-0.008,-0.007 -0.015,-0.012 -0.022,-0.02c-0.013,-0.014 -0.03,-0.027 -0.048,-0.041c-0.171,-0.128 -0.205,-0.371 -0.076,-0.542c0.128,-0.169 0.37,-0.203 0.541,-0.075c0.046,0.034 0.086,0.068 0.12,0.102c0.388,0.337 0.77,0.692 1.131,1.055c0.511,0.523 1.045,1.026 1.595,1.497c0.036,-0.036 0.07,-0.073 0.104,-0.11l0.68,-0.731c0.151,-0.151 0.396,-0.15 0.547,0c0.108,0.108 0.22,0.217 0.337,0.325c0.209,0.184 0.426,0.383 0.636,0.584c0.32,0.303 0.653,0.608 0.992,0.902c0.141,0.124 0.282,0.252 0.421,0.383c0.171,0.147 0.355,0.307 0.537,0.472c0.297,0.255 0.596,0.523 0.882,0.792c0.322,0.321 0.661,0.617 1.013,0.889c0.238,0.185 0.474,0.381 0.705,0.585c0.078,0.068 0.125,0.166 0.129,0.27c0.006,0.104 -0.031,0.205 -0.102,0.282c-0.115,0.124 -0.231,0.243 -0.344,0.357l-0.49,0.541c-0.158,0.167 -0.306,0.327 -0.45,0.488c-0.249,0.275 -0.488,0.548 -0.714,0.816l-0.199,0.25c-0.288,0.389 -0.601,0.781 -0.924,1.157c-0.294,0.339 -0.589,0.67 -0.881,0.998c-0.064,0.079 -0.146,0.173 -0.235,0.26c-0.075,0.076 -0.173,0.114 -0.273,0.114m-2.748,-8.119c0.293,0.318 0.596,0.609 0.912,0.881c0.215,0.195 0.423,0.383 0.637,0.569c0.169,0.17 0.325,0.322 0.486,0.474c0.224,0.224 0.453,0.44 0.688,0.649c0.226,0.209 0.452,0.414 0.681,0.619c0.155,0.137 0.174,0.373 0.043,0.532c-0.266,0.326 -0.528,0.649 -0.786,0.967c-0.291,0.34 -0.493,0.632 -0.606,0.874c-0.102,0.217 -0.151,0.431 -0.145,0.634c0.006,0.172 0.067,0.312 0.191,0.441c0.175,0.184 0.333,0.332 0.472,0.439c0.049,0.04 0.094,0.078 0.14,0.115c0.287,-0.323 0.563,-0.636 0.839,-0.952c0.309,-0.36 0.611,-0.737 0.895,-1.123l0.215,-0.269c0.238,-0.283 0.484,-0.563 0.737,-0.844c0.147,-0.163 0.301,-0.329 0.457,-0.495l0.497,-0.548c0.021,-0.021 0.041,-0.041 0.061,-0.061c-0.12,-0.1 -0.24,-0.195 -0.36,-0.289c-0.379,-0.29 -0.741,-0.609 -1.079,-0.946c-0.269,-0.252 -0.559,-0.513 -0.855,-0.766c-0.185,-0.168 -0.363,-0.324 -0.541,-0.477c-0.146,-0.138 -0.282,-0.259 -0.415,-0.377c-0.346,-0.301 -0.688,-0.613 -1.016,-0.925c-0.204,-0.195 -0.413,-0.385 -0.621,-0.569c-0.028,-0.026 -0.054,-0.051 -0.081,-0.075l-0.397,0.432c-0.124,0.133 -0.245,0.258 -0.366,0.38c-0.097,0.105 -0.193,0.206 -0.29,0.302l-0.393,0.408Z" style="fill:#153c67;fill-rule:nonzero;"/></g></g></svg>