<?xml version="1.0" encoding="UTF-8" standalone="no"?>
<!DOCTYPE svg PUBLIC "-//W3C//DTD SVG 1.1//EN" "http://www.w3.org/Graphics/SVG/1.1/DTD/svg11.dtd">
<svg width="100%" height="100%" viewBox="0 0 125 125" version="1.1" xmlns="http://www.w3.org/2000/svg" xmlns:xlink="http://www.w3.org/1999/xlink" xml:space="preserve" xmlns:serif="http://www.serif.com/" style="fill-rule:evenodd;clip-rule:evenodd;stroke-linejoin:round;stroke-miterlimit:2;">
    <g id="Page-1" serif:id="Page 1" transform="matrix(0.250552,0,0,0.176389,0,0)">
        <rect x="0" y="0" width="498.898" height="708.662" style="fill:none;"/>
        <clipPath id="_clip1">
            <rect x="0" y="0" width="498.898" height="708.662"/>
        </clipPath>
        <g clip-path="url(#_clip1)">
            <g transform="matrix(23.4797,0,0,33.3518,-994.5,-9213.14)">
                <g transform="matrix(1,0,0,1,65.1561,283.682)">
                    <path d="M0,0.742C-0.809,1.389 -1.298,1.777 -1.465,1.905C-1.904,2.234 -2.343,2.564 -2.783,2.893C-3.21,3.235 -3.637,3.564 -4.064,3.882C-4.492,4.212 -4.919,4.541 -5.346,4.871C-5.908,5.31 -6.463,5.762 -7.012,6.225C-7.342,6.494 -7.671,6.762 -8.001,7.031C-8.245,7.251 -8.495,7.464 -8.752,7.672C-9.19,8.041 -9.63,8.38 -10.07,8.688C-9.136,7.991 -8.495,7.073 -8.147,5.932C-7.671,4.419 -7.769,2.954 -8.44,1.538C-8.819,0.733 -9.344,0.037 -10.015,-0.549C-11.284,-1.464 -12.694,-1.837 -14.244,-1.666C-15.29,-1.524 -16.214,-1.155 -17.018,-0.558C-16.576,-0.9 -16.109,-1.215 -15.617,-1.501C-15.056,-1.856 -14.479,-2.237 -13.887,-2.645C-13.295,-3.051 -12.773,-3.411 -12.322,-3.725C-11.871,-4.039 -11.44,-4.341 -11.031,-4.632C-10.643,-4.91 -9.038,-6.015 -6.216,-7.946C-5.927,-7.819 -5.656,-7.673 -5.401,-7.506C-5.303,-7.445 -5.206,-7.384 -5.108,-7.323C-4.864,-7.177 -4.626,-6.987 -4.394,-6.755C-4.345,-6.707 -4.296,-6.664 -4.247,-6.627C-3.93,-6.359 -3.625,-6.072 -3.332,-5.767C-3.036,-5.44 -2.74,-5.11 -2.444,-4.778C-2.276,-4.59 -2.108,-4.4 -1.941,-4.21C-1.721,-3.954 -1.526,-3.686 -1.355,-3.405C-1.082,-2.947 -0.856,-2.465 -0.677,-1.959C-0.631,-1.832 -0.588,-1.704 -0.549,-1.574C-0.488,-1.403 -0.433,-1.226 -0.384,-1.043C-0.372,-0.982 -0.36,-0.927 -0.348,-0.878C-0.201,-0.39 -0.092,0.11 -0.018,0.623C-0.013,0.663 -0.007,0.702 0,0.742M-9.246,-2.837C-8.697,-3.155 -8.141,-3.497 -7.58,-3.863C-7.433,-3.948 -7.299,-4.04 -7.177,-4.137C-7.299,-4.04 -7.433,-3.948 -7.58,-3.863C-8.141,-3.497 -8.697,-3.155 -9.246,-2.837M-5.548,-2.673C-5.059,-3.088 -4.541,-3.466 -3.991,-3.808C-3.796,-3.93 -3.601,-4.052 -3.405,-4.174C-3.21,-4.296 -3.015,-4.418 -2.819,-4.54C-2.692,-4.618 -2.567,-4.698 -2.444,-4.778C-2.567,-4.698 -2.692,-4.618 -2.819,-4.54C-3.015,-4.418 -3.21,-4.296 -3.405,-4.174C-3.601,-4.052 -3.796,-3.93 -3.991,-3.808C-4.541,-3.466 -5.059,-3.088 -5.548,-2.673M-2.801,-0.494C-2.276,-0.897 -1.739,-1.275 -1.19,-1.629C-1.031,-1.727 -0.86,-1.837 -0.677,-1.959C-0.86,-1.837 -1.031,-1.727 -1.19,-1.629C-1.739,-1.275 -2.276,-0.897 -2.801,-0.494M-4.541,0.733L-4.541,0.733Z" style="fill:rgb(21,60,103);fill-rule:nonzero;"/>
                </g>
                <g transform="matrix(1,0,0,1,51.2257,274.783)">
                    <path d="M0,19.407C-0.171,19.407 -0.342,19.401 -0.516,19.39C-2.358,19.2 -3.775,18.36 -4.745,16.892C-5.56,15.643 -5.966,14.272 -5.953,12.813C-5.94,11.225 -5.403,9.856 -4.357,8.743C-4.095,8.461 -3.809,8.202 -3.51,7.976L-3.433,7.914C-3.43,7.912 -3.427,7.91 -3.424,7.907C-2.965,7.551 -2.473,7.22 -1.963,6.924C-1.429,6.586 -0.853,6.205 -0.268,5.802C0.324,5.396 0.844,5.037 1.295,4.723C1.745,4.411 2.173,4.11 2.581,3.82C2.97,3.541 4.594,2.424 7.404,0.501L7.406,0.499C7.407,0.499 7.407,0.499 7.408,0.498L7.89,0.171C8.141,0 8.482,0.064 8.653,0.314C8.825,0.565 8.76,0.907 8.51,1.078L8.025,1.407C5.221,3.326 3.604,4.438 3.219,4.714C2.807,5.007 2.375,5.31 1.922,5.625C1.493,5.924 1.001,6.264 0.444,6.645C1.818,6.654 3.088,7.077 4.237,7.905C4.251,7.915 4.264,7.926 4.277,7.937C5.003,8.57 5.578,9.333 5.987,10.204C6.7,11.707 6.819,13.282 6.34,14.887L6.571,14.699C7.114,14.241 7.679,13.781 8.246,13.337L9.53,12.346C9.958,12.029 10.384,11.7 10.805,11.364L12.136,10.365C12.298,10.241 12.782,9.857 13.584,9.215C13.778,9.055 13.992,8.881 14.226,8.692C14.463,8.502 14.808,8.539 14.999,8.775C15.189,9.011 15.152,9.356 14.916,9.547C14.685,9.734 14.473,9.906 14.281,10.064C14.279,10.066 14.276,10.068 14.274,10.07C14.274,10.07 14.273,10.07 14.273,10.071C13.459,10.722 12.967,11.112 12.799,11.24L11.477,12.232C11.059,12.566 10.623,12.903 10.194,13.222L8.92,14.205C8.367,14.637 7.812,15.089 7.273,15.544L6.277,16.356C6.045,16.565 5.785,16.787 5.524,16.998C5.083,17.369 4.627,17.721 4.177,18.036L4.176,18.037L4.116,18.084C4.033,18.144 3.966,18.19 3.897,18.236C3.869,18.257 3.84,18.277 3.809,18.297C2.637,19.035 1.359,19.407 0,19.407M-2.76,8.782L-2.836,8.843C-3.096,9.04 -3.334,9.256 -3.555,9.494C-4.419,10.413 -4.843,11.501 -4.854,12.822C-4.865,14.061 -4.52,15.227 -3.827,16.289C-3.038,17.484 -1.924,18.141 -0.422,18.295C0.874,18.383 2.106,18.072 3.22,17.37C3.233,17.36 3.261,17.339 3.275,17.33C3.339,17.288 3.402,17.245 3.462,17.203L3.515,17.16C3.521,17.156 3.526,17.151 3.532,17.147C4.378,16.516 4.942,15.707 5.257,14.672C5.696,13.278 5.609,11.971 4.994,10.673C4.652,9.946 4.175,9.311 3.574,8.781C2.413,7.951 1.161,7.625 -0.253,7.78C-1.187,7.906 -2.035,8.244 -2.759,8.782L-2.76,8.782M0.456,17.197C-0.088,17.197 -0.625,17.107 -1.151,16.926C-2.16,16.556 -2.896,15.911 -3.35,15.004C-3.831,14.085 -3.971,13.094 -3.763,12.068C-3.51,10.956 -2.911,10.075 -1.979,9.436C-1.969,9.429 -1.958,9.422 -1.948,9.415C-1.406,9.096 -0.802,8.899 -0.152,8.83C0.962,8.705 1.993,8.993 2.911,9.689C3.689,10.259 4.209,11.028 4.448,11.969C4.671,12.982 4.588,13.971 4.206,14.926C4.201,14.938 4.195,14.95 4.19,14.962C3.654,16.063 2.806,16.765 1.669,17.049C1.262,17.148 0.857,17.197 0.456,17.197M-1.373,10.352C-2.071,10.836 -2.501,11.473 -2.689,12.299C-2.845,13.07 -2.742,13.795 -2.372,14.504C-2.039,15.17 -1.521,15.621 -0.784,15.891C-0.072,16.135 0.648,16.167 1.406,15.983C2.215,15.78 2.801,15.295 3.193,14.499C3.49,13.749 3.55,13.003 3.379,12.222C3.206,11.542 2.837,10.996 2.254,10.57C1.552,10.038 0.806,9.826 -0.033,9.922C-0.522,9.974 -0.972,10.118 -1.373,10.352M0.284,15.037C0.232,15.037 0.179,15.036 0.126,15.032C-0.469,14.98 -0.941,14.697 -1.252,14.213C-1.502,13.838 -1.632,13.415 -1.632,12.964C-1.615,12.448 -1.444,12.016 -1.124,11.662C-0.763,11.3 -0.342,11.093 0.145,11.028C0.665,10.962 1.152,11.086 1.595,11.398C1.61,11.408 1.623,11.419 1.637,11.43C1.873,11.633 2.053,11.882 2.172,12.17C2.392,12.623 2.426,13.13 2.26,13.646C2.126,14.096 1.854,14.454 1.455,14.697C1.104,14.922 0.708,15.037 0.284,15.037M0.413,12.109C0.372,12.109 0.33,12.112 0.288,12.118C0.044,12.15 -0.158,12.249 -0.328,12.419C-0.454,12.56 -0.526,12.745 -0.534,12.983C-0.534,13.197 -0.468,13.409 -0.333,13.612C-0.2,13.817 -0.034,13.915 0.211,13.937C0.449,13.952 0.668,13.896 0.873,13.765C1.048,13.659 1.151,13.52 1.21,13.321C1.293,13.064 1.279,12.844 1.169,12.617C1.107,12.47 1.036,12.368 0.941,12.281C0.769,12.165 0.598,12.109 0.413,12.109" style="fill:rgb(21,60,103);fill-rule:nonzero;"/>
                </g>
                <g transform="matrix(1,0,0,1,58.7121,278.277)">
                    <path d="M0,8.042C-0.172,8.042 -0.341,7.962 -0.448,7.811C-0.624,7.564 -0.566,7.221 -0.319,7.045L1.585,5.69C1.832,5.515 2.175,5.572 2.351,5.82C2.527,6.067 2.469,6.41 2.222,6.586L0.318,7.94C0.221,8.009 0.11,8.042 0,8.042M3.643,5.461C3.478,5.461 3.315,5.387 3.207,5.246C3.022,5.005 3.068,4.66 3.308,4.476C3.843,4.065 4.397,3.675 4.956,3.314C5.12,3.214 5.285,3.107 5.462,2.989C5.715,2.821 6.055,2.889 6.224,3.142C6.392,3.395 6.324,3.736 6.071,3.904C5.882,4.03 5.706,4.143 5.542,4.244C5.018,4.582 4.488,4.955 3.977,5.347C3.878,5.424 3.76,5.461 3.643,5.461M0.897,3.282C0.741,3.282 0.587,3.216 0.478,3.088C0.281,2.857 0.31,2.51 0.541,2.314C1.047,1.884 1.593,1.486 2.163,1.131L3.333,0.399C3.46,0.322 3.581,0.245 3.699,0.167C3.953,0 4.294,0.072 4.46,0.327C4.626,0.581 4.554,0.921 4.3,1.087C4.173,1.17 4.044,1.252 3.912,1.333L2.744,2.063C2.219,2.39 1.717,2.756 1.252,3.151C1.149,3.239 1.022,3.282 0.897,3.282M-2.801,3.117C-2.991,3.117 -3.176,3.019 -3.278,2.843C-3.429,2.58 -3.339,2.244 -3.077,2.092C-2.538,1.781 -1.986,1.441 -1.436,1.082C-1.29,0.996 -1.177,0.919 -1.076,0.839C-0.839,0.65 -0.493,0.688 -0.304,0.925C-0.114,1.162 -0.153,1.507 -0.39,1.697C-0.532,1.811 -0.69,1.918 -0.859,2.017C-1.403,2.372 -1.972,2.722 -2.527,3.043C-2.614,3.093 -2.708,3.117 -2.801,3.117" style="fill:white;fill-rule:nonzero;"/>
                </g>
            </g>
        </g>
    </g>
</svg>
