<?xml version="1.0" encoding="UTF-8" standalone="no"?><!DOCTYPE svg PUBLIC "-//W3C//DTD SVG 1.1//EN" "http://www.w3.org/Graphics/SVG/1.1/DTD/svg11.dtd"><svg width="100%" height="100%" viewBox="0 0 30 30" version="1.1" xmlns="http://www.w3.org/2000/svg" xmlns:xlink="http://www.w3.org/1999/xlink" xml:space="preserve" xmlns:serif="http://www.serif.com/" style="fill-rule:evenodd;clip-rule:evenodd;stroke-linejoin:round;stroke-miterlimit:2;"><rect id="Export" x="0" y="0" width="30" height="30" style="fill:none;"/><g><path d="M25.361,7.496c-0.006,-0.345 -0.287,-0.622 -0.632,-0.622c-0.256,0 -0.512,-0.007 -0.768,-0.021l-0.028,0c-1.914,-0.015 -3.826,-0.022 -5.739,-0.022l-6.366,0c-0.362,0 -2.483,0.034 -6.674,0.106c-0.347,0.006 -0.624,0.291 -0.621,0.638l0.063,6.683c0.003,0.347 0.285,0.627 0.633,0.627l2.698,0l0,5.438c0,0.172 0.069,0.335 0.191,0.454c0.118,0.114 0.276,0.178 0.442,0.178l0.016,0c0.515,-0.013 1.022,-0.02 1.522,-0.02l1.334,0c0.011,1.249 0.016,2.296 0.016,3.141c0,1.097 0.006,1.905 0.02,2.4c0.011,0.343 0.29,0.615 0.633,0.615l0.872,0c0.651,0.014 1.309,0.02 1.974,0.02l2.108,0c0.514,0 1.021,0.008 1.521,0.021c0.007,0.001 0.012,0.001 0.018,0.001c0.165,0 0.323,-0.064 0.441,-0.18c0.123,-0.119 0.192,-0.282 0.192,-0.452l0,-5.629l1.289,0l1.096,-0.043c0.344,-0.014 0.613,-0.299 0.608,-0.642l-0.095,-5.451l0.348,0c0.429,0 0.864,-0.006 1.286,-0.02c0.359,0 0.726,-0.007 1.101,-0.022c0.342,-0.013 0.612,-0.299 0.606,-0.642l-0.105,-6.556Zm-7.939,6.019c-0.643,0.013 -1.285,0.02 -1.926,0.02l-2.13,0c-0.299,0 -0.602,0.003 -0.906,0.008l0,-5.447l5.125,0c0.039,0.583 0.068,1.176 0.082,1.762c0.014,0.685 0.02,1.37 0.02,2.054l0,1.603l-0.265,0Zm-11.618,-5.325c2.745,-0.046 4.506,-0.076 5.391,-0.087l0,5.466l-1.542,0.03c-0.358,0.013 -0.722,0.021 -1.093,0.021l-2.705,0l-0.051,-5.43Zm3.388,11.487l0,-4.8c0.17,-0.004 0.336,-0.007 0.499,-0.014l0.95,-0.023l1.187,-0.019l0.016,0c0.515,-0.014 1.022,-0.021 1.522,-0.021l0.998,0l0.055,1.194c0.016,0.685 0.022,1.375 0.022,2.073l0,1.603l-4.343,0c-0.299,0 -0.602,0.002 -0.906,0.007m7.863,6.17l-2.108,0c-0.656,0 -1.305,-0.007 -1.961,-0.021l-0.264,0c-0.006,-0.456 -0.009,-1.041 -0.009,-1.75c0,-0.845 -0.005,-1.893 -0.017,-3.141l2.393,0l1.693,-0.043c0.393,-0.014 0.786,-0.02 1.18,-0.02l0,4.982c-0.3,-0.005 -0.602,-0.007 -0.907,-0.007m1.539,-6.24l-0.612,0c-0.414,0 -0.828,0.007 -1.238,0.021l-1.038,0.026l0,-1.587c0,-0.707 -0.007,-1.406 -0.022,-2.116l-0.053,-1.152c0.605,-0.001 1.211,-0.008 1.804,-0.02l0.9,0c0.557,-0.013 1.115,-0.021 1.694,-0.021c0.277,-0.01 0.554,-0.012 0.831,-0.015l0.085,4.846l-2.351,0.018Zm5.145,-6.155c-0.429,0.013 -0.85,0.02 -1.266,0.02l-1.243,0c-0.416,0 -0.83,0.007 -1.223,0.021c-0.351,0 -0.703,0.002 -1.055,0.008l0,-1.589c0,-0.693 -0.006,-1.387 -0.02,-2.081c-0.014,-0.579 -0.041,-1.161 -0.08,-1.735c1.686,0.002 3.371,0.008 5.057,0.021c0.065,0.004 0.131,0.006 0.197,0.009l0.086,5.322c-0.15,0.003 -0.3,0.003 -0.453,0.004" style="fill:#153c67;fill-rule:nonzero;"/></g></svg>