<?xml version="1.0" encoding="UTF-8" standalone="no"?>
<!DOCTYPE svg PUBLIC "-//W3C//DTD SVG 1.1//EN" "http://www.w3.org/Graphics/SVG/1.1/DTD/svg11.dtd">
<svg width="100%" height="100%" viewBox="0 0 125 125" version="1.1" xmlns="http://www.w3.org/2000/svg" xmlns:xlink="http://www.w3.org/1999/xlink" xml:space="preserve" xmlns:serif="http://www.serif.com/" style="fill-rule:evenodd;clip-rule:evenodd;stroke-linejoin:round;stroke-miterlimit:2;">
    <g id="Page-1" serif:id="Page 1" transform="matrix(0.250552,0,0,0.176389,0,0)">
        <rect x="0" y="0" width="498.898" height="708.662" style="fill:none;"/>
        <clipPath id="_clip1">
            <rect x="0" y="0" width="498.898" height="708.662"/>
        </clipPath>
        <g clip-path="url(#_clip1)">
            <g transform="matrix(16.6299,0,0,23.6221,175.517,-19.3133)">
                <path d="M0,22.431C6.194,22.431 11.215,17.41 11.215,11.215C11.215,5.021 6.194,0 0,0C-6.194,0 -11.215,5.021 -11.215,11.215C-11.215,17.41 -6.194,22.431 0,22.431" style="fill:white;fill-rule:nonzero;"/>
            </g>
            <g transform="matrix(23.7184,0,0,33.691,-1007.15,-17935.5)">
                <clipPath id="_clip2">
                    <path d="M41.764,542.871C41.764,549.066 46.786,554.087 52.98,554.087C59.174,554.087 64.196,549.066 64.196,542.871C64.196,536.677 59.174,531.656 52.98,531.656C46.786,531.656 41.764,536.677 41.764,542.871Z" clip-rule="nonzero"/>
                </clipPath>
                <g clip-path="url(#_clip2)">
                    <g transform="matrix(1,0,0,1,59.7273,550.932)">
                        <path d="M0,-16.086C-0.014,-15.71 -0.029,-15.335 -0.043,-14.959L1.152,-14.946C1.638,-14.395 2.054,-13.816 2.401,-13.21C2.39,-12.98 2.38,-12.75 2.37,-12.521L2.76,-12.509C3.12,-11.742 3.376,-10.933 3.528,-10.084C3.646,-9.43 3.703,-8.752 3.699,-8.048C3.7,-7.869 3.698,-7.692 3.693,-7.518C3.657,-6.635 3.522,-5.794 3.291,-4.995C2.905,-5.006 2.517,-5.02 2.127,-5.038C2.11,-4.193 2.086,-3.348 2.053,-2.503C2.086,-3.348 2.11,-4.193 2.127,-5.038C2.517,-5.02 2.905,-5.006 3.291,-4.995C3.036,-4.112 2.662,-3.279 2.169,-2.497C2.13,-2.499 2.091,-2.501 2.053,-2.503C1.192,-2.552 0.331,-2.6 -0.53,-2.649C0.331,-2.6 1.192,-2.552 2.053,-2.503C2.049,-2.436 2.047,-2.369 2.047,-2.302C1.647,-1.707 1.178,-1.14 0.64,-0.602C0.502,-0.464 0.362,-0.332 0.219,-0.206C-1.483,1.34 -3.473,2.217 -5.753,2.427L-5.649,-0.431C-5.6,-1.276 -5.552,-2.105 -5.503,-2.917C-5.552,-2.105 -5.6,-1.276 -5.649,-0.431L-5.753,2.427C-5.767,2.43 -5.781,2.432 -5.795,2.433C-6.134,2.464 -6.48,2.481 -6.831,2.482C-7.284,2.482 -7.727,2.457 -8.16,2.409L-8.16,2.08C-8.128,1.202 -8.095,0.316 -8.063,-0.577C-8.03,-1.406 -8.001,-2.247 -7.977,-3.1C-8.001,-2.247 -8.03,-1.406 -8.063,-0.577C-8.095,0.316 -8.128,1.202 -8.16,2.08L-10.183,1.958L-10.89,1.909L-10.878,1.689L-10.878,1.689C-12.099,1.176 -13.22,0.408 -14.241,-0.614C-14.32,-0.693 -14.395,-0.772 -14.467,-0.852C-14.032,-0.833 -13.596,-0.815 -13.157,-0.797L-13.157,-0.797C-13.596,-0.815 -14.032,-0.833 -14.467,-0.852C-15.239,-1.661 -15.854,-2.529 -16.313,-3.454C-16.713,-4.263 -16.997,-5.116 -17.166,-6.013C-16.499,-5.986 -15.829,-5.953 -15.156,-5.916C-15.829,-5.953 -16.499,-5.986 -17.166,-6.013C-17.282,-6.661 -17.339,-7.331 -17.337,-8.024C-17.321,-9.973 -16.859,-11.726 -15.954,-13.283L-14.668,-13.228L-15.954,-13.283C-15.496,-14.065 -14.926,-14.798 -14.241,-15.483C-14.098,-15.627 -13.951,-15.765 -13.802,-15.897L-12.279,-15.861C-12.279,-16.218 -12.271,-16.568 -12.255,-16.909C-12.252,-16.963 -12.25,-17.018 -12.249,-17.073C-12.25,-17.018 -12.252,-16.963 -12.255,-16.909C-12.271,-16.568 -12.279,-16.218 -12.279,-15.861L-13.802,-15.897C-13.308,-16.345 -12.79,-16.737 -12.249,-17.073C-11.474,-17.55 -10.649,-17.912 -9.774,-18.158C-8.998,-18.38 -8.181,-18.51 -7.325,-18.548C-7.329,-18.258 -7.331,-17.972 -7.331,-17.689C-6.502,-17.689 -5.657,-17.68 -4.796,-17.664C-3.993,-17.649 -3.188,-17.641 -2.383,-17.64C-1.537,-17.248 -0.743,-16.73 0,-16.086M0.219,-0.206C-0.063,-0.209 -0.345,-0.212 -0.628,-0.212C-1.473,-0.26 -2.318,-0.301 -3.163,-0.334C-3.195,0.365 -3.228,1.072 -3.26,1.787C-3.228,1.072 -3.195,0.365 -3.163,-0.334C-2.318,-0.301 -1.473,-0.26 -0.628,-0.212C-0.345,-0.212 -0.063,-0.209 0.219,-0.206M-3.163,-0.334C-3.992,-0.366 -4.82,-0.399 -5.649,-0.431C-4.82,-0.399 -3.992,-0.366 -3.163,-0.334M-15.399,-3.429C-15.704,-3.437 -16.009,-3.445 -16.313,-3.454C-16.009,-3.445 -15.704,-3.437 -15.399,-3.429M-14.985,-8.256C-15.066,-7.476 -15.123,-6.696 -15.156,-5.916C-15.237,-5.087 -15.318,-4.258 -15.399,-3.429C-15.139,-3.413 -14.895,-3.405 -14.668,-3.405C-14.099,-3.373 -13.539,-3.348 -12.986,-3.332L-12.596,-8.158L-12.389,-10.632C-13.209,-10.673 -14.018,-10.718 -14.814,-10.766C-14.879,-9.937 -14.936,-9.101 -14.985,-8.256C-14.936,-9.101 -14.879,-9.937 -14.814,-10.766C-14.018,-10.718 -13.209,-10.673 -12.389,-10.632L-12.596,-8.158L-12.986,-3.332C-13.539,-3.348 -14.099,-3.373 -14.668,-3.405C-14.895,-3.405 -15.139,-3.413 -15.399,-3.429C-15.318,-4.258 -15.237,-5.087 -15.156,-5.916C-15.123,-6.696 -15.066,-7.476 -14.985,-8.256M-9.841,-15.812L-9.915,-12.984L-7.502,-12.887L-7.502,-12.936C-7.485,-13.651 -7.461,-14.374 -7.428,-15.105C-7.412,-15.527 -7.396,-15.958 -7.38,-16.397C-7.38,-16.836 -7.363,-17.266 -7.331,-17.689C-7.363,-17.266 -7.38,-16.836 -7.38,-16.397C-7.396,-15.958 -7.412,-15.527 -7.428,-15.105C-7.461,-14.374 -7.485,-13.651 -7.502,-12.936L-7.502,-12.887L-9.915,-12.984L-9.841,-15.812ZM-7.502,-12.887C-7.55,-12.074 -7.591,-11.262 -7.624,-10.449C-7.12,-10.449 -6.608,-10.441 -6.088,-10.425L-5.064,-10.425C-5.031,-11.238 -4.999,-12.042 -4.966,-12.838C-4.95,-13.309 -4.934,-13.789 -4.918,-14.276C-4.902,-14.536 -4.885,-14.796 -4.869,-15.056C-4.853,-15.934 -4.828,-16.803 -4.796,-17.664C-4.828,-16.803 -4.853,-15.934 -4.869,-15.056C-4.885,-14.796 -4.902,-14.536 -4.918,-14.276C-4.934,-13.789 -4.95,-13.309 -4.966,-12.838C-4.999,-12.042 -5.031,-11.238 -5.064,-10.425L-6.088,-10.425C-6.608,-10.441 -7.12,-10.449 -7.624,-10.449C-7.591,-11.262 -7.55,-12.074 -7.502,-12.887M-5.064,-10.425C-5.113,-9.58 -5.162,-8.727 -5.21,-7.866L-5.162,-7.866C-4.373,-7.825 -3.585,-7.792 -2.797,-7.768C-2.732,-8.629 -2.683,-9.491 -2.651,-10.352C-2.602,-11.148 -2.553,-11.944 -2.505,-12.741C-2.472,-13.326 -2.448,-13.902 -2.431,-14.471C-2.391,-14.658 -2.375,-14.837 -2.383,-15.007L-2.383,-15.007C-2.375,-14.837 -2.391,-14.658 -2.431,-14.471C-2.448,-13.902 -2.472,-13.326 -2.505,-12.741C-2.553,-11.944 -2.602,-11.148 -2.651,-10.352C-2.683,-9.491 -2.732,-8.629 -2.797,-7.768C-3.585,-7.792 -4.373,-7.825 -5.162,-7.866L-5.21,-7.866C-5.162,-8.727 -5.113,-9.58 -5.064,-10.425M-2.383,-17.64C-3.188,-17.641 -3.993,-17.649 -4.796,-17.664C-5.657,-17.68 -6.502,-17.689 -7.331,-17.689C-7.331,-17.972 -7.329,-18.258 -7.325,-18.548C-7.154,-18.552 -6.981,-18.554 -6.807,-18.554C-5.205,-18.568 -3.731,-18.263 -2.383,-17.64M-14.814,-10.766L-14.814,-11.229C-14.765,-11.896 -14.717,-12.562 -14.668,-13.228C-14.717,-12.562 -14.765,-11.896 -14.814,-11.229L-14.814,-10.766M-7.624,-10.449C-8.403,-10.482 -9.175,-10.514 -9.939,-10.547L-10.207,-10.547C-10.955,-10.563 -11.682,-10.592 -12.389,-10.632C-11.682,-10.592 -10.955,-10.563 -10.207,-10.547L-9.939,-10.547C-9.175,-10.514 -8.403,-10.482 -7.624,-10.449M-12.596,-8.158C-11.848,-8.126 -11.093,-8.101 -10.329,-8.085C-9.468,-8.052 -8.607,-8.012 -7.745,-7.963C-6.884,-7.93 -6.039,-7.898 -5.21,-7.866C-6.039,-7.898 -6.884,-7.93 -7.745,-7.963C-8.607,-8.012 -9.468,-8.052 -10.329,-8.085C-11.093,-8.101 -11.848,-8.126 -12.596,-8.158M-13.157,-0.797C-12.36,-0.764 -11.556,-0.732 -10.744,-0.699L-10.476,-5.672L-10.744,-0.699C-11.556,-0.732 -12.36,-0.764 -13.157,-0.797M-9.841,-15.812L-9.841,-15.812ZM-5.381,-5.379C-6.21,-5.428 -7.039,-5.469 -7.867,-5.501C-7.9,-4.689 -7.936,-3.888 -7.977,-3.1C-7.156,-3.059 -6.332,-2.999 -5.503,-2.917L-5.162,-2.917C-4.463,-2.885 -3.756,-2.844 -3.041,-2.796C-2.212,-2.73 -1.375,-2.682 -0.53,-2.649C-0.498,-3.348 -0.473,-4.055 -0.457,-4.77C-0.441,-4.9 -0.433,-5.022 -0.433,-5.135C-1.262,-5.168 -2.091,-5.209 -2.919,-5.257C-3.732,-5.274 -4.536,-5.306 -5.332,-5.355C-5.365,-5.355 -5.381,-5.363 -5.381,-5.379C-5.381,-5.363 -5.365,-5.355 -5.332,-5.355C-4.536,-5.306 -3.732,-5.274 -2.919,-5.257C-2.091,-5.209 -1.262,-5.168 -0.433,-5.135C-0.433,-5.022 -0.441,-4.9 -0.457,-4.77C-0.473,-4.055 -0.498,-3.348 -0.53,-2.649C-1.375,-2.682 -2.212,-2.73 -3.041,-2.796C-3.756,-2.844 -4.463,-2.885 -5.162,-2.917L-5.503,-2.917C-6.332,-2.999 -7.156,-3.059 -7.977,-3.1C-7.936,-3.888 -7.9,-4.689 -7.867,-5.501C-7.039,-5.469 -6.21,-5.428 -5.381,-5.379M-2.919,-5.257C-2.886,-6.086 -2.846,-6.923 -2.797,-7.768C-2.846,-6.923 -2.886,-6.086 -2.919,-5.257M-0.14,-12.643L-0.14,-12.643C-0.173,-11.847 -0.197,-11.059 -0.213,-10.278C0.615,-10.23 1.436,-10.189 2.249,-10.157C2.675,-10.132 3.102,-10.108 3.528,-10.084C3.102,-10.108 2.675,-10.132 2.249,-10.157C1.436,-10.189 0.615,-10.23 -0.213,-10.278C-0.197,-11.059 -0.173,-11.847 -0.14,-12.643ZM-0.433,-5.135C-0.4,-5.981 -0.368,-6.834 -0.335,-7.695C-0.287,-8.556 -0.246,-9.417 -0.213,-10.278C-0.246,-9.417 -0.287,-8.556 -0.335,-7.695C-0.368,-6.834 -0.4,-5.981 -0.433,-5.135M2.127,-5.038C2.11,-5.249 2.11,-5.469 2.127,-5.696C2.143,-6.313 2.159,-6.939 2.175,-7.573C2.191,-8.434 2.216,-9.295 2.249,-10.157C2.216,-9.295 2.191,-8.434 2.175,-7.573C2.159,-6.939 2.143,-6.313 2.127,-5.696C2.11,-5.469 2.11,-5.249 2.127,-5.038M-0.14,-12.643L-0.14,-12.643ZM3.693,-7.518C3.183,-7.535 2.677,-7.554 2.175,-7.573C2.677,-7.554 3.183,-7.535 3.693,-7.518M-2.383,-15.007L-2.383,-15.007ZM-7.867,-5.501C-8.745,-5.55 -9.614,-5.607 -10.476,-5.672C-9.614,-5.607 -8.745,-5.55 -7.867,-5.501" style="fill:rgb(237,232,35);fill-rule:nonzero;"/>
                    </g>
                    <g transform="matrix(1,0,0,1,53.9748,531.867)">
                        <path d="M0,22.009L-0.019,22.009C-0.305,21.998 -0.527,21.759 -0.517,21.473L-0.413,18.616L-0.413,18.614C-0.413,18.607 -0.413,18.6 -0.412,18.593C-0.373,17.919 -0.335,17.262 -0.296,16.616C-0.772,16.574 -1.25,16.539 -1.723,16.51C-1.744,17.184 -1.767,17.85 -1.793,18.508L-1.891,21.164C-1.896,21.303 -1.957,21.434 -2.06,21.527C-2.163,21.621 -2.297,21.671 -2.438,21.661L-4.462,21.539C-4.665,21.527 -4.833,21.399 -4.907,21.224C-4.982,21.258 -5.066,21.275 -5.154,21.271C-5.439,21.255 -5.657,21.011 -5.641,20.726L-5.537,18.861L-7.424,18.785L-7.426,18.785L-8.736,18.73C-9.022,18.718 -9.243,18.476 -9.231,18.191C-9.219,17.906 -8.978,17.687 -8.692,17.697L-7.886,17.73L-7.785,16.232C-8.164,16.217 -8.552,16.199 -8.945,16.176C-9.149,16.177 -9.405,16.169 -9.669,16.152L-10.575,16.128C-10.86,16.12 -11.085,15.883 -11.078,15.597C-11.07,15.312 -10.82,15.083 -10.547,15.094L-10.114,15.106L-9.97,13.637C-10.46,13.612 -10.948,13.589 -11.435,13.568C-11.72,13.557 -11.942,13.316 -11.93,13.03C-11.919,12.745 -11.681,12.521 -11.392,12.535C-10.894,12.556 -10.395,12.579 -9.894,12.605C-9.861,12.001 -9.811,11.38 -9.748,10.768C-9.698,9.918 -9.642,9.081 -9.578,8.278L-9.579,7.836C-9.579,7.823 -9.578,7.811 -9.577,7.798L-9.47,6.331L-10.223,6.299C-10.509,6.287 -10.73,6.046 -10.718,5.76C-10.706,5.475 -10.47,5.256 -10.179,5.266L-8.895,5.32C-8.892,5.32 -8.888,5.32 -8.884,5.321L-4.665,5.537L-4.619,3.76L-6.536,3.721L-6.539,3.721L-8.062,3.685C-8.348,3.678 -8.574,3.441 -8.567,3.155C-8.56,2.87 -8.333,2.641 -8.037,2.651L-7.038,2.675C-7.033,2.491 -7.027,2.31 -7.019,2.132C-7.016,2.082 -7.014,2.032 -7.013,1.982C-7.008,1.697 -6.766,1.456 -6.487,1.475C-6.201,1.48 -5.974,1.716 -5.979,2.001C-5.98,2.062 -5.983,2.123 -5.986,2.182C-5.994,2.351 -6,2.523 -6.004,2.698L-4.591,2.726L-4.539,0.892C-4.531,0.607 -4.291,0.383 -4.007,0.39C-3.722,0.398 -3.497,0.636 -3.505,0.922L-3.632,5.585L-2.254,5.64C-2.238,5.077 -2.218,4.508 -2.192,3.937L-2.144,2.649C-2.144,2.223 -2.128,1.782 -2.095,1.356C-2.095,1.078 -2.093,0.796 -2.09,0.511C-2.086,0.227 -1.855,0 -1.573,0L-1.566,0C-1.28,0.004 -1.052,0.238 -1.055,0.524C-1.057,0.636 -1.058,0.748 -1.059,0.86C-0.402,0.863 0.276,0.871 0.965,0.884L0.968,0.884C1.768,0.899 2.569,0.907 3.37,0.908C3.656,0.908 3.887,1.14 3.887,1.426C3.887,1.711 3.655,1.942 3.37,1.942L3.369,1.942C2.731,1.942 2.093,1.936 1.455,1.927C1.438,2.444 1.423,2.971 1.411,3.502L3.38,3.541L3.382,3.541L5.212,3.579L5.236,2.959C5.247,2.674 5.493,2.459 5.772,2.462C6.058,2.473 6.28,2.714 6.269,2.999L6.247,3.595L6.91,3.602C7.195,3.605 7.424,3.838 7.421,4.124C7.418,4.41 7.194,4.642 6.899,4.636L5.704,4.624C5.702,4.624 5.7,4.623 5.698,4.623L3.85,4.585C3.846,4.608 3.841,4.631 3.837,4.654C3.825,5.044 3.81,5.438 3.791,5.829L5.633,5.905C5.635,5.905 5.637,5.905 5.639,5.906L7.629,6.002C7.631,5.945 7.634,5.888 7.637,5.831C7.651,5.545 7.893,5.32 8.178,5.339C8.464,5.353 8.684,5.595 8.67,5.88C8.667,5.94 8.664,6.001 8.661,6.061C8.881,6.126 9.037,6.333 9.03,6.572C9.021,6.852 8.791,7.073 8.513,7.073L8.497,7.073L8.107,7.061C8.103,7.061 8.1,7.06 8.096,7.06L6.109,6.964C6.092,7.414 6.079,7.861 6.067,8.299C6.731,8.335 7.386,8.366 8.021,8.391C8.028,8.392 8.034,8.392 8.04,8.393L9.31,8.465C9.595,8.481 9.813,8.726 9.797,9.011C9.781,9.296 9.533,9.511 9.251,9.498L8.499,9.454C8.481,9.969 8.467,10.484 8.455,10.994C8.789,11.007 9.125,11.019 9.463,11.03C9.748,11.04 9.972,11.279 9.962,11.565C9.952,11.85 9.714,12.078 9.427,12.064C9.094,12.052 8.762,12.041 8.431,12.028L8.396,13.382C8.392,13.433 8.39,13.483 8.388,13.531C8.612,13.539 8.835,13.547 9.057,13.553C9.343,13.561 9.568,13.799 9.56,14.084C9.552,14.369 9.3,14.595 9.029,14.587C8.815,14.581 8.6,14.574 8.385,14.566C8.372,15.124 8.355,15.69 8.335,16.257C8.407,16.352 8.446,16.473 8.438,16.601C8.429,16.731 8.374,16.847 8.289,16.933C8.219,17.135 8.026,17.28 7.8,17.28C7.623,17.28 7.466,17.191 7.373,17.056L5.198,16.932C4.347,16.899 3.497,16.85 2.671,16.785C2.023,16.741 1.376,16.703 0.736,16.672C0.708,17.155 0.679,17.644 0.65,18.138L2.61,18.215L2.611,18.215C3.449,18.247 4.305,18.288 5.154,18.337C5.409,18.337 5.695,18.338 5.979,18.342C6.264,18.346 6.493,18.581 6.489,18.866C6.485,19.15 6.254,19.376 5.972,19.376L5.965,19.376C5.685,19.373 5.405,19.371 5.124,19.37C4.43,19.331 3.75,19.297 3.083,19.269L3.009,20.876C2.996,21.161 2.756,21.378 2.469,21.369C2.183,21.356 1.963,21.114 1.976,20.829L2.049,19.228L0.601,19.171L0.516,21.511C0.506,21.79 0.277,22.009 0,22.009M-4.431,20.506C-4.421,20.506 -4.41,20.506 -4.399,20.507L-2.905,20.596L-2.827,18.469C-2.794,17.641 -2.766,16.802 -2.741,15.951L-2.741,15.937C-2.709,15.316 -2.679,14.687 -2.652,14.051C-3.185,14.019 -3.715,13.984 -4.235,13.947L-4.475,18.393L-4.475,18.395L-4.595,20.532C-4.543,20.515 -4.488,20.506 -4.431,20.506M-6.853,17.773L-5.48,17.829L-5.24,13.368C-5.239,13.365 -5.239,13.361 -5.239,13.358L-5.125,11.484C-5.54,11.473 -5.956,11.46 -6.368,11.444L-6.718,15.771L-6.853,17.773ZM5.761,15.928L7.308,16.016C7.331,15.351 7.349,14.689 7.362,14.041C7.346,13.813 7.346,13.575 7.363,13.332L7.411,11.479C7.424,10.796 7.442,10.099 7.466,9.403C6.998,9.383 6.519,9.359 6.035,9.333C6.006,10.029 5.972,10.722 5.933,11.399L5.837,13.94C5.836,14.063 5.828,14.195 5.812,14.332C5.8,14.861 5.783,15.396 5.761,15.928M0.275,15.631L0.591,15.631C1.317,15.664 2.028,15.705 2.747,15.754C3.399,15.805 4.062,15.846 4.728,15.877C4.748,15.393 4.763,14.906 4.775,14.425C4.116,14.396 3.455,14.362 2.803,14.324C2.01,14.308 1.191,14.275 0.389,14.226L0.387,14.226C0.321,14.226 0.26,14.215 0.204,14.194C-0.406,14.159 -1.017,14.128 -1.619,14.102C-1.639,14.564 -1.66,15.022 -1.682,15.477C-1.033,15.516 -0.377,15.567 0.275,15.631M-9.079,15.142C-9.023,15.143 -8.969,15.143 -8.915,15.143C-8.495,15.166 -8.095,15.185 -7.709,15.2L-7.359,10.868C-7.359,10.865 -7.359,10.862 -7.358,10.86L-7.196,8.922C-7.663,8.898 -8.126,8.872 -8.585,8.845C-8.633,9.495 -8.677,10.163 -8.716,10.839C-8.716,10.847 -8.717,10.855 -8.718,10.863C-8.797,11.626 -8.854,12.403 -8.886,13.17C-8.887,13.172 -8.887,13.175 -8.887,13.178C-8.888,13.195 -8.89,13.212 -8.892,13.228L-9.079,15.142ZM3.371,13.32C3.857,13.347 4.341,13.371 4.823,13.392L4.9,11.351C4.949,10.5 4.989,9.636 5.022,8.771C5.035,8.168 5.053,7.547 5.076,6.917L3.733,6.862L3.618,8.745C3.586,9.595 3.536,10.469 3.471,11.331C3.433,11.988 3.4,12.655 3.371,13.32M0.551,13.201C1.153,13.236 1.748,13.262 2.338,13.278C2.359,12.784 2.383,12.288 2.41,11.796C1.795,11.774 1.177,11.748 0.565,11.716C0.553,11.716 0.54,11.717 0.527,11.716L0.522,11.716L-2.012,11.619C-2.706,11.579 -3.402,11.545 -4.091,11.517L-4.176,12.915C-3.492,12.964 -2.793,13.008 -2.09,13.047C-1.272,13.079 -0.433,13.121 0.402,13.169C0.454,13.173 0.504,13.183 0.551,13.201M1.088,10.707C1.555,10.729 2.017,10.748 2.475,10.764C2.522,10.075 2.559,9.38 2.585,8.694L2.732,6.294L2.732,6.293C2.763,5.726 2.788,5.149 2.804,4.579C2.805,4.574 2.805,4.569 2.805,4.564L1.368,4.536L1.344,5.04L1.205,8.661L1.205,8.662C1.205,8.665 1.205,8.668 1.204,8.672C1.166,9.345 1.127,10.023 1.088,10.707M-4.549,10.464C-3.685,10.496 -2.818,10.537 -1.963,10.586L0.055,10.663C0.083,10.158 0.112,9.656 0.141,9.157L-0.335,9.157C-0.859,9.141 -1.369,9.133 -1.868,9.133C-1.875,9.132 -1.881,9.133 -1.888,9.132L-1.894,9.132L-4.209,9.035L-4.457,9.035C-5.037,9.023 -5.607,9.003 -6.163,8.976L-6.283,10.412C-5.716,10.434 -5.142,10.451 -4.569,10.463C-4.562,10.463 -4.555,10.463 -4.549,10.464M-1.332,8.102C-0.996,8.106 -0.657,8.113 -0.319,8.123L0.192,8.123L0.367,3.98L0.367,3.977C0.38,3.289 0.398,2.592 0.421,1.909C-0.093,1.901 -0.599,1.896 -1.092,1.894C-1.104,2.149 -1.11,2.408 -1.11,2.668L-1.159,3.98C-1.191,4.71 -1.216,5.43 -1.232,6.141L-1.232,6.171C-1.232,6.183 -1.232,6.195 -1.233,6.208L-1.233,6.209C-1.271,6.84 -1.304,7.474 -1.332,8.102M-4.187,8.001L-2.366,8.077C-2.345,7.612 -2.322,7.142 -2.296,6.674L-4.182,6.597L-4.19,6.597L-8.437,6.379L-8.541,7.812C-7.906,7.849 -7.262,7.884 -6.611,7.917L-6.61,7.917C-6.61,7.916 -6.608,7.917 -6.606,7.917C-5.906,7.957 -5.178,7.985 -4.444,8.001L-4.187,8.001Z" style="fill:rgb(21,60,103);fill-rule:nonzero;"/>
                    </g>
                </g>
            </g>
        </g>
    </g>
</svg>
