<?xml version="1.0" encoding="UTF-8" standalone="no"?><!DOCTYPE svg PUBLIC "-//W3C//DTD SVG 1.1//EN" "http://www.w3.org/Graphics/SVG/1.1/DTD/svg11.dtd"><svg width="100%" height="100%" viewBox="0 0 30 30" version="1.1" xmlns="http://www.w3.org/2000/svg" xmlns:xlink="http://www.w3.org/1999/xlink" xml:space="preserve" xmlns:serif="http://www.serif.com/" style="fill-rule:evenodd;clip-rule:evenodd;stroke-linecap:round;stroke-linejoin:round;stroke-miterlimit:1.5;"><rect id="Export" x="0" y="0" width="30" height="30" style="fill:none;"/><path d="M16.18,3.768l-12.759,0" style="fill:none;stroke:#153c67;stroke-width:1.5px;"/><rect x="5.749" y="3.768" width="8.521" height="10.337" style="fill:none;stroke:#153c67;stroke-width:1.5px;"/><rect x="5.749" y="14.105" width="18.16" height="6.752" style="fill:none;stroke:#153c67;stroke-width:1.5px;"/><circle cx="9.411" cy="20.857" r="3.376" style="fill:#ebebeb;stroke:#153c67;stroke-width:1.5px;"/><circle cx="15.632" cy="22.053" r="2.012" style="fill:#ebebeb;stroke:#153c67;stroke-width:1.5px;"/><circle cx="20.661" cy="22.053" r="2.012" style="fill:#ebebeb;stroke:#153c67;stroke-width:1.5px;"/><path d="M17.644,7.891l5.893,0l-1.222,3.695l-3.665,0l-1.006,-3.695Z" style="fill:none;stroke:#153c67;stroke-width:1.5px;"/><path d="M19.573,11.586l0,2.519" style="fill:none;stroke:#153c67;stroke-width:1.5px;"/><path d="M21.481,11.586l0,2.519" style="fill:none;stroke:#153c67;stroke-width:1.5px;"/><path d="M23.91,15.298l1.034,0l2.459,2.459l-2.459,2.459l-1.034,0" style="fill:none;stroke:#153c67;stroke-width:1.5px;"/><path d="M23.537,20.857l0,3.292l3.866,0l-3.293,-3.292" style="fill:none;stroke:#153c67;stroke-width:1.5px;"/></svg>