<?xml version="1.0" encoding="UTF-8" standalone="no"?><!DOCTYPE svg PUBLIC "-//W3C//DTD SVG 1.1//EN" "http://www.w3.org/Graphics/SVG/1.1/DTD/svg11.dtd"><svg width="100%" height="100%" viewBox="0 0 70 80" version="1.1" xmlns="http://www.w3.org/2000/svg" xmlns:xlink="http://www.w3.org/1999/xlink" xml:space="preserve" xmlns:serif="http://www.serif.com/" style="fill-rule:evenodd;clip-rule:evenodd;stroke-linecap:round;stroke-linejoin:round;stroke-miterlimit:3;"><g><path id="path23876" d="M32.844,15.833c1.794,-0.324 3.626,-0.487 5.494,-0.487c1.618,0.049 3.176,0.163 4.67,0.336c2.119,0.249 4.136,0.76 6.055,1.532c0.548,0.176 1.071,0.361 1.569,0.561c0.996,0.374 1.907,0.81 2.728,1.307c0.996,0.575 1.931,1.197 2.803,1.869l0.112,0.112c1.62,1.222 3.089,2.603 4.409,4.148c0.399,0.448 0.774,0.896 1.122,1.346c-0.423,0 -0.822,-0.012 -1.196,-0.038c-1.196,0.026 -2.379,0.05 -3.55,0.075c-1.072,0 -2.118,0.027 -3.14,0.075c-1.096,0.049 -2.178,0.1 -3.25,0.149c-0.723,0.051 -1.432,0.088 -2.131,0.113c-0.697,0.075 -1.369,0.136 -2.017,0.186c-0.748,0.05 -1.47,0.1 -2.167,0.15c-0.699,0.1 -1.408,0.174 -2.131,0.224c-1.345,0.15 -2.69,0.3 -4.036,0.448c-1.021,0.1 -2.056,0.212 -3.101,0.336c-0.699,0.076 -1.396,0.138 -2.093,0.188c-0.723,0.05 -1.432,0.112 -2.131,0.187c-0.697,0.124 -1.383,0.211 -2.055,0.261c-1.021,0.075 -2.068,0.187 -3.138,0.336c-1.096,0.1 -2.168,0.212 -3.215,0.336c-1.12,0.15 -2.241,0.287 -3.363,0.412c-0.673,0.099 -1.357,0.187 -2.054,0.262c-0.798,0.049 -1.546,0.112 -2.243,0.186c-0.772,0.126 -1.532,0.212 -2.28,0.262c-1.145,0.125 -2.279,0.249 -3.4,0.373c-1.171,0.125 -2.28,0.263 -3.327,0.411l-0.112,0.038c0.275,-0.548 0.562,-1.046 0.86,-1.494c0.598,-0.923 1.471,-1.968 2.616,-3.14c0.199,-0.224 0.423,-0.448 0.672,-0.672l0.075,-0.075c0.897,-0.848 1.757,-1.596 2.579,-2.243c0.598,-0.473 1.208,-0.909 1.83,-1.308c1.571,-1.02 3.302,-1.93 5.196,-2.728c1.892,-0.821 3.612,-1.532 5.156,-2.129c1.271,-0.449 2.355,-0.785 3.252,-1.009c0.274,-0.075 0.498,-0.136 0.672,-0.187c0.822,-0.125 1.632,-0.225 2.43,-0.299l0.037,0c0.124,-0.049 0.236,-0.086 0.336,-0.112c0.124,-0.025 0.249,-0.062 0.373,-0.113c0.375,-0.075 0.736,-0.136 1.084,-0.185c-0.348,0.049 -0.709,0.11 -1.084,0.185c-0.124,0.051 -0.249,0.088 -0.373,0.113l-0.037,-0.038" style="fill:#f25822;fill-rule:nonzero;"/><path id="path23880" d="M61.812,26.54c0.797,1.121 1.494,2.317 2.093,3.588c0.672,1.369 1.295,2.764 1.868,4.185c0.149,0.474 0.311,0.934 0.485,1.382c0.075,0.126 0.126,0.25 0.15,0.374c0.125,0.3 0.249,0.611 0.374,0.935c0.648,1.844 1.146,3.748 1.495,5.717c0.224,1.022 0.361,2.055 0.411,3.102c0,1.42 -0.012,2.852 -0.038,4.297c0,0.623 -0.025,1.271 -0.074,1.944c-0.05,0.497 -0.124,0.984 -0.226,1.457c-0.422,2.068 -0.933,4.084 -1.53,6.054c-0.151,0.448 -0.312,0.898 -0.487,1.345c-0.821,1.969 -1.831,3.837 -3.027,5.605c-1.196,1.794 -2.566,3.451 -4.11,4.971c-0.324,0.373 -0.698,0.711 -1.122,1.009c-1.768,1.32 -3.624,2.466 -5.568,3.439c-1.768,0.871 -3.624,1.519 -5.568,1.943c-0.996,0.224 -1.993,0.41 -2.989,0.56c-0.623,0.1 -1.259,0.174 -1.905,0.224c-0.35,0.025 -0.674,0.049 -0.972,0.074l-4.298,0c-1.918,0.026 -3.824,-0.086 -5.718,-0.336c-0.722,-0.1 -1.482,-0.21 -2.279,-0.336c-1.171,-0.2 -2.317,-0.474 -3.439,-0.822c-1.942,-0.548 -3.824,-1.283 -5.641,-2.204c-1.795,-0.923 -3.489,-2.019 -5.083,-3.29c-0.648,-0.522 -1.284,-1.072 -1.906,-1.644c-0.872,-0.773 -1.706,-1.606 -2.504,-2.504c-0.822,-0.921 -1.582,-1.905 -2.279,-2.952c-0.548,-0.872 -1.047,-1.768 -1.495,-2.69c-0.424,-0.698 -0.809,-1.432 -1.158,-2.204c-0.474,-0.998 -0.81,-2.031 -1.01,-3.103c-0.124,-0.648 -0.286,-1.308 -0.485,-1.98c-0.524,-2.144 -0.785,-4.297 -0.785,-6.465l-0.038,-0.075l0,-1.383c0,-0.648 0.014,-1.308 0.038,-1.981c0.025,-1.992 0.224,-3.985 0.598,-5.979c0.398,-1.968 0.822,-3.637 1.271,-5.008c0.199,-0.846 0.472,-1.606 0.821,-2.278l0.112,-0.039c1.047,-0.148 2.155,-0.285 3.326,-0.411c1.122,-0.124 2.256,-0.248 3.401,-0.373c0.748,-0.051 1.507,-0.136 2.28,-0.261c0.697,-0.075 1.445,-0.138 2.241,-0.187c0.699,-0.075 1.383,-0.163 2.056,-0.261c1.122,-0.126 2.242,-0.262 3.363,-0.412c1.047,-0.124 2.117,-0.236 3.215,-0.336c1.07,-0.15 2.117,-0.262 3.138,-0.336c0.672,-0.051 1.358,-0.138 2.055,-0.262c0.699,-0.074 1.408,-0.137 2.131,-0.186c0.697,-0.051 1.394,-0.112 2.092,-0.188c1.046,-0.124 2.081,-0.236 3.102,-0.335c1.346,-0.149 2.691,-0.3 4.036,-0.449c0.723,-0.05 1.432,-0.124 2.13,-0.224c0.697,-0.051 1.42,-0.1 2.168,-0.151c0.648,-0.049 1.32,-0.111 2.017,-0.185c0.699,-0.026 1.408,-0.063 2.131,-0.114c1.072,-0.049 2.154,-0.1 3.25,-0.148c1.022,-0.049 2.068,-0.076 3.14,-0.076c1.17,-0.025 2.354,-0.049 3.55,-0.074c0.374,0.025 0.773,0.037 1.196,0.037m-14.874,8.333c0.1,-0.498 0.336,-0.97 0.711,-1.42c1.071,-1.17 2.267,-2.153 3.587,-2.952c0.274,-0.176 0.573,-0.31 0.897,-0.41c0.2,-0.075 0.399,-0.163 0.597,-0.263c0.226,-0.099 0.474,-0.149 0.748,-0.149c0.598,0 1.196,-0.063 1.794,-0.187c0.2,-0.024 0.398,-0.012 0.598,0.037c-0.2,-0.049 -0.398,-0.061 -0.598,-0.037c-0.598,0.124 -1.196,0.187 -1.794,0.187c-0.274,0 -0.522,0.05 -0.748,0.149c-0.198,0.1 -0.397,0.188 -0.597,0.263c-0.324,0.1 -0.623,0.234 -0.897,0.41c-1.32,0.799 -2.516,1.782 -3.587,2.952c-0.375,0.45 -0.611,0.922 -0.711,1.42m-26.606,2.878c0.298,-1.022 0.846,-1.955 1.644,-2.803c0.548,-0.548 1.109,-1.108 1.681,-1.683c0.124,-0.097 0.237,-0.197 0.337,-0.297c1.594,-0.921 3.314,-1.383 5.156,-1.383c0.224,0 0.424,0.038 0.599,0.112c0.199,0.075 0.373,0.138 0.523,0.187l0,0c-0.15,-0.049 -0.324,-0.112 -0.523,-0.187c-0.175,-0.074 -0.375,-0.112 -0.599,-0.112c-1.842,0 -3.562,0.462 -5.156,1.383c-0.1,0.1 -0.213,0.2 -0.337,0.297c-0.572,0.575 -1.133,1.135 -1.681,1.683c-0.798,0.848 -1.346,1.781 -1.644,2.803m13.414,22.722c-0.896,1.544 -1.357,3.175 -1.381,4.895c-0.051,1.843 0.548,3.424 1.793,4.745c0.474,0.547 1.059,0.946 1.756,1.196c0.499,0.175 1.01,0.362 1.532,0.56c0.2,0.051 0.399,0.088 0.599,0.112c1.893,0.4 3.575,-0.012 5.044,-1.232c0.151,-0.15 0.312,-0.274 0.487,-0.374c-0.175,0.1 -0.336,0.224 -0.487,0.374c-1.469,1.22 -3.151,1.632 -5.044,1.232c-0.2,-0.024 -0.399,-0.061 -0.599,-0.112c-0.522,-0.198 -1.033,-0.385 -1.532,-0.56c-0.697,-0.25 -1.282,-0.649 -1.756,-1.196c-1.245,-1.321 -1.844,-2.902 -1.793,-4.745c0.024,-1.72 0.485,-3.351 1.381,-4.895m10.39,-9.606c0.298,-0.074 0.585,-0.211 0.86,-0.41c0.124,-0.05 0.261,-0.074 0.41,-0.074c0.798,-0.224 1.483,-0.076 2.056,0.448c0.174,0.124 0.311,0.285 0.411,0.486c0.348,0.596 0.436,1.232 0.261,1.904c-0.149,0.675 -0.51,1.223 -1.084,1.646c-0.273,0.2 -0.548,0.349 -0.821,0.448c0.273,-0.099 0.548,-0.248 0.821,-0.448c0.574,-0.423 0.935,-0.971 1.084,-1.646c0.175,-0.672 0.087,-1.308 -0.261,-1.904c-0.1,-0.201 -0.237,-0.362 -0.411,-0.486c-0.573,-0.524 -1.258,-0.672 -2.056,-0.448c-0.149,0 -0.286,0.024 -0.41,0.074c-0.275,0.199 -0.562,0.336 -0.86,0.41m-30.718,-4.522c-0.598,0.076 -1.196,0.214 -1.794,0.412c-1.146,0.299 -2.08,0.922 -2.803,1.868c-0.696,0.847 -1.22,1.832 -1.569,2.952c-0.099,0.224 -0.136,0.424 -0.112,0.599c0.074,0.624 0.149,1.257 0.225,1.905c0.273,2.218 1.307,4.038 3.101,5.456c1.171,0.923 2.454,1.31 3.848,1.159c0.923,-0.051 1.77,-0.223 2.542,-0.524c-0.772,0.301 -1.619,0.473 -2.542,0.524c-1.394,0.151 -2.677,-0.236 -3.848,-1.159c-1.794,-1.418 -2.828,-3.238 -3.101,-5.456c-0.076,-0.648 -0.151,-1.281 -0.225,-1.905c-0.024,-0.175 0.013,-0.375 0.112,-0.599c0.349,-1.12 0.873,-2.105 1.569,-2.952c0.723,-0.946 1.657,-1.569 2.803,-1.868c0.598,-0.198 1.196,-0.336 1.794,-0.412" style="fill:#fff;fill-rule:nonzero;"/><path id="path23884" d="M31.42,16.308c-0.1,0.026 -0.211,0.063 -0.335,0.111l-0.037,0c-0.792,0.073 -1.598,0.173 -2.415,0.297c-0.173,0.051 -0.395,0.112 -0.668,0.186c-0.892,0.224 -1.969,0.557 -3.231,1.002c-1.536,0.595 -3.244,1.3 -5.126,2.116c-1.883,0.794 -3.603,1.698 -5.163,2.712c-0.62,0.396 -1.225,0.83 -1.82,1.3c-0.817,0.643 -1.672,1.386 -2.563,2.228l-0.074,0.075c-0.248,0.223 -0.471,0.445 -0.67,0.667c-1.138,1.165 -2.005,2.205 -2.6,3.121c-0.296,0.444 -0.581,0.94 -0.853,1.484l0.111,-0.037c1.04,-0.148 2.142,-0.284 3.305,-0.408c1.115,-0.124 2.241,-0.247 3.381,-0.371c0.743,-0.051 1.498,-0.136 2.266,-0.26c0.693,-0.075 1.436,-0.136 2.228,-0.187c0.694,-0.073 1.374,-0.16 2.044,-0.258c1.113,-0.124 2.228,-0.26 3.341,-0.41c1.041,-0.124 2.105,-0.234 3.196,-0.334c1.064,-0.148 2.104,-0.26 3.12,-0.334c0.668,-0.049 1.349,-0.137 2.043,-0.26c0.693,-0.073 1.398,-0.136 2.117,-0.185c0.693,-0.051 1.387,-0.112 2.079,-0.185c1.041,-0.124 2.069,-0.236 3.084,-0.335c1.337,-0.148 2.673,-0.297 4.01,-0.445c0.719,-0.05 1.426,-0.124 2.118,-0.223c0.693,-0.051 1.412,-0.1 2.154,-0.149c0.644,-0.05 1.312,-0.111 2.006,-0.186c0.694,-0.024 1.398,-0.061 2.117,-0.112c1.065,-0.049 2.141,-0.098 3.232,-0.148c1.015,-0.048 2.055,-0.074 3.12,-0.074c1.164,-0.026 2.34,-0.05 3.529,-0.075c0.371,0.025 0.768,0.037 1.188,0.037c-0.346,-0.445 -0.718,-0.892 -1.114,-1.336c-1.312,-1.536 -2.774,-2.909 -4.383,-4.122l-0.111,-0.112c-0.868,-0.667 -1.796,-1.287 -2.786,-1.856c-0.818,-0.495 -1.722,-0.928 -2.712,-1.3c-0.495,-0.199 -1.015,-0.383 -1.559,-0.558c-1.908,-0.766 -3.913,-1.274 -6.019,-1.521c-1.485,-0.173 -3.033,-0.285 -4.642,-0.335c-1.858,0 -3.678,0.162 -5.46,0.484m14.004,18.938c0.098,-0.495 0.333,-0.966 0.705,-1.411c1.065,-1.163 2.253,-2.141 3.565,-2.935c0.272,-0.173 0.57,-0.308 0.892,-0.408c0.198,-0.073 0.396,-0.161 0.595,-0.26c0.223,-0.098 0.469,-0.148 0.743,-0.148c0.593,0 1.188,-0.062 1.782,-0.185c0.199,-0.025 0.396,-0.013 0.595,0.036m-49.884,1.968c-0.347,0.668 -0.62,1.424 -0.817,2.265c-0.447,1.362 -0.867,3.02 -1.263,4.978c-0.372,1.98 -0.571,3.961 -0.595,5.941c-0.024,0.668 -0.037,1.324 -0.037,1.968l0,1.375l0.037,0.073c0,2.155 0.26,4.295 0.78,6.425c0.198,0.668 0.359,1.324 0.483,1.967c0.199,1.067 0.532,2.092 1.003,3.084c0.346,0.767 0.73,1.496 1.152,2.191c0.445,0.916 0.941,1.806 1.485,2.673c0.693,1.04 1.448,2.017 2.265,2.933c0.794,0.892 1.623,1.72 2.49,2.488c0.618,0.57 1.249,1.115 1.894,1.634c1.584,1.262 3.268,2.352 5.052,3.269c1.807,0.915 3.676,1.647 5.608,2.191c1.115,0.346 2.254,0.618 3.418,0.817c0.792,0.124 1.546,0.235 2.265,0.333c1.881,0.248 3.776,0.36 5.683,0.335l4.272,0c0.297,-0.025 0.618,-0.049 0.965,-0.075c0.644,-0.048 1.276,-0.122 1.895,-0.222c0.99,-0.148 1.981,-0.334 2.972,-0.558c1.93,-0.42 3.776,-1.064 5.533,-1.929c1.932,-0.967 3.776,-2.107 5.535,-3.417c0.421,-0.298 0.793,-0.632 1.114,-1.003c1.535,-1.511 2.898,-3.157 4.086,-4.939c1.189,-1.757 2.192,-3.614 3.009,-5.57c0.173,-0.446 0.333,-0.892 0.483,-1.338c0.593,-1.957 1.101,-3.961 1.522,-6.016c0.099,-0.47 0.174,-0.953 0.223,-1.448c0.049,-0.668 0.075,-1.312 0.075,-1.932c0.025,-1.434 0.037,-2.858 0.037,-4.269c-0.049,-1.04 -0.185,-2.068 -0.409,-3.083c-0.347,-1.956 -0.842,-3.849 -1.486,-5.681c-0.124,-0.323 -0.248,-0.632 -0.37,-0.929c-0.026,-0.123 -0.075,-0.247 -0.15,-0.372c-0.173,-0.444 -0.334,-0.903 -0.482,-1.372c-0.57,-1.412 -1.19,-2.799 -1.858,-4.16c-0.594,-1.263 -1.288,-2.451 -2.08,-3.566m-41.229,11.142c0.297,-1.015 0.841,-1.943 1.635,-2.787c0.544,-0.544 1.101,-1.1 1.67,-1.671c0.124,-0.097 0.236,-0.197 0.335,-0.296c1.585,-0.916 3.293,-1.374 5.125,-1.374c0.223,0 0.422,0.037 0.595,0.112c0.197,0.074 0.371,0.136 0.52,0.185l0.26,0.037m3.195,28.372c-0.892,1.535 -1.351,3.156 -1.375,4.864c-0.049,1.832 0.545,3.403 1.783,4.716c0.47,0.544 1.053,0.94 1.745,1.19c0.496,0.172 1.004,0.358 1.524,0.556c0.197,0.049 0.396,0.088 0.593,0.11c1.883,0.398 3.554,-0.01 5.015,-1.224c0.149,-0.149 0.309,-0.272 0.483,-0.372m0.557,-19.385c0.297,-0.073 0.583,-0.211 0.855,-0.407c0.124,-0.05 0.26,-0.074 0.408,-0.074c0.793,-0.223 1.473,-0.075 2.044,0.445c0.172,0.123 0.309,0.284 0.408,0.483c0.346,0.593 0.433,1.225 0.26,1.893c-0.15,0.669 -0.507,1.215 -1.078,1.635c-0.272,0.198 -0.545,0.346 -0.817,0.445m-32.612,-8.913c-0.593,0.074 -1.188,0.212 -1.783,0.409c-1.138,0.297 -2.068,0.916 -2.786,1.856c-0.692,0.843 -1.214,1.821 -1.56,2.935c-0.099,0.221 -0.135,0.42 -0.111,0.593c0.075,0.62 0.148,1.251 0.223,1.895c0.273,2.202 1.3,4.01 3.084,5.421c1.162,0.917 2.438,1.301 3.825,1.152c0.916,-0.051 1.757,-0.223 2.525,-0.521" style="fill:none;fill-rule:nonzero;stroke:#3267a4;stroke-width:2px;"/><path id="path23888" d="M26.61,46.085c0.024,-0.3 0.074,-0.573 0.149,-0.823c0.175,-0.224 0.361,-0.436 0.561,-0.634c0.199,-0.076 0.398,-0.151 0.598,-0.224c0.248,-0.05 0.522,-0.063 0.821,-0.038c0.225,0.075 0.461,0.162 0.711,0.262c0.224,0.198 0.398,0.398 0.522,0.597c0.126,0.224 0.2,0.449 0.224,0.673c0,0.324 -0.037,0.622 -0.112,0.896c-0.149,0.226 -0.312,0.424 -0.485,0.599c-0.224,0.199 -0.461,0.311 -0.709,0.336c-0.25,0.124 -0.538,0.161 -0.86,0.112c-0.25,-0.075 -0.486,-0.2 -0.71,-0.373c-0.225,-0.15 -0.412,-0.374 -0.561,-0.674c-0.1,-0.224 -0.149,-0.461 -0.149,-0.709" style="fill:#3267a4;fill-rule:nonzero;"/><path id="path23892" d="M26.808,46.088c0.022,-0.266 0.066,-0.508 0.134,-0.73c0.154,-0.198 0.321,-0.386 0.497,-0.562c0.177,-0.067 0.355,-0.134 0.532,-0.199c0.221,-0.044 0.465,-0.056 0.731,-0.033c0.2,0.066 0.41,0.142 0.632,0.232c0.198,0.176 0.354,0.353 0.465,0.529c0.111,0.199 0.177,0.399 0.199,0.597c0,0.288 -0.034,0.551 -0.099,0.795c-0.133,0.2 -0.279,0.375 -0.433,0.531c-0.199,0.176 -0.41,0.276 -0.631,0.297c-0.221,0.111 -0.476,0.144 -0.764,0.1c-0.221,-0.067 -0.432,-0.177 -0.632,-0.332c-0.199,-0.132 -0.365,-0.331 -0.497,-0.596c-0.09,-0.199 -0.134,-0.409 -0.134,-0.629Z" style="fill:none;fill-rule:nonzero;stroke:#3267a4;stroke-width:2px;"/><path id="path23896" d="M58.224,41.601c0.125,0.198 0.212,0.434 0.262,0.709c0,0.299 -0.05,0.585 -0.149,0.86c-0.076,0.223 -0.225,0.424 -0.449,0.597c-0.224,0.2 -0.462,0.324 -0.71,0.374c-0.274,0.1 -0.561,0.125 -0.86,0.076c-0.274,-0.076 -0.522,-0.187 -0.748,-0.336c-0.224,-0.176 -0.385,-0.399 -0.485,-0.675c-0.149,-0.248 -0.224,-0.497 -0.224,-0.747c0.025,-0.274 0.099,-0.548 0.224,-0.822c0.124,-0.199 0.299,-0.398 0.523,-0.598c0.174,-0.124 0.361,-0.222 0.561,-0.298c0.249,-0.05 0.535,-0.063 0.859,-0.039c0.2,0.101 0.436,0.213 0.71,0.337c0.2,0.151 0.362,0.338 0.486,0.562" style="fill:#3267a4;fill-rule:nonzero;"/><path id="path23900" d="M58.054,41.698c0.11,0.176 0.188,0.386 0.233,0.63c0,0.264 -0.045,0.519 -0.133,0.763c-0.067,0.199 -0.2,0.376 -0.399,0.531c-0.2,0.177 -0.411,0.288 -0.632,0.332c-0.245,0.089 -0.499,0.11 -0.765,0.066c-0.244,-0.066 -0.467,-0.165 -0.667,-0.298c-0.199,-0.155 -0.343,-0.354 -0.432,-0.599c-0.132,-0.22 -0.2,-0.441 -0.2,-0.663c0.023,-0.244 0.089,-0.486 0.2,-0.73c0.111,-0.176 0.267,-0.352 0.465,-0.531c0.156,-0.111 0.323,-0.199 0.5,-0.265c0.222,-0.044 0.476,-0.055 0.766,-0.034c0.177,0.09 0.388,0.188 0.632,0.299c0.177,0.133 0.321,0.3 0.432,0.499Z" style="fill:none;fill-rule:nonzero;stroke:#3267a4;stroke-width:2px;"/><path id="path23904" d="M16.257,5.196c-0.371,0.209 -0.734,0.44 -1.088,0.688c-0.407,0.232 -0.802,0.48 -1.191,0.746c-0.065,-0.146 -0.107,-0.281 -0.124,-0.412c-0.228,-0.793 -0.149,-1.553 0.243,-2.288c0.136,-0.168 0.27,-0.337 0.406,-0.506c0.455,-0.306 0.935,-0.463 1.44,-0.474c0.268,0.032 0.522,0.074 0.755,0.124c0.219,0.014 0.395,0.078 0.529,0.182c0.318,0.237 0.61,0.51 0.876,0.82l0.026,0.056c-0.524,0.25 -1.046,0.548 -1.57,0.89l-0.302,0.174" style="fill:#419cd6;fill-rule:nonzero;"/><path id="path23908" d="M14.353,7.327c0.452,-0.315 0.915,-0.609 1.391,-0.885c-0.252,0.57 -0.482,1.178 -0.691,1.828c-0.329,0.981 -0.587,1.95 -0.776,2.904c-0.229,0.976 -0.405,1.95 -0.533,2.921c-0.142,1.032 -0.26,2.107 -0.358,3.22c-0.046,0.923 -0.076,1.836 -0.082,2.737c0.02,0.678 0.028,1.332 0.028,1.968c0.064,0.754 0.118,1.49 0.16,2.203c0.065,0.755 0.153,1.497 0.257,2.229c0.1,0.628 0.229,1.268 0.391,1.912c0.225,1.032 0.462,2.083 0.71,3.154c0.186,0.688 0.39,1.36 0.614,2.022c0.222,0.664 0.486,1.304 0.79,1.923c0.454,1.057 0.906,2.115 1.358,3.175c0.134,0.238 0.253,0.486 0.35,0.746c-5.474,1.212 -10.729,0.606 -15.768,-1.817c-1.986,-6.828 -1.494,-12.975 1.474,-18.44c2.428,-4.572 5.99,-8.507 10.685,-11.8m38.012,2.507c-2.023,5.553 -4.961,10.472 -8.82,14.762c-0.596,-0.764 -1.183,-1.505 -1.759,-2.229c-0.748,-0.837 -1.494,-1.675 -2.24,-2.509c-0.585,-0.559 -1.18,-1.087 -1.785,-1.584c-0.26,-0.271 -0.553,-0.551 -0.877,-0.839c-0.758,-0.672 -1.532,-1.332 -2.33,-1.981c-0.666,-0.514 -1.352,-1.015 -2.057,-1.504c-0.857,-0.666 -1.737,-1.32 -2.633,-1.96c-0.366,-0.268 -0.73,-0.531 -1.092,-0.798c-0.752,-0.572 -1.542,-1.117 -2.372,-1.64c-0.79,-0.545 -1.596,-1.03 -2.42,-1.452c-0.955,-0.557 -1.926,-1.05 -2.915,-1.485c-1.049,-0.451 -2.103,-0.765 -3.156,-0.947c-0.329,-0.021 -0.628,-0.036 -0.895,-0.037l0.356,-0.205c0.611,-0.407 1.224,-0.762 1.842,-1.066c5.596,-2.92 11.233,-3.985 16.91,-3.2c6.258,0.874 11.67,3.764 16.243,8.674" style="fill:#419cd6;fill-rule:nonzero;"/><path id="path23912" d="M43.377,24.993c3.9,-4.334 6.87,-9.303 8.916,-14.912c0.925,-0.427 1.889,-0.931 2.89,-1.508c3.108,-1.635 5.286,-2.44 6.528,-2.411c1.246,0.031 2.29,0.359 3.134,0.993c0.846,0.631 1.437,1.519 1.773,2.656c0.363,1.178 0.443,2.334 0.241,3.463c-0.241,1.152 -0.713,2.279 -1.41,3.375c-0.724,1.057 -1.45,1.932 -2.174,2.614c-0.764,0.711 -1.54,1.398 -2.328,2.064c-0.788,0.671 -1.646,1.352 -2.578,2.051c-0.97,0.72 -1.916,1.345 -2.835,1.879c-0.984,0.513 -2.012,0.998 -3.081,1.456c-0.967,0.452 -1.958,0.864 -2.968,1.236c-1.054,0.393 -2.066,0.762 -3.039,1.113c-0.937,0.223 -1.863,0.516 -2.772,0.881c-1.099,0.314 -2.181,0.564 -3.247,0.754c-1.166,0.193 -2.242,0.361 -3.228,0.504c-0.206,0.014 -0.433,0.036 -0.68,0.072c0.714,-0.52 1.406,-1.078 2.074,-1.678c1.736,-1.429 3.33,-2.962 4.784,-4.602" style="fill:#419cd6;fill-rule:nonzero;"/><path id="path23916" d="M15.369,6.597c0.421,-0.292 0.853,-0.563 1.298,-0.816c0.272,0.004 0.578,0.017 0.912,0.038c1.082,0.186 2.155,0.506 3.232,0.958c1.01,0.437 2.003,0.936 2.98,1.497c0.842,0.424 1.67,0.915 2.476,1.464c0.85,0.528 1.658,1.08 2.427,1.652c0.372,0.269 0.744,0.536 1.117,0.804c0.919,0.648 1.816,1.305 2.695,1.977c0.723,0.494 1.424,0.999 2.104,1.518c0.815,0.652 1.609,1.317 2.384,1.994c0.331,0.292 0.632,0.574 0.899,0.846c0.618,0.501 1.225,1.033 1.825,1.594c0.764,0.843 1.528,1.684 2.291,2.528c0.59,0.728 1.192,1.478 1.804,2.247c-1.468,1.629 -3.08,3.157 -4.832,4.58c-0.674,0.596 -1.374,1.152 -2.095,1.669c-5.724,4.21 -12.128,7.078 -19.211,8.602c-0.098,-0.262 -0.221,-0.512 -0.36,-0.752c-0.465,-1.066 -0.928,-2.131 -1.392,-3.196c-0.309,-0.623 -0.581,-1.267 -0.81,-1.934c-0.23,-0.668 -0.439,-1.345 -0.628,-2.037c-0.256,-1.076 -0.5,-2.136 -0.731,-3.175c-0.167,-0.648 -0.299,-1.29 -0.404,-1.922c-0.105,-0.739 -0.193,-1.487 -0.264,-2.246c-0.043,-0.718 -0.1,-1.457 -0.165,-2.216c0,-0.641 -0.01,-1.3 -0.03,-1.98c0.006,-0.906 0.032,-1.826 0.079,-2.757c0.097,-1.119 0.219,-2.197 0.364,-3.239c0.129,-0.974 0.307,-1.956 0.54,-2.938c0.192,-0.96 0.456,-1.935 0.791,-2.922c0.212,-0.653 0.446,-1.265 0.704,-1.838" style="fill:#419cd6;fill-rule:nonzero;"/><path id="path23920" d="M43.494,24.959c-1.422,1.618 -2.982,3.132 -4.684,4.54c-0.654,0.589 -1.334,1.14 -2.032,1.649m-22.655,-23.873c0.448,-0.314 0.909,-0.606 1.381,-0.876c0.41,-0.288 0.832,-0.558 1.263,-0.806m-1.263,0.806c-0.245,0.569 -0.468,1.18 -0.669,1.83c-0.321,0.987 -0.569,1.958 -0.749,2.918c-0.218,0.98 -0.384,1.958 -0.5,2.934c-0.131,1.038 -0.243,2.118 -0.327,3.236c-0.037,0.931 -0.055,1.85 -0.052,2.756c0.025,0.68 0.041,1.342 0.045,1.983c0.074,0.757 0.136,1.499 0.186,2.219c0.073,0.76 0.166,1.509 0.278,2.246c0.107,0.632 0.243,1.276 0.412,1.928c0.235,1.042 0.483,2.102 0.743,3.182c0.192,0.693 0.403,1.376 0.632,2.042c0.231,0.671 0.503,1.319 0.813,1.943c0.463,1.071 0.927,2.14 1.388,3.211c0.139,0.241 0.262,0.492 0.36,0.756m-1.297,-33.99c0.268,0.006 0.567,0.023 0.895,0.047c1.057,0.195 2.113,0.523 3.166,0.985c0.994,0.448 1.97,0.955 2.93,1.527c0.828,0.431 1.64,0.928 2.434,1.487c0.838,0.534 1.632,1.093 2.39,1.676c0.366,0.27 0.733,0.54 1.1,0.81c0.904,0.656 1.79,1.323 2.654,2.003c0.711,0.5 1.4,1.012 2.072,1.536c0.803,0.66 1.587,1.333 2.35,2.017c0.328,0.294 0.624,0.579 0.888,0.855c0.609,0.505 1.209,1.043 1.8,1.611c0.756,0.849 1.509,1.698 2.265,2.55c0.583,0.734 1.179,1.488 1.783,2.262c3.814,-4.279 6.702,-9.202 8.668,-14.771m-35.395,-4.595l0.355,-0.205c0.606,-0.4 1.216,-0.751 1.829,-1.051m0,0c5.568,-2.881 11.193,-3.896 16.879,-3.048c6.264,0.946 11.708,3.91 16.332,8.899c0.912,-0.417 1.858,-0.909 2.842,-1.475c3.058,-1.598 5.203,-2.377 6.432,-2.336c1.232,0.042 2.27,0.382 3.111,1.02c0.843,0.639 1.437,1.527 1.783,2.667c0.369,1.177 0.457,2.328 0.27,3.453c-0.228,1.146 -0.681,2.263 -1.361,3.351c-0.705,1.045 -1.413,1.907 -2.123,2.583c-0.748,0.697 -1.508,1.377 -2.28,2.033c-0.773,0.659 -1.616,1.331 -2.53,2.017c-0.952,0.708 -1.883,1.323 -2.787,1.844c-0.967,0.502 -1.977,0.976 -3.031,1.42c-0.95,0.442 -1.925,0.842 -2.922,1.202c-1.038,0.381 -2.035,0.74 -2.994,1.078c-0.925,0.212 -1.838,0.495 -2.733,0.85c-1.084,0.302 -2.151,0.541 -3.203,0.72c-1.153,0.18 -2.214,0.338 -3.189,0.469c-0.203,0.011 -0.427,0.031 -0.669,0.064c-5.56,4.161 -11.799,6.972 -18.714,8.435c-5.462,1.162 -10.725,0.498 -15.788,-1.991c-2.056,-6.893 -1.628,-13.077 1.284,-18.548c2.382,-4.58 5.903,-8.503 10.563,-11.769c-0.092,-0.162 -0.153,-0.312 -0.185,-0.456c-0.346,-0.871 -0.315,-1.716 0.098,-2.543c0.151,-0.195 0.302,-0.388 0.452,-0.581c0.527,-0.356 1.098,-0.551 1.71,-0.582c0.328,0.024 0.637,0.06 0.928,0.11c0.265,0.005 0.484,0.069 0.656,0.182c0.406,0.248 0.784,0.539 1.134,0.874l0.035,0.058Z" style="fill:none;fill-rule:nonzero;stroke:#3267a4;stroke-width:2px;"/></g></svg>