<?xml version="1.0" encoding="UTF-8" standalone="no"?><!DOCTYPE svg PUBLIC "-//W3C//DTD SVG 1.1//EN" "http://www.w3.org/Graphics/SVG/1.1/DTD/svg11.dtd"><svg width="100%" height="100%" viewBox="0 0 75 77" version="1.1" xmlns="http://www.w3.org/2000/svg" xmlns:xlink="http://www.w3.org/1999/xlink" xml:space="preserve" xmlns:serif="http://www.serif.com/" style="fill-rule:evenodd;clip-rule:evenodd;stroke-linecap:round;stroke-linejoin:round;stroke-miterlimit:3;"><g><path id="path23828" d="M42.856,33.2c-0.273,-0.075 -0.548,-0.138 -0.822,-0.187c-0.747,-0.125 -1.482,-0.224 -2.204,-0.3c-0.124,0 -0.263,-0.012 -0.412,-0.037c-0.075,0.349 -0.138,0.71 -0.187,1.084c-0.049,0.273 -0.099,0.56 -0.149,0.86l0.298,0.037c0.45,0.123 0.898,0.237 1.347,0.337c0.497,0.123 0.995,0.274 1.495,0.448c0.248,0.024 0.485,0.086 0.709,0.187c0.448,0.173 0.86,0.336 1.233,0.485c0.698,0.2 1.383,0.399 2.056,0.599c0.672,0.173 1.358,0.336 2.055,0.484c0.1,0.027 0.735,0.249 1.905,0.673c-0.124,0.374 -0.224,0.798 -0.298,1.271c-0.175,1.121 -0.212,2.255 -0.112,3.4c0.074,0.349 0.149,0.699 0.224,1.048c0.274,1.195 0.697,2.341 1.27,3.437c0.623,1.171 1.396,2.18 2.318,3.027c0.921,0.821 1.893,1.495 2.914,2.017c1.096,0.55 2.243,0.923 3.438,1.122c0.324,0.049 0.636,0.074 0.934,0.074l0.15,0c1.07,-0.074 2.168,-0.236 3.289,-0.485c0.623,-0.149 1.232,-0.361 1.831,-0.635c-0.274,1.17 -0.424,1.806 -0.448,1.906c0.672,0.224 1.308,0.561 1.905,1.009c0.872,0.648 1.271,1.495 1.196,2.541c-0.075,0.523 -0.436,1.046 -1.084,1.57c-0.648,0.522 -1.296,0.772 -1.943,0.748c-0.673,-0.026 -1.172,-0.1 -1.494,-0.226c-0.2,-0.074 -0.375,-0.124 -0.524,-0.148c-0.299,0.596 -0.635,1.194 -1.01,1.794c-0.148,0.346 -0.336,0.684 -0.56,1.008c-0.1,0.2 -0.224,0.398 -0.373,0.598c-1.023,1.67 -2.267,3.214 -3.737,4.634c-1.346,1.27 -2.815,2.404 -4.41,3.4c-0.249,0.125 -0.485,0.274 -0.71,0.449c-1.47,0.847 -3.027,1.557 -4.671,2.129c-1.919,0.674 -3.899,1.134 -5.941,1.383c-1.844,0.199 -3.7,0.311 -5.568,0.336c-1.47,-0.025 -3.003,-0.111 -4.598,-0.26l-0.037,0c-0.149,0 -0.285,-0.013 -0.411,-0.039c-0.249,0 -0.498,-0.037 -0.748,-0.112c-1.993,-0.2 -3.948,-0.646 -5.866,-1.345c-0.898,-0.275 -1.768,-0.585 -2.616,-0.933l-0.224,-0.151c-0.15,-0.024 -0.287,-0.073 -0.411,-0.148c-0.823,-0.375 -1.62,-0.773 -2.392,-1.196c-0.499,-0.224 -0.984,-0.473 -1.457,-0.747c-1.32,-0.649 -2.542,-1.421 -3.663,-2.318c-0.324,-0.324 -0.66,-0.648 -1.008,-0.972c-1.396,-1.544 -2.716,-3.151 -3.961,-4.82c-0.275,-0.374 -0.536,-0.735 -0.786,-1.084c-0.921,-1.171 -1.669,-2.43 -2.242,-3.775c-0.199,-0.423 -0.411,-0.821 -0.635,-1.195c-0.473,-0.846 -0.86,-1.769 -1.159,-2.765c-0.298,-0.923 -0.634,-1.856 -1.008,-2.804c-0.524,-1.22 -0.873,-2.491 -1.046,-3.811c-0.126,-0.697 -0.2,-1.42 -0.226,-2.168c-0.049,-2.018 0.014,-4.061 0.188,-6.128c0.075,-0.598 0.15,-1.17 0.224,-1.72c0.348,-1.445 0.672,-2.901 0.971,-4.37c0.1,-0.475 0.212,-0.935 0.337,-1.384c0.024,-0.124 0.075,-0.238 0.15,-0.336l0.224,-0.038c0.748,-0.05 1.469,-0.1 2.166,-0.149c1.546,-0.149 3.09,-0.212 4.635,-0.187c0.823,0 1.656,-0.037 2.504,-0.113c1.295,-0.049 2.591,-0.1 3.887,-0.148l0.746,0c-0.074,0.945 -0.174,1.843 -0.298,2.691c-0.026,0.198 -0.05,0.385 -0.075,0.56c0.224,-0.124 0.485,-0.263 0.784,-0.412c1.869,-0.796 3.8,-1.532 5.793,-2.204c0.374,-0.126 0.735,-0.25 1.083,-0.374c1.919,-0.598 3.812,-1.233 5.681,-1.906c0.747,-0.25 1.458,-0.523 2.13,-0.822c0.424,-0.176 0.809,-0.373 1.158,-0.597l0.112,-0.039c0.051,-0.497 0.136,-0.972 0.262,-1.42c0.05,-0.124 0.088,-0.249 0.112,-0.373l0.037,-0.112l-0.224,-0.075l-0.075,-0.074l0.075,-0.038c-1.668,-1.321 -3.239,-2.665 -4.708,-4.036c-0.623,-0.598 -1.259,-1.184 -1.907,-1.756c4.735,0.148 7.114,0.211 7.138,0.187c2.168,0.075 4.31,0.173 6.428,0.299c1.944,0.124 3.824,0.248 5.642,0.373c0.723,0 1.446,0.013 2.168,0.037c1.744,-0.049 3.5,0 5.27,0.15c1.618,0.149 3.225,0.288 4.82,0.412c0.124,0.224 0.286,0.46 0.486,0.709c0.374,0.523 0.772,1.147 1.196,1.869c0.398,0.647 0.81,1.358 1.232,2.13c0.648,1.196 1.408,2.989 2.28,5.381c-0.921,-0.299 -1.893,-0.512 -2.914,-0.635c-0.598,-0.074 -1.196,-0.1 -1.794,-0.074c-0.598,0 -1.209,0.074 -1.83,0.224c-1.172,0.298 -2.156,0.672 -2.954,1.12c-0.772,0.424 -1.408,0.834 -1.905,1.233c-0.473,0.373 -0.96,0.86 -1.457,1.457c-0.35,0.374 -0.662,0.81 -0.935,1.31l-0.037,0.073c-1.222,-0.348 -1.906,-0.56 -2.055,-0.636c-0.673,-0.172 -1.333,-0.348 -1.981,-0.521c-0.623,-0.176 -1.246,-0.338 -1.87,-0.487c-0.522,-0.099 -1.057,-0.224 -1.605,-0.373c-0.249,-0.051 -0.487,-0.088 -0.711,-0.112m3.775,4.036c-0.249,-0.2 -0.548,-0.324 -0.897,-0.374c-1.022,-0.225 -2.018,-0.138 -2.99,0.26c-0.149,0.075 -0.312,0.139 -0.485,0.188c-1.247,0.324 -2.193,1.047 -2.841,2.167c-0.647,1.096 -1.071,2.292 -1.27,3.588l0,0.597c0.174,1.247 0.535,2.392 1.083,3.439c0.299,0.623 0.661,1.233 1.084,1.831c0.149,0.2 0.311,0.385 0.487,0.561c0.97,0.847 2.042,1.457 3.213,1.831c0.499,0.174 0.984,0.261 1.457,0.261c-0.473,0 -0.958,-0.087 -1.457,-0.261c-1.171,-0.374 -2.243,-0.984 -3.213,-1.831c-0.176,-0.176 -0.338,-0.361 -0.487,-0.561c-0.423,-0.598 -0.785,-1.208 -1.084,-1.831c-0.548,-1.047 -0.909,-2.192 -1.083,-3.439l0,-0.597c0.199,-1.296 0.623,-2.492 1.27,-3.588c0.648,-1.12 1.594,-1.843 2.841,-2.167c0.173,-0.049 0.336,-0.113 0.485,-0.188c0.972,-0.398 1.968,-0.485 2.99,-0.26c0.349,0.05 0.648,0.174 0.897,0.374m5.568,25.412c-0.449,0.472 -0.811,0.994 -1.084,1.569c-0.548,1.071 -0.809,2.229 -0.784,3.475c0,0.3 0.061,0.597 0.187,0.896c0.546,1.221 1.357,2.168 2.428,2.841c-1.071,-0.673 -1.882,-1.62 -2.428,-2.841c-0.126,-0.299 -0.187,-0.596 -0.187,-0.896c-0.025,-1.246 0.236,-2.404 0.784,-3.475c0.273,-0.575 0.635,-1.097 1.084,-1.569m11.173,-3.216c0.124,0.026 0.25,0.064 0.374,0.114c0.498,-1.146 0.96,-2.33 1.382,-3.552c0.2,-0.646 0.387,-1.294 0.562,-1.942c-0.175,0.648 -0.362,1.296 -0.562,1.942c-0.422,1.222 -0.884,2.406 -1.382,3.552c-0.124,-0.05 -0.25,-0.088 -0.374,-0.114" style="fill:#fff;fill-rule:nonzero;"/><path id="path23832" d="M42.222,35.449c-0.499,-0.175 -0.998,-0.324 -1.495,-0.448c-0.449,-0.1 -0.897,-0.214 -1.347,-0.336l-0.298,-0.038c0.05,-0.3 0.1,-0.586 0.149,-0.86c0.051,-0.373 0.113,-0.733 0.187,-1.082c0.149,0.024 0.288,0.037 0.412,0.037c0.722,0.075 1.457,0.173 2.205,0.299c0.273,0.049 0.548,0.112 0.821,0.186c-0.074,0.274 -0.162,0.56 -0.261,0.86c-0.125,0.423 -0.249,0.859 -0.373,1.307l0,0c0.124,-0.448 0.248,-0.884 0.373,-1.307c0.099,-0.3 0.187,-0.586 0.261,-0.86c0.224,0.024 0.462,0.062 0.711,0.112c0.548,0.15 1.083,0.275 1.607,0.374c0.622,0.149 1.245,0.31 1.868,0.485c0.648,0.175 1.308,0.349 1.981,0.523c0.149,0.076 0.833,0.288 2.055,0.636l0.037,-0.075c0.273,-0.499 0.585,-0.935 0.935,-1.308c0.497,-0.597 0.984,-1.083 1.457,-1.457c0.497,-0.398 1.133,-0.808 1.905,-1.232c0.798,-0.448 1.782,-0.822 2.954,-1.12c0.622,-0.15 1.232,-0.224 1.83,-0.224c0.598,-0.026 1.196,0 1.794,0.074c1.021,0.123 1.993,0.336 2.914,0.635c0.15,0.024 0.311,0.075 0.487,0.149c0.249,0.124 0.721,0.336 1.42,0.635c0.623,0.249 1.183,0.585 1.681,1.009c0.498,0.398 1.084,0.883 1.756,1.458c0.648,0.572 1.071,1.12 1.271,1.642c0.273,0.523 0.46,0.922 0.56,1.196c0.1,0.274 0.224,0.584 0.373,0.934c0.126,0.249 0.238,0.473 0.338,0.672c0.049,0.274 0.137,0.498 0.261,0.672c0.075,0.398 0.125,0.772 0.149,1.121c-0.024,0.697 -0.074,1.383 -0.149,2.053l0,0.039c-0.075,0.397 -0.149,0.809 -0.224,1.233c-0.049,0.075 -0.075,0.174 -0.075,0.299c-0.074,0.273 -0.174,0.535 -0.3,0.784l-0.112,0.26l-0.037,0.076c-0.348,0.823 -0.735,1.607 -1.157,2.353c-0.299,0.548 -0.636,1.046 -1.01,1.495c-0.773,0.971 -1.657,1.829 -2.653,2.576c-0.424,0.351 -0.872,0.636 -1.345,0.86c-0.599,0.275 -1.208,0.485 -1.831,0.635c-1.121,0.249 -2.219,0.41 -3.289,0.485l-0.15,0c-0.298,0 -0.609,-0.025 -0.933,-0.075c-1.196,-0.198 -2.343,-0.572 -3.439,-1.12c-1.021,-0.522 -1.993,-1.196 -2.914,-2.017c-0.922,-0.845 -1.695,-1.855 -2.318,-3.025c-0.573,-1.096 -0.996,-2.243 -1.27,-3.436c-0.075,-0.35 -0.15,-0.698 -0.224,-1.047c-0.1,-1.145 -0.062,-2.279 0.112,-3.4c0.076,-0.473 0.174,-0.896 0.298,-1.269c-1.17,-0.424 -1.805,-0.647 -1.905,-0.674c-0.697,-0.148 -1.383,-0.31 -2.055,-0.484c-0.673,-0.2 -1.358,-0.398 -2.056,-0.597c-0.373,-0.151 -0.785,-0.312 -1.233,-0.487c-0.224,-0.1 -0.461,-0.161 -0.709,-0.186m7.958,2.428c0.424,0.174 0.923,0.348 1.496,0.524c-0.573,-0.176 -1.072,-0.35 -1.496,-0.524l0.038,-0.187c0.25,0.073 0.512,0.149 0.785,0.224c-0.273,-0.075 -0.535,-0.151 -0.785,-0.224l-0.038,0.187Zm9.904,-5.304c-0.498,0.049 -0.984,0.149 -1.458,0.298c-0.722,0.199 -1.432,0.474 -2.13,0.822c-0.224,0.074 -0.436,0.174 -0.634,0.298l-0.187,0.112c-0.773,0.474 -1.459,0.996 -2.056,1.57l-0.187,0.224c-0.149,0.124 -0.273,0.31 -0.374,0.56c-0.05,0.149 -0.124,0.324 -0.224,0.522c-0.075,0.15 -0.15,0.338 -0.224,0.56c-0.05,0.3 -0.124,0.524 -0.224,0.674c-0.1,0.225 -0.238,0.561 -0.411,1.009c-0.175,0.399 -0.224,0.957 -0.149,1.68c0.049,0.697 0.098,1.295 0.149,1.793c0.025,0.474 0.149,0.947 0.373,1.42c0.25,0.522 0.424,0.908 0.523,1.159c0.349,0.845 0.811,1.605 1.383,2.277c0.648,0.847 1.358,1.507 2.13,1.98c0.872,0.498 1.644,0.835 2.318,1.008c0.672,0.151 1.27,0.25 1.793,0.299c0.324,0.076 0.697,0.1 1.121,0.076c0.15,0 0.299,-0.013 0.448,-0.039c0.623,0 1.246,-0.136 1.868,-0.41c0.2,-0.099 0.412,-0.212 0.636,-0.336c0.474,-0.199 0.998,-0.535 1.57,-1.008c0.748,-0.524 1.394,-1.122 1.942,-1.794c0.2,-0.249 0.375,-0.485 0.524,-0.709c0.499,-0.823 0.884,-1.707 1.159,-2.652c0.299,-1.021 0.423,-2.055 0.373,-3.101c-0.049,-0.896 -0.212,-1.794 -0.486,-2.69c-0.348,-0.872 -0.808,-1.693 -1.382,-2.465c-0.1,-0.175 -0.249,-0.336 -0.449,-0.485c-0.597,-0.574 -1.233,-1.083 -1.905,-1.532l-0.299,-0.186c-0.797,-0.473 -1.683,-0.798 -2.653,-0.972c-0.624,-0.025 -1.234,-0.025 -1.832,0c-0.348,-0.025 -0.698,-0.013 -1.046,0.038m5.082,9.637c0.249,-0.076 0.512,-0.087 0.785,-0.039c0.273,-0.024 0.511,0.063 0.711,0.263c0.224,0.149 0.397,0.312 0.522,0.485l0.038,0.038c0.174,0.273 0.249,0.522 0.224,0.748c0.1,0.248 0.061,0.522 -0.112,0.821c-0.05,0.149 -0.112,0.273 -0.187,0.373l-0.224,0.224c-0.2,0.2 -0.424,0.324 -0.673,0.374c-0.275,0.1 -0.536,0.112 -0.784,0.037c-0.3,-0.049 -0.562,-0.161 -0.786,-0.336c-0.198,-0.124 -0.336,-0.336 -0.41,-0.635c-0.1,-0.198 -0.163,-0.424 -0.188,-0.673c0,-0.297 0.038,-0.535 0.113,-0.709c0.124,-0.299 0.261,-0.522 0.411,-0.672c0.149,-0.075 0.336,-0.174 0.56,-0.299m0.972,9.936c0.1,-0.299 0.186,-0.647 0.261,-1.045c-0.075,0.398 -0.161,0.746 -0.261,1.045m5.904,-10.235c0.324,0.074 0.66,0.16 1.009,0.26c-0.349,-0.1 -0.685,-0.186 -1.009,-0.26m0.261,2.951c-0.149,-0.051 -0.285,-0.076 -0.411,-0.076c-0.273,-0.048 -0.536,-0.136 -0.784,-0.26c0.248,0.124 0.511,0.212 0.784,0.26c0.126,0 0.262,0.025 0.411,0.076m-6.389,-11.169c-0.348,-1.12 -0.686,-2.142 -1.01,-3.063c0.324,0.921 0.662,1.943 1.01,3.063" style="fill:#3267a4;fill-rule:nonzero;"/><path id="path23836" d="M36.776,25.036c-1.388,0.06 -1.603,5.608 -1.603,5.608c-0.908,0.093 -18.08,8.013 -18.963,8.013c-1.656,-0.03 -9.828,3.287 -11.484,3.472c-4.65,5.064 -0.877,-6.277 -1.678,-6.216l-0.242,0.047c0.668,-2.644 1.175,-4.411 1.523,-5.303c0.133,-0.337 0.28,-0.66 0.441,-0.968c0.159,-0.461 0.36,-0.922 0.6,-1.382c0.187,-0.46 0.4,-0.908 0.64,-1.336c0.802,-1.416 1.243,-2.17 1.323,-2.26l0.041,-0.138c0.132,-0.154 0.24,-0.308 0.319,-0.462c0.481,-0.799 1.003,-1.584 1.564,-2.351c0.24,-0.4 0.507,-0.769 0.801,-1.107c0.962,-1.26 2.043,-2.382 3.244,-3.366c0.24,-0.215 0.482,-0.43 0.722,-0.646c0.534,-0.338 1.094,-0.753 1.684,-1.245c1.628,-1.383 3.377,-2.551 5.248,-3.504c2.056,-1.044 4.166,-1.86 6.329,-2.444c2.004,-0.521 4.007,-0.889 6.009,-1.105c1.175,-0.155 2.338,-0.2 3.487,-0.139c2.243,0.061 3.965,0.231 5.168,0.505c1.175,0.218 1.989,0.432 2.443,0.647c0.456,0.185 1.429,0.585 2.925,1.199c1.469,0.614 2.777,1.306 3.927,2.076c1.174,0.768 2.109,1.46 2.804,2.073c0.694,0.555 1.656,1.399 2.885,2.537c1.255,1.168 2.389,2.32 3.405,3.459c0.72,0.828 1.375,1.691 1.963,2.581l0.08,0.138c-1.709,-0.152 -3.432,-0.323 -5.168,-0.507c-1.896,-0.184 -3.877,0.46 -5.748,0.521c-0.775,-0.03 -4.3,0 -5.075,0c-1.95,-0.154 -2.19,0.154 -4.273,0c-2.269,-0.154 -5.075,1.603 -5.341,1.603" style="fill:#f5f79a;fill-rule:nonzero;"/><path id="path23840" d="M60.084,32.564c0.348,-0.05 0.697,-0.062 1.045,-0.037c0.599,-0.025 1.208,-0.025 1.832,0c0.971,0.173 1.856,0.499 2.654,0.972l0.298,0.185c0.672,0.451 1.308,0.96 1.907,1.534c0.199,0.149 0.348,0.31 0.448,0.485c0.573,0.772 1.033,1.595 1.381,2.467c0.275,0.896 0.438,1.793 0.487,2.69c0.049,1.047 -0.075,2.08 -0.373,3.102c-0.275,0.946 -0.66,1.832 -1.159,2.653c-0.149,0.224 -0.324,0.46 -0.523,0.711c-0.549,0.672 -1.196,1.269 -1.944,1.793c-0.572,0.473 -1.096,0.809 -1.569,1.009c-0.224,0.124 -0.436,0.236 -0.636,0.336c-0.623,0.274 -1.245,0.411 -1.868,0.411c-0.149,0.025 -0.299,0.037 -0.448,0.037c-0.424,0.026 -0.797,0 -1.121,-0.074c-0.523,-0.05 -1.122,-0.148 -1.794,-0.299c-0.673,-0.175 -1.445,-0.511 -2.317,-1.009c-0.772,-0.474 -1.483,-1.134 -2.129,-1.982c-0.574,-0.67 -1.035,-1.432 -1.384,-2.277c-0.099,-0.251 -0.274,-0.637 -0.523,-1.16c-0.224,-0.473 -0.348,-0.947 -0.373,-1.42c-0.051,-0.499 -0.1,-1.096 -0.15,-1.793c-0.074,-0.724 -0.025,-1.283 0.15,-1.682c0.174,-0.448 0.312,-0.784 0.41,-1.009c0.1,-0.149 0.175,-0.375 0.224,-0.673c0.075,-0.224 0.15,-0.411 0.224,-0.56c0.1,-0.2 0.175,-0.374 0.224,-0.523c0.102,-0.249 0.226,-0.436 0.375,-0.561l0.187,-0.224c0.597,-0.574 1.282,-1.096 2.056,-1.57l0.186,-0.112c0.199,-0.124 0.411,-0.224 0.635,-0.3c0.699,-0.348 1.408,-0.622 2.129,-0.821c0.475,-0.149 0.96,-0.248 1.459,-0.299m5.081,9.642c-0.224,0.125 -0.41,0.224 -0.56,0.298c-0.149,0.151 -0.286,0.374 -0.41,0.672c-0.075,0.176 -0.114,0.412 -0.114,0.711c0.027,0.249 0.088,0.473 0.188,0.673c0.075,0.299 0.212,0.511 0.411,0.634c0.224,0.176 0.485,0.288 0.785,0.337c0.25,0.076 0.511,0.063 0.784,-0.037c0.25,-0.05 0.474,-0.174 0.674,-0.374l0.224,-0.224c0.074,-0.1 0.137,-0.224 0.186,-0.373c0.175,-0.299 0.212,-0.573 0.112,-0.823c0.026,-0.224 -0.049,-0.473 -0.224,-0.746l-0.037,-0.039c-0.124,-0.173 -0.299,-0.336 -0.523,-0.485c-0.2,-0.199 -0.436,-0.287 -0.71,-0.262c-0.274,-0.049 -0.536,-0.038 -0.786,0.038" style="fill:#f5f79a;fill-rule:nonzero;"/><path id="path23844" d="M64.752,30.686c0.148,0.026 0.31,0.075 0.483,0.15c0.248,0.124 0.719,0.333 1.413,0.63c0.619,0.248 1.176,0.583 1.671,1.004c0.496,0.395 1.079,0.879 1.747,1.448c0.645,0.571 1.065,1.116 1.264,1.635c0.272,0.52 0.457,0.916 0.557,1.189c0.099,0.271 0.223,0.582 0.371,0.93c0.125,0.246 0.236,0.469 0.336,0.668c0.049,0.272 0.136,0.494 0.26,0.666c0.073,0.398 0.124,0.77 0.148,1.116c-0.024,0.694 -0.075,1.375 -0.148,2.043l0,0.037c-0.075,0.396 -0.15,0.806 -0.224,1.227c-0.05,0.073 -0.074,0.172 -0.074,0.297c-0.074,0.271 -0.173,0.532 -0.298,0.78l-0.111,0.259l-0.037,0.075c-0.347,0.818 -0.731,1.598 -1.152,2.341c-0.296,0.544 -0.631,1.04 -1.003,1.485c-0.769,0.966 -1.648,1.82 -2.639,2.563c-0.421,0.348 -0.866,0.632 -1.337,0.855c-0.273,1.164 -0.421,1.796 -0.447,1.894c0.67,0.223 1.302,0.559 1.896,1.003c0.867,0.644 1.263,1.487 1.188,2.527c-0.073,0.52 -0.432,1.04 -1.077,1.56c-0.644,0.52 -1.288,0.768 -1.932,0.744c-0.669,-0.026 -1.165,-0.1 -1.487,-0.224c-0.197,-0.075 -0.372,-0.124 -0.52,-0.148c-0.297,0.593 -0.632,1.188 -1.004,1.782c-0.148,0.346 -0.333,0.682 -0.557,1.003c-0.099,0.199 -0.223,0.397 -0.371,0.595c-1.016,1.66 -2.254,3.194 -3.717,4.606c-1.337,1.264 -2.799,2.39 -4.384,3.38c-0.248,0.124 -0.483,0.274 -0.707,0.447c-1.461,0.841 -3.009,1.548 -4.644,2.116c-1.908,0.671 -3.877,1.128 -5.909,1.376c-1.833,0.196 -3.679,0.308 -5.536,0.333c-1.461,-0.025 -2.985,-0.11 -4.572,-0.258l-0.036,0c-0.149,0 -0.285,-0.014 -0.409,-0.038c-0.247,0 -0.495,-0.037 -0.744,-0.112c-1.982,-0.198 -3.926,-0.644 -5.834,-1.337c-0.892,-0.273 -1.758,-0.581 -2.601,-0.928l-0.223,-0.149c-0.148,-0.026 -0.285,-0.074 -0.409,-0.148c-0.817,-0.372 -1.609,-0.768 -2.377,-1.19c-0.496,-0.222 -0.979,-0.47 -1.45,-0.742c-1.313,-0.646 -2.526,-1.412 -3.641,-2.304c-0.323,-0.322 -0.657,-0.644 -1.004,-0.966c-1.387,-1.536 -2.7,-3.133 -3.939,-4.793c-0.273,-0.371 -0.533,-0.729 -0.78,-1.076c-0.917,-1.164 -1.661,-2.415 -2.23,-3.753c-0.198,-0.42 -0.408,-0.816 -0.632,-1.188c-0.47,-0.842 -0.855,-1.759 -1.151,-2.75c-0.299,-0.916 -0.632,-1.844 -1.004,-2.785c-0.52,-1.215 -0.867,-2.476 -1.04,-3.789c-0.124,-0.694 -0.199,-1.412 -0.224,-2.155c-0.048,-2.007 0.013,-4.037 0.187,-6.092c0.074,-0.595 0.149,-1.164 0.222,-1.709c0.347,-1.436 0.67,-2.884 0.967,-4.346c0.099,-0.47 0.211,-0.928 0.335,-1.374c0.024,-0.124 0.073,-0.236 0.148,-0.335c0.62,-2.131 1.09,-3.555 1.412,-4.273c0.124,-0.271 0.26,-0.532 0.409,-0.78c0.148,-0.371 0.333,-0.742 0.557,-1.114c0.174,-0.37 0.372,-0.73 0.594,-1.076c0.669,-1.116 0.98,-1.71 0.929,-1.784l0,-0.037l-0.073,-0.036c0.148,-0.051 0.284,-0.075 0.408,-0.075c0.124,-0.125 0.222,-0.248 0.297,-0.373c0.447,-0.643 0.929,-1.275 1.449,-1.893c0.223,-0.323 0.471,-0.619 0.744,-0.892c0.892,-1.015 1.895,-1.92 3.01,-2.712c0.222,-0.174 0.446,-0.347 0.669,-0.52c0.496,-0.274 1.015,-0.607 1.56,-1.003c1.511,-1.115 3.135,-2.056 4.868,-2.824c1.908,-0.841 3.865,-1.499 5.871,-1.968c1.858,-0.421 3.717,-0.717 5.574,-0.892c1.09,-0.124 2.168,-0.161 3.234,-0.112c2.08,0.049 3.678,0.187 4.793,0.408c1.091,0.175 1.845,0.348 2.267,0.521c0.421,0.148 1.325,0.471 2.713,0.966c1.363,0.496 2.576,1.053 3.641,1.672c1.091,0.618 1.958,1.177 2.602,1.672c0.644,0.445 1.536,1.126 2.676,2.042c1.164,0.942 2.216,1.87 3.158,2.787c0.668,0.668 1.275,1.361 1.82,2.08l0.075,0.112c0.124,0.223 0.284,0.457 0.483,0.705c0.372,0.52 0.768,1.139 1.189,1.858c0.396,0.644 0.805,1.349 1.227,2.117c0.644,1.189 1.4,2.971 2.266,5.349c-0.916,-0.296 -1.882,-0.508 -2.898,-0.63c-0.595,-0.075 -1.19,-0.1 -1.784,-0.075c-0.595,0 -1.202,0.075 -1.82,0.223c-1.164,0.297 -2.144,0.668 -2.936,1.114c-0.768,0.422 -1.4,0.83 -1.896,1.226c-0.47,0.372 -0.954,0.854 -1.448,1.449c-0.348,0.371 -0.658,0.804 -0.93,1.3l-0.037,0.073c-1.215,-0.345 -1.895,-0.556 -2.044,-0.63c-0.669,-0.172 -1.325,-0.347 -1.969,-0.52c-0.619,-0.175 -1.239,-0.335 -1.859,-0.484c-0.52,-0.098 -1.052,-0.223 -1.597,-0.371c-0.248,-0.049 -0.483,-0.087 -0.706,-0.111c-0.074,0.272 -0.162,0.556 -0.26,0.855c-0.125,0.421 -0.248,0.855 -0.372,1.3l0,0.073c0.247,0.026 0.483,0.087 0.706,0.187c0.446,0.172 0.854,0.333 1.226,0.483c0.694,0.198 1.375,0.396 2.044,0.594c0.668,0.174 1.351,0.334 2.044,0.482c0.099,0.026 0.731,0.248 1.895,0.669l0.037,-0.185c0.248,0.073 0.508,0.148 0.78,0.222m9.031,-5.312c-0.496,0.05 -0.979,0.148 -1.449,0.298c-0.719,0.197 -1.424,0.47 -2.119,0.816c-0.223,0.074 -0.433,0.174 -0.631,0.298l-0.186,0.111c-0.768,0.471 -1.45,0.991 -2.044,1.561l-0.186,0.222c-0.149,0.124 -0.272,0.31 -0.372,0.557c-0.049,0.149 -0.124,0.323 -0.222,0.52c-0.075,0.148 -0.15,0.335 -0.223,0.557c-0.051,0.298 -0.124,0.52 -0.224,0.67c-0.099,0.224 -0.235,0.557 -0.408,1.004c-0.173,0.396 -0.223,0.952 -0.148,1.67c0.049,0.694 0.099,1.288 0.148,1.783c0.025,0.471 0.148,0.941 0.371,1.412c0.248,0.52 0.421,0.904 0.521,1.152c0.347,0.841 0.804,1.597 1.375,2.265c0.644,0.843 1.349,1.499 2.117,1.97c0.868,0.494 1.636,0.829 2.305,1.002c0.668,0.15 1.263,0.248 1.783,0.298c0.323,0.074 0.693,0.098 1.116,0.074c0.148,0 0.296,-0.013 0.445,-0.037c0.619,0 1.239,-0.136 1.858,-0.409c0.198,-0.099 0.409,-0.211 0.632,-0.334c0.47,-0.198 0.992,-0.532 1.561,-1.002c0.743,-0.522 1.387,-1.116 1.932,-1.783c0.197,-0.249 0.372,-0.484 0.52,-0.707c0.496,-0.817 0.88,-1.697 1.152,-2.637c0.297,-1.016 0.421,-2.043 0.372,-3.084c-0.049,-0.892 -0.211,-1.783 -0.484,-2.675c-0.347,-0.866 -0.804,-1.684 -1.375,-2.45c-0.098,-0.175 -0.246,-0.335 -0.445,-0.484c-0.595,-0.57 -1.227,-1.076 -1.896,-1.524l-0.297,-0.184c-0.792,-0.471 -1.672,-0.794 -2.638,-0.967c-0.62,-0.025 -1.226,-0.025 -1.821,0c-0.347,-0.025 -0.693,-0.012 -1.04,0.037Zm5.053,9.584c-0.222,0.124 -0.409,0.223 -0.557,0.298c-0.149,0.149 -0.285,0.372 -0.409,0.668c-0.074,0.174 -0.111,0.409 -0.111,0.706c0.025,0.248 0.087,0.471 0.185,0.67c0.075,0.296 0.211,0.508 0.41,0.629c0.222,0.175 0.482,0.285 0.78,0.336c0.248,0.075 0.508,0.061 0.78,-0.037c0.248,-0.05 0.47,-0.172 0.669,-0.372l0.223,-0.223c0.074,-0.1 0.136,-0.223 0.185,-0.371c0.173,-0.297 0.211,-0.569 0.112,-0.817c0.025,-0.224 -0.049,-0.472 -0.223,-0.743l-0.037,-0.038c-0.124,-0.172 -0.297,-0.335 -0.52,-0.483c-0.199,-0.197 -0.433,-0.285 -0.707,-0.26c-0.272,-0.049 -0.533,-0.037 -0.78,0.037Zm-14.901,-4.309c-0.124,0.372 -0.223,0.792 -0.297,1.264c-0.174,1.115 -0.211,2.24 -0.111,3.379c0.073,0.348 0.148,0.694 0.223,1.041c0.272,1.188 0.693,2.328 1.262,3.417c0.62,1.164 1.388,2.168 2.304,3.01c0.918,0.817 1.883,1.485 2.899,2.005c1.089,0.545 2.231,0.917 3.419,1.115c0.322,0.049 0.632,0.074 0.929,0.074l0.148,0c1.065,-0.074 2.156,-0.234 3.271,-0.482c0.62,-0.148 1.225,-0.359 1.821,-0.632c0.099,-0.296 0.185,-0.643 0.26,-1.039m5.611,-9.139c0.322,0.074 0.656,0.159 1.004,0.259m-0.744,2.675c-0.15,-0.05 -0.284,-0.075 -0.408,-0.075c-0.274,-0.049 -0.534,-0.136 -0.782,-0.259m-5.165,-10.774c-0.345,-1.114 -0.681,-2.128 -1.003,-3.046m-56.186,-9.1l-0.036,0.111c-0.076,0.073 -0.484,0.68 -1.228,1.821m0.929,-1.821c0.075,-0.025 0.175,-0.025 0.299,0m34.298,11.553c-0.273,-0.074 -0.545,-0.137 -0.818,-0.185c-0.743,-0.125 -1.474,-0.224 -2.192,-0.299c-0.124,0 -0.26,-0.012 -0.41,-0.037c-0.073,0.348 -0.136,0.707 -0.185,1.077c-0.049,0.272 -0.099,0.558 -0.149,0.855l0.297,0.037c0.447,0.123 0.892,0.236 1.339,0.336c0.496,0.122 0.99,0.271 1.486,0.444m4.386,1.784c-0.25,-0.198 -0.546,-0.322 -0.894,-0.37c-1.014,-0.224 -2.005,-0.139 -2.972,0.257c-0.148,0.075 -0.309,0.139 -0.482,0.187c-1.239,0.322 -2.18,1.041 -2.826,2.154c-0.642,1.09 -1.064,2.279 -1.262,3.567l0,0.595c0.173,1.237 0.532,2.377 1.077,3.417c0.297,0.62 0.657,1.227 1.077,1.82c0.15,0.199 0.31,0.383 0.484,0.557c0.966,0.843 2.031,1.45 3.196,1.82c0.495,0.175 0.979,0.26 1.45,0.26m6.688,10.998c-0.446,0.469 -0.806,0.989 -1.078,1.56c-0.545,1.064 -0.805,2.216 -0.78,3.453c0,0.299 0.062,0.595 0.186,0.892c0.544,1.213 1.35,2.155 2.414,2.824m10.368,-11.927c0.124,0.027 0.248,0.064 0.372,0.114c0.495,-1.14 0.954,-2.316 1.375,-3.531c0.199,-0.643 0.384,-1.287 0.557,-1.931m-15.421,-16.085c0.421,0.175 0.916,0.347 1.487,0.521m9.546,-15.025l-20.38,0.153l-5.045,1.327l0.04,3.852l-1.633,2.52l-31.655,13.376" style="fill:none;fill-rule:nonzero;stroke:#3267a4;stroke-width:2px;"/><path id="path23848" d="M23.151,32.767l-13.101,22.891l23.047,0.834l-6.56,-25.297l-3.386,1.572Z" style="fill:#f5f79a;fill-rule:nonzero;"/><path id="path23852" d="M23.151,32.767l-13.101,22.891l23.047,0.834l-6.56,-25.297l-3.386,1.572Z" style="fill:none;fill-rule:nonzero;stroke:#3267a4;stroke-width:2px;stroke-linecap:butt;stroke-linejoin:miter;stroke-miterlimit:10;"/><path id="path23856" d="M21.859,3.108c-0.354,0.126 -0.704,0.268 -1.049,0.428c-0.388,0.138 -0.769,0.292 -1.147,0.462c-0.036,-0.134 -0.052,-0.256 -0.048,-0.37c-0.085,-0.714 0.095,-1.353 0.542,-1.92c0.142,-0.126 0.285,-0.249 0.429,-0.374c0.441,-0.195 0.883,-0.259 1.324,-0.192c0.229,0.068 0.445,0.141 0.643,0.217c0.186,0.045 0.332,0.124 0.433,0.235c0.243,0.25 0.459,0.525 0.647,0.829l0.014,0.052c-0.493,0.137 -0.992,0.315 -1.498,0.529l-0.29,0.104" style="fill:#ee2529;fill-rule:nonzero;"/><path id="path23860" d="M19.521,4.892c0.502,-0.236 1.01,-0.45 1.528,-0.644c-0.345,0.524 -0.676,1.088 -0.99,1.699c-0.494,0.92 -0.912,1.837 -1.262,2.752c-0.39,0.933 -0.729,1.869 -1.02,2.812c-0.313,1.001 -0.613,2.048 -0.897,3.139c-0.201,0.908 -0.384,1.808 -0.541,2.704c-0.095,0.673 -0.196,1.326 -0.304,1.957c-0.063,0.759 -0.132,1.499 -0.212,2.216c-0.06,0.759 -0.099,1.511 -0.119,2.256c-0.007,0.64 0.015,1.297 0.067,1.964c0.049,1.063 0.109,2.147 0.174,3.251c0.068,0.714 0.158,1.417 0.267,2.11c0.111,0.698 0.265,1.378 0.464,2.043c0.272,1.128 0.543,2.252 0.813,3.383c0.095,0.257 0.17,0.524 0.224,0.8c-5.641,0.281 -10.757,-1.204 -15.353,-4.456c-0.824,-7.116 0.697,-13.138 4.565,-18.064c3.182,-4.132 7.38,-7.44 12.596,-9.922m37.324,8.884c-2.942,5.174 -6.688,9.563 -11.241,13.175c-0.465,-0.857 -0.921,-1.693 -1.373,-2.509c-0.6,-0.958 -1.202,-1.914 -1.802,-2.868c-0.488,-0.655 -0.988,-1.279 -1.505,-1.875c-0.212,-0.312 -0.456,-0.637 -0.731,-0.979c-0.64,-0.794 -1.297,-1.581 -1.98,-2.358c-0.576,-0.622 -1.172,-1.235 -1.789,-1.84c-0.74,-0.807 -1.504,-1.603 -2.285,-2.391c-0.318,-0.327 -0.635,-0.649 -0.951,-0.973c-0.651,-0.695 -1.341,-1.371 -2.079,-2.03c-0.692,-0.673 -1.413,-1.293 -2.16,-1.849c-0.853,-0.713 -1.734,-1.368 -2.642,-1.965c-0.968,-0.623 -1.959,-1.112 -2.978,-1.47c-0.322,-0.077 -0.616,-0.14 -0.88,-0.189c0.13,-0.048 0.26,-0.096 0.388,-0.144c0.676,-0.3 1.343,-0.549 2.007,-0.747c6.049,-1.96 11.825,-2.069 17.331,-0.334c6.065,1.92 10.954,5.702 14.67,11.346" style="fill:#ee2529;fill-rule:nonzero;"/><path id="path23864" d="M45.369,27.317c4.602,-3.647 8.389,-8.082 11.362,-13.307c0.991,-0.269 2.034,-0.608 3.124,-1.012c3.362,-1.101 5.659,-1.533 6.89,-1.297c1.229,0.24 2.212,0.742 2.944,1.513c0.733,0.769 1.172,1.751 1.314,2.937c0.16,1.231 0.046,2.391 -0.345,3.48c-0.432,1.103 -1.089,2.143 -1.968,3.114c-0.896,0.926 -1.764,1.673 -2.596,2.232c-0.88,0.573 -1.767,1.126 -2.66,1.657c-0.895,0.532 -1.863,1.064 -2.905,1.601c-1.084,0.552 -2.131,1.015 -3.134,1.39c-1.061,0.345 -2.164,0.653 -3.302,0.928c-1.036,0.286 -2.09,0.528 -3.155,0.726c-1.112,0.215 -2.181,0.411 -3.204,0.595c-0.971,0.064 -1.937,0.2 -2.901,0.408c-1.146,0.127 -2.262,0.193 -3.351,0.201c-1.192,-0.002 -2.288,-0.017 -3.292,-0.041c-0.207,-0.02 -0.436,-0.036 -0.685,-0.043c0.794,-0.397 1.576,-0.833 2.338,-1.317c1.964,-1.127 3.807,-2.381 5.526,-3.765" style="fill:#ee2529;fill-rule:nonzero;"/><path id="path23868" d="M20.652,4.338c0.468,-0.218 0.942,-0.414 1.426,-0.59c0.271,0.048 0.571,0.113 0.9,0.19c1.042,0.366 2.055,0.864 3.047,1.496c0.931,0.603 1.832,1.263 2.708,1.986c0.765,0.565 1.503,1.188 2.213,1.87c0.755,0.667 1.463,1.352 2.131,2.051c0.324,0.328 0.648,0.656 0.975,0.985c0.801,0.798 1.585,1.602 2.344,2.416c0.633,0.612 1.244,1.234 1.833,1.86c0.7,0.787 1.376,1.579 2.033,2.383c0.28,0.345 0.53,0.675 0.75,0.991c0.529,0.602 1.042,1.232 1.544,1.893c0.617,0.964 1.234,1.927 1.849,2.892c0.464,0.821 0.935,1.669 1.415,2.535c-1.734,1.374 -3.59,2.617 -5.57,3.734c-0.769,0.48 -1.558,0.914 -2.361,1.306c-6.392,3.22 -13.233,4.989 -20.524,5.312c-0.053,-0.278 -0.132,-0.547 -0.231,-0.807c-0.281,-1.139 -0.562,-2.275 -0.844,-3.409c-0.204,-0.671 -0.365,-1.356 -0.48,-2.058c-0.114,-0.701 -0.21,-1.409 -0.281,-2.129c-0.073,-1.111 -0.136,-2.205 -0.191,-3.273c-0.057,-0.674 -0.08,-1.332 -0.077,-1.978c0.02,-0.752 0.059,-1.508 0.115,-2.274c0.077,-0.72 0.146,-1.464 0.208,-2.23c0.109,-0.634 0.21,-1.292 0.304,-1.97c0.157,-0.898 0.34,-1.808 0.542,-2.723c0.286,-1.096 0.588,-2.148 0.906,-3.157c0.292,-0.946 0.634,-1.89 1.032,-2.826c0.352,-0.921 0.777,-1.845 1.277,-2.769c0.319,-0.613 0.655,-1.181 1.007,-1.707" style="fill:#ee2529;fill-rule:nonzero;"/><path id="path23872" d="M45.489,27.269c-1.684,1.37 -3.491,2.608 -5.419,3.722c-0.748,0.474 -1.516,0.909 -2.298,1.296m-18.467,-27.483c0.499,-0.236 1.005,-0.447 1.52,-0.637c0.455,-0.218 0.919,-0.412 1.389,-0.587m-1.389,0.587c-0.34,0.524 -0.665,1.093 -0.975,1.705c-0.485,0.924 -0.896,1.848 -1.237,2.769c-0.381,0.936 -0.712,1.88 -0.993,2.828c-0.304,1.008 -0.598,2.06 -0.87,3.158c-0.194,0.916 -0.369,1.825 -0.517,2.725c-0.089,0.679 -0.185,1.339 -0.289,1.975c-0.058,0.765 -0.12,1.509 -0.194,2.232c-0.053,0.766 -0.088,1.525 -0.101,2.278c-0.001,0.644 0.025,1.306 0.083,1.98c0.057,1.072 0.125,2.167 0.201,3.282c0.072,0.721 0.167,1.432 0.283,2.132c0.116,0.704 0.276,1.393 0.478,2.065c0.279,1.139 0.559,2.279 0.836,3.419c0.099,0.262 0.176,0.532 0.231,0.81m4.453,-33.945c0.266,0.051 0.559,0.116 0.882,0.196c1.017,0.371 2.009,0.873 2.978,1.508c0.911,0.609 1.795,1.275 2.654,2.005c0.748,0.566 1.47,1.194 2.166,1.883c0.74,0.671 1.435,1.357 2.09,2.063c0.317,0.329 0.636,0.658 0.954,0.989c0.788,0.801 1.555,1.612 2.299,2.431c0.621,0.614 1.22,1.24 1.799,1.872c0.686,0.789 1.35,1.589 1.994,2.396c0.275,0.345 0.52,0.676 0.736,0.994c0.52,0.604 1.024,1.239 1.516,1.9c0.607,0.97 1.212,1.938 1.819,2.91c0.456,0.825 0.919,1.676 1.388,2.542c4.512,-3.606 8.212,-8.008 11.105,-13.206m-34.38,-10.483c0.13,-0.048 0.259,-0.099 0.388,-0.145c0.67,-0.295 1.335,-0.54 1.994,-0.736m0,0c6.017,-1.927 11.776,-1.994 17.281,-0.198c6.061,1.983 10.968,5.838 14.717,11.562c0.976,-0.26 2,-0.59 3.072,-0.986c3.308,-1.074 5.571,-1.489 6.786,-1.241c1.214,0.247 2.188,0.759 2.916,1.532c0.729,0.776 1.169,1.757 1.318,2.944c0.168,1.231 0.063,2.388 -0.313,3.473c-0.419,1.098 -1.059,2.132 -1.919,3.096c-0.876,0.922 -1.725,1.656 -2.544,2.208c-0.861,0.568 -1.73,1.114 -2.609,1.638c-0.879,0.524 -1.829,1.049 -2.853,1.577c-1.066,0.543 -2.094,0.996 -3.079,1.361c-1.045,0.338 -2.131,0.639 -3.251,0.904c-1.02,0.279 -2.054,0.514 -3.105,0.702c-1.096,0.206 -2.147,0.394 -3.156,0.57c-0.955,0.054 -1.908,0.182 -2.859,0.384c-1.128,0.119 -2.228,0.179 -3.301,0.179c-1.177,-0.013 -2.259,-0.035 -3.248,-0.067c-0.203,-0.024 -0.429,-0.041 -0.677,-0.05c-6.224,3.197 -12.896,4.942 -20.011,5.238c-5.623,0.238 -10.737,-1.301 -15.345,-4.62c-0.878,-7.184 0.592,-13.248 4.409,-18.189c3.137,-4.147 7.299,-7.449 12.48,-9.912c-0.065,-0.173 -0.1,-0.335 -0.108,-0.484c-0.196,-0.92 -0.02,-1.753 0.528,-2.504c0.181,-0.168 0.365,-0.336 0.547,-0.501c0.584,-0.266 1.182,-0.366 1.796,-0.291c0.321,0.08 0.622,0.167 0.902,0.263c0.264,0.05 0.471,0.149 0.622,0.292c0.362,0.313 0.686,0.665 0.98,1.056l0.024,0.064Z" style="fill:none;fill-rule:nonzero;stroke:#3267a4;stroke-width:2px;"/></g></svg>