<?xml version="1.0" encoding="UTF-8" standalone="no"?><!DOCTYPE svg PUBLIC "-//W3C//DTD SVG 1.1//EN" "http://www.w3.org/Graphics/SVG/1.1/DTD/svg11.dtd"><svg width="100%" height="100%" viewBox="0 0 59 85" version="1.1" xmlns="http://www.w3.org/2000/svg" xmlns:xlink="http://www.w3.org/1999/xlink" xml:space="preserve" xmlns:serif="http://www.serif.com/" style="fill-rule:evenodd;clip-rule:evenodd;stroke-linecap:round;stroke-linejoin:round;stroke-miterlimit:3;"><g><path id="path23924" d="M42.349,44.7c0.45,0.224 0.911,0.437 1.383,0.64c0.292,0.134 0.585,0.304 0.877,0.505c1.304,0.989 2.147,2.295 2.53,3.913c0.382,1.596 0.405,3.194 0.068,4.79c0.202,0.022 0.416,0.033 0.641,0.033c1.933,0 3.821,-0.212 5.665,-0.64c0.563,-0.157 1.114,-0.269 1.654,-0.337c0.134,-1.012 0.258,-2.023 0.372,-3.036c0.133,-1.484 0.28,-2.958 0.437,-4.419c0.091,-1.551 0.18,-3.103 0.271,-4.653l0,-0.338c0.022,-0.384 0.022,-0.765 0,-1.148c0.022,-0.561 0.033,-1.124 0.033,-1.686c0,-0.315 -0.011,-0.607 -0.033,-0.878c0.022,-0.448 0.01,-0.786 -0.035,-1.01c-0.045,-0.114 -0.079,-0.327 -0.101,-0.642c-0.022,-0.248 -0.034,-0.528 -0.034,-0.842c-0.045,-0.834 -0.157,-2.026 -0.337,-3.576c-0.045,-0.495 -0.135,-0.979 -0.269,-1.451c-0.271,-1.147 -0.518,-2.304 -0.743,-3.475c-0.157,-0.764 -0.371,-1.506 -0.641,-2.225c-0.112,-0.269 -0.224,-0.563 -0.338,-0.877c-0.089,-0.203 -0.168,-0.394 -0.236,-0.574c-0.246,-0.562 -0.538,-1.09 -0.876,-1.585c-0.473,-0.743 -1.012,-1.428 -1.62,-2.057c-1.078,-1.058 -2.293,-1.934 -3.642,-2.631c-0.764,-0.405 -1.551,-0.687 -2.362,-0.844c-0.494,-0.068 -0.966,-0.18 -1.416,-0.337c-0.922,-0.27 -1.856,-0.439 -2.8,-0.506c-0.405,-0.024 -0.797,-0.034 -1.18,-0.034c-0.517,-0.044 -1.046,-0.09 -1.585,-0.135c-1.529,-0.156 -3.069,-0.337 -4.621,-0.54l-0.439,0l0,0c-0.135,-0.023 -0.281,-0.044 -0.439,-0.067c-1.258,-0.157 -2.529,-0.246 -3.812,-0.269c-0.336,-0.023 -0.64,-0.023 -0.91,0c-0.787,0.023 -1.574,0.112 -2.362,0.269c-0.516,0.044 -1.056,0.135 -1.618,0.27c-0.224,0.022 -0.46,0.056 -0.708,0.101c-0.518,0.203 -1.012,0.371 -1.484,0.507c-0.315,0.068 -0.596,0.157 -0.844,0.27c-1.079,0.56 -2.034,1.259 -2.867,2.09c0.608,0.045 1.204,0.113 1.788,0.202c1.956,0.315 3.947,0.596 5.971,0.843c0.494,0.091 0.978,0.157 1.449,0.203c1.845,0.204 3.688,0.405 5.533,0.608c0.382,0.044 0.764,0.1 1.147,0.168c1.843,0.293 3.699,0.517 5.565,0.674c1.214,0.091 2.428,0.203 3.643,0.338c0.112,1.326 0.18,2.654 0.203,3.981c0.021,1.911 -0.068,3.811 -0.271,5.7c-0.18,1.484 -0.259,2.979 -0.236,4.485c0,1.012 -0.023,2.024 -0.068,3.035c-0.067,1.171 -0.123,2.34 -0.168,3.509c-0.045,1.236 -0.089,2.463 -0.135,3.678" style="fill:#419cd6;fill-rule:nonzero;"/><path id="path23928" d="M11.553,52.76l-0.202,-0.033c-0.562,-0.023 -1.102,0.1 -1.619,0.372c-0.203,0.111 -0.383,0.224 -0.54,0.336c-0.269,0.201 -0.416,0.483 -0.439,0.844c-0.044,1.012 0.226,1.923 0.811,2.731c0.269,0.382 0.573,0.676 0.911,0.878c0.426,0.292 0.888,0.506 1.382,0.642c0.023,0.156 0.034,0.313 0.034,0.47c0.045,0.742 0.113,1.472 0.202,2.194c0.046,0.358 0.102,0.73 0.168,1.112c0.203,1.461 0.406,2.924 0.608,4.385c0.068,0.359 0.146,0.719 0.236,1.08c0.09,0.741 0.259,1.484 0.507,2.225c0.224,0.743 0.415,1.474 0.572,2.194c0.337,1.55 0.855,3.036 1.552,4.452c0.112,0.269 0.248,0.538 0.405,0.809c0.18,0.292 0.36,0.54 0.54,0.741c0.495,0.743 1.046,1.395 1.652,1.958c0.158,0.178 0.371,0.314 0.642,0.404l0.066,0.034l0.102,0.067c0.788,0.451 1.574,0.855 2.361,1.215c0.809,0.337 1.631,0.629 2.463,0.876l0.337,0.102c0.135,0.044 0.259,0.067 0.371,0.067c1.101,0.269 2.226,0.472 3.373,0.608l1.18,0c1.485,0 2.957,0.033 4.419,0.101c1.506,0.09 2.99,0.023 4.452,-0.204c0.225,-0.022 0.461,-0.033 0.709,-0.033l0.201,-0.033l0.035,0c1.192,-0.091 2.327,-0.416 3.407,-0.979c0.224,-0.089 0.484,-0.191 0.776,-0.303c0.809,-0.269 1.585,-0.629 2.328,-1.08c1.258,-0.809 2.372,-1.833 3.338,-3.069c0.224,-0.36 0.45,-0.743 0.675,-1.147c0.135,-0.246 0.292,-0.494 0.472,-0.741c0.404,-0.788 0.753,-1.608 1.045,-2.463c0.36,-0.989 0.698,-2.001 1.012,-3.036c0.383,-1.326 0.708,-2.688 0.978,-4.081c0.09,-0.405 0.181,-0.821 0.27,-1.248c0.383,-1.395 0.664,-2.833 0.844,-4.317c0.022,-0.428 0.078,-0.855 0.168,-1.283c0.112,-0.652 0.214,-1.281 0.304,-1.888c0.044,-0.292 0.09,-0.573 0.135,-0.844c0.023,-0.359 0.056,-0.685 0.101,-0.977c0.046,-0.36 0.102,-0.71 0.168,-1.046c0.023,-0.405 0.056,-0.821 0.102,-1.249c-0.54,0.068 -1.091,0.181 -1.654,0.339c-1.844,0.426 -3.732,0.64 -5.665,0.64c-0.225,0 -0.439,-0.012 -0.641,-0.035c0.337,-1.596 0.314,-3.192 -0.068,-4.789c-0.383,-1.619 -1.226,-2.923 -2.53,-3.912c-0.292,-0.203 -0.585,-0.371 -0.877,-0.506c-0.472,-0.204 -0.933,-0.416 -1.383,-0.641l-0.168,-0.101c-0.45,-0.226 -0.889,-0.348 -1.316,-0.371c-0.428,0 -0.865,-0.023 -1.316,-0.068c-0.561,-0.045 -0.989,0.023 -1.281,0.203c0.292,-0.18 0.72,-0.248 1.281,-0.203c0.451,0.045 0.888,0.068 1.316,0.068c0.427,0.023 0.866,0.145 1.316,0.371l0.168,0.101c0.046,-1.215 0.091,-2.44 0.135,-3.676c0.045,-1.171 0.101,-2.34 0.169,-3.509c0.044,-1.011 0.067,-2.024 0.067,-3.035c-0.023,-1.507 0.056,-3.003 0.236,-4.487c0.203,-1.889 0.293,-3.788 0.271,-5.7c-0.023,-1.326 -0.091,-2.653 -0.203,-3.98c-1.215,-0.136 -2.429,-0.246 -3.643,-0.337c-1.866,-0.159 -3.722,-0.383 -5.565,-0.675c-0.383,-0.068 -0.765,-0.125 -1.147,-0.169c-1.844,-0.203 -3.688,-0.404 -5.533,-0.607c-0.471,-0.045 -0.955,-0.112 -1.449,-0.202c-2.024,-0.247 -4.015,-0.528 -5.971,-0.843c-0.584,-0.089 -1.18,-0.157 -1.788,-0.203c-0.224,0.203 -0.437,0.427 -0.641,0.675c-0.156,0.201 -0.28,0.416 -0.371,0.64c-0.764,1.283 -1.439,2.643 -2.023,4.081c-0.337,0.72 -0.618,1.463 -0.844,2.227c-0.112,0.248 -0.202,0.495 -0.269,0.743c-0.045,0.134 -0.091,0.258 -0.135,0.37c-0.316,1.035 -0.529,2.08 -0.641,3.138c-0.045,0.472 -0.079,0.944 -0.101,1.416c-0.023,0.472 -0.056,0.978 -0.102,1.518c-0.022,0.292 -0.044,0.596 -0.068,0.91c-0.156,1.597 -0.314,3.181 -0.472,4.757c-0.066,0.72 -0.157,1.416 -0.269,2.091c-0.045,0.853 -0.101,1.72 -0.168,2.597c-0.023,0.247 -0.035,0.505 -0.035,0.776c-0.112,1.507 -0.19,3.013 -0.236,4.52c-0.022,0.292 -0.033,0.607 -0.033,0.943l0,0.068c0.045,0.428 0.067,0.833 0.067,1.214c-0.022,0.338 -0.022,0.698 0,1.08c-0.022,0.45 -0.034,0.923 -0.034,1.418l0,0.302c0.563,0 1.114,0.011 1.654,0.034c-0.54,-0.023 -1.091,-0.034 -1.654,-0.034m18.519,-26.781c0,-0.764 -0.259,-1.428 -0.776,-1.991c-0.269,-0.246 -0.529,-0.505 -0.776,-0.776c-0.315,-0.337 -0.664,-0.596 -1.045,-0.774c-1.192,-0.587 -2.418,-0.956 -3.678,-1.114c-0.405,-0.046 -0.54,0.012 -0.405,0.168c-0.135,-0.156 0,-0.214 0.405,-0.168c1.26,0.158 2.486,0.527 3.678,1.114c0.381,0.178 0.73,0.437 1.045,0.774c0.247,0.271 0.507,0.53 0.776,0.776c0.517,0.563 0.776,1.227 0.776,1.991m17.067,28.873l0,0c-0.224,1.011 -0.528,2.023 -0.911,3.036c-0.112,0.336 -0.292,0.642 -0.54,0.91c-0.539,0.697 -1.124,1.326 -1.753,1.889c-0.248,0.225 -0.462,0.439 -0.642,0.641c-0.178,0.134 -0.348,0.27 -0.505,0.404c-0.405,0.316 -0.855,0.551 -1.349,0.708c-0.427,0.114 -0.866,0.192 -1.316,0.238c-0.179,0.022 -0.371,0.056 -0.574,0.101c0.203,-0.045 0.395,-0.079 0.574,-0.101c0.45,-0.046 0.889,-0.124 1.316,-0.238c0.494,-0.157 0.944,-0.392 1.349,-0.708c0.157,-0.134 0.327,-0.27 0.505,-0.404c0.18,-0.202 0.394,-0.416 0.642,-0.641c0.629,-0.563 1.214,-1.192 1.753,-1.889c0.248,-0.268 0.428,-0.574 0.54,-0.91c0.383,-1.013 0.687,-2.025 0.911,-3.036Zm-29.412,-17.405c0.718,-0.428 1.494,-0.788 2.326,-1.08c0.226,-0.089 0.451,-0.123 0.675,-0.1c0.091,0.023 0.203,0.023 0.337,0c0.428,-0.023 0.888,-0.035 1.383,-0.035c0.652,0.068 1.26,0.203 1.821,0.406c0.383,0.112 0.754,0.281 1.114,0.505c0.742,0.472 1.405,1.035 1.99,1.687c0.135,0.157 0.282,0.314 0.439,0.472c0.381,0.496 0.731,1.012 1.045,1.552c0.158,0.27 0.259,0.517 0.304,0.742c0.09,0.224 0.146,0.45 0.168,0.674c0.046,0.9 0.034,1.8 -0.033,2.698c-0.113,0.472 -0.225,0.934 -0.337,1.384c-0.203,0.832 -0.484,1.563 -0.844,2.192c-0.427,0.743 -0.888,1.362 -1.383,1.855c-0.427,0.427 -0.888,0.743 -1.383,0.945c-0.449,0.271 -0.933,0.394 -1.45,0.37c-0.495,0.024 -0.855,0.057 -1.079,0.102c-0.855,0.202 -1.699,0.282 -2.531,0.235c-0.472,-0.067 -0.91,-0.179 -1.314,-0.337c-0.203,-0.067 -0.383,-0.134 -0.54,-0.202c-0.18,-0.134 -0.371,-0.269 -0.574,-0.405c-0.674,-0.449 -1.293,-0.977 -1.854,-1.585c-0.631,-0.607 -1.136,-1.315 -1.519,-2.124c-0.381,-0.788 -0.641,-1.642 -0.776,-2.564c-0.135,-0.832 -0.089,-1.654 0.135,-2.462c0.045,-0.157 0.101,-0.326 0.169,-0.506l0.067,-0.203c0.248,-0.585 0.552,-1.147 0.91,-1.685c0.114,-0.136 0.215,-0.283 0.304,-0.44c0.091,-0.09 0.18,-0.214 0.27,-0.371c0.338,-0.36 0.686,-0.696 1.046,-1.012c0.18,-0.18 0.404,-0.337 0.674,-0.472c0.136,-0.068 0.282,-0.147 0.44,-0.236c-0.158,0.089 -0.304,0.168 -0.44,0.236c-0.27,0.135 -0.494,0.292 -0.674,0.472c-0.36,0.316 -0.708,0.652 -1.046,1.012c-0.09,0.157 -0.179,0.281 -0.27,0.371c-0.089,0.157 -0.19,0.304 -0.304,0.44c-0.358,0.538 -0.662,1.1 -0.91,1.685l-0.067,0.203c-0.068,0.18 -0.124,0.349 -0.169,0.506c-0.224,0.808 -0.27,1.63 -0.135,2.462c0.135,0.922 0.395,1.776 0.776,2.564c0.383,0.809 0.888,1.517 1.519,2.124c0.561,0.608 1.18,1.136 1.854,1.585c0.203,0.136 0.394,0.271 0.574,0.405c0.157,0.068 0.337,0.135 0.54,0.202c0.404,0.158 0.842,0.27 1.314,0.337c0.832,0.047 1.676,-0.033 2.531,-0.235c0.224,-0.045 0.584,-0.078 1.079,-0.102c0.517,0.024 1.001,-0.099 1.45,-0.37c0.495,-0.202 0.956,-0.518 1.383,-0.945c0.495,-0.493 0.956,-1.112 1.383,-1.855c0.36,-0.629 0.641,-1.36 0.844,-2.192c0.112,-0.45 0.224,-0.912 0.337,-1.384c0.067,-0.898 0.079,-1.798 0.033,-2.698c-0.022,-0.224 -0.078,-0.45 -0.168,-0.674c-0.045,-0.225 -0.146,-0.472 -0.304,-0.742c-0.314,-0.54 -0.664,-1.056 -1.045,-1.552c-0.157,-0.158 -0.304,-0.315 -0.439,-0.472c-0.585,-0.652 -1.248,-1.215 -1.99,-1.687c-0.36,-0.224 -0.731,-0.393 -1.114,-0.505c-0.561,-0.203 -1.169,-0.338 -1.821,-0.406c-0.495,0 -0.955,0.012 -1.383,0.035c-0.134,0.023 -0.246,0.023 -0.337,0c-0.224,-0.023 -0.449,0.011 -0.675,0.1c-0.832,0.292 -1.608,0.652 -2.326,1.08m-0.068,5.127c0.022,0.18 0.033,0.349 0.033,0.506c-0.044,0.158 -0.112,0.292 -0.201,0.404c-0.114,0.112 -0.248,0.215 -0.406,0.304c-0.18,0.09 -0.337,0.135 -0.472,0.135c-0.157,0.023 -0.326,-0.035 -0.506,-0.169c-0.135,-0.067 -0.235,-0.168 -0.303,-0.304c-0.136,-0.134 -0.215,-0.28 -0.237,-0.438c-0.022,-0.157 -0.011,-0.314 0.034,-0.472c0.067,-0.202 0.158,-0.36 0.271,-0.473c0.135,-0.135 0.28,-0.224 0.437,-0.269c0.091,-0.044 0.214,-0.067 0.372,-0.067c0.135,0 0.292,0.044 0.471,0.135c0.091,0.066 0.204,0.168 0.339,0.304c0.066,0.112 0.122,0.246 0.168,0.404m-5.802,15.956c0.45,0.133 0.9,0.212 1.35,0.233c-0.45,-0.021 -0.9,-0.1 -1.35,-0.233m10.288,8.43c0.63,1.306 0.866,2.7 0.708,4.184l-0.101,0.303c-0.517,0.899 -1.225,1.495 -2.125,1.787c-0.45,0.134 -0.922,0.192 -1.416,0.169c-1.058,-0.023 -1.9,-0.483 -2.53,-1.383c-0.136,-0.202 -0.27,-0.405 -0.405,-0.606c-0.157,-0.203 -0.248,-0.427 -0.269,-0.675c0.021,0.248 0.112,0.472 0.269,0.675c0.135,0.201 0.269,0.404 0.405,0.606c0.63,0.9 1.472,1.36 2.53,1.383c0.494,0.023 0.966,-0.035 1.416,-0.169c0.9,-0.292 1.608,-0.888 2.125,-1.787l0.101,-0.303c0.158,-1.484 -0.078,-2.878 -0.708,-4.184" style="fill:#fff;fill-rule:nonzero;"/><path id="path23932" d="M17.659,42.574c-0.046,-0.158 -0.102,-0.293 -0.168,-0.405c-0.135,-0.135 -0.248,-0.236 -0.339,-0.303c-0.179,-0.09 -0.336,-0.136 -0.471,-0.136c-0.158,0 -0.281,0.023 -0.372,0.068c-0.157,0.046 -0.302,0.135 -0.437,0.27c-0.113,0.113 -0.204,0.27 -0.271,0.472c-0.045,0.157 -0.056,0.314 -0.034,0.472c0.022,0.157 0.101,0.305 0.237,0.438c0.068,0.135 0.169,0.238 0.304,0.304c0.179,0.135 0.348,0.191 0.505,0.17c0.135,0 0.292,-0.047 0.472,-0.136c0.158,-0.09 0.292,-0.191 0.406,-0.303c0.089,-0.113 0.157,-0.248 0.201,-0.405c0,-0.158 -0.011,-0.327 -0.033,-0.506" style="fill:#3267a4;fill-rule:nonzero;"/><path id="path23936" d="M18.098,17.455c0.823,-0.825 1.767,-1.519 2.833,-2.076c0.246,-0.112 0.523,-0.201 0.834,-0.268c0.468,-0.135 0.956,-0.303 1.468,-0.503c0.244,-0.046 0.477,-0.078 0.7,-0.101c0.554,-0.133 1.088,-0.224 1.6,-0.268c0.777,-0.156 1.556,-0.244 2.333,-0.268c0.267,-0.023 0.567,-0.023 0.9,0c1.267,0.024 2.523,0.112 3.767,0.268c0.156,0.023 0.301,0.044 0.433,0.067l-0.033,0.269m-14.835,2.88c0.6,0.045 1.189,0.112 1.767,0.201c1.933,0.312 3.901,0.592 5.901,0.838c0.489,0.089 0.967,0.156 1.433,0.2c1.823,0.202 3.646,0.402 5.468,0.604c0.378,0.044 0.755,0.1 1.134,0.166c1.821,0.291 3.654,0.514 5.5,0.671c1.2,0.091 2.4,0.2 3.6,0.335c0.112,1.318 0.178,2.636 0.2,3.953c0.022,1.899 -0.067,3.785 -0.267,5.661c-0.177,1.474 -0.255,2.959 -0.233,4.455c0,1.005 -0.022,2.011 -0.067,3.015c-0.067,1.161 -0.121,2.322 -0.167,3.484c-0.044,1.228 -0.088,2.446 -0.133,3.652l-0.167,-0.1c-0.444,-0.224 -0.877,-0.347 -1.3,-0.37c-0.422,0 -0.854,-0.022 -1.3,-0.066c-0.556,-0.046 -0.977,0.022 -1.266,0.201m-26.404,8.341l0,-0.301c0,-0.492 0.012,-0.961 0.033,-1.408c-0.021,-0.38 -0.021,-0.737 0,-1.072c0,-0.38 -0.021,-0.781 -0.065,-1.207l0,-0.066c0,-0.335 0.01,-0.647 0.032,-0.938c0.045,-1.496 0.122,-2.992 0.234,-4.489c0,-0.268 0.011,-0.524 0.034,-0.771c0.065,-0.87 0.121,-1.73 0.166,-2.578c0.111,-0.67 0.2,-1.362 0.267,-2.076c0.155,-1.566 0.311,-3.139 0.465,-4.726c0.023,-0.31 0.046,-0.613 0.068,-0.902c0.044,-0.536 0.078,-1.04 0.1,-1.508c0.022,-0.468 0.055,-0.939 0.1,-1.407c0.111,-1.051 0.322,-2.088 0.634,-3.116c0.044,-0.112 0.088,-0.233 0.133,-0.368c0.067,-0.247 0.155,-0.492 0.267,-0.737c0.222,-0.759 0.5,-1.496 0.833,-2.211c0.577,-1.429 1.245,-2.781 2,-4.053c0.089,-0.223 0.211,-0.436 0.367,-0.636c0.2,-0.247 0.412,-0.47 0.633,-0.671m14.435,-3.216c-0.267,-0.357 -0.644,-0.715 -1.134,-1.072c-0.31,-0.133 -0.577,-0.324 -0.8,-0.569c-1.754,-1.563 -3.678,-2.903 -5.766,-4.02c-0.4,-0.202 -0.812,-0.412 -1.234,-0.636l-0.2,-0.134m12.1,-4.522c-0.065,0.401 -0.144,0.802 -0.232,1.205c-0.266,1.452 -0.656,2.859 -1.166,4.221c-0.135,0.402 -0.256,0.804 -0.367,1.206c-0.333,0.982 -0.556,2.01 -0.667,3.082c-0.022,0.246 -0.066,0.424 -0.134,0.535c-0.067,-0.223 -0.211,-0.435 -0.434,-0.636c-0.777,-0.781 -1.454,-1.663 -2.033,-2.647c-1.179,-1.941 -2.411,-3.84 -3.7,-5.694l-0.167,-0.2l-0.233,-0.303l-0.167,-0.267m0.167,0.267c0.089,0.179 0.221,0.347 0.4,0.503m6.167,8.977c-0.067,0.135 -0.155,0.224 -0.266,0.268m0.266,-0.268c0.068,0.224 0.078,0.481 0.033,0.771l0.435,0c1.533,0.201 3.054,0.381 4.566,0.536c0.534,0.045 1.056,0.09 1.567,0.134c0.379,0 0.767,0.011 1.167,0.035c0.933,0.065 1.856,0.233 2.766,0.501c0.446,0.156 0.912,0.268 1.402,0.335c0.8,0.156 1.577,0.435 2.333,0.839c1.333,0.692 2.533,1.562 3.6,2.612c0.6,0.625 1.133,1.306 1.6,2.042c0.333,0.492 0.623,1.016 0.867,1.575c0.066,0.179 0.145,0.369 0.233,0.569c0.112,0.314 0.223,0.604 0.333,0.872c0.267,0.715 0.479,1.451 0.634,2.211c0.222,1.161 0.468,2.311 0.733,3.449c0.135,0.47 0.223,0.95 0.267,1.442c0.178,1.54 0.289,2.724 0.333,3.55c0,0.314 0.012,0.592 0.033,0.838c0.023,0.312 0.056,0.525 0.102,0.637c0.044,0.223 0.054,0.559 0.033,1.004c0.021,0.268 0.033,0.559 0.033,0.871c0,0.558 -0.012,1.117 -0.033,1.674c0.021,0.38 0.021,0.76 0,1.14l0,0.336c-0.089,1.54 -0.179,3.082 -0.268,4.622c-0.155,1.45 -0.299,2.914 -0.432,4.389c-0.112,1.005 -0.235,2.009 -0.368,3.013c-0.533,0.068 -1.077,0.18 -1.633,0.336c-1.823,0.426 -3.69,0.636 -5.6,0.636c-0.223,0 -0.434,-0.01 -0.634,-0.033c0.334,-1.585 0.311,-3.172 -0.066,-4.757c-0.379,-1.607 -1.212,-2.904 -2.502,-3.886c-0.288,-0.201 -0.577,-0.368 -0.865,-0.502c-0.468,-0.202 -0.923,-0.414 -1.368,-0.636m-12.135,-18.592c0,-0.759 -0.254,-1.419 -0.766,-1.976c-0.267,-0.246 -0.523,-0.503 -0.767,-0.771c-0.311,-0.335 -0.656,-0.592 -1.033,-0.771c-1.178,-0.581 -2.39,-0.949 -3.634,-1.105c-0.401,-0.045 -0.533,0.012 -0.401,0.167m-11.701,31.054l-0.199,-0.034c-0.556,-0.023 -1.089,0.1 -1.6,0.369c-0.201,0.111 -0.379,0.223 -0.535,0.335c-0.266,0.2 -0.41,0.478 -0.433,0.837c-0.044,1.005 0.223,1.909 0.8,2.713c0.267,0.38 0.567,0.671 0.9,0.872c0.423,0.29 0.879,0.502 1.367,0.636c0.022,0.156 0.033,0.314 0.033,0.47c0.045,0.736 0.112,1.461 0.201,2.177c0.044,0.357 0.1,0.725 0.167,1.105c0.2,1.451 0.4,2.904 0.6,4.354c0.067,0.357 0.144,0.714 0.233,1.073c0.088,0.736 0.256,1.473 0.5,2.211c0.222,0.737 0.411,1.462 0.567,2.177c0.333,1.54 0.844,3.015 1.533,4.421c0.111,0.27 0.244,0.536 0.4,0.804c0.178,0.291 0.356,0.536 0.534,0.736c0.489,0.739 1.033,1.386 1.633,1.944c0.156,0.179 0.367,0.314 0.633,0.403l0.067,0.033l0.1,0.067c0.779,0.448 1.556,0.848 2.333,1.205c0.8,0.336 1.612,0.627 2.435,0.872l0.333,0.1c0.134,0.046 0.255,0.067 0.367,0.067c1.088,0.268 2.2,0.469 3.333,0.604l1.167,0c1.467,0 2.923,0.033 4.368,0.1c1.488,0.089 2.956,0.023 4.4,-0.201c0.223,-0.023 0.456,-0.034 0.7,-0.034l0.2,-0.033l0.033,0c1.178,-0.089 2.3,-0.412 3.367,-0.972c0.223,-0.089 0.479,-0.189 0.767,-0.301c0.801,-0.267 1.568,-0.624 2.301,-1.072c1.244,-0.804 2.344,-1.82 3.3,-3.048c0.223,-0.358 0.444,-0.738 0.667,-1.139c0.133,-0.245 0.289,-0.492 0.466,-0.737c0.4,-0.782 0.744,-1.598 1.034,-2.446c0.356,-0.982 0.689,-1.988 1,-3.014c0.378,-1.318 0.7,-2.67 0.966,-4.054c0.09,-0.402 0.179,-0.816 0.267,-1.24c0.379,-1.384 0.656,-2.813 0.833,-4.286c0.023,-0.426 0.079,-0.85 0.167,-1.275c0.112,-0.647 0.212,-1.272 0.301,-1.876c0.044,-0.289 0.088,-0.568 0.132,-0.836c0.023,-0.357 0.056,-0.681 0.1,-0.972c0.046,-0.357 0.1,-0.704 0.167,-1.039c0.023,-0.401 0.056,-0.814 0.1,-1.24m-7.867,0.939l-0.066,0.301c-0.223,1.006 -0.523,2.011 -0.9,3.016c-0.112,0.335 -0.29,0.636 -0.534,0.903c-0.533,0.693 -1.112,1.319 -1.734,1.877c-0.244,0.224 -0.455,0.435 -0.632,0.636c-0.179,0.134 -0.346,0.268 -0.502,0.403c-0.4,0.313 -0.844,0.547 -1.333,0.703c-0.421,0.112 -0.855,0.189 -1.3,0.234c-0.177,0.023 -0.367,0.056 -0.567,0.102m-21.569,-25.159c0.712,-0.424 1.477,-0.781 2.3,-1.072c0.223,-0.088 0.445,-0.123 0.667,-0.1c0.089,0.023 0.2,0.023 0.333,0c0.423,-0.023 0.879,-0.033 1.368,-0.033c0.644,0.068 1.244,0.201 1.8,0.402c0.377,0.111 0.744,0.279 1.1,0.502c0.733,0.469 1.388,1.026 1.967,1.676c0.133,0.156 0.277,0.312 0.433,0.468c0.377,0.492 0.723,1.005 1.033,1.541c0.156,0.268 0.256,0.513 0.3,0.737c0.088,0.223 0.144,0.446 0.167,0.67c0.045,0.893 0.033,1.786 -0.033,2.68c-0.111,0.468 -0.223,0.926 -0.334,1.373c-0.2,0.827 -0.477,1.552 -0.833,2.177c-0.423,0.738 -0.877,1.352 -1.367,1.843c-0.422,0.424 -0.877,0.737 -1.366,0.939c-0.444,0.268 -0.923,0.39 -1.434,0.366c-0.489,0.024 -0.845,0.056 -1.066,0.102c-0.846,0.201 -1.679,0.28 -2.502,0.233c-0.466,-0.065 -0.9,-0.177 -1.3,-0.335c-0.2,-0.066 -0.377,-0.132 -0.533,-0.2c-0.177,-0.134 -0.367,-0.266 -0.567,-0.402c-0.666,-0.447 -1.277,-0.971 -1.833,-1.575c-0.623,-0.601 -1.123,-1.305 -1.5,-2.109c-0.377,-0.782 -0.633,-1.631 -0.767,-2.546c-0.133,-0.826 -0.089,-1.642 0.134,-2.445c0.044,-0.157 0.1,-0.325 0.166,-0.503l0.067,-0.201c0.244,-0.581 0.544,-1.139 0.9,-1.675c0.111,-0.134 0.211,-0.28 0.3,-0.436c0.088,-0.089 0.177,-0.212 0.267,-0.368c0.333,-0.357 0.677,-0.692 1.033,-1.005c0.177,-0.179 0.4,-0.335 0.667,-0.469c0.133,-0.067 0.277,-0.146 0.433,-0.235Zm-0.067,5.092c0.023,0.179 0.034,0.347 0.034,0.503c-0.044,0.156 -0.111,0.289 -0.2,0.402c-0.111,0.111 -0.244,0.212 -0.4,0.3c-0.178,0.09 -0.334,0.136 -0.467,0.136c-0.156,0.022 -0.323,-0.034 -0.5,-0.169c-0.133,-0.067 -0.233,-0.167 -0.3,-0.301c-0.133,-0.134 -0.212,-0.279 -0.233,-0.435c-0.023,-0.157 -0.012,-0.313 0.033,-0.469c0.067,-0.202 0.155,-0.358 0.267,-0.47c0.133,-0.133 0.278,-0.222 0.433,-0.268c0.089,-0.044 0.211,-0.066 0.367,-0.066c0.133,0 0.289,0.045 0.466,0.134c0.09,0.067 0.2,0.167 0.334,0.302c0.066,0.11 0.122,0.244 0.166,0.401Zm-5.734,15.845c0.445,0.135 0.889,0.212 1.334,0.234m0,-5.928c-0.533,-0.023 -1.078,-0.034 -1.634,-0.034m10.468,14.103c0.622,1.296 0.856,2.68 0.7,4.153l-0.099,0.302c-0.512,0.893 -1.212,1.485 -2.101,1.776c-0.444,0.133 -0.911,0.189 -1.4,0.166c-1.044,-0.022 -1.878,-0.48 -2.5,-1.373c-0.134,-0.2 -0.267,-0.401 -0.4,-0.603c-0.156,-0.201 -0.246,-0.424 -0.267,-0.669" style="fill:none;fill-rule:nonzero;stroke:#3267a4;stroke-width:2px;"/><path id="path23940" d="M42.35,3.041c0.329,0.14 0.653,0.298 0.973,0.472c0.361,0.154 0.715,0.324 1.064,0.51c0.041,-0.128 0.063,-0.246 0.064,-0.356c0.116,-0.684 -0.023,-1.312 -0.419,-1.886c-0.129,-0.128 -0.258,-0.255 -0.388,-0.386c-0.408,-0.212 -0.824,-0.297 -1.246,-0.257c-0.22,0.051 -0.428,0.109 -0.618,0.173c-0.181,0.035 -0.321,0.103 -0.424,0.204c-0.242,0.228 -0.46,0.483 -0.654,0.767l-0.015,0.048c0.46,0.161 0.924,0.36 1.393,0.596l0.27,0.115" style="fill:#419cd6;fill-rule:nonzero;"/><path id="path23944" d="M44.141,4.64c-0.407,-0.22 -0.822,-0.422 -1.244,-0.606c0.264,0.451 0.513,0.936 0.748,1.459c0.369,0.787 0.676,1.572 0.924,2.351c0.284,0.792 0.522,1.589 0.722,2.385c0.215,0.849 0.418,1.735 0.604,2.655c0.126,0.765 0.236,1.525 0.328,2.276c0.047,0.566 0.103,1.114 0.164,1.645c0.018,0.633 0.042,1.255 0.075,1.855c0.016,0.634 0.015,1.264 -0.004,1.885c-0.023,0.532 -0.071,1.079 -0.145,1.631c-0.09,0.882 -0.188,1.784 -0.294,2.7c-0.089,0.59 -0.196,1.172 -0.318,1.745c-0.123,0.576 -0.283,1.135 -0.478,1.68c-0.28,0.925 -0.554,1.852 -0.832,2.78c-0.09,0.211 -0.165,0.429 -0.222,0.655c4.684,0.492 9.012,-0.512 12.988,-3.012c1.009,-5.887 0.016,-10.971 -2.979,-15.248c-2.46,-3.587 -5.807,-6.532 -10.037,-8.836m-31.486,5.697c2.214,4.441 5.134,8.269 8.76,11.484c0.426,-0.693 0.846,-1.369 1.258,-2.027c0.544,-0.77 1.088,-1.541 1.63,-2.308c0.436,-0.521 0.883,-1.018 1.34,-1.49c0.191,-0.251 0.411,-0.512 0.652,-0.783c0.57,-0.632 1.154,-1.259 1.758,-1.875c0.506,-0.49 1.03,-0.974 1.574,-1.45c0.652,-0.636 1.324,-1.266 2.011,-1.887c0.279,-0.256 0.557,-0.512 0.836,-0.768c0.573,-0.548 1.18,-1.079 1.824,-1.595c0.607,-0.529 1.235,-1.01 1.881,-1.44c0.744,-0.557 1.508,-1.06 2.292,-1.517c0.834,-0.476 1.682,-0.837 2.546,-1.088c0.272,-0.049 0.518,-0.089 0.741,-0.117l-0.316,-0.139c-0.549,-0.28 -1.093,-0.517 -1.637,-0.712c-4.948,-1.907 -9.754,-2.261 -14.416,-1.068c-5.14,1.323 -9.384,4.249 -12.734,8.78" style="fill:#edf050;fill-rule:nonzero;"/><path id="path23948" d="M21.594,22.142c-3.665,-3.241 -6.617,-7.103 -8.854,-11.583c-0.814,-0.27 -1.666,-0.598 -2.556,-0.985c-2.75,-1.068 -4.643,-1.532 -5.678,-1.391c-1.036,0.144 -1.877,0.516 -2.521,1.126c-0.645,0.605 -1.055,1.401 -1.227,2.381c-0.19,1.016 -0.148,1.987 0.127,2.909c0.311,0.938 0.812,1.832 1.497,2.679c0.704,0.813 1.394,1.473 2.062,1.975c0.706,0.517 1.418,1.017 2.138,1.5c0.722,0.481 1.504,0.969 2.347,1.462c0.877,0.51 1.727,0.94 2.544,1.299c0.871,0.333 1.775,0.641 2.709,0.921c0.85,0.284 1.716,0.535 2.595,0.748c0.916,0.228 1.796,0.44 2.64,0.64c0.805,0.098 1.605,0.255 2.399,0.472c0.946,0.158 1.873,0.266 2.78,0.32c0.993,0.052 1.908,0.09 2.744,0.115c0.172,-0.008 0.364,-0.011 0.573,-0.004c-0.645,-0.367 -1.276,-0.764 -1.889,-1.203c-1.584,-1.026 -3.06,-2.153 -4.43,-3.381" style="fill:#419cd6;fill-rule:nonzero;"/><path id="path23952" d="M42.983,3.404c-0.38,-0.205 -0.766,-0.389 -1.16,-0.558c-0.228,0.029 -0.482,0.069 -0.759,0.118c-0.884,0.256 -1.751,0.626 -2.607,1.107c-0.801,0.46 -1.581,0.971 -2.345,1.531c-0.661,0.434 -1.305,0.921 -1.927,1.456c-0.658,0.522 -1.28,1.06 -1.868,1.612c-0.285,0.257 -0.57,0.516 -0.856,0.774c-0.705,0.628 -1.393,1.262 -2.062,1.907c-0.556,0.48 -1.094,0.967 -1.612,1.465c-0.618,0.622 -1.218,1.252 -1.8,1.891c-0.25,0.275 -0.472,0.537 -0.671,0.791c-0.467,0.477 -0.924,0.978 -1.372,1.504c-0.556,0.776 -1.115,1.552 -1.672,2.326c-0.423,0.664 -0.853,1.347 -1.292,2.047c1.38,1.221 2.871,2.343 4.468,3.363c0.619,0.434 1.256,0.832 1.905,1.194c5.178,2.972 10.794,4.758 16.85,5.358c0.057,-0.227 0.136,-0.448 0.228,-0.662c0.288,-0.933 0.573,-1.868 0.858,-2.8c0.2,-0.549 0.366,-1.112 0.494,-1.69c0.129,-0.579 0.24,-1.164 0.332,-1.76c0.11,-0.922 0.214,-1.83 0.308,-2.718c0.078,-0.558 0.126,-1.106 0.154,-1.642c0.018,-0.627 0.02,-1.259 0.007,-1.9c-0.032,-0.603 -0.055,-1.226 -0.071,-1.866c-0.061,-0.533 -0.116,-1.086 -0.164,-1.654c-0.09,-0.756 -0.2,-1.522 -0.326,-2.294c-0.188,-0.925 -0.392,-1.813 -0.611,-2.669c-0.201,-0.801 -0.443,-1.603 -0.729,-2.4c-0.252,-0.783 -0.566,-1.572 -0.939,-2.364c-0.239,-0.525 -0.492,-1.013 -0.761,-1.467" style="fill:#ee2529;fill-rule:nonzero;"/><path id="path23956" d="M21.525,22.061c1.334,1.208 2.776,2.313 4.324,3.32c0.6,0.426 1.217,0.82 1.846,1.176m16.571,-21.896c-0.403,-0.218 -0.812,-0.415 -1.231,-0.596c-0.368,-0.2 -0.744,-0.383 -1.126,-0.548m1.126,0.548c0.258,0.449 0.502,0.934 0.731,1.454c0.36,0.787 0.659,1.568 0.899,2.346c0.274,0.79 0.506,1.585 0.694,2.384c0.207,0.846 0.403,1.73 0.579,2.648c0.12,0.769 0.221,1.528 0.304,2.278c0.044,0.566 0.093,1.116 0.151,1.646c0.012,0.636 0.029,1.254 0.057,1.854c0.011,0.638 0.004,1.267 -0.019,1.888c-0.029,0.534 -0.081,1.079 -0.16,1.635c-0.096,0.885 -0.202,1.787 -0.316,2.705c-0.093,0.592 -0.204,1.178 -0.332,1.751c-0.126,0.579 -0.292,1.139 -0.49,1.685c-0.284,0.93 -0.568,1.859 -0.85,2.79c-0.093,0.212 -0.17,0.433 -0.228,0.66m-2.146,-28.272c-0.222,0.029 -0.468,0.072 -0.739,0.122c-0.861,0.262 -1.708,0.631 -2.54,1.114c-0.783,0.462 -1.547,0.974 -2.291,1.537c-0.648,0.436 -1.276,0.923 -1.884,1.46c-0.644,0.523 -1.252,1.059 -1.826,1.612c-0.28,0.259 -0.559,0.517 -0.838,0.775c-0.69,0.628 -1.364,1.264 -2.018,1.908c-0.543,0.48 -1.068,0.969 -1.576,1.466c-0.604,0.622 -1.192,1.254 -1.763,1.891c-0.245,0.273 -0.463,0.537 -0.657,0.789c-0.459,0.478 -0.906,0.98 -1.344,1.506c-0.547,0.773 -1.094,1.546 -1.642,2.322c-0.414,0.663 -0.838,1.344 -1.266,2.042c-3.578,-3.187 -6.447,-6.992 -8.608,-11.422m28.992,-7.122l-0.315,-0.136c-0.541,-0.276 -1.083,-0.508 -1.62,-0.7m0,0c-4.903,-1.864 -9.676,-2.178 -14.324,-0.942c-5.119,1.368 -9.364,4.336 -12.733,8.9c-0.799,-0.26 -1.634,-0.578 -2.504,-0.954c-2.695,-1.038 -4.552,-1.48 -5.571,-1.331c-1.02,0.149 -1.849,0.528 -2.489,1.136c-0.64,0.608 -1.05,1.4 -1.228,2.375c-0.196,1.009 -0.16,1.97 0.101,2.886c0.299,0.927 0.783,1.811 1.451,2.647c0.685,0.8 1.354,1.447 2.009,1.94c0.688,0.508 1.385,0.999 2.089,1.471c0.706,0.473 1.47,0.95 2.295,1.432c0.86,0.497 1.691,0.92 2.492,1.266c0.851,0.326 1.737,0.623 2.655,0.894c0.833,0.276 1.681,0.517 2.544,0.72c0.9,0.22 1.762,0.422 2.592,0.613c0.789,0.088 1.574,0.237 2.353,0.447c0.929,0.148 1.84,0.246 2.731,0.296c0.976,0.041 1.874,0.072 2.696,0.09c0.17,-0.012 0.358,-0.014 0.562,-0.01c5.019,2.924 10.472,4.668 16.36,5.232c4.652,0.45 8.964,-0.592 12.938,-3.131c1.056,-5.901 0.113,-10.981 -2.828,-15.24c-2.414,-3.568 -5.714,-6.487 -9.899,-8.757c0.063,-0.142 0.099,-0.272 0.111,-0.395c0.206,-0.752 0.098,-1.452 -0.323,-2.097c-0.143,-0.148 -0.287,-0.294 -0.431,-0.439c-0.472,-0.244 -0.964,-0.353 -1.476,-0.32c-0.27,0.051 -0.525,0.109 -0.761,0.176c-0.22,0.031 -0.396,0.103 -0.528,0.213c-0.315,0.244 -0.601,0.52 -0.861,0.83l-0.023,0.052Z" style="fill:none;fill-rule:nonzero;stroke:#3267a4;stroke-width:2px;"/></g></svg>