<?xml version="1.0" encoding="UTF-8" standalone="no"?><!DOCTYPE svg PUBLIC "-//W3C//DTD SVG 1.1//EN" "http://www.w3.org/Graphics/SVG/1.1/DTD/svg11.dtd"><svg width="100%" height="100%" viewBox="0 0 101 98" version="1.1" xmlns="http://www.w3.org/2000/svg" xmlns:xlink="http://www.w3.org/1999/xlink" xml:space="preserve" xmlns:serif="http://www.serif.com/" style="fill-rule:evenodd;clip-rule:evenodd;stroke-linecap:round;stroke-linejoin:round;stroke-miterlimit:3;"><g><path id="path24004" d="M62.467,95.916c-4.192,1.124 -8.599,1.685 -13.215,1.685c-2.12,0 -4.168,-0.096 -6.148,-0.278c-4.476,-0.563 -8.691,-1.639 -12.648,-3.23c-2.025,-0.844 -3.98,-1.802 -5.864,-2.88c-3.581,-2.149 -6.972,-4.792 -10.177,-7.926c-0.894,-0.888 -1.742,-1.802 -2.542,-2.735c-7.917,-8.935 -11.873,-19.507 -11.873,-31.715c0,-11.321 3.416,-21.26 10.247,-29.821c1.273,-1.637 2.662,-3.204 4.168,-4.701c2.733,-2.714 5.606,-5.028 8.621,-6.947c7.727,-4.911 16.465,-7.368 26.216,-7.368c13.568,0 25.133,4.772 34.697,14.315c0.658,0.657 1.318,1.31 1.978,1.965c3.722,4.068 6.618,8.535 8.693,13.401c2.495,5.847 3.744,12.232 3.744,19.156c0,4.114 -0.424,8.02 -1.272,11.718c-1.131,4.629 -2.92,9.004 -5.369,13.118c-2.074,3.415 -4.666,6.62 -7.774,9.614c-3.581,3.556 -7.42,6.478 -11.52,8.77c-3.157,1.684 -6.474,2.97 -9.962,3.859" style="fill:#f6891e;fill-rule:nonzero;"/><path id="path24108" d="M37.535,51.906c0.193,-0.04 0.388,-0.118 0.581,-0.234c-0.193,0.116 -0.388,0.194 -0.581,0.234m2.211,-7.976c-0.234,0.312 -0.387,0.641 -0.464,0.992c0.077,-0.351 0.23,-0.68 0.464,-0.992m51.224,19.034l-21.655,0c-3.415,-0.038 -6.829,-0.154 -10.244,-0.349c-3.336,-0.155 -6.673,-0.311 -10.011,-0.465c-1.086,-0.078 -2.154,-0.135 -3.202,-0.176c-3.259,-0.076 -6.519,-0.135 -9.778,-0.175c-1.862,0 -3.745,-0.036 -5.648,-0.116l-0.173,0c0.039,-0.659 0.097,-1.299 0.173,-1.92c0.311,-3.336 1.011,-6.597 2.096,-9.779c1.126,-3.336 2.408,-6.656 3.844,-9.954c1.318,-2.987 2.792,-5.859 4.423,-8.615c1.28,-2.211 2.948,-4.131 5.005,-5.761c0.388,-0.31 0.776,-0.642 1.164,-0.991c0.426,-0.271 0.854,-0.581 1.279,-0.929c0.389,-0.312 0.777,-0.622 1.167,-0.931c2.133,-1.708 4.54,-2.951 7.217,-3.727c1.629,-0.465 3.259,-0.93 4.888,-1.397c0.545,-0.116 1.069,-0.213 1.573,-0.292c3.647,-0.309 7.159,-0.019 10.535,0.875c0.389,0.076 0.776,0.212 1.164,0.408c2.135,1.122 3.997,2.578 5.588,4.365c2.368,2.677 4.328,5.567 5.879,8.673c1.553,3.064 2.504,6.286 2.852,9.662c0.078,0.621 0.156,1.261 0.233,1.92c0.232,1.397 0.369,2.813 0.407,4.25c0,0.544 0.021,1.087 0.057,1.628c0.119,2.02 0.253,4.016 0.411,5.998c0.153,1.901 0.328,3.782 0.522,5.645c0.078,0.699 0.154,1.416 0.234,2.153m-56.812,-5.762c-0.271,0.156 -0.466,0.388 -0.582,0.698c0.116,-0.31 0.311,-0.542 0.582,-0.698m5.354,0.058c-0.27,0.155 -0.386,0.37 -0.348,0.64c-0.038,-0.27 0.078,-0.485 0.348,-0.64m23.343,-33.585c0.155,-0.233 0.329,-0.467 0.523,-0.699c-0.194,0.232 -0.368,0.466 -0.523,0.699m-9.837,1.397c0,0.272 0.078,0.483 0.232,0.64c-0.154,-0.157 -0.232,-0.368 -0.232,-0.64m5.181,-0.409c0.271,-0.076 0.541,-0.213 0.813,-0.405c-0.272,0.192 -0.542,0.329 -0.813,0.405m3.2,-4.423l0.233,-0.174l-0.233,0.174Zm-12.923,6.578c0.079,0.154 0.138,0.31 0.176,0.466c-0.038,-0.156 -0.097,-0.312 -0.176,-0.466m1.806,8.556l0,0Zm-4.715,3.841c-0.039,0.233 -0.116,0.409 -0.233,0.525c0.117,-0.116 0.194,-0.292 0.233,-0.525m-0.407,-5.412l0,0Zm1.223,-3.144c0.155,0.116 0.289,0.213 0.405,0.292l0,0c-0.116,-0.079 -0.25,-0.176 -0.405,-0.292m12.629,2.445l0,0Zm3.494,5.296c0.154,0.118 0.33,0.156 0.524,0.118c-0.194,0.038 -0.37,0 -0.524,-0.118m-3.202,-1.745c-0.04,0.233 -0.02,0.465 0.059,0.699c-0.079,-0.234 -0.099,-0.466 -0.059,-0.699m-5.937,0.699l0,0Zm3.725,2.094l0,0Zm-2.852,-7.681c0.311,0.076 0.543,0 0.698,-0.235c-0.155,0.235 -0.387,0.311 -0.698,0.235m8.556,0.407l0,0Zm16.879,-4.132c0.117,0.152 0.233,0.329 0.351,0.522c-0.118,-0.193 -0.234,-0.37 -0.351,-0.522m-10.009,-8.326c0.154,0.118 0.31,0.214 0.465,0.292c-0.155,-0.078 -0.311,-0.174 -0.465,-0.292m-2.387,7.975c0,0.271 0.116,0.467 0.349,0.583c-0.233,-0.116 -0.349,-0.312 -0.349,-0.583m5.239,-3.667c0.27,0.156 0.542,0.234 0.814,0.234c-0.272,0 -0.544,-0.078 -0.814,-0.234m1.048,-3.609l0,0Zm-8.208,-0.407c0,0.232 0.057,0.447 0.174,0.639c-0.117,-0.192 -0.174,-0.407 -0.174,-0.639m1.921,17.462c0,0.194 0.039,0.368 0.116,0.524l0,0c-0.077,-0.156 -0.116,-0.33 -0.116,-0.524m5.297,2.328c0.154,0.116 0.291,0.232 0.406,0.348c-0.115,-0.116 -0.252,-0.232 -0.406,-0.348m-3.377,0.348l0,0Zm8.265,-3.491c-0.077,0.155 -0.136,0.309 -0.174,0.465c0.038,-0.156 0.097,-0.31 0.174,-0.465m6.055,4.599c0.039,0.116 0.076,0.252 0.116,0.408c-0.04,-0.156 -0.077,-0.292 -0.116,-0.408m0.464,-5.24c0.04,0.233 0.176,0.409 0.409,0.525c-0.233,-0.116 -0.369,-0.292 -0.409,-0.525m-4.772,3.55l0,0Zm3.957,-7.856l0,0Zm4.832,27.648l0,0Zm-2.212,-15.89c0.232,0.192 0.446,0.406 0.642,0.64c-0.196,-0.234 -0.41,-0.448 -0.642,-0.64m-5.88,0.697c0.079,0.272 0.254,0.369 0.524,0.291c-0.27,0.078 -0.445,-0.019 -0.524,-0.291m3.611,2.62c0.116,0.155 0.272,0.252 0.464,0.291c-0.192,-0.039 -0.348,-0.136 -0.464,-0.291m-5.937,6.868c0.154,0.079 0.29,0.136 0.406,0.173c-0.116,-0.037 -0.252,-0.094 -0.406,-0.173m5.18,1.572c0.116,0.271 0.272,0.388 0.465,0.349c-0.193,0.039 -0.349,-0.078 -0.465,-0.349m3.9,0l0,0Zm-0.583,-6.112c-0.039,0.311 0.079,0.563 0.351,0.757c-0.272,-0.194 -0.39,-0.446 -0.351,-0.757m-6.228,0.7l0,0Zm-4.947,-2.388l0,0Zm-6.112,1.921c0.155,0.115 0.252,0.232 0.291,0.348c-0.039,-0.116 -0.136,-0.233 -0.291,-0.348m-2.445,4.307c-0.039,0.195 -0.019,0.368 0.057,0.525c-0.076,-0.157 -0.096,-0.33 -0.057,-0.525m6.053,-1.455c0,0.388 0.04,0.756 0.118,1.106c-0.078,-0.35 -0.118,-0.718 -0.118,-1.106m-3.201,-8.09c0,0.116 -0.039,0.253 -0.116,0.405c0.077,-0.152 0.116,-0.289 0.116,-0.405m4.599,-0.234c0.156,0.039 0.29,0.058 0.408,0.058l0,0c-0.118,0 -0.252,-0.019 -0.408,-0.058m-7.394,15.134c0.08,0.194 0.059,0.388 -0.057,0.582c0.116,-0.194 0.137,-0.388 0.057,-0.582m11.295,-0.29c0.076,0.232 0.037,0.426 -0.117,0.582c0.154,-0.156 0.193,-0.35 0.117,-0.582m-13.796,-14.553c0.076,0.272 0.136,0.524 0.173,0.759c-0.037,-0.235 -0.097,-0.487 -0.173,-0.759m-3.319,-0.697c0.078,0.192 0.175,0.388 0.292,0.581l0,0c-0.117,-0.193 -0.214,-0.389 -0.292,-0.581m2.388,5.878l0,0Zm-7.8,-4.657c0.076,0.195 0.194,0.369 0.348,0.525l0,0c-0.154,-0.156 -0.272,-0.33 -0.348,-0.525m2.852,2.213l0,0Zm-5.414,7.218c0,0.309 0.04,0.6 0.117,0.872c-0.077,-0.272 -0.117,-0.563 -0.117,-0.872m3.201,-0.991l0,0Zm5.763,1.631c0,0.27 0.04,0.502 0.117,0.698c-0.077,-0.196 -0.117,-0.428 -0.117,-0.698m-13.563,-7.335c-0.077,0.193 -0.136,0.388 -0.173,0.581c0.037,-0.193 0.096,-0.388 0.173,-0.581m3.667,2.096c-0.232,0.232 -0.464,0.445 -0.698,0.64c0.234,-0.195 0.466,-0.408 0.698,-0.64m-3.143,8.089l0,0Zm-2.792,-5.529l0,0Zm-4.367,1.455l0,0Zm10.187,-9.954l0,0Zm-7.859,15.426c0,0.272 0.058,0.525 0.174,0.757c-0.116,-0.232 -0.174,-0.485 -0.174,-0.757m12.05,-1.106c-0.116,0.311 -0.272,0.582 -0.466,0.816c0.194,-0.234 0.35,-0.505 0.466,-0.816" style="fill:#edf050;fill-rule:nonzero;"/><path id="path24112" d="M30.259,61.683l0.174,0c1.902,0.079 3.784,0.116 5.647,0.116c3.26,0.04 6.519,0.099 9.777,0.175c1.048,0.041 2.116,0.098 3.203,0.176c3.337,0.154 6.675,0.31 10.011,0.465c3.414,0.195 6.829,0.311 10.244,0.349l30.21,0c-0.077,0.854 -0.136,1.708 -0.174,2.562c-0.039,0.582 -0.079,1.182 -0.116,1.804c-0.04,0.814 -0.098,1.609 -0.175,2.386c-0.039,0.426 -0.079,0.835 -0.116,1.222c-0.117,1.513 -0.195,3.046 -0.233,4.6c-0.04,0.853 -0.078,1.726 -0.118,2.618c-2.521,0.116 -5.062,0.156 -7.624,0.116c-3.377,0 -6.713,0.136 -10.012,0.408c-1.086,0.078 -2.173,0.116 -3.258,0.116c-2.795,0.078 -5.59,0.118 -8.384,0.118c-3.299,0 -6.615,-0.04 -9.952,-0.118c-3.144,-0.116 -6.307,-0.232 -9.488,-0.348c-0.894,-0.04 -1.784,-0.097 -2.678,-0.176c-1.901,-0.193 -3.804,-0.349 -5.705,-0.464c-0.62,-0.04 -1.241,-0.078 -1.861,-0.117c-3.416,-0.077 -6.831,-0.116 -10.246,-0.116c-0.66,0 -1.28,-0.059 -1.862,-0.177c-2.135,-0.386 -4.21,-0.872 -6.228,-1.455c0.038,-1.279 0.097,-2.559 0.174,-3.841c0.04,-0.97 0.098,-1.938 0.175,-2.91c0,-0.348 0.019,-0.678 0.059,-0.988l0,-0.35c0.037,-0.892 0.097,-1.804 0.174,-2.736c0.039,-0.698 0.116,-1.416 0.234,-2.154c0.037,-0.428 0.077,-0.833 0.114,-1.222l0.059,-0.116c1.747,0.076 4.404,0.097 7.975,0.057" style="fill:#d19152;fill-rule:nonzero;"/><path id="path24116" d="M37.507,51.912c0.194,-0.04 0.388,-0.118 0.582,-0.234m1.631,-7.754c-0.233,0.312 -0.388,0.642 -0.464,0.992m51.751,18.072l8.566,0c-0.077,0.854 -0.134,1.71 -0.174,2.565c-0.039,0.584 -0.078,1.185 -0.116,1.808c-0.04,0.816 -0.098,1.611 -0.175,2.389c-0.039,0.427 -0.079,0.836 -0.117,1.224c-0.118,1.516 -0.194,3.051 -0.234,4.607c-0.04,0.855 -0.076,1.729 -0.117,2.623c-2.524,0.116 -5.069,0.157 -7.633,0.116c-3.382,0 -6.722,0.136 -10.024,0.408c-1.088,0.078 -2.176,0.117 -3.263,0.117c-2.797,0.077 -5.596,0.117 -8.395,0.117c-3.302,0 -6.622,-0.04 -9.964,-0.117c-3.148,-0.117 -6.314,-0.233 -9.5,-0.349c-0.893,-0.04 -1.786,-0.098 -2.68,-0.176c-1.904,-0.194 -3.809,-0.351 -5.712,-0.466c-0.621,-0.04 -1.242,-0.077 -1.865,-0.117c-3.419,-0.076 -6.839,-0.116 -10.256,-0.116c-0.661,0 -1.283,-0.059 -1.867,-0.176c-2.136,-0.388 -4.214,-0.875 -6.234,-1.457c0.038,-1.282 0.097,-2.564 0.174,-3.848c0.04,-0.971 0.098,-1.942 0.175,-2.915c0,-0.348 0.02,-0.679 0.059,-0.989l0,-0.351c0.038,-0.893 0.097,-1.807 0.174,-2.741c0.039,-0.699 0.116,-1.418 0.234,-2.156c0.038,-0.43 0.077,-0.835 0.116,-1.224l0.058,-0.116c1.748,0.076 4.41,0.096 7.984,0.057c0.039,-0.661 0.098,-1.303 0.175,-1.924c0.311,-3.341 1.011,-6.608 2.097,-9.795c1.127,-3.341 2.411,-6.665 3.85,-9.969c1.318,-2.991 2.796,-5.868 4.428,-8.628c1.281,-2.215 2.952,-4.137 5.01,-5.771c0.39,-0.309 0.779,-0.642 1.167,-0.992c0.427,-0.27 0.853,-0.582 1.28,-0.93c0.389,-0.312 0.777,-0.623 1.168,-0.934c2.136,-1.709 4.545,-2.953 7.227,-3.732c1.63,-0.465 3.262,-0.932 4.894,-1.398c0.544,-0.116 1.07,-0.215 1.574,-0.292c3.652,-0.311 7.168,-0.02 10.548,0.874c0.39,0.076 0.778,0.214 1.166,0.41c2.138,1.124 4.002,2.581 5.595,4.372c2.371,2.681 4.332,5.576 5.885,8.686c1.555,3.07 2.508,6.296 2.856,9.676c0.079,0.623 0.156,1.264 0.234,1.924c0.233,1.4 0.369,2.818 0.408,4.258c0,0.544 0.02,1.088 0.057,1.63c0.117,2.023 0.253,4.023 0.409,6.007c0.155,1.904 0.331,3.788 0.524,5.653c0.078,0.7 0.155,1.419 0.234,2.158Zm-60.786,-1.283l0.175,0c1.904,0.079 3.789,0.116 5.653,0.116c3.264,0.039 6.528,0.099 9.791,0.175c1.049,0.041 2.117,0.098 3.205,0.176c3.342,0.154 6.684,0.31 10.024,0.466c3.419,0.195 6.838,0.311 10.256,0.35l21.682,0m-56.882,-5.772c-0.272,0.156 -0.465,0.389 -0.582,0.7m5.944,-0.642c-0.272,0.155 -0.388,0.37 -0.348,0.642m23.718,-34.279c0.156,-0.235 0.331,-0.468 0.524,-0.7m-10.372,2.1c0,0.272 0.078,0.483 0.232,0.64m4.955,-1.051c0.272,-0.076 0.543,-0.213 0.815,-0.406m2.389,-4.023l0.235,-0.175l0.349,-0.174m-13.523,6.937c0.079,0.155 0.138,0.311 0.178,0.467m1.63,8.102l0,0.642m-4.721,3.205c-0.037,0.235 -0.116,0.411 -0.233,0.527m-0.174,-5.947l0.234,0.232m0.99,-3.381c0.155,0.116 0.29,0.213 0.407,0.293l0.292,0.116m11.947,2.04l0,0.291m3.497,5.013c0.155,0.117 0.332,0.156 0.524,0.117m-3.729,-1.865c-0.04,0.233 -0.019,0.465 0.058,0.7m-6.004,0l0,0.348m3.731,1.751l0.235,0.176m-3.091,-7.871c0.312,0.076 0.544,0 0.699,-0.233m7.868,0.64l0.409,0m16.491,-4.138c0.117,0.154 0.234,0.33 0.352,0.523m-10.374,-8.861c0.155,0.117 0.311,0.213 0.466,0.292m-2.856,7.694c0,0.272 0.116,0.468 0.35,0.584m4.895,-4.256c0.272,0.156 0.544,0.234 0.816,0.234m0.233,-3.848l0,0.292m-8.217,-0.7c0,0.233 0.057,0.448 0.175,0.64m1.748,16.849c0,0.195 0.04,0.369 0.116,0.525l0.176,0.292m5.012,1.515c0.154,0.116 0.292,0.232 0.406,0.349m-3.788,0l0,0.642m8.276,-4.139c-0.077,0.156 -0.136,0.309 -0.174,0.465m6.237,4.14c0.037,0.116 0.076,0.254 0.116,0.41m0.348,-5.656c0.04,0.232 0.177,0.408 0.411,0.525m-5.188,3.031l0.116,0.349m3.845,-8.219l0.352,0.232m4.487,27.459l0.348,0.119m-2.564,-16.034c0.233,0.194 0.446,0.408 0.642,0.642m-6.528,0.057c0.078,0.272 0.252,0.369 0.524,0.292m3.091,2.332c0.116,0.155 0.272,0.252 0.464,0.291m-6.409,6.588c0.154,0.078 0.29,0.136 0.406,0.174m4.78,1.4c0.116,0.272 0.272,0.39 0.466,0.35m3.438,-0.35l0.059,0.291m-0.641,-6.412c-0.039,0.311 0.078,0.564 0.35,0.757m-6.586,-0.057l0,0.932m-4.952,-3.323l0,0.291m-6.12,1.633c0.154,0.116 0.252,0.234 0.29,0.35m-2.738,3.964c-0.04,0.194 -0.019,0.368 0.057,0.525m6.003,-1.983c0,0.39 0.041,0.758 0.117,1.108m-3.323,-9.21c0,0.116 -0.037,0.253 -0.116,0.406m4.722,-0.64c0.154,0.038 0.29,0.058 0.408,0.058l0.23,0.176m-8.041,14.922c0.079,0.195 0.059,0.39 -0.057,0.584m11.365,-0.874c0.076,0.233 0.037,0.426 -0.117,0.582m-13.696,-15.157c0.077,0.272 0.137,0.525 0.173,0.759m-3.496,-1.458c0.079,0.194 0.176,0.388 0.293,0.583l0.174,0.291m1.924,5.014l0.233,0.175m-8.043,-4.839c0.078,0.195 0.195,0.37 0.35,0.526l0.174,0.233m2.331,1.457l0,0.348m-5.42,6.88c0,0.311 0.04,0.602 0.117,0.874m3.088,-1.864l0,0.406m5.771,1.226c0,0.272 0.039,0.504 0.117,0.7m-13.697,-8.046c-0.077,0.194 -0.136,0.388 -0.173,0.582m3.844,1.517c-0.232,0.232 -0.464,0.447 -0.699,0.641m-2.447,7.462l0.291,-0.232m-3.088,-5.307l0,0.583m-4.372,0.874l-0.232,0.351m10.432,-10.32l0,0.643m-7.868,14.806c0,0.274 0.057,0.527 0.173,0.759m11.891,-1.865c-0.116,0.31 -0.272,0.582 -0.467,0.816" style="fill:none;fill-rule:nonzero;stroke:#3267a4;stroke-width:2px;"/><path id="path24120" d="M27.931,43.873c-0.194,-0.155 -0.408,-0.35 -0.642,-0.583l-0.057,-0.057c-0.077,-0.156 -0.155,-0.272 -0.233,-0.35c-0.194,-0.272 -0.35,-0.582 -0.466,-0.93c-0.348,-0.816 -0.428,-1.727 -0.233,-2.738c0.233,-1.009 0.544,-1.802 0.932,-2.386c0.271,-0.543 0.62,-1.028 1.048,-1.455c0.62,-0.583 1.337,-1.029 2.153,-1.339c1.203,-0.465 2.347,-0.485 3.434,-0.057l0.35,0.173l0.116,0l0.116,0.116c0.156,0.078 0.33,0.158 0.526,0.235c0.386,0.232 0.794,0.425 1.22,0.581c0.544,0.311 1.088,0.622 1.632,0.931c0.192,0.156 0.406,0.312 0.638,0.465c0.544,0.312 1.087,0.622 1.63,0.934c0.31,0.193 0.622,0.386 0.933,0.581c0.232,0.116 0.445,0.252 0.639,0.407c0.505,0.27 0.989,0.524 1.454,0.756c0.272,0.157 0.506,0.292 0.7,0.408c0.504,0.349 1.008,0.661 1.512,0.932c0.506,0.272 1.01,0.562 1.515,0.872l0.173,0.116c0.156,0.388 0.291,0.797 0.408,1.224c0.04,0.504 0.098,1.029 0.175,1.57c0.039,0.544 0.039,1.087 0,1.63c-0.077,0.468 -0.193,0.912 -0.349,1.34c-0.116,0.272 -0.214,0.525 -0.291,0.756c-0.233,0.426 -0.505,0.834 -0.815,1.224c-0.077,0.116 -0.174,0.252 -0.292,0.405c-0.154,0.156 -0.29,0.331 -0.406,0.524c-0.311,0.389 -0.66,0.737 -1.048,1.048c-0.078,0.117 -0.174,0.252 -0.291,0.408c-0.311,0.349 -0.699,0.66 -1.165,0.931c-0.31,0.194 -0.6,0.368 -0.872,0.524c-0.156,0 -0.31,0.04 -0.466,0.116c-0.505,0.157 -1.048,0.273 -1.63,0.349c-0.115,0.04 -0.252,0.06 -0.406,0.06c-0.584,0.037 -1.145,0 -1.689,-0.117c-0.155,-0.04 -0.292,-0.078 -0.408,-0.116l-0.116,0c-0.195,-0.195 -0.368,-0.368 -0.524,-0.524c-0.425,-0.427 -0.855,-0.855 -1.28,-1.28c-0.467,-0.39 -0.912,-0.796 -1.339,-1.224c-0.388,-0.427 -0.776,-0.834 -1.165,-1.222c-0.504,-0.426 -0.949,-0.816 -1.339,-1.165c-0.426,-0.464 -0.853,-0.892 -1.28,-1.279c-0.117,-0.196 -0.253,-0.348 -0.408,-0.466c-0.426,-0.427 -0.774,-0.835 -1.048,-1.223l-0.348,-0.291c-0.233,-0.272 -0.466,-0.524 -0.698,-0.757l0,-0.057c0.232,0.154 0.522,0.368 0.873,0.638c0.659,0.43 1.396,0.72 2.211,0.874c0.814,0.156 1.474,0.156 1.98,0c0.542,-0.076 1.125,-0.328 1.745,-0.756c0.272,-0.194 0.564,-0.368 0.873,-0.523c0.582,-0.388 1.067,-0.893 1.455,-1.513c0.157,-0.272 0.311,-0.526 0.467,-0.758c0.388,-0.776 0.522,-1.553 0.406,-2.328c-0.037,-0.272 -0.094,-0.564 -0.174,-0.873c-0.038,-0.312 -0.118,-0.621 -0.232,-0.932c-0.543,-1.319 -1.398,-2.385 -2.56,-3.2c1.162,0.815 2.017,1.881 2.56,3.2c0.114,0.311 0.194,0.62 0.232,0.932c0.08,0.309 0.137,0.601 0.174,0.873c0.116,0.775 -0.018,1.552 -0.406,2.328c-0.156,0.232 -0.31,0.486 -0.467,0.758c-0.388,0.62 -0.873,1.125 -1.455,1.513c-0.309,0.155 -0.601,0.329 -0.873,0.523c-0.62,0.428 -1.203,0.68 -1.745,0.756c-0.506,0.156 -1.166,0.156 -1.98,0c-0.815,-0.154 -1.552,-0.444 -2.211,-0.874c-0.351,-0.27 -0.641,-0.484 -0.873,-0.638m46.565,-1.455c-1.164,-0.351 -2.308,-0.836 -3.435,-1.456c-0.776,-0.387 -1.572,-0.775 -2.385,-1.164c-1.011,-0.465 -2.057,-0.835 -3.144,-1.107c-0.892,-0.193 -1.785,-0.369 -2.677,-0.522c-0.428,-0.079 -0.874,-0.136 -1.34,-0.175l-0.466,0c0.428,-0.932 0.816,-1.883 1.166,-2.853c0.349,-1.007 0.774,-1.978 1.28,-2.911c0.193,-0.387 0.426,-0.795 0.697,-1.221c0.505,-0.855 1.031,-1.688 1.573,-2.503l0.291,-0.291c0.736,-0.7 1.609,-1.145 2.62,-1.34l0.349,-0.057c0.93,-0.039 1.824,0.097 2.678,0.407c0.193,0.078 0.406,0.156 0.64,0.233c0.272,-0.7 0.542,-1.397 0.814,-2.095c0.466,-1.205 0.912,-2.426 1.339,-3.668c0.349,-0.93 0.697,-1.881 1.048,-2.853c0.388,-1.045 0.776,-2.095 1.164,-3.141c0.193,-0.622 0.447,-1.224 0.756,-1.806c0.235,-0.62 0.485,-1.221 0.756,-1.804c0.389,-0.814 0.757,-1.629 1.107,-2.444l-0.116,-0.06c-0.972,-0.425 -1.922,-0.853 -2.851,-1.278c0.193,-0.468 0.385,-0.894 0.581,-1.282c0.272,-0.581 0.523,-1.162 0.758,-1.745c0.232,0.116 0.464,0.231 0.697,0.349c0.931,0.426 1.881,0.854 2.852,1.28l0.059,0.059c0.814,0.388 1.63,0.775 2.444,1.163c0.7,0.349 1.397,0.698 2.097,1.048c-0.196,0.31 -0.371,0.66 -0.525,1.049c-0.311,0.62 -0.64,1.261 -0.991,1.919c-0.116,-0.076 -0.271,-0.155 -0.465,-0.232c-0.543,-0.274 -1.106,-0.544 -1.687,-0.814c-0.427,-0.233 -0.855,-0.448 -1.281,-0.641c-0.271,0.66 -0.543,1.339 -0.815,2.036c-0.349,0.971 -0.699,1.941 -1.048,2.911c-0.077,0.31 -0.175,0.622 -0.292,0.933c-0.425,1.203 -0.872,2.405 -1.337,3.608c-0.466,1.203 -0.914,2.405 -1.339,3.608c-0.505,1.281 -0.991,2.543 -1.456,3.783c-0.076,0.232 -0.155,0.485 -0.233,0.758c0.273,0.038 0.525,0.155 0.757,0.348c0.388,0.195 0.912,0.563 1.572,1.107c0.659,0.543 1.067,1.065 1.223,1.571c0.154,0.428 0.232,0.737 0.232,0.932c0.038,0.232 0.038,0.445 0,0.64c-0.039,0.193 -0.078,0.368 -0.116,0.525c-0.195,1.123 -0.484,2.211 -0.872,3.257c-0.35,1.087 -0.779,2.155 -1.283,3.203c-0.115,0.272 -0.252,0.524 -0.405,0.756c-0.388,0.621 -0.719,1.281 -0.991,1.98m4.831,-32.771c0.232,0.116 0.465,0.232 0.698,0.35c0.312,0.154 0.603,0.309 0.874,0.465c-0.271,-0.156 -0.562,-0.311 -0.874,-0.465c-0.233,-0.118 -0.466,-0.234 -0.698,-0.35m-6.984,17.811c0.193,0.039 0.388,0.097 0.581,0.173c0.077,0.042 0.215,0.099 0.408,0.176c0.155,0 0.407,0.059 0.756,0.176l0,0c-0.349,-0.117 -0.601,-0.176 -0.756,-0.176c-0.193,-0.077 -0.331,-0.134 -0.408,-0.176c-0.193,-0.076 -0.388,-0.134 -0.581,-0.173" style="fill:#ed1770;fill-rule:nonzero;"/><path id="path24124" d="M27.243,43.317l-0.058,-0.057c-0.078,-0.156 -0.155,-0.272 -0.234,-0.351c-0.193,-0.272 -0.349,-0.584 -0.465,-0.932c-0.349,-0.817 -0.428,-1.73 -0.233,-2.742c0.233,-1.011 0.544,-1.807 0.932,-2.391c0.272,-0.544 0.622,-1.032 1.05,-1.459c0.622,-0.584 1.34,-1.03 2.156,-1.341c1.206,-0.467 2.351,-0.485 3.44,-0.057l0.352,0.173l0.174,0l0.058,0.116c0.156,0.079 0.33,0.157 0.526,0.236c0.388,0.232 0.796,0.427 1.221,0.583c0.545,0.31 1.091,0.622 1.636,0.932c0.191,0.156 0.407,0.312 0.64,0.466c0.544,0.312 1.088,0.623 1.631,0.935c0.312,0.195 0.622,0.388 0.934,0.583c0.234,0.116 0.447,0.253 0.64,0.408c0.507,0.272 0.992,0.524 1.458,0.757c0.272,0.157 0.506,0.292 0.7,0.409c0.506,0.35 1.01,0.662 1.514,0.934c0.507,0.272 1.012,0.564 1.519,0.874l0.173,0.116c0.156,0.388 0.291,0.799 0.408,1.226c0.04,0.506 0.098,1.03 0.176,1.574c0.038,0.544 0.038,1.088 0,1.634c-0.078,0.466 -0.194,0.913 -0.35,1.341c-0.116,0.273 -0.215,0.527 -0.291,0.757c-0.235,0.428 -0.507,0.838 -0.816,1.227c-0.079,0.116 -0.176,0.252 -0.293,0.407c-0.155,0.156 -0.291,0.33 -0.407,0.525c-0.311,0.389 -0.661,0.739 -1.051,1.049c-0.076,0.118 -0.173,0.252 -0.29,0.408c-0.311,0.351 -0.699,0.663 -1.167,0.934c-0.311,0.196 -0.601,0.369 -0.873,0.525c-0.156,0 -0.311,0.04 -0.467,0.116c-0.505,0.157 -1.049,0.273 -1.633,0.351c-0.115,0.038 -0.252,0.06 -0.407,0.06c-0.584,0.036 -1.147,0 -1.691,-0.118c-0.156,-0.04 -0.293,-0.078 -0.409,-0.117l-0.116,0c-0.196,-0.195 -0.369,-0.369 -0.525,-0.525c-0.427,-0.428 -0.856,-0.856 -1.283,-1.283c-0.467,-0.389 -0.913,-0.797 -1.339,-1.225c-0.39,-0.428 -0.778,-0.836 -1.168,-1.224c-0.505,-0.428 -0.952,-0.818 -1.341,-1.168c-0.428,-0.466 -0.855,-0.894 -1.283,-1.282c-0.116,-0.196 -0.253,-0.349 -0.408,-0.466c-0.426,-0.428 -0.776,-0.838 -1.049,-1.226l-0.349,-0.292c-0.234,-0.272 -0.467,-0.525 -0.7,-0.758l0,-0.058l-0.234,-0.116c-0.154,-0.156 -0.29,-0.312 -0.408,-0.468c0.234,0.234 0.448,0.43 0.642,0.584c0.233,0.155 0.524,0.37 0.874,0.64c0.66,0.43 1.399,0.722 2.215,0.876c0.817,0.156 1.477,0.156 1.984,0c0.543,-0.077 1.127,-0.33 1.747,-0.758c0.273,-0.194 0.566,-0.37 0.874,-0.524c0.583,-0.388 1.07,-0.894 1.459,-1.516c0.156,-0.272 0.311,-0.527 0.467,-0.76c0.389,-0.776 0.524,-1.555 0.408,-2.332c-0.039,-0.272 -0.096,-0.564 -0.175,-0.875c-0.039,-0.312 -0.119,-0.623 -0.233,-0.935c-0.544,-1.321 -1.4,-2.389 -2.564,-3.205m-0.642,-0.352l0.116,0.116m26.643,3.735c0.428,-0.934 0.816,-1.887 1.167,-2.859c0.349,-1.009 0.776,-1.981 1.282,-2.916c0.194,-0.388 0.427,-0.797 0.698,-1.224c0.506,-0.856 1.033,-1.692 1.577,-2.508l0.291,-0.292c0.737,-0.7 1.612,-1.148 2.624,-1.341l0.349,-0.058c0.932,-0.04 1.827,0.096 2.681,0.407c0.195,0.079 0.408,0.156 0.642,0.235c0.272,-0.702 0.544,-1.402 0.816,-2.1c0.466,-1.208 0.913,-2.432 1.341,-3.675c0.351,-0.933 0.699,-1.885 1.049,-2.859c0.39,-1.048 0.778,-2.1 1.166,-3.148c0.194,-0.622 0.448,-1.226 0.757,-1.809c0.236,-0.621 0.488,-1.224 0.759,-1.808c0.389,-0.816 0.758,-1.633 1.108,-2.448l-0.116,-0.06c-0.974,-0.427 -1.926,-0.856 -2.856,-1.281c0.194,-0.47 0.386,-0.896 0.582,-1.284c0.272,-0.583 0.523,-1.166 0.759,-1.75c0.232,0.116 0.465,0.232 0.699,0.35c0.932,0.426 1.884,0.856 2.856,1.282l0.058,0.06c0.816,0.388 1.634,0.776 2.45,1.164c0.7,0.351 1.398,0.702 2.1,1.051c-0.196,0.311 -0.371,0.661 -0.527,1.051c-0.311,0.622 -0.641,1.264 -0.992,1.922c-0.116,-0.076 -0.272,-0.154 -0.465,-0.232c-0.544,-0.273 -1.108,-0.544 -1.691,-0.814c-0.428,-0.235 -0.856,-0.45 -1.284,-0.644c-0.271,0.662 -0.543,1.342 -0.815,2.041c-0.349,0.972 -0.7,1.945 -1.049,2.916c-0.079,0.312 -0.175,0.624 -0.293,0.936c-0.427,1.204 -0.874,2.409 -1.34,3.615c-0.466,1.205 -0.915,2.409 -1.34,3.614c-0.507,1.284 -0.992,2.548 -1.459,3.792c-0.076,0.232 -0.156,0.486 -0.233,0.759c0.273,0.039 0.526,0.156 0.758,0.348c0.388,0.196 0.914,0.565 1.574,1.109c0.661,0.546 1.069,1.07 1.225,1.575c0.155,0.428 0.233,0.739 0.233,0.935c0.038,0.232 0.038,0.445 0,0.64c-0.038,0.193 -0.078,0.369 -0.117,0.526c-0.195,1.126 -0.485,2.215 -0.873,3.264c-0.35,1.09 -0.779,2.159 -1.286,3.21c-0.114,0.272 -0.25,0.525 -0.405,0.757c-0.389,0.623 -0.72,1.283 -0.992,1.983m4.839,-32.835c0.233,0.116 0.466,0.233 0.7,0.349c0.312,0.156 0.602,0.311 0.873,0.466m-8.569,17.032c0.194,0.037 0.388,0.097 0.582,0.173c0.078,0.041 0.215,0.099 0.41,0.176c0.153,0 0.406,0.057 0.757,0.176l0.291,0.116" style="fill:none;fill-rule:nonzero;stroke:#3267a4;stroke-width:2px;"/></g></svg>