<?xml version="1.0" encoding="UTF-8" standalone="no"?><!DOCTYPE svg PUBLIC "-//W3C//DTD SVG 1.1//EN" "http://www.w3.org/Graphics/SVG/1.1/DTD/svg11.dtd"><svg width="100%" height="100%" viewBox="0 0 99 114" version="1.1" xmlns="http://www.w3.org/2000/svg" xmlns:xlink="http://www.w3.org/1999/xlink" xml:space="preserve" xmlns:serif="http://www.serif.com/" style="fill-rule:evenodd;clip-rule:evenodd;stroke-linecap:round;stroke-linejoin:round;stroke-miterlimit:3;"><g><path id="path23996" d="M95.44,84.937c-1.613,3.458 -3.679,6.736 -6.192,9.839c-1.424,1.728 -3.013,3.413 -4.768,5.053c-9.632,9.04 -21.28,13.562 -34.945,13.562c-13.664,0 -25.336,-4.522 -35.016,-13.562c-6.547,-6.117 -10.888,-13.053 -13.024,-20.808c-0.996,-3.769 -1.495,-7.713 -1.495,-11.834c0,-0.664 0.025,-1.307 0.072,-1.927c0.427,-11.968 5.243,-22.251 14.447,-30.848c6.833,-6.381 14.662,-10.504 23.486,-12.364c3.702,-0.799 7.544,-1.197 11.53,-1.197c1.138,0 2.253,0.045 3.345,0.132c12.052,0.665 22.443,5.008 31.173,13.03c0.143,0.134 0.284,0.267 0.427,0.399c3.796,3.545 6.832,7.359 9.109,11.436c3.606,6.425 5.41,13.539 5.41,21.339c0,6.381 -1.187,12.298 -3.559,17.75" style="fill:#ee1c99;fill-rule:nonzero;"/><path id="path24188" d="M55.984,9.234c-0.277,-0.348 -0.573,-0.694 -0.885,-1.041c-0.695,-0.835 -1.407,-1.685 -2.136,-2.553c-0.347,-0.418 -0.73,-0.852 -1.147,-1.303c2.015,-1.32 4.168,-2.361 6.46,-3.125c0.313,-0.071 0.608,-0.123 0.885,-0.158c1.251,-0.173 2.502,-0.26 3.752,-0.26l0.782,0c0.034,0.695 0.052,1.407 0.052,2.136l0,0.782c0,0.902 0.034,1.822 0.104,2.761c-0.174,0.035 -0.364,0.069 -0.574,0.104c-1.528,0.348 -2.986,0.8 -4.376,1.355c-0.798,0.278 -1.562,0.625 -2.292,1.042c-0.208,0.104 -0.417,0.19 -0.625,0.26m-8.075,16.306c-0.417,-0.035 -0.816,-0.07 -1.198,-0.103c-0.868,-0.105 -1.719,-0.192 -2.552,-0.261c0.104,-1.286 0.26,-2.536 0.468,-3.752c0.174,-1.458 0.417,-2.899 0.729,-4.323c0.035,-0.383 0.105,-0.747 0.208,-1.093c0.14,-0.696 0.296,-1.391 0.469,-2.084c0.764,0.241 1.546,0.45 2.346,0.624c0.693,0.209 1.389,0.434 2.082,0.677c-0.312,0.729 -0.589,1.476 -0.833,2.24c-0.069,0.14 -0.121,0.26 -0.156,0.365c-0.035,0.139 -0.069,0.278 -0.104,0.416c-0.313,1.286 -0.608,2.571 -0.885,3.856c-0.21,1.146 -0.4,2.292 -0.574,3.438m-5.782,29.436c0.486,0.033 1.006,0.033 1.562,0l1.667,0c0.208,0 0.417,0.017 0.625,0.05l0,0.262c-0.138,1.702 -0.225,3.438 -0.26,5.209l0,2.032c0,0.973 0.018,1.911 0.052,2.813c-0.417,-0.034 -0.833,-0.069 -1.25,-0.104c-1.076,-0.104 -2.136,-0.208 -3.178,-0.313l0,6.2c0,0.14 0.018,0.295 0.052,0.469c-1.077,-0.138 -2.153,-0.208 -3.23,-0.208c-2.431,-0.034 -4.863,-0.052 -7.294,-0.052c-0.868,0 -1.753,0.018 -2.657,0.052c-0.451,-4.932 -0.885,-9.898 -1.303,-14.9c-0.346,-4.445 -0.66,-8.942 -0.937,-13.493c-0.104,-1.528 -0.156,-3.04 -0.156,-4.532l0.104,0c1.355,-0.14 2.692,-0.227 4.012,-0.261c1.111,-0.035 2.205,-0.052 3.281,-0.052c1.39,-0.034 2.762,-0.052 4.116,-0.052c1.598,-0.035 3.196,-0.07 4.794,-0.104l0.937,0c0.069,-1.043 0.121,-2.067 0.156,-3.074c0.764,0.034 1.511,0.104 2.241,0.208c0.451,0.035 0.92,0.087 1.406,0.156c-0.035,0.139 -0.07,0.296 -0.104,0.47c-0.07,0.694 -0.122,1.389 -0.156,2.082c0.242,-0.034 0.504,-0.052 0.781,-0.052c1.945,-0.102 3.872,-0.189 5.783,-0.26c1.98,-0.069 3.942,-0.121 5.886,-0.156c2.015,-0.034 4.03,-0.069 6.044,-0.104c0.555,-0.034 1.13,-0.034 1.719,0c-0.485,5.904 -1.111,11.652 -1.875,17.244c-0.764,5.662 -1.51,11.392 -2.24,17.192l-16.932,0c-0.034,-0.625 -0.034,-1.249 0,-1.876l0,-4.48c-0.034,-0.902 -0.052,-1.84 -0.052,-2.813l0,-2.032c0.035,-1.771 0.122,-3.507 0.26,-5.209l0,-0.262c0.104,-1.284 0.156,-2.569 0.156,-3.853c0,-1.356 0.035,-2.711 0.106,-4.064c0.034,-0.729 0.052,-1.477 0.052,-2.241c0.034,-0.659 0.052,-1.32 0.052,-1.979c0.034,-0.66 0.069,-1.251 0.104,-1.772c0.034,-0.52 0.052,-0.955 0.052,-1.303c0,-0.658 0.034,-1.318 0.104,-1.98c-0.07,0.662 -0.104,1.322 -0.104,1.98c0,0.348 -0.018,0.783 -0.052,1.303c-0.035,0.521 -0.07,1.112 -0.104,1.772c0,0.659 -0.018,1.32 -0.052,1.979c-0.314,-0.035 -0.626,-0.07 -0.939,-0.104c-0.937,-0.068 -1.84,-0.174 -2.709,-0.312c0.034,-0.312 0.07,-0.607 0.105,-0.887c0.035,-0.659 0.069,-1.336 0.104,-2.031c0.069,-1.181 0.139,-2.362 0.208,-3.542c1.181,-0.035 2.361,-0.087 3.543,-0.158c-1.182,0.071 -2.362,0.123 -3.543,0.158c-0.069,1.18 -0.139,2.361 -0.208,3.542c-0.035,0.695 -0.069,1.372 -0.104,2.031c-0.035,0.28 -0.071,0.575 -0.105,0.887c-0.034,1.077 -0.068,2.136 -0.104,3.177c-0.139,2.467 -0.278,4.915 -0.416,7.347l-0.052,0.312c-0.07,1.597 -0.192,3.178 -0.366,4.741c-0.069,0.66 -0.138,1.32 -0.208,1.979c-0.069,0.73 -0.121,1.46 -0.156,2.189l0,0c0.035,-0.729 0.087,-1.459 0.156,-2.189c0.07,-0.659 0.139,-1.319 0.208,-1.979c0.174,-1.563 0.296,-3.144 0.366,-4.741l0.052,-0.312Zm-5.315,20.161l0,-0.885c0.104,-0.175 0.227,-0.348 0.365,-0.522c0.487,-0.66 1.076,-0.816 1.771,-0.469c0.66,0.348 0.939,0.869 0.833,1.563c-0.033,0.174 -0.086,0.33 -0.156,0.469c-0.312,0.729 -0.868,1.093 -1.666,1.093c-0.487,0 -0.816,-0.225 -0.991,-0.676c-0.103,-0.174 -0.156,-0.365 -0.156,-0.573Zm19.693,0.573l0,-0.365l0.208,-0.208c0.104,-0.104 0.227,-0.191 0.364,-0.26c0.592,-0.383 1.182,-0.435 1.772,-0.157l0.052,0l0.156,0.209c0.279,0.624 0.227,1.216 -0.156,1.771l-0.156,0.156c-0.069,0.105 -0.173,0.174 -0.312,0.209c-0.209,0.035 -0.4,0.052 -0.574,0.052c-0.868,-0.104 -1.319,-0.573 -1.354,-1.407m-4.48,-0.469c0.347,0 0.591,0.157 0.73,0.469c0.069,0.174 0.104,0.33 0.104,0.47c0.104,0.693 -0.104,1.249 -0.626,1.666l-0.313,0.156c-0.173,0.035 -0.364,0.07 -0.572,0.104c-0.452,0 -0.816,-0.173 -1.095,-0.521l-0.208,-0.312c-0.173,-0.487 -0.209,-0.955 -0.104,-1.407c0.591,-0.486 1.286,-0.694 2.084,-0.625m-15.733,12.868c0.104,0.139 0.191,0.279 0.26,0.417c0.035,0.138 0.069,0.312 0.104,0.52c0.035,0.348 -0.052,0.644 -0.26,0.886c-0.556,0.626 -1.233,0.834 -2.032,0.626c-0.104,-0.034 -0.225,-0.086 -0.364,-0.157c-0.244,-0.139 -0.417,-0.277 -0.521,-0.416c-0.139,-0.835 0.104,-1.528 0.729,-2.084c0.104,-0.139 0.243,-0.243 0.416,-0.313c0.695,-0.312 1.251,-0.139 1.668,0.521m0.416,-7.033c-0.139,0.138 -0.277,0.242 -0.416,0.313c-0.105,0.035 -0.227,0.069 -0.365,0.104c-0.382,0.035 -0.712,-0.052 -0.99,-0.261c-0.173,-0.138 -0.296,-0.278 -0.365,-0.416c-0.312,-0.695 -0.381,-1.372 -0.208,-2.032c0.452,-0.418 0.972,-0.678 1.563,-0.782c0.348,-0.069 0.642,0 0.885,0.208l0.156,0.26c0.175,0.522 0.227,1.078 0.157,1.668c-0.034,0.382 -0.174,0.695 -0.417,0.938m8.388,7.554c-0.417,-0.138 -0.712,-0.434 -0.885,-0.885c-0.21,-0.487 -0.331,-0.956 -0.366,-1.407c0.07,-0.452 0.314,-0.781 0.73,-0.99c0.138,-0.104 0.278,-0.156 0.417,-0.156c0.381,-0.035 0.781,-0.07 1.197,-0.104c0.591,0 1.026,0.225 1.303,0.676c0.209,0.314 0.296,0.678 0.261,1.096c0,0.172 -0.034,0.346 -0.105,0.52c-0.139,0.625 -0.485,1.06 -1.041,1.302c-0.312,0.139 -0.643,0.156 -0.99,0.052c-0.173,-0.034 -0.348,-0.07 -0.521,-0.104m-1.928,-10.888c0.417,-0.07 0.747,0.087 0.991,0.468l0.156,0.26c0.069,0.348 0.069,0.695 0,1.043c-0.278,0.868 -0.835,1.32 -1.668,1.355c-0.624,0 -1.059,-0.26 -1.302,-0.782c-0.105,-0.138 -0.156,-0.294 -0.156,-0.469l0,-0.625c0,-0.139 0.034,-0.278 0.104,-0.416c0.208,-0.21 0.486,-0.383 0.834,-0.522c0.173,-0.104 0.346,-0.173 0.52,-0.208c0.174,-0.034 0.348,-0.069 0.521,-0.104m12.295,10.055c0.14,0.069 0.244,0.156 0.313,0.26c0.381,0.556 0.468,1.181 0.26,1.875c-0.173,0.661 -0.591,1.025 -1.251,1.094c-0.173,0 -0.329,-0.017 -0.468,-0.052c-0.798,-0.278 -1.181,-0.833 -1.146,-1.666c0.034,-0.175 0.052,-0.383 0.052,-0.626c0,-0.138 0.036,-0.313 0.104,-0.521c0.244,-0.279 0.59,-0.433 1.042,-0.468c0.382,-0.071 0.747,-0.035 1.094,0.104m1.46,-7.085c0.137,0.069 0.242,0.173 0.312,0.312c0.417,0.66 0.417,1.337 0,2.032c-0.175,0.242 -0.347,0.417 -0.522,0.521c-0.521,0.277 -1.024,0.295 -1.51,0.052c-0.418,-0.209 -0.643,-0.521 -0.678,-0.937c0,-0.487 0.052,-0.974 0.156,-1.46c0.035,-0.103 0.087,-0.226 0.158,-0.364c0.312,-0.208 0.712,-0.331 1.197,-0.366c0.313,0 0.608,0.071 0.887,0.21" style="fill:#fff;fill-rule:nonzero;"/><path id="path24192" d="M63.851,6.473c-0.07,-0.939 -0.104,-1.857 -0.104,-2.761l0,-0.782c0,-0.729 -0.018,-1.441 -0.052,-2.136l0.104,0c1.354,-0.034 2.709,0 4.064,0.106c1.354,0.068 2.482,0.12 3.386,0.154c0.868,0.035 1.546,0.106 2.032,0.21l0.286,0.052c-0.367,0.001 -0.636,0.053 -0.807,0.156c-0.173,0.138 -0.296,0.209 -0.365,0.209c0,0.035 -0.07,0.103 -0.208,0.207c-0.104,0.105 -0.191,0.313 -0.262,0.626c-0.034,0.174 -0.069,0.347 -0.104,0.52c-0.033,0.175 -0.05,0.348 -0.05,0.522l0,0.521c0,0.173 0.017,0.329 0.05,0.469c0.07,0.312 0.244,0.59 0.522,0.834l0.312,0.26l0.313,0.104l0.26,0.052l-1.041,0c-1.459,0.069 -2.935,0.104 -4.43,0.104c-1.249,0 -2.43,0.156 -3.541,0.469c-0.105,0.035 -0.225,0.069 -0.365,0.104m-13.388,8.753c-0.695,-0.244 -1.39,-0.469 -2.084,-0.678c-0.799,-0.174 -1.58,-0.383 -2.346,-0.624c0.174,-0.662 0.366,-1.322 0.574,-1.98c0.104,-0.383 0.242,-0.782 0.417,-1.199c0.868,-2.363 2.205,-4.324 4.011,-5.887c0.209,-0.14 0.434,-0.294 0.677,-0.469l0.104,-0.052c0.417,0.451 0.8,0.885 1.147,1.303c0.729,0.868 1.441,1.718 2.136,2.553c0.313,0.347 0.608,0.693 0.885,1.041c-1.632,0.695 -2.952,1.771 -3.959,3.23c-0.417,0.59 -0.781,1.198 -1.094,1.824c-0.139,0.312 -0.295,0.625 -0.468,0.938m-3.596,20.058c-0.486,-0.071 -0.955,-0.123 -1.406,-0.158c-0.729,-0.104 -1.477,-0.173 -2.241,-0.208c0,-0.138 0.019,-0.313 0.053,-0.521c0.035,-1.355 0.174,-2.709 0.416,-4.063c0.104,-0.661 0.174,-1.337 0.21,-2.032c0.033,-1.042 0.121,-2.084 0.26,-3.126c0.833,0.069 1.684,0.156 2.552,0.261c0.382,0.035 0.781,0.069 1.198,0.104c-0.208,1.216 -0.381,2.448 -0.521,3.699c0,0.242 -0.035,0.485 -0.104,0.729c-0.104,1.251 -0.191,2.484 -0.26,3.699c-0.069,0.52 -0.121,1.06 -0.157,1.616m-0.886,19.744c-0.208,-0.035 -0.416,-0.052 -0.624,-0.052l-1.668,0c-0.556,0.034 -1.076,0.034 -1.562,0c0.138,-2.431 0.277,-4.88 0.416,-7.346c0.036,-1.042 0.07,-2.101 0.105,-3.178c0.868,0.138 1.771,0.244 2.709,0.313c0.312,0.035 0.624,0.069 0.938,0.103c0,0.765 -0.018,1.512 -0.052,2.241c-0.07,1.355 -0.104,2.708 -0.104,4.064c0,1.284 -0.054,2.571 -0.158,3.855m-0.208,16.67l-2.813,0c-0.417,0 -0.833,-0.034 -1.251,-0.104l-0.312,0c-0.034,-0.173 -0.052,-0.329 -0.052,-0.469l0,-6.2c1.042,0.105 2.102,0.209 3.178,0.315c0.417,0.033 0.834,0.068 1.25,0.102l0,4.482c-0.034,0.625 -0.034,1.249 0,1.874" style="fill:#ed1770;fill-rule:nonzero;"/><path id="path24196" d="M41.397,71.594l0.313,0c0.416,0.07 0.834,0.104 1.25,0.104l19.745,0c-0.243,2.014 -0.504,4.01 -0.781,5.987c-0.312,2.499 -0.695,4.98 -1.146,7.444c-0.382,2.325 -0.661,4.685 -0.834,7.08c-0.035,0.383 -0.07,0.764 -0.104,1.147c-0.312,0 -0.626,0.017 -0.939,0.05c-2.084,0.035 -4.149,0.087 -6.199,0.156c-2.501,0.071 -4.984,0.019 -7.449,-0.156c-2.467,-0.173 -4.949,-0.312 -7.451,-0.416c-0.764,0 -1.545,0.018 -2.344,0.052c-1.772,0.104 -3.525,-0.034 -5.262,-0.416c-0.07,-1.006 -0.156,-1.996 -0.26,-2.968c-0.312,-2.394 -0.574,-4.824 -0.782,-7.288c-0.173,-2.36 -0.381,-4.702 -0.625,-7.028c-0.104,-1.318 -0.208,-2.637 -0.312,-3.956c0.903,-0.034 1.788,-0.052 2.657,-0.052c2.431,0 4.862,0.018 7.294,0.052c1.076,0 2.153,0.07 3.229,0.208m-4.584,2.655l0,0.885c0,0.208 0.052,0.399 0.156,0.574c0.173,0.449 0.504,0.676 0.989,0.676c0.799,0 1.355,-0.364 1.668,-1.094c0.07,-0.138 0.122,-0.294 0.156,-0.469c0.104,-0.693 -0.173,-1.213 -0.833,-1.561c-0.695,-0.347 -1.285,-0.19 -1.772,0.469c-0.139,0.173 -0.26,0.347 -0.364,0.52Zm15.212,0.989c-0.799,-0.069 -1.493,0.139 -2.084,0.624c-0.104,0.452 -0.069,0.92 0.104,1.407l0.208,0.312c0.279,0.347 0.643,0.52 1.095,0.52c0.208,-0.033 0.4,-0.068 0.573,-0.103l0.312,-0.157c0.521,-0.416 0.729,-0.972 0.625,-1.665c0,-0.139 -0.034,-0.295 -0.104,-0.468c-0.138,-0.314 -0.381,-0.47 -0.729,-0.47m4.48,0.47c0.035,0.832 0.487,1.301 1.355,1.404c0.173,0 0.365,-0.016 0.573,-0.051c0.139,-0.035 0.244,-0.104 0.313,-0.209l0.155,-0.155c0.383,-0.556 0.435,-1.147 0.157,-1.771l-0.157,-0.208l-0.052,0c-0.589,-0.278 -1.18,-0.226 -1.771,0.156c-0.138,0.07 -0.261,0.156 -0.364,0.26l-0.209,0.208l0,0.366Zm0.417,4.997c-0.277,-0.139 -0.573,-0.209 -0.886,-0.209c-0.486,0.034 -0.886,0.157 -1.198,0.365c-0.069,0.139 -0.121,0.26 -0.156,0.364c-0.104,0.487 -0.157,0.972 -0.157,1.459c0.036,0.416 0.261,0.728 0.677,0.936c0.487,0.242 0.991,0.225 1.512,-0.052c0.174,-0.104 0.347,-0.278 0.52,-0.52c0.418,-0.695 0.418,-1.371 0,-2.031c-0.069,-0.139 -0.173,-0.243 -0.312,-0.312m-1.458,7.079c-0.348,-0.138 -0.712,-0.174 -1.095,-0.103c-0.451,0.035 -0.799,0.189 -1.041,0.468c-0.07,0.208 -0.104,0.381 -0.104,0.521c0,0.242 -0.018,0.451 -0.052,0.624c-0.035,0.832 0.346,1.388 1.145,1.666c0.14,0.034 0.296,0.053 0.469,0.053c0.66,-0.071 1.078,-0.435 1.25,-1.095c0.209,-0.693 0.122,-1.318 -0.26,-1.873c-0.07,-0.104 -0.174,-0.191 -0.312,-0.261m-12.295,-10.047c-0.173,0.035 -0.348,0.069 -0.521,0.104c-0.174,0.035 -0.348,0.104 -0.522,0.209c-0.346,0.138 -0.625,0.312 -0.833,0.52c-0.069,0.139 -0.104,0.278 -0.104,0.416l0,0.626c0,0.173 0.052,0.329 0.156,0.468c0.243,0.521 0.677,0.781 1.303,0.781c0.833,-0.035 1.389,-0.485 1.666,-1.355c0.07,-0.346 0.07,-0.693 0,-1.041l-0.156,-0.26c-0.242,-0.381 -0.573,-0.537 -0.989,-0.468m1.927,10.88c0.174,0.035 0.348,0.071 0.521,0.105c0.348,0.103 0.677,0.086 0.989,-0.052c0.556,-0.244 0.904,-0.677 1.043,-1.301c0.069,-0.175 0.104,-0.348 0.104,-0.521c0.035,-0.416 -0.052,-0.782 -0.26,-1.094c-0.279,-0.45 -0.712,-0.677 -1.303,-0.677c-0.417,0.035 -0.816,0.069 -1.198,0.104c-0.139,0 -0.278,0.052 -0.416,0.157c-0.418,0.208 -0.66,0.538 -0.73,0.99c0.035,0.45 0.156,0.918 0.364,1.405c0.174,0.451 0.47,0.745 0.886,0.884m-8.388,-7.548c0.244,-0.243 0.382,-0.556 0.417,-0.937c0.069,-0.591 0.017,-1.146 -0.156,-1.667l-0.156,-0.26c-0.244,-0.207 -0.539,-0.277 -0.887,-0.207c-0.589,0.103 -1.11,0.364 -1.562,0.78c-0.174,0.66 -0.104,1.336 0.209,2.03c0.069,0.14 0.191,0.278 0.364,0.417c0.279,0.208 0.608,0.295 0.989,0.26c0.14,-0.035 0.262,-0.069 0.366,-0.103c0.138,-0.07 0.277,-0.174 0.416,-0.313m-0.416,7.028c-0.418,-0.66 -0.972,-0.833 -1.667,-0.521c-0.175,0.07 -0.313,0.174 -0.417,0.313c-0.626,0.555 -0.868,1.248 -0.73,2.083c0.104,0.137 0.279,0.277 0.522,0.416c0.138,0.069 0.26,0.121 0.364,0.156c0.8,0.208 1.476,0 2.032,-0.626c0.209,-0.241 0.294,-0.537 0.261,-0.884c-0.035,-0.209 -0.069,-0.382 -0.105,-0.521c-0.07,-0.137 -0.156,-0.277 -0.26,-0.416" style="fill:#edf050;fill-rule:nonzero;"/><path id="path24200" d="M55.938,9.412c0.206,-0.07 0.413,-0.156 0.62,-0.259c0.722,-0.416 1.48,-0.761 2.272,-1.037c1.377,-0.554 2.822,-1.003 4.337,-1.35c0.207,-0.033 0.396,-0.068 0.568,-0.102m-0.155,-5.651l-0.774,0c-1.239,0 -2.479,0.085 -3.719,0.259c-0.275,0.034 -0.568,0.086 -0.877,0.156c-2.272,0.76 -4.407,1.797 -6.403,3.11m-5.732,9.539c0.172,-0.656 0.361,-1.313 0.568,-1.969c0.103,-0.382 0.24,-0.779 0.413,-1.194c0.86,-2.35 2.186,-4.302 3.976,-5.857c0.207,-0.139 0.431,-0.293 0.671,-0.467l0.104,-0.052m-1.343,10.835c0.172,-0.311 0.327,-0.623 0.466,-0.933c0.309,-0.622 0.67,-1.227 1.084,-1.815c0.998,-1.452 2.306,-2.523 3.924,-3.213m-5.474,5.961c-0.309,0.725 -0.585,1.469 -0.826,2.229c-0.07,0.139 -0.12,0.259 -0.155,0.364c-0.035,0.138 -0.069,0.276 -0.103,0.414c-0.31,1.278 -0.602,2.557 -0.878,3.837c-0.207,1.14 -0.396,2.28 -0.568,3.421c-0.207,1.21 -0.379,2.436 -0.516,3.68c0,0.243 -0.035,0.484 -0.104,0.727c-0.103,1.244 -0.19,2.471 -0.258,3.68c-0.069,0.519 -0.121,1.055 -0.156,1.608c-0.033,0.137 -0.068,0.293 -0.102,0.465c-0.07,0.692 -0.12,1.384 -0.155,2.075c0.24,-0.035 0.499,-0.052 0.775,-0.052c1.928,-0.104 3.838,-0.189 5.732,-0.26c1.961,-0.068 3.908,-0.12 5.834,-0.155c1.998,-0.034 3.994,-0.069 5.991,-0.104c0.551,-0.034 1.119,-0.034 1.704,0c-0.483,5.876 -1.101,11.596 -1.859,17.16c-0.757,5.634 -1.497,11.336 -2.221,17.108c-0.241,2.004 -0.499,3.992 -0.775,5.962c-0.309,2.489 -0.688,4.96 -1.134,7.414c-0.38,2.315 -0.655,4.666 -0.828,7.05c-0.034,0.381 -0.068,0.761 -0.103,1.141c-0.309,0 -0.619,0.017 -0.929,0.052c-2.066,0.035 -4.114,0.087 -6.146,0.155c-2.478,0.07 -4.94,0.018 -7.384,-0.155c-2.444,-0.173 -4.905,-0.311 -7.384,-0.415c-0.758,0 -1.532,0.016 -2.324,0.051c-1.756,0.105 -3.494,-0.035 -5.216,-0.413c-0.069,-1.003 -0.154,-1.988 -0.258,-2.956c-0.31,-2.384 -0.568,-4.804 -0.775,-7.258c-0.172,-2.35 -0.377,-4.684 -0.619,-6.998c-0.104,-1.314 -0.206,-2.627 -0.31,-3.94c-0.447,-4.908 -0.878,-9.851 -1.291,-14.827c-0.344,-4.424 -0.655,-8.9 -0.929,-13.428c-0.104,-1.521 -0.155,-3.024 -0.155,-4.509l0.103,0c1.342,-0.139 2.668,-0.226 3.976,-0.26c1.102,-0.035 2.186,-0.052 3.253,-0.052c1.377,-0.034 2.737,-0.052 4.08,-0.052c1.584,-0.035 3.167,-0.07 4.751,-0.103l0.929,0c0.069,-1.037 0.121,-2.057 0.155,-3.06c0,-0.137 0.017,-0.311 0.052,-0.519c0.034,-1.346 0.172,-2.694 0.413,-4.042c0.103,-0.658 0.172,-1.331 0.207,-2.022c0.034,-1.037 0.12,-2.074 0.258,-3.11c0.103,-1.279 0.258,-2.524 0.464,-3.734c0.172,-1.45 0.414,-2.886 0.723,-4.302c0.035,-0.382 0.104,-0.743 0.207,-1.088c0.138,-0.692 0.293,-1.384 0.465,-2.075m0.568,23.796c-0.069,0.656 -0.103,1.313 -0.103,1.969c0,0.346 -0.017,0.779 -0.052,1.296c-0.034,0.519 -0.069,1.107 -0.104,1.764c0,0.656 -0.017,1.312 -0.052,1.97c0,0.76 -0.016,1.502 -0.05,2.229c-0.07,1.348 -0.104,2.695 -0.104,4.044c0,1.277 -0.052,2.557 -0.155,3.836l0,0.259c-0.137,1.693 -0.224,3.422 -0.257,5.184l0,2.022c0,0.968 0.016,1.9 0.05,2.799l0,4.459c-0.034,0.622 -0.034,1.244 0,1.866l16.783,0m-19.881,-27.113c0.034,-0.311 0.069,-0.604 0.104,-0.881c0.034,-0.658 0.068,-1.331 0.102,-2.022c0.07,-1.176 0.139,-2.352 0.207,-3.525c1.171,-0.035 2.341,-0.087 3.512,-0.156m-4.441,17.056c0.137,-2.419 0.276,-4.856 0.413,-7.309c0.035,-1.038 0.069,-2.092 0.103,-3.163m-0.516,10.472l-0.052,0.311c-0.068,1.589 -0.19,3.162 -0.362,4.718c-0.069,0.656 -0.137,1.314 -0.206,1.97c-0.068,0.725 -0.12,1.452 -0.155,2.177l0,6.895c0,0.138 0.017,0.293 0.052,0.466l0.309,0c0.414,0.07 0.827,0.104 1.24,0.104l2.788,0m-4.337,-0.104c-1.068,-0.137 -2.135,-0.206 -3.201,-0.206c-2.411,-0.035 -4.82,-0.052 -7.23,-0.052c-0.861,0 -1.738,0.017 -2.634,0.052m44.952,-69.73l0.388,0c0.137,0 0.257,0.018 0.361,0.052l0.207,0.054c0.31,0.137 0.568,0.345 0.774,0.621l0.155,0.311c0.068,0.173 0.103,0.381 0.103,0.622c0,0.242 -0.018,0.484 -0.051,0.726c0,0.138 -0.017,0.258 -0.052,0.364l-0.155,0.31c-0.069,0.207 -0.189,0.396 -0.361,0.57l-0.309,0.31c-0.07,0.106 -0.174,0.191 -0.311,0.26c-0.104,0.07 -0.224,0.139 -0.361,0.207l-0.311,0.052l-1.445,0c-1.446,0.071 -2.91,0.104 -4.39,0.104c-1.238,0 -2.409,0.156 -3.51,0.468c-0.104,0.033 -0.224,0.068 -0.363,0.103m9.631,-5.134c-0.364,0.003 -0.631,0.055 -0.8,0.156c-0.172,0.139 -0.294,0.208 -0.362,0.208c0,0.035 -0.069,0.104 -0.206,0.207c-0.103,0.104 -0.19,0.312 -0.259,0.623c-0.035,0.173 -0.068,0.345 -0.103,0.518c-0.034,0.174 -0.052,0.346 -0.052,0.519l0,0.519c0,0.172 0.018,0.328 0.052,0.466c0.068,0.311 0.242,0.587 0.516,0.83l0.31,0.258l0.31,0.103l0.258,0.052m0.336,-4.459l-0.283,-0.05c-0.483,-0.104 -1.155,-0.174 -2.015,-0.208c-0.896,-0.035 -2.014,-0.086 -3.356,-0.155c-1.342,-0.104 -2.686,-0.139 -4.029,-0.104l-0.103,0m10.535,0.569c-0.207,0 -0.413,-0.017 -0.62,-0.052" style="fill:none;fill-rule:nonzero;stroke:#3267a4;stroke-width:2px;"/></g></svg>