<?xml version="1.0" encoding="UTF-8" standalone="no"?><!DOCTYPE svg PUBLIC "-//W3C//DTD SVG 1.1//EN" "http://www.w3.org/Graphics/SVG/1.1/DTD/svg11.dtd"><svg width="100%" height="100%" viewBox="0 0 128 111" version="1.1" xmlns="http://www.w3.org/2000/svg" xmlns:xlink="http://www.w3.org/1999/xlink" xml:space="preserve" xmlns:serif="http://www.serif.com/" style="fill-rule:evenodd;clip-rule:evenodd;stroke-linecap:round;stroke-linejoin:round;stroke-miterlimit:3;"><g><path id="path24016" d="M126.287,74.591c0.488,1.592 0.729,3.244 0.729,4.955c0,1.081 -0.091,2.149 -0.272,3.197c-1.4,7.299 -7.515,13.604 -18.34,18.919c-12.349,6.128 -27.284,9.189 -44.805,9.189c-7.239,0 -14.051,-0.509 -20.436,-1.533c-6.328,-1.019 -12.202,-2.549 -17.614,-4.593c-2.432,-0.931 -4.744,-1.952 -6.936,-3.063c-12.41,-6.096 -18.613,-13.465 -18.613,-22.116c0,-8.647 6.203,-16.036 18.613,-22.161c12.41,-6.126 27.406,-9.188 44.986,-9.188c12.652,0 23.998,1.606 34.034,4.818c3.714,1.202 7.24,2.628 10.588,4.279l0.183,0.091c9.913,4.896 15.875,10.632 17.883,17.206" style="fill:#c1c2c4;fill-rule:nonzero;"/><path id="path24136" d="M96.954,74.479l-0.86,0c-0.876,-0.038 -1.775,-0.076 -2.691,-0.114c-1.909,-0.039 -3.781,-0.23 -5.612,-0.574c-0.612,-0.114 -1.222,-0.248 -1.833,-0.401c-3.208,-0.763 -6.224,-2.005 -9.051,-3.723c-0.38,-0.228 -0.781,-0.438 -1.202,-0.63c-1.45,-0.802 -2.75,-1.832 -3.895,-3.091c-1.069,-1.223 -2.137,-2.464 -3.205,-3.724c-2.178,-2.559 -3.896,-5.383 -5.156,-8.476c-1.299,-3.131 -2.328,-6.356 -3.094,-9.68c-0.15,-0.611 -0.286,-1.221 -0.4,-1.832c-0.764,-3.093 -1.393,-6.223 -1.89,-9.392c-0.496,-3.323 -1.068,-6.627 -1.719,-9.909c-0.572,-3.21 -1.011,-5.691 -1.317,-7.446c-0.344,-1.833 -0.571,-3.093 -0.687,-3.781c-0.152,-0.727 -0.363,-1.545 -0.631,-2.463c-0.304,-0.878 -0.59,-1.564 -0.858,-2.061c-0.268,-0.459 -0.896,-0.879 -1.89,-1.26c-0.954,-0.305 -2.062,-0.383 -3.321,-0.231c-0.039,-0.152 -0.076,-0.285 -0.116,-0.398c0,-0.192 -0.019,-0.384 -0.057,-0.574c-0.039,-0.19 -0.075,-0.401 -0.114,-0.63c-0.038,-0.382 -0.076,-0.744 -0.116,-1.088l-0.057,-0.344l-0.056,-0.228c0,-0.192 -0.019,-0.383 -0.057,-0.574l0,-0.286c4.62,-0.382 7.273,-0.552 7.96,-0.516c0.686,0.077 1.566,0.325 2.634,0.744c1.031,0.421 1.89,2.158 2.579,5.213c0.687,3.015 1.164,6.204 1.432,9.564c0.075,0.42 0.132,0.86 0.171,1.319c0.686,3.281 1.393,6.568 2.118,9.852c0.726,3.281 1.644,6.489 2.751,9.62c1.145,3.169 2.233,6.301 3.264,9.393c0.115,0.345 0.248,0.707 0.401,1.089c0.535,1.566 1.164,3.072 1.89,4.524c0.192,0.458 0.4,0.898 0.629,1.318c0.88,1.718 2.177,3.016 3.895,3.894c0.308,0.154 0.612,0.343 0.917,0.572c0.687,0.459 1.375,0.842 2.063,1.146c3.129,1.489 6.337,2.75 9.621,3.781c1.795,0.572 3.589,1.068 5.383,1.489c0.612,0.152 1.242,0.267 1.892,0.343c0.037,2.139 0.113,4.277 0.229,6.415c0.037,1.069 0.056,2.12 0.056,3.15" style="fill:#f25822;fill-rule:nonzero;"/><path id="path24140" d="M96.954,74.479c0.84,0.038 1.719,0.056 2.635,0.056c-0.038,2.522 0.038,5.022 0.229,7.504c0.037,0.724 0.057,1.414 0.057,2.062c-1.413,0.077 -2.845,0.113 -4.296,0.113c-1.948,0 -3.913,0.02 -5.898,0.057c-3.399,0.116 -6.683,-0.38 -9.852,-1.489c-1.564,-0.496 -3.094,-1.068 -4.583,-1.716c-1.717,-0.725 -3.264,-1.604 -4.637,-2.635c-0.306,-0.268 -0.631,-0.516 -0.974,-0.745c-2.826,-1.679 -5.252,-3.761 -7.274,-6.243c-2.216,-2.634 -4.104,-5.497 -5.672,-8.589c-0.19,-0.384 -0.399,-0.765 -0.63,-1.147c-1.601,-2.825 -2.938,-5.768 -4.008,-8.82c-0.113,-0.421 -0.268,-0.84 -0.457,-1.262c-0.307,-0.915 -0.592,-1.832 -0.859,-2.748c-0.802,-3.206 -1.605,-6.415 -2.406,-9.623c-0.803,-3.168 -1.471,-6.375 -2.006,-9.62c-0.152,-0.956 -0.325,-1.929 -0.516,-2.923c-0.686,-3.092 -1.221,-6.222 -1.602,-9.393c-0.154,-1.449 -0.306,-2.883 -0.459,-4.293c-0.115,-1.759 -0.211,-3.534 -0.285,-5.327c0,-0.229 -0.02,-0.477 -0.059,-0.745l0,-0.631c0.229,-0.037 0.459,-0.096 0.687,-0.171c0.421,-0.04 0.956,-0.097 1.605,-0.173c0.153,-0.039 0.324,-0.056 0.516,-0.056c0.304,-0.076 0.668,-0.153 1.088,-0.231l0.344,0c1.259,-0.152 2.367,-0.074 3.321,0.231c0.994,0.381 1.622,0.801 1.89,1.26c0.268,0.497 0.554,1.183 0.858,2.061c0.268,0.918 0.479,1.736 0.631,2.463c0.116,0.688 0.343,1.948 0.687,3.781c0.306,1.755 0.745,4.236 1.317,7.446c0.651,3.282 1.223,6.586 1.719,9.909c0.497,3.169 1.126,6.299 1.89,9.392c0.114,0.611 0.25,1.221 0.4,1.832c0.766,3.324 1.795,6.549 3.094,9.68c1.26,3.093 2.978,5.917 5.156,8.476c1.068,1.26 2.136,2.501 3.205,3.724c1.145,1.259 2.445,2.289 3.895,3.091c0.421,0.192 0.822,0.402 1.202,0.63c2.827,1.718 5.843,2.96 9.051,3.723c0.611,0.153 1.221,0.287 1.833,0.401c1.831,0.344 3.703,0.535 5.612,0.574c0.916,0.038 1.815,0.076 2.691,0.114l0.86,0Z" style="fill:#ed1770;fill-rule:nonzero;"/><path id="path24144" d="M96.999,74.516c0,-1.032 -0.018,-2.084 -0.056,-3.155c-0.116,-2.14 -0.193,-4.281 -0.229,-6.423c-0.651,-0.074 -1.283,-0.189 -1.895,-0.342c-1.794,-0.422 -3.592,-0.919 -5.388,-1.491c-3.288,-1.032 -6.498,-2.295 -9.632,-3.785c-0.689,-0.306 -1.377,-0.688 -2.065,-1.147c-0.305,-0.229 -0.611,-0.42 -0.917,-0.573c-1.72,-0.88 -3.019,-2.178 -3.899,-3.899c-0.231,-0.42 -0.439,-0.86 -0.631,-1.319c-0.726,-1.453 -1.357,-2.962 -1.892,-4.529c-0.153,-0.383 -0.288,-0.745 -0.402,-1.091c-1.031,-3.096 -2.12,-6.23 -3.267,-9.404c-1.108,-3.134 -2.028,-6.346 -2.753,-9.632c-0.726,-3.288 -1.434,-6.577 -2.122,-9.862c-0.037,-0.459 -0.096,-0.9 -0.17,-1.32c-0.268,-3.364 -0.747,-6.556 -1.434,-9.575c-0.69,-3.059 -1.549,-4.799 -2.581,-5.22c-1.071,-0.419 -1.951,-0.668 -2.637,-0.744c-0.688,-0.037 -3.344,0.133 -7.97,0.516l0,0.288c0.039,0.189 0.058,0.38 0.058,0.573l0.056,0.228l0.057,0.344c0.04,0.346 0.079,0.707 0.116,1.09c0.039,0.229 0.076,0.44 0.113,0.632c0.039,0.189 0.058,0.381 0.058,0.573c0.04,0.113 0.078,0.248 0.116,0.4c1.26,-0.152 2.369,-0.076 3.325,0.231c0.995,0.381 1.623,0.801 1.891,1.261c0.269,0.497 0.556,1.183 0.861,2.063c0.268,0.918 0.479,1.738 0.631,2.465c0.116,0.689 0.344,1.951 0.688,3.785c0.306,1.759 0.746,4.243 1.318,7.455c0.651,3.287 1.223,6.595 1.72,9.92c0.498,3.173 1.128,6.308 1.894,9.404c0.113,0.611 0.248,1.223 0.4,1.835c0.765,3.326 1.797,6.556 3.096,9.69c1.261,3.098 2.982,5.924 5.161,8.486c1.071,1.261 2.139,2.505 3.211,3.728c1.146,1.261 2.446,2.293 3.898,3.096c0.42,0.19 0.823,0.402 1.204,0.63c2.83,1.719 5.848,2.963 9.06,3.727c0.612,0.153 1.223,0.287 1.835,0.401c1.833,0.346 3.707,0.536 5.619,0.575c0.917,0.039 1.816,0.076 2.693,0.115l0.861,0Zm-49.94,-72.995c-0.076,0.153 -0.134,0.325 -0.172,0.516c-0.268,0.803 -0.669,2.103 -1.204,3.899c0.154,-0.039 0.324,-0.056 0.516,-0.056c0.306,-0.078 0.668,-0.154 1.09,-0.231l0.344,0m-1.95,0.287c-0.65,0.076 -1.185,0.133 -1.606,0.173c-0.23,0.075 -0.459,0.133 -0.688,0.171l0,0.632c0.038,0.266 0.058,0.516 0.058,0.745c0.076,1.796 0.171,3.572 0.286,5.333c0.153,1.412 0.306,2.847 0.46,4.299c0.381,3.173 0.916,6.308 1.604,9.404c0.19,0.995 0.365,1.968 0.516,2.925c0.536,3.25 1.204,6.46 2.008,9.632c0.801,3.211 1.605,6.424 2.409,9.634c0.268,0.917 0.553,1.836 0.859,2.752c0.19,0.421 0.345,0.841 0.458,1.264c1.071,3.054 2.41,6 4.014,8.829c0.23,0.383 0.44,0.764 0.629,1.148c1.569,3.095 3.46,5.961 5.679,8.6c2.024,2.484 4.453,4.568 7.281,6.249c0.343,0.23 0.669,0.478 0.975,0.746c1.376,1.032 2.924,1.912 4.642,2.637c1.492,0.649 3.022,1.223 4.588,1.72c3.174,1.109 6.462,1.607 9.863,1.491c1.988,-0.039 3.955,-0.058 5.905,-0.058c1.452,0 2.886,-0.037 4.3,-0.113c0,-0.649 -0.018,-1.34 -0.057,-2.065c-0.191,-2.484 -0.267,-4.988 -0.229,-7.512c-0.918,0 -1.798,-0.019 -2.638,-0.056m-53.61,-68.236c-2.37,4.053 -3.802,6.574 -4.299,7.569c-0.308,0.575 -0.688,1.223 -1.148,1.949c0.919,0.384 1.833,0.784 2.752,1.206c0.459,0.228 0.919,0.457 1.376,0.686c0.077,-0.229 0.153,-0.44 0.229,-0.63c0.498,-1.338 0.976,-2.695 1.434,-4.07m-5.791,2.808c-0.305,0.498 -0.611,1.034 -0.917,1.607c-0.727,1.185 -1.491,2.656 -2.294,4.415c1.11,0.382 2.199,0.782 3.268,1.205c0.612,0.189 1.204,0.4 1.776,0.629c0.308,-0.917 0.652,-1.834 1.035,-2.753c0.457,-1.107 0.877,-2.177 1.26,-3.211m-7.339,4.13c-0.19,0.42 -0.382,0.86 -0.573,1.32c-0.727,1.757 -1.472,3.514 -2.236,5.273c1.071,0.305 2.161,0.651 3.268,1.033c0.765,0.306 1.531,0.611 2.293,0.916c0.192,-0.573 0.403,-1.145 0.631,-1.72c0.497,-1.261 0.936,-2.561 1.319,-3.898c0.114,-0.344 0.229,-0.708 0.342,-1.09m-7.853,4.759c-0.305,0.651 -0.612,1.281 -0.917,1.892c-0.268,0.613 -0.516,1.204 -0.747,1.779c-0.267,0.61 -0.535,1.222 -0.803,1.834c0.116,0.076 0.25,0.154 0.403,0.23c0.536,0.266 1.109,0.458 1.72,0.573c1.453,0.268 2.885,0.592 4.3,0.976c0.345,-1.072 0.649,-2.141 0.917,-3.212c0.192,-0.688 0.422,-1.396 0.688,-2.123m-8.028,3.556c-0.114,0.23 -0.208,0.459 -0.285,0.688c-0.307,0.766 -0.631,1.547 -0.975,2.352c-0.536,1.147 -1.033,2.33 -1.492,3.555c0.882,0.228 1.798,0.457 2.752,0.687c0.842,0.154 1.683,0.344 2.523,0.574c0.497,0.114 0.996,0.248 1.492,0.4c0.191,0.078 0.384,0.135 0.573,0.174c0.192,-0.688 0.383,-1.378 0.572,-2.066c0.423,-1.528 0.843,-3.057 1.263,-4.585m-9.175,4.816c-0.458,1.223 -0.916,2.484 -1.374,3.784c-0.346,0.993 -0.707,2.007 -1.09,3.039c1.031,0.153 2.082,0.286 3.152,0.401c1.683,0.191 3.346,0.499 4.991,0.917c0.075,-0.268 0.132,-0.497 0.171,-0.686c0.229,-0.919 0.458,-1.816 0.688,-2.698c0.266,-0.954 0.534,-1.93 0.802,-2.922m-9.804,4.988c-0.574,1.568 -1.148,3.116 -1.721,4.645c-0.304,0.764 -0.611,1.529 -0.916,2.293c-0.115,0.306 -0.231,0.612 -0.345,0.918c0.804,0.116 1.585,0.23 2.352,0.345c1.3,0.152 2.597,0.304 3.898,0.457c0.84,0.115 1.682,0.248 2.522,0.402l0.229,0.056l0.116,-0.343c0.764,-2.484 1.433,-4.971 2.008,-7.455m-11.125,6.538c-0.802,2.217 -1.624,4.414 -2.466,6.594c-0.189,0.458 -0.362,0.916 -0.516,1.376c1.3,0.076 2.58,0.287 3.842,0.631c0.88,0.268 1.76,0.517 2.637,0.745c1.033,0.306 2.065,0.612 3.097,0.918c0.115,-0.42 0.23,-0.842 0.344,-1.262c0.612,-2.6 1.3,-5.18 2.063,-7.742m-11.983,6.71c-0.802,2.179 -1.568,4.339 -2.293,6.479c-0.191,0.572 -0.363,1.089 -0.515,1.548l-0.058,0.172c0.918,0.268 1.854,0.46 2.809,0.573c1.376,0.23 2.772,0.459 4.187,0.688c1.03,0.154 2.082,0.268 3.154,0.346c0.84,-2.868 1.279,-4.359 1.318,-4.474c0.381,-0.954 0.708,-1.969 0.974,-3.038m-12.442,5.905c-0.191,0.689 -0.994,3.44 -2.408,8.257c1.337,0.039 2.676,0.211 4.013,0.518c0.688,0.15 1.376,0.285 2.065,0.4c1.336,0.153 2.695,0.286 4.071,0.401c0.993,-3.363 1.796,-6.02 2.409,-7.969m-12.558,6.65c-0.42,1.378 -0.879,2.944 -1.376,4.702m11.525,-3.383c-0.383,1.223 -0.804,2.563 -1.263,4.015" style="fill:none;fill-rule:nonzero;stroke:#3267a4;stroke-width:2px;"/></g></svg>