<?xml version="1.0" encoding="UTF-8" standalone="no"?><!DOCTYPE svg PUBLIC "-//W3C//DTD SVG 1.1//EN" "http://www.w3.org/Graphics/SVG/1.1/DTD/svg11.dtd"><svg width="100%" height="100%" viewBox="0 0 113 101" version="1.1" xmlns="http://www.w3.org/2000/svg" xmlns:xlink="http://www.w3.org/1999/xlink" xml:space="preserve" xmlns:serif="http://www.serif.com/" style="fill-rule:evenodd;clip-rule:evenodd;stroke-linecap:round;stroke-linejoin:round;stroke-miterlimit:3;"><g><path id="path24000" d="M55.243,100.865c-14.312,-0.247 -26.676,-4.004 -37.096,-11.276c-0.542,-0.45 -1.082,-0.858 -1.623,-1.224c-3.077,-2.287 -5.669,-4.719 -7.776,-7.292c-4.699,-5.351 -7.505,-11.316 -8.425,-17.894c-0.215,-1.59 -0.323,-3.225 -0.323,-4.901c0,-1.225 0.084,-2.429 0.243,-3.615c0.972,-10.253 6.4,-19.117 16.281,-26.594c4.913,-3.716 10.263,-6.595 16.036,-8.638c7.237,-2.573 15.204,-3.86 23.9,-3.86c8.581,0 16.523,1.287 23.812,3.86c5.724,2.043 11.044,4.922 15.956,8.638c11.016,8.334 16.525,18.404 16.525,30.209c0,3.799 -0.597,7.395 -1.782,10.785c-1.623,4.943 -4.431,9.496 -8.423,13.663c-1.837,1.963 -3.943,3.84 -6.32,5.639c-7.559,5.677 -16.145,9.416 -25.759,11.213c-4.48,0.859 -9.152,1.287 -14.009,1.287l-1.217,0Z" style="fill:#7acf88;fill-rule:nonzero;"/><path id="path24052" d="M28.691,53.629c0.046,-0.764 0.09,-1.508 0.136,-2.231c0.089,-1.17 0.157,-2.32 0.202,-3.448c0.09,-1.034 0.136,-2.049 0.136,-3.04c0.044,-1.262 0.067,-2.522 0.067,-3.784c0.045,-0.72 0.091,-1.418 0.135,-2.096c0.181,-1.44 0.316,-2.861 0.405,-4.257c0.047,-0.496 0.069,-0.991 0.069,-1.487c0,0.496 -0.022,0.991 -0.069,1.487c-0.089,1.396 -0.224,2.817 -0.405,4.257c-0.044,0.678 -0.09,1.376 -0.135,2.096c0,1.262 -0.023,2.522 -0.067,3.784c0,0.991 -0.046,2.006 -0.136,3.04c-0.045,1.128 -0.113,2.278 -0.202,3.448c-0.046,0.723 -0.09,1.467 -0.136,2.231l-0.271,-0.204c-1.847,-1.171 -3.22,-2.319 -4.121,-3.447c-0.902,-1.08 -1.712,-2.252 -2.434,-3.513c-0.541,-0.857 -0.833,-2.049 -0.878,-3.583c-0.046,-0.224 -0.068,-0.47 -0.068,-0.744l0,-0.336c0.136,-1.218 0.27,-2.457 0.405,-3.717c0.047,-0.225 0.113,-0.428 0.204,-0.609c0.404,-1.486 1.059,-2.794 1.96,-3.919c0.405,-0.587 0.924,-1.149 1.555,-1.691c0.358,-0.358 0.744,-0.674 1.148,-0.945c0.181,0.089 0.382,0.224 0.608,0.405c0.542,0.315 1.082,0.652 1.621,1.015c0.452,0.359 0.924,0.675 1.421,0.945c1.306,0.766 2.794,1.442 4.46,2.028c-1.666,-0.586 -3.154,-1.262 -4.46,-2.028c-0.497,-0.27 -0.969,-0.586 -1.421,-0.945c-0.539,-0.363 -1.079,-0.7 -1.621,-1.015c-0.226,-0.181 -0.427,-0.316 -0.608,-0.405l0.136,-0.135c0.945,-0.676 2.005,-1.306 3.176,-1.892c2.568,-1.173 4.618,-2.05 6.15,-2.636c0.947,-0.317 1.892,-0.609 2.839,-0.88c0.136,-0.045 0.247,-0.068 0.336,-0.068c0.543,-0.134 1.083,-0.27 1.624,-0.405c0.315,-0.088 0.608,-0.157 0.879,-0.201c1.441,-0.271 2.949,-0.498 4.528,-0.676c1.892,-0.18 3.268,-0.292 4.122,-0.339c2.702,-0.225 5.451,-0.317 8.246,-0.269l0.676,0c2.702,0.044 5.382,0.134 8.042,0.269c0.811,0.091 1.643,0.181 2.5,0.271c2.343,0.314 4.618,0.697 6.827,1.149c0.133,0.045 0.247,0.067 0.337,0.067c0.36,0.092 0.72,0.157 1.082,0.202c0.674,0.136 1.328,0.316 1.96,0.542c0.044,0.045 0.134,0.088 0.269,0.133c2.523,0.812 4.619,1.827 6.285,3.043c0.542,0.406 1.083,0.765 1.623,1.082c0.181,0.134 0.359,0.27 0.54,0.404l0,0.068l-0.067,0.067c-0.946,0.676 -2.005,1.308 -3.177,1.893c-1.621,0.766 -3.04,1.398 -4.257,1.891c1.217,-0.493 2.636,-1.125 4.257,-1.891c1.172,-0.585 2.231,-1.217 3.177,-1.893l0.067,-0.067l0.069,0c0.584,0.451 1.103,0.924 1.555,1.42c0.179,0.18 0.313,0.359 0.405,0.54c0.134,0.18 0.271,0.338 0.406,0.472c0.809,1.399 1.462,2.772 1.958,4.123c0.498,1.173 0.811,2.344 0.947,3.515l0,0.541c0.045,0.495 0.045,0.991 0,1.488c-0.045,0.899 -0.18,1.78 -0.407,2.635c-0.134,0.63 -0.314,1.261 -0.54,1.892c-0.629,1.488 -1.689,2.885 -3.176,4.19c-0.405,0.362 -0.834,0.722 -1.284,1.082l0,-5.002c0,-0.992 0.023,-2.005 0.067,-3.041l0,0c-0.044,1.036 -0.067,2.049 -0.067,3.041l0,5.002c-1.172,0.856 -2.478,1.666 -3.921,2.434c-1.485,0.764 -3.108,1.44 -4.864,2.026c-0.541,0.226 -1.083,0.428 -1.623,0.608c-1.668,0.541 -3.401,0.993 -5.204,1.352c-0.768,0.134 -1.553,0.293 -2.366,0.473c-0.991,0.135 -1.98,0.247 -2.972,0.339c-2.252,0.27 -4.507,0.472 -6.759,0.608l-0.203,0c-0.45,0 -0.88,0.021 -1.285,0.068c-2.657,0 -5.34,-0.112 -8.043,-0.339l-0.944,0c-2.436,-0.272 -4.868,-0.631 -7.301,-1.081c-2.703,-0.496 -5.225,-1.171 -7.568,-2.028l-0.069,-0.066l-0.27,0c-1.172,-0.452 -2.253,-0.969 -3.244,-1.556c-1.036,-0.586 -2.028,-1.172 -2.974,-1.757m5.61,-18.315c-0.586,0.676 -1.058,1.44 -1.42,2.298c-1.486,3.244 -1.081,6.24 1.218,8.989c2.297,2.703 5.249,4.416 8.852,5.136c2.388,0.451 4.844,0.811 7.366,1.081l0,0.811c-0.042,1.353 -0.088,2.657 -0.133,3.92c-0.047,0.855 -0.067,1.712 -0.067,2.568c0,-0.856 0.02,-1.713 0.067,-2.568c0.045,-1.263 0.091,-2.567 0.133,-3.92l0,-0.811c1.083,0.18 2.187,0.292 3.314,0.339c3.198,0.315 6.376,0.381 9.528,0.201c2.93,-0.18 6.105,-0.674 9.53,-1.486c0.451,-0.09 0.923,-0.203 1.419,-0.338c3.92,-0.992 6.737,-2.77 8.448,-5.338c1.712,-2.615 2.141,-5.048 1.284,-7.3c-0.856,-2.028 -1.847,-3.492 -2.973,-4.395c-0.135,-0.133 -0.292,-0.224 -0.472,-0.268c-1.083,-0.632 -2.142,-1.263 -3.178,-1.892c-3.378,-1.441 -6.962,-2.368 -10.746,-2.772c-1.982,-0.36 -3.966,-0.608 -5.948,-0.743c-3.379,-0.316 -6.712,-0.249 -10,0.202c-3.246,0.316 -6.488,0.99 -9.732,2.028c-2.795,0.857 -4.959,2.276 -6.49,4.258m38.388,16.558l0,0Z" style="fill:#ed1770;fill-rule:nonzero;"/><path id="path24056" d="M50.318,52.818c-2.523,-0.271 -4.98,-0.631 -7.367,-1.081c-3.603,-0.72 -6.555,-2.434 -8.852,-5.136c-2.299,-2.75 -2.704,-5.746 -1.217,-8.99c0.361,-0.856 0.833,-1.621 1.418,-2.296c0.135,0.043 0.271,0.088 0.407,0.134c0.72,0.27 1.463,0.494 2.231,0.674c0.358,0.046 0.721,0.115 1.08,0.203c0.092,0 0.204,0.023 0.338,0.068c2.207,0.451 4.483,0.833 6.826,1.149c0.856,0.091 1.71,0.159 2.568,0.203c1.037,0.089 2.097,0.156 3.177,0.204c1.577,0.045 3.175,0.089 4.797,0.135l0.676,0c2.792,0 5.543,-0.112 8.247,-0.339c0.855,0 2.252,-0.112 4.189,-0.337c1.082,-0.091 2.139,-0.227 3.176,-0.406c0.723,-0.136 1.444,-0.27 2.163,-0.404c0.54,-0.137 1.083,-0.293 1.623,-0.476l0.338,0c0.946,-0.269 1.891,-0.585 2.839,-0.945c0.541,-0.18 1.169,-0.405 1.891,-0.677c-0.722,0.272 -1.35,0.497 -1.891,0.677c-0.948,0.36 -1.893,0.676 -2.839,0.945l-0.338,0c-0.54,0.183 -1.083,0.339 -1.623,0.476c-0.719,0.134 -1.44,0.268 -2.163,0.404c-1.037,0.179 -2.094,0.315 -3.176,0.406c-1.937,0.225 -3.334,0.337 -4.189,0.337c-2.704,0.227 -5.455,0.339 -8.247,0.339l-0.676,0c-1.622,-0.046 -3.22,-0.09 -4.797,-0.135c-1.08,-0.048 -2.14,-0.115 -3.177,-0.204c-0.858,-0.044 -1.712,-0.112 -2.568,-0.203c-2.343,-0.316 -4.619,-0.698 -6.826,-1.149c-0.134,-0.045 -0.246,-0.068 -0.338,-0.068c-0.359,-0.088 -0.722,-0.157 -1.08,-0.203c-0.768,-0.18 -1.511,-0.404 -2.231,-0.674c-0.136,-0.046 -0.272,-0.091 -0.407,-0.134c1.532,-1.984 3.696,-3.402 6.49,-4.26c3.245,-1.037 6.488,-1.71 9.732,-2.028c3.289,-0.45 6.622,-0.517 10.001,-0.2c1.983,0.134 3.967,0.382 5.948,0.742c3.784,0.405 7.367,1.33 10.747,2.772c1.036,0.63 2.093,1.261 3.176,1.892c0.18,0.044 0.337,0.134 0.472,0.268c1.126,0.902 2.117,2.366 2.973,4.394c0.857,2.252 0.429,4.686 -1.283,7.3c-1.712,2.568 -4.529,4.347 -8.448,5.339c-0.497,0.135 -0.968,0.248 -1.42,0.339c-3.424,0.81 -6.6,1.305 -9.53,1.485c-3.151,0.181 -6.33,0.113 -9.527,-0.201c-1.127,-0.047 -2.231,-0.159 -3.313,-0.339m0.609,-14.868c-0.045,0.36 -0.091,0.743 -0.135,1.148c-0.046,1.397 -0.113,2.749 -0.204,4.055c-0.044,1.125 -0.089,2.23 -0.134,3.312c-0.044,1.172 -0.091,2.321 -0.136,3.445l0,0c0.045,-1.124 0.092,-2.273 0.136,-3.445c0.045,-1.082 0.09,-2.187 0.134,-3.312c0.091,-1.306 0.158,-2.658 0.204,-4.055c0.044,-0.405 0.09,-0.788 0.135,-1.148m21.761,13.923c-0.045,-0.183 -0.068,-0.339 -0.068,-0.475c-0.044,-0.992 -0.112,-2.028 -0.2,-3.109c-0.048,-0.946 -0.113,-1.914 -0.205,-2.906c-0.044,-0.81 -0.089,-1.666 -0.133,-2.568c-0.047,-1.306 -0.07,-2.636 -0.07,-3.986l0,0c0,1.35 0.023,2.68 0.07,3.986c0.044,0.902 0.089,1.758 0.133,2.568c0.092,0.992 0.157,1.96 0.205,2.906c0.088,1.081 0.156,2.117 0.2,3.109c0,0.136 0.023,0.292 0.068,0.475" style="fill:#419cd6;fill-rule:nonzero;"/><path id="path24060" d="M20.918,41.803c0,-0.406 0.023,-0.858 0.068,-1.354c0,-0.405 0.046,-0.786 0.136,-1.149c0.044,-0.269 0.09,-0.54 0.135,-0.811c0,-0.134 0.021,-0.269 0.067,-0.405c-0.134,1.261 -0.27,2.5 -0.406,3.719" style="fill:#3267a4;fill-rule:nonzero;"/><path id="path24064" d="M21.076,39.3c-0.045,-7.624 -0.068,-12.429 -0.068,-14.413c0,-1.263 -0.024,-2.526 -0.068,-3.788c-0.045,-0.318 -0.069,-0.632 -0.069,-0.948l0,-1.422c0.047,-0.902 0.183,-1.805 0.407,-2.706c0.136,-0.587 0.317,-1.196 0.542,-1.828c0.631,-1.488 1.691,-2.887 3.18,-4.196c1.446,-1.307 3.18,-2.479 5.212,-3.518c1.488,-0.766 3.112,-1.445 4.871,-2.029c0.543,-0.227 1.083,-0.429 1.624,-0.609c1.444,-0.454 2.935,-0.858 4.467,-1.219c0.993,-0.225 2.029,-0.428 3.113,-0.609c0.992,-0.135 1.984,-0.27 2.977,-0.406c2.256,-0.225 4.512,-0.406 6.768,-0.541l0.202,0c0.452,0 0.878,-0.023 1.286,-0.068c1.128,0 2.234,0.023 3.316,0.068c1.58,0 3.159,0.068 4.738,0.201c2.797,0.227 5.548,0.611 8.254,1.154c2.708,0.494 5.234,1.172 7.58,2.029l0.067,0c0.136,0.045 0.227,0.067 0.271,0.067c0.182,0.089 0.361,0.18 0.541,0.27c0.949,0.363 1.849,0.79 2.708,1.284c1.128,0.634 2.209,1.266 3.248,1.896c1.849,1.22 3.227,2.392 4.128,3.52c0.903,1.082 1.715,2.255 2.436,3.519c0.451,0.676 0.723,1.601 0.812,2.773c0,0.316 0.021,0.588 0.068,0.812l0,2.438c0.136,1.984 0.203,4.013 0.203,6.089c0.045,2.211 0.022,4.421 -0.067,6.632c-0.045,1.081 -0.089,2.165 -0.136,3.248c0,1.217 0.021,2.457 0.068,3.721l0,0.542c0.045,0.496 0.045,0.992 0,1.489c0.045,0.18 0.068,0.361 0.068,0.54c0.18,1.309 0.293,2.596 0.339,3.859c0.089,1.037 0.156,2.074 0.201,3.112l0,0.881c0.047,1.352 0.159,6.381 0.34,15.088m-15.024,-40.329l0,-1.558c0.044,-1.308 0.112,-2.616 0.204,-3.924c0.133,-1.442 0.224,-2.865 0.269,-4.264c0.091,-1.262 0.135,-2.525 0.135,-3.788l0,-7.58m-38.977,19.895l0,-1.284c0.044,-1.447 0.089,-2.889 0.136,-4.333c0.088,-1.218 0.133,-2.458 0.133,-3.72c0,-0.723 -0.045,-1.468 -0.133,-2.236c-0.047,-0.72 -0.092,-1.464 -0.136,-2.232c0,-1.082 -0.022,-2.164 -0.07,-3.248c-0.044,-1.443 -0.066,-2.864 -0.066,-4.263l0,-0.744m17.662,-1.556c0,0.496 -0.024,0.992 -0.069,1.488c0,1.173 -0.043,2.325 -0.135,3.452l0,4.736c0,1.175 -0.02,2.324 -0.065,3.451c0,0.766 -0.024,1.512 -0.071,2.233c-0.089,1.399 -0.156,2.753 -0.201,4.06c-0.045,0.949 -0.067,1.896 -0.067,2.841l0,0.071l0.676,0c2.707,0.044 5.391,0.133 8.054,0.269c0.812,0.09 1.645,0.182 2.504,0.271c2.345,0.315 4.621,0.699 6.834,1.151c0.134,0.045 0.248,0.066 0.338,0.066c0.361,0.092 0.722,0.158 1.082,0.204c0.678,0.135 1.331,0.315 1.963,0.542m-21.451,-2.503c-2.798,-0.048 -5.55,0.044 -8.257,0.269c-0.856,0.047 -2.233,0.159 -4.128,0.339c-1.58,0.179 -3.089,0.405 -4.533,0.676c-0.271,0.045 -0.564,0.113 -0.88,0.203c-0.542,0.136 -1.083,0.27 -1.626,0.405c-0.089,0 -0.2,0.023 -0.337,0.069c-0.947,0.271 -1.895,0.563 -2.841,0.88c-1.535,0.587 -3.588,1.466 -6.159,2.639c-1.173,0.587 -2.233,1.219 -3.18,1.895l-0.136,0.134c0.18,0.091 0.383,0.224 0.608,0.407c0.543,0.316 1.084,0.653 1.624,1.015c0.452,0.36 0.925,0.677 1.423,0.948c1.306,0.766 2.796,1.442 4.465,2.03c1.533,-1.985 3.7,-3.405 6.497,-4.264c3.25,-1.038 6.496,-1.714 9.746,-2.03c3.292,-0.452 6.63,-0.519 10.013,-0.202c1.985,0.134 3.972,0.383 5.956,0.744c3.788,0.404 7.376,1.331 10.76,2.774c1.037,0.632 2.097,1.262 3.181,1.894c0.18,0.046 0.338,0.136 0.472,0.27c1.22,-0.495 2.64,-1.128 4.264,-1.894c1.174,-0.585 2.234,-1.218 3.182,-1.894l0.066,-0.068l0,-0.068c-0.181,-0.135 -0.358,-0.271 -0.541,-0.404c-0.541,-0.318 -1.083,-0.678 -1.624,-1.084c-1.669,-1.218 -3.768,-2.234 -6.293,-3.047c-0.135,-0.045 -0.227,-0.089 -0.271,-0.133m-45.408,9.406c0.135,0.044 0.271,0.088 0.408,0.134c0.72,0.27 1.463,0.496 2.233,0.677c0.359,0.045 0.722,0.113 1.08,0.201c0.092,0 0.204,0.024 0.34,0.07c2.21,0.45 4.488,0.833 6.834,1.15c0.858,0.09 1.713,0.159 2.572,0.203c1.038,0.089 2.1,0.156 3.18,0.204c1.58,0.045 3.18,0.089 4.805,0.135l0.676,0c2.796,0 5.551,-0.112 8.257,-0.339c0.856,0 2.255,-0.113 4.195,-0.339c1.083,-0.089 2.143,-0.226 3.181,-0.405c0.723,-0.136 1.444,-0.271 2.164,-0.405c0.542,-0.136 1.084,-0.294 1.626,-0.475l0.34,0c0.945,-0.271 1.892,-0.587 2.841,-0.948c0.543,-0.18 1.171,-0.405 1.893,-0.677m-29.978,3.453c-0.044,0.36 -0.09,0.744 -0.134,1.149c-0.046,1.399 -0.113,2.754 -0.205,4.06c-0.044,1.127 -0.088,2.234 -0.133,3.316c-0.046,1.174 -0.092,2.324 -0.138,3.451l0,2.911c1.084,0.18 2.19,0.292 3.318,0.338c3.202,0.316 6.384,0.383 9.54,0.203c2.934,-0.18 6.113,-0.677 9.542,-1.488c-0.045,-0.183 -0.068,-0.34 -0.068,-0.475c-0.044,-0.993 -0.112,-2.03 -0.201,-3.113c-0.048,-0.948 -0.113,-1.916 -0.204,-2.909c-0.044,-0.812 -0.089,-1.67 -0.135,-2.572c-0.046,-1.308 -0.068,-2.639 -0.068,-3.992l0,-1.827m21.723,3.721c-0.136,-1.172 -0.451,-2.345 -0.948,-3.518c-0.496,-1.354 -1.151,-2.728 -1.961,-4.128c-0.135,-0.136 -0.272,-0.292 -0.407,-0.474c-0.091,-0.181 -0.227,-0.36 -0.405,-0.541c-0.452,-0.496 -0.972,-0.969 -1.558,-1.421l-0.068,0l0,13.872c-0.045,1.037 -0.066,2.052 -0.066,3.045l0,5.008c0.449,-0.361 0.878,-0.721 1.285,-1.083c1.489,-1.308 2.549,-2.705 3.18,-4.196c0.225,-0.63 0.405,-1.264 0.541,-1.894c0.227,-0.856 0.36,-1.738 0.407,-2.639m-5.347,-12.181l0.068,0.068c0.407,-0.36 0.79,-0.698 1.151,-1.015c0.631,-0.541 1.172,-1.104 1.623,-1.691c0.858,-1.128 1.492,-2.437 1.896,-3.925c0.09,-0.225 0.158,-0.429 0.202,-0.608c0.182,-0.769 0.292,-1.559 0.339,-2.369m-20.979,30.857c0.454,-0.091 0.924,-0.204 1.422,-0.34c3.924,-0.992 6.745,-2.772 8.458,-5.345c1.715,-2.618 2.144,-5.054 1.286,-7.308c-0.858,-2.031 -1.85,-3.498 -2.978,-4.4m-8.188,24.497c1.806,-0.36 3.542,-0.812 5.212,-1.353c0.54,-0.18 1.083,-0.383 1.626,-0.61c1.757,-0.586 3.382,-1.262 4.869,-2.028c1.444,-0.769 2.752,-1.58 3.927,-2.437m-8.392,23.209c-0.046,-2.977 -0.067,-4.984 -0.067,-6.021c0,-0.813 -0.047,-1.624 -0.137,-2.437c-0.044,-1.488 -0.112,-3.023 -0.2,-4.6l0,-5.686m-29.438,3.114l0.946,0c2.706,0.226 5.392,0.338 8.053,0.338c0.405,-0.046 0.835,-0.068 1.285,-0.068l0.204,0c2.255,-0.136 4.512,-0.337 6.767,-0.608c0.993,-0.092 1.985,-0.204 2.977,-0.34c0.814,-0.18 1.6,-0.338 2.368,-0.473l0,-7.104m-22.6,8.255c0,-0.858 0.02,-1.716 0.067,-2.571c0.045,-1.265 0.089,-2.571 0.133,-3.925l0,-0.812c-2.525,-0.271 -4.985,-0.632 -7.376,-1.083c-3.606,-0.721 -6.562,-2.437 -8.864,-5.143c-2.301,-2.753 -2.706,-5.753 -1.218,-9c0.362,-0.858 0.834,-1.624 1.421,-2.3m0.879,21.654c-0.044,0.36 -0.067,0.698 -0.067,1.014c-0.091,1.534 -0.157,3.068 -0.203,4.6c-0.089,0.859 -0.158,1.739 -0.201,2.642c-0.047,0.812 -0.092,1.668 -0.137,2.57c-0.046,0.496 -0.068,1.015 -0.068,1.555c-0.135,1.129 -0.224,2.257 -0.27,3.384m-5.55,-19.081c0.946,0.585 1.941,1.172 2.978,1.758c0.992,0.588 2.075,1.106 3.248,1.558l0.27,0l0.069,0.066c2.347,0.858 4.872,1.535 7.579,2.031c2.436,0.451 4.872,0.811 7.31,1.083m10.284,0.27l0,1.082c0.046,1.85 0.112,3.744 0.204,5.686c0.046,0.766 0.091,1.487 0.135,2.163c0.089,1.22 0.135,2.46 0.135,3.723c0,1.804 0.022,3.586 0.068,5.345m-40.063,-59.345c0.047,0.678 0.069,1.354 0.069,2.032c0.136,1.08 0.428,2.141 0.88,3.18c0.496,1.353 1.15,2.728 1.962,4.125c0.136,0.137 0.273,0.295 0.406,0.476c0.136,0.179 0.271,0.361 0.407,0.54c0.405,0.497 0.924,0.992 1.556,1.489m-5.075,8.391c0.044,-0.271 0.09,-0.541 0.134,-0.812c0,-0.135 0.022,-0.271 0.068,-0.405c0.046,-0.226 0.113,-0.428 0.205,-0.61c0.404,-1.488 1.059,-2.797 1.961,-3.924c0.406,-0.586 0.924,-1.15 1.556,-1.692c0.36,-0.36 0.746,-0.677 1.151,-0.948m-5.28,10.896c0.137,-1.22 0.272,-2.46 0.407,-3.722m-0.407,3.722l0,0.336c0,0.274 0.024,0.522 0.069,0.746c0.044,1.534 0.338,2.729 0.88,3.586c0.722,1.264 1.534,2.436 2.435,3.519c0.904,1.128 2.279,2.279 4.128,3.451l0.271,0.204c0.046,-0.766 0.09,-1.511 0.137,-2.234c0.088,-1.173 0.156,-2.324 0.201,-3.452c0.091,-1.036 0.138,-2.052 0.138,-3.044c0.044,-1.264 0.066,-2.525 0.066,-3.789c0.046,-0.721 0.091,-1.421 0.134,-2.099c0.182,-1.441 0.317,-2.864 0.406,-4.262c0.047,-0.496 0.07,-0.992 0.07,-1.488m-8.73,6.021c-0.092,0.363 -0.136,0.745 -0.136,1.151c-0.045,0.496 -0.069,0.948 -0.069,1.354m0.069,1.082c-0.181,2.436 -0.34,4.826 -0.473,7.173c-0.136,2.616 -0.225,5.188 -0.271,7.713c-0.136,2.483 -0.225,4.467 -0.272,5.956c-0.134,1.49 -0.202,2.526 -0.202,3.112" style="fill:none;fill-rule:nonzero;stroke:#3267a4;stroke-width:2px;"/></g></svg>