<?xml version="1.0" encoding="UTF-8" standalone="no"?><!DOCTYPE svg PUBLIC "-//W3C//DTD SVG 1.1//EN" "http://www.w3.org/Graphics/SVG/1.1/DTD/svg11.dtd"><svg width="100%" height="100%" viewBox="0 0 104 75" version="1.1" xmlns="http://www.w3.org/2000/svg" xmlns:xlink="http://www.w3.org/1999/xlink" xml:space="preserve" xmlns:serif="http://www.serif.com/" style="fill-rule:evenodd;clip-rule:evenodd;stroke-linecap:round;stroke-linejoin:round;stroke-miterlimit:3;"><g><path id="path24084" d="M5.868,17.331c1.852,-2.09 3.918,-3.846 6.196,-5.273c2.375,-1.471 4.868,-2.753 7.48,-3.845c0.57,-0.19 1.118,-0.452 1.638,-0.784c0.712,-0.475 1.494,-0.784 2.35,-0.928c0.572,-0.187 1.119,-0.355 1.639,-0.496c2.708,-0.903 5.413,-1.64 8.121,-2.208c0.618,-0.19 1.259,-0.358 1.923,-0.499c0.665,-0.143 1.305,-0.284 1.924,-0.428c1.281,-0.332 2.588,-0.569 3.917,-0.712c2.707,-0.332 5.438,-0.641 8.192,-0.925c0.664,-0.098 1.304,-0.144 1.922,-0.144c2.802,-0.095 5.605,-0.023 8.408,0.214c0.566,0 1.138,0.024 1.708,0.071c2.66,0.095 5.32,0.333 7.978,0.713c2.848,0.331 5.531,0.998 8.05,1.995c0.473,0.189 0.948,0.332 1.424,0.428c2.658,0.76 5.198,1.897 7.62,3.417c2.233,1.474 4.276,3.159 6.126,5.059c0.38,0.38 0.738,0.761 1.071,1.139c1.804,1.852 3.347,3.894 4.629,6.126c1.33,2.375 2.446,4.867 3.348,7.48c0.19,0.474 0.307,0.972 0.356,1.495c0.427,2.564 0.663,5.152 0.712,7.765l0,2.707c0,2.707 -0.426,5.341 -1.281,7.907c-0.573,1.946 -1.284,3.821 -2.137,5.626c-1.14,2.326 -2.614,4.44 -4.416,6.338c-1.759,2.042 -3.752,3.849 -5.984,5.416c-1.188,0.806 -2.398,1.565 -3.634,2.278c-0.71,0.428 -1.497,0.831 -2.349,1.211c-2.472,1.045 -4.988,1.829 -7.552,2.351c-0.617,0.094 -1.187,0.214 -1.709,0.356c-2.708,0.618 -5.438,1.044 -8.191,1.282c-2.517,0.236 -5.059,0.476 -7.623,0.712c-2.708,0.191 -5.39,0.26 -8.049,0.214c-2.707,-0.095 -5.389,-0.071 -8.049,0.072c-0.76,0 -1.496,-0.026 -2.207,-0.072c-2.757,-0.142 -5.44,-0.475 -8.049,-0.999c-1.9,-0.379 -3.776,-0.923 -5.628,-1.635c-0.616,-0.24 -1.235,-0.5 -1.851,-0.782c-0.667,-0.239 -1.331,-0.478 -1.997,-0.716c-1.139,-0.475 -2.208,-0.974 -3.204,-1.498c-1.947,-0.85 -3.702,-1.99 -5.272,-3.416c-1.899,-1.757 -3.655,-3.632 -5.271,-5.628c-0.189,-0.237 -0.404,-0.498 -0.641,-0.784l-0.143,-0.284c-1.044,-1.566 -1.945,-3.181 -2.705,-4.844c-0.144,-0.189 -0.238,-0.425 -0.286,-0.712c-0.665,-1.852 -1.281,-3.752 -1.85,-5.698c-0.714,-2.518 -1.143,-5.152 -1.286,-7.907c-0.045,-0.808 -0.093,-1.613 -0.14,-2.423c-0.097,-1.328 -0.048,-2.657 0.14,-3.989c0.24,-2.611 0.644,-5.197 1.212,-7.764c0.523,-2.611 1.662,-4.939 3.42,-6.979m-0.213,16.383c0.476,-1.329 1.353,-2.351 2.635,-3.064c0.474,-0.285 0.974,-0.521 1.496,-0.712c1.473,-0.521 2.636,-0.191 3.49,0.996c0.238,0.288 0.475,0.573 0.712,0.856c0.19,0.284 0.382,0.523 0.57,0.713c0.144,0.094 0.214,0.238 0.214,0.427c0,-0.189 -0.07,-0.333 -0.214,-0.427c-0.188,-0.19 -0.38,-0.429 -0.57,-0.713c-0.237,-0.283 -0.474,-0.568 -0.712,-0.856c-0.854,-1.187 -2.017,-1.517 -3.49,-0.996c-0.522,0.191 -1.022,0.427 -1.496,0.712c-1.282,0.713 -2.159,1.735 -2.635,3.064m0.712,-8.975c0.808,0.048 1.591,0.048 2.352,0c0.237,0 0.448,-0.025 0.641,-0.07c-0.193,0.045 -0.404,0.07 -0.641,0.07c-0.761,0.048 -1.544,0.048 -2.352,0m7.692,-6.338c-0.191,-0.667 0,-1.214 0.571,-1.64c0.237,-0.286 0.522,-0.57 0.853,-0.856c1.331,-1.188 2.851,-1.518 4.561,-0.996c0.426,0.141 0.76,0.404 0.998,0.782c0.425,0.571 0.662,1.19 0.71,1.852c-0.048,-0.662 -0.285,-1.281 -0.71,-1.852c-0.238,-0.378 -0.572,-0.641 -0.998,-0.782c-1.71,-0.522 -3.23,-0.192 -4.561,0.996c-0.331,0.286 -0.616,0.57 -0.853,0.856c-0.571,0.426 -0.762,0.973 -0.571,1.64m-7.051,23.646c1.044,0.144 2.042,0.215 2.992,0.215c0.426,-0.048 0.878,-0.048 1.351,0c-0.473,-0.048 -0.925,-0.048 -1.351,0c-0.95,0 -1.948,-0.071 -2.992,-0.215m7.98,7.054c0.568,-0.096 1.136,-0.194 1.706,-0.286l0,0c-0.57,0.092 -1.138,0.19 -1.706,0.286m-0.43,9.544c0,-0.332 0.144,-0.642 0.43,-0.926c0.234,-0.19 0.495,-0.381 0.78,-0.569c0.76,-0.619 1.592,-1.044 2.495,-1.284c0.379,-0.093 0.712,-0.165 0.997,-0.213c1.472,-0.334 2.611,0.072 3.416,1.21c0.24,0.334 0.452,0.522 0.644,0.571c-0.192,-0.049 -0.404,-0.237 -0.644,-0.571c-0.805,-1.138 -1.944,-1.544 -3.416,-1.21c-0.285,0.048 -0.618,0.12 -0.997,0.213c-0.903,0.24 -1.735,0.665 -2.495,1.284c-0.285,0.188 -0.546,0.379 -0.78,0.569c-0.286,0.284 -0.43,0.594 -0.43,0.926m-5.486,-5.771c0.43,0.096 0.856,0.215 1.286,0.357c0.141,0.048 0.305,0.142 0.496,0.284c-0.191,-0.142 -0.355,-0.236 -0.496,-0.284c-0.43,-0.142 -0.856,-0.261 -1.286,-0.357m22.226,-37.468c0.854,-1.852 2.256,-3.111 4.202,-3.773c0.286,-0.144 0.57,-0.216 0.855,-0.216c0.997,-0.142 1.685,0.238 2.065,1.141c0.144,0.237 0.308,0.521 0.499,0.855c0.143,0.378 0.263,0.829 0.357,1.354c-0.094,-0.525 -0.214,-0.976 -0.357,-1.354c-0.191,-0.334 -0.355,-0.618 -0.499,-0.855c-0.38,-0.903 -1.068,-1.283 -2.065,-1.141c-0.285,0 -0.569,0.072 -0.855,0.216c-1.946,0.662 -3.348,1.921 -4.202,3.773m-6.198,-4.557c0.712,-0.095 1.45,-0.167 2.208,-0.215c0.382,-0.093 0.759,-0.164 1.139,-0.213c-0.38,0.049 -0.757,0.12 -1.139,0.213c-0.758,0.048 -1.496,0.12 -2.208,0.215m-6.625,12.964c-0.093,-0.38 0.144,-0.714 0.713,-0.999c0.616,-0.284 1.282,-0.617 1.994,-0.997c1.472,-0.807 2.945,-0.854 4.417,-0.14c0.237,0.093 0.476,0.285 0.713,0.57c0.188,0.187 0.354,0.426 0.498,0.711c0.189,0.427 0.522,0.689 0.998,0.783c-0.476,-0.094 -0.809,-0.356 -0.998,-0.783c-0.144,-0.285 -0.31,-0.524 -0.498,-0.711c-0.237,-0.285 -0.476,-0.477 -0.713,-0.57c-1.472,-0.714 -2.945,-0.667 -4.417,0.14c-0.712,0.38 -1.378,0.713 -1.994,0.997c-0.569,0.285 -0.806,0.619 -0.713,0.999m24.576,0.356c0.284,-1.14 0.949,-2.066 1.995,-2.779c0.996,-0.617 2.089,-0.879 3.276,-0.783c0.285,0.047 0.498,0.166 0.641,0.356c0.333,0.522 0.664,1.022 0.997,1.495c0.382,0.667 0.642,1.377 0.784,2.137c-0.142,-0.76 -0.402,-1.47 -0.784,-2.137c-0.333,-0.473 -0.664,-0.973 -0.997,-1.495c-0.143,-0.19 -0.356,-0.309 -0.641,-0.356c-1.187,-0.096 -2.28,0.166 -3.276,0.783c-1.046,0.713 -1.711,1.639 -1.995,2.779m-7.693,-0.712c1.093,0.046 2.232,0.141 3.418,0.284c0.38,0 0.736,0.025 1.068,0.072c-0.332,-0.047 -0.688,-0.072 -1.068,-0.072c-1.186,-0.143 -2.325,-0.238 -3.418,-0.284m26.285,-14.39c0.095,-1.566 0.901,-2.684 2.421,-3.348c0.616,-0.284 1.234,-0.498 1.852,-0.641c1.614,-0.38 2.875,0.095 3.776,1.423c0.475,0.618 0.831,1.285 1.068,1.997c-0.237,-0.712 -0.593,-1.379 -1.068,-1.997c-0.901,-1.328 -2.162,-1.803 -3.776,-1.423c-0.618,0.143 -1.236,0.357 -1.852,0.641c-1.52,0.664 -2.326,1.782 -2.421,3.348m10.825,0.64c0.286,0 0.572,0.026 0.855,0.074c0.38,-0.048 0.809,-0.074 1.284,-0.074c-0.475,0 -0.904,0.026 -1.284,0.074c-0.283,-0.048 -0.569,-0.074 -0.855,-0.074m-28.633,2.494c1.139,0.286 2.349,0.453 3.633,0.498c0.188,0 0.403,0.027 0.642,0.072c-0.239,-0.045 -0.454,-0.072 -0.642,-0.072c-1.284,-0.045 -2.494,-0.212 -3.633,-0.498m3.133,-4.7l0,0c0.712,0 1.426,-0.047 2.136,-0.143c-0.71,0.096 -1.424,0.143 -2.136,0.143Zm12.751,17.378c0.475,-0.046 0.948,-0.068 1.424,-0.068c0.192,-0.049 0.403,-0.024 0.641,0.068c-0.238,-0.092 -0.449,-0.117 -0.641,-0.068c-0.476,0 -0.949,0.022 -1.424,0.068m3.847,5.059c0,-0.807 0.425,-1.449 1.281,-1.923c0.999,-0.521 2.043,-0.832 3.133,-0.925c0.712,-0.096 1.284,0.141 1.712,0.712c0.379,0.427 0.734,0.879 1.068,1.353c-0.334,-0.474 -0.689,-0.926 -1.068,-1.353c-0.428,-0.571 -1,-0.808 -1.712,-0.712c-1.09,0.093 -2.134,0.404 -3.133,0.925c-0.856,0.474 -1.281,1.116 -1.281,1.923m15.812,-5.269c0.713,-0.096 1.425,-0.122 2.137,-0.074l0,0c-0.712,-0.048 -1.424,-0.022 -2.137,0.074m-4.912,-8.407c0.378,-0.808 1.09,-1.329 2.134,-1.568c0.334,-0.047 0.691,-0.119 1.07,-0.213c1.328,-0.239 2.373,0.19 3.133,1.281c0.617,0.811 1.117,1.664 1.497,2.565c-0.38,-0.901 -0.88,-1.754 -1.497,-2.565c-0.76,-1.091 -1.805,-1.52 -3.133,-1.281c-0.379,0.094 -0.736,0.166 -1.07,0.213c-1.044,0.239 -1.756,0.76 -2.134,1.568m20.085,13.676c0.808,0 1.615,0.047 2.421,0.144c0.143,0.047 0.286,0.047 0.428,0c-0.142,0.047 -0.285,0.047 -0.428,0c-0.806,-0.097 -1.613,-0.144 -2.421,-0.144m-6.696,-5.343c0.951,-1.757 2.468,-2.588 4.559,-2.492c0.522,0.047 0.997,0.214 1.425,0.499c0.427,0.236 0.781,0.592 1.068,1.068c0.237,0.381 0.428,0.736 0.571,1.069c-0.143,-0.333 -0.334,-0.688 -0.571,-1.069c-0.287,-0.476 -0.641,-0.832 -1.068,-1.068c-0.428,-0.285 -0.903,-0.452 -1.425,-0.499c-2.091,-0.096 -3.608,0.735 -4.559,2.492m-3.847,11.184c0.43,-1.14 1.235,-1.994 2.422,-2.565c0.949,-0.521 1.97,-0.688 3.064,-0.499c0.474,0.095 0.925,0.332 1.353,0.714c0.475,0.426 0.736,0.949 0.784,1.565c0,0.239 0.069,0.501 0.212,0.785c-0.143,-0.284 -0.212,-0.546 -0.212,-0.785c-0.048,-0.616 -0.309,-1.139 -0.784,-1.565c-0.428,-0.382 -0.879,-0.619 -1.353,-0.714c-1.094,-0.189 -2.115,-0.022 -3.064,0.499c-1.187,0.571 -1.992,1.425 -2.422,2.565m3.847,6.626c0.617,0.045 1.213,0.142 1.781,0.284c0.143,0 0.286,0.022 0.426,0.07c-0.14,-0.048 -0.283,-0.07 -0.426,-0.07c-0.568,-0.142 -1.164,-0.239 -1.781,-0.284m3.845,3.988c1.474,-1.854 3.278,-2.375 5.415,-1.568c0.332,0.142 0.617,0.381 0.856,0.712c0.236,0.429 0.427,0.88 0.567,1.354c-0.14,-0.474 -0.331,-0.925 -0.567,-1.354c-0.239,-0.331 -0.524,-0.57 -0.856,-0.712c-2.137,-0.807 -3.941,-0.286 -5.415,1.568m-15.172,-0.714c0.999,-1.044 2.232,-1.684 3.706,-1.922c0.522,-0.094 1.069,-0.047 1.636,0.141c0.43,0.049 0.786,0.264 1.07,0.641c0.19,0.24 0.355,0.451 0.499,0.643c0.188,0.285 0.308,0.547 0.356,0.784c0.095,0.285 0.213,0.569 0.356,0.855c-0.143,-0.286 -0.261,-0.57 -0.356,-0.855c-0.048,-0.237 -0.168,-0.499 -0.356,-0.784c-0.144,-0.192 -0.309,-0.403 -0.499,-0.643c-0.284,-0.377 -0.64,-0.592 -1.07,-0.641c-0.567,-0.188 -1.114,-0.235 -1.636,-0.141c-1.474,0.238 -2.707,0.878 -3.706,1.922m4.775,13.963c1.185,-1.995 2.896,-3.181 5.127,-3.561c0.618,-0.096 1.044,0.141 1.282,0.713c0.143,0.281 0.286,0.567 0.427,0.853c-0.141,-0.286 -0.284,-0.572 -0.427,-0.853c-0.238,-0.572 -0.664,-0.809 -1.282,-0.713c-2.231,0.38 -3.942,1.566 -5.127,3.561m-14.035,-1.283c0.095,-1.045 0.643,-1.876 1.64,-2.493c0.474,-0.332 0.972,-0.595 1.495,-0.783c0.476,-0.237 0.997,-0.354 1.567,-0.354c1.141,-0.05 2.09,0.377 2.85,1.28c0.236,0.381 0.498,0.734 0.783,1.066c0.143,0.194 0.237,0.382 0.285,0.572c0.096,0.284 0.19,0.548 0.284,0.784c-0.094,-0.236 -0.188,-0.5 -0.284,-0.784c-0.048,-0.19 -0.142,-0.378 -0.285,-0.572c-0.285,-0.332 -0.547,-0.685 -0.783,-1.066c-0.76,-0.903 -1.709,-1.33 -2.85,-1.28c-0.57,0 -1.091,0.117 -1.567,0.354c-0.523,0.188 -1.021,0.451 -1.495,0.783c-0.997,0.617 -1.545,1.448 -1.64,2.493m11.186,-5.342c0.758,-0.143 1.518,-0.236 2.28,-0.286c0.425,-0.045 0.829,-0.093 1.21,-0.142c-0.381,0.049 -0.785,0.097 -1.21,0.142c-0.762,0.05 -1.522,0.143 -2.28,0.286m-0.927,11.681c0.807,-0.093 1.592,-0.141 2.351,-0.141l0,0c-0.759,0 -1.544,0.048 -2.351,0.141m14.389,-12.393c0.38,0.141 0.76,0.214 1.139,0.214c0.143,0.047 0.333,0.047 0.569,0c-0.236,0.047 -0.426,0.047 -0.569,0c-0.379,0 -0.759,-0.073 -1.139,-0.214m-21.37,-17.38c0.664,-0.096 1.353,-0.167 2.064,-0.214c0.193,0 0.405,-0.024 0.642,-0.072c-0.237,0.048 -0.449,0.072 -0.642,0.072c-0.711,0.047 -1.4,0.118 -2.064,0.214m-7.622,8.477c0.57,-1.569 1.663,-2.635 3.276,-3.207c0.855,-0.237 1.52,0 1.995,0.714c0.523,0.758 0.903,1.564 1.139,2.42c-0.236,-0.856 -0.616,-1.662 -1.139,-2.42c-0.475,-0.714 -1.14,-0.951 -1.995,-0.714c-1.613,0.572 -2.706,1.638 -3.276,3.207m-14.177,-7.765c0.476,-1.046 1.308,-1.734 2.496,-2.067c0.284,-0.141 0.595,-0.26 0.925,-0.356c1.186,-0.473 2.208,-0.236 3.064,0.713c0.426,0.427 0.806,0.926 1.139,1.496c0.427,0.616 0.783,1.211 1.068,1.78c-0.285,-0.569 -0.641,-1.164 -1.068,-1.78c-0.333,-0.57 -0.713,-1.069 -1.139,-1.496c-0.856,-0.949 -1.878,-1.186 -3.064,-0.713c-0.33,0.096 -0.641,0.215 -0.925,0.356c-1.188,0.333 -2.02,1.021 -2.496,2.067m-4.272,3.633c0.901,-0.191 1.804,-0.213 2.707,-0.072c0.334,0.047 0.641,0.144 0.928,0.284c-0.287,-0.14 -0.594,-0.237 -0.928,-0.284c-0.903,-0.141 -1.806,-0.119 -2.707,0.072m12.323,7.551c0.713,-0.096 1.402,-0.167 2.065,-0.215c0.431,-0.045 0.833,-0.093 1.212,-0.143c-0.379,0.05 -0.781,0.098 -1.212,0.143c-0.663,0.048 -1.352,0.119 -2.065,0.215m-10.756,14.317c0.998,-1.472 2.302,-2.564 3.918,-3.277c0.522,-0.239 1.068,-0.404 1.639,-0.5c1.187,-0.236 2.041,0.168 2.564,1.213c0.284,0.523 0.451,1.068 0.5,1.637c-0.049,-0.569 -0.216,-1.114 -0.5,-1.637c-0.523,-1.045 -1.377,-1.449 -2.564,-1.213c-0.571,0.096 -1.117,0.261 -1.639,0.5c-1.616,0.713 -2.92,1.805 -3.918,3.277m8.549,4.415c0.996,-1.33 2.324,-2.159 3.988,-2.491c1.044,-0.236 1.923,0.047 2.636,0.853c0.236,0.238 0.452,0.451 0.64,0.642c-0.188,-0.191 -0.404,-0.404 -0.64,-0.642c-0.713,-0.806 -1.592,-1.089 -2.636,-0.853c-1.664,0.332 -2.992,1.161 -3.988,2.491m8.903,-5.484c0.666,0.428 1.401,0.57 2.209,0.428c0.093,-0.05 0.213,-0.071 0.355,-0.071c-0.142,0 -0.262,0.021 -0.355,0.071c-0.808,0.142 -1.543,0 -2.209,-0.428m-31.342,-25.216c0.048,-1.139 0.666,-1.923 1.854,-2.35c0.473,-0.19 0.949,-0.381 1.424,-0.57c0.617,-0.239 1.066,-0.167 1.353,0.213c0.236,0.38 0.521,0.761 0.855,1.141c0.285,0.427 0.545,0.852 0.782,1.282c0.144,0.237 0.239,0.45 0.286,0.641c-0.047,-0.191 -0.142,-0.404 -0.286,-0.641c-0.237,-0.43 -0.497,-0.855 -0.782,-1.282c-0.334,-0.38 -0.619,-0.761 -0.855,-1.141c-0.287,-0.38 -0.736,-0.452 -1.353,-0.213c-0.475,0.189 -0.951,0.38 -1.424,0.57c-1.188,0.427 -1.806,1.211 -1.854,2.35m5.343,10.684c1.472,-1.708 3.301,-2.563 5.485,-2.563c0.236,0 0.451,0.071 0.642,0.213c1.329,0.664 2.134,1.78 2.42,3.348c-0.286,-1.568 -1.091,-2.684 -2.42,-3.348c-0.191,-0.142 -0.406,-0.213 -0.642,-0.213c-2.184,0 -4.013,0.855 -5.485,2.563m-19.376,-4.487c1.236,-1.613 2.923,-2.42 5.059,-2.42c0.38,0.047 0.736,0.117 1.069,0.211c0.332,0.096 0.663,0.216 0.995,0.357c0.476,0.191 0.833,0.523 1.07,0.997c-0.237,-0.474 -0.594,-0.806 -1.07,-0.997c-0.332,-0.141 -0.663,-0.261 -0.995,-0.357c-0.333,-0.094 -0.689,-0.164 -1.069,-0.211c-2.136,0 -3.823,0.807 -5.059,2.42m3.633,-7.836c0.428,0.333 0.951,0.452 1.568,0.356l0,0c-0.617,0.096 -1.14,-0.023 -1.568,-0.356m1.638,17.096c0.618,-1.329 1.686,-2.232 3.206,-2.705c0.476,-0.144 0.998,-0.215 1.567,-0.215c0.237,0 0.452,0.071 0.64,0.215c0.192,0.236 0.381,0.473 0.572,0.712c0.473,0.664 0.759,1.4 0.855,2.208c-0.096,-0.808 -0.382,-1.544 -0.855,-2.208c-0.191,-0.239 -0.38,-0.476 -0.572,-0.712c-0.188,-0.144 -0.403,-0.215 -0.64,-0.215c-0.569,0 -1.091,0.071 -1.567,0.215c-1.52,0.473 -2.588,1.376 -3.206,2.705m4.418,8.621c0.332,0.092 0.736,0.166 1.211,0.211l0,0c-0.475,-0.045 -0.879,-0.119 -1.211,-0.211m-3.917,5.911c0.948,-0.095 1.873,-0.191 2.775,-0.285c0.144,-0.048 0.286,-0.072 0.429,-0.072c-0.143,0 -0.285,0.024 -0.429,0.072c-0.902,0.094 -1.827,0.19 -2.775,0.285m15.385,-10.113c0.902,0.14 1.828,0.188 2.778,0.14c0.19,-0.047 0.38,-0.095 0.568,-0.14c-0.188,0.045 -0.378,0.093 -0.568,0.14c-0.95,0.048 -1.876,0 -2.778,-0.14m-6.981,11.109c0.285,-0.331 0.619,-0.619 0.997,-0.853c0.284,-0.191 0.618,-0.356 0.998,-0.5c1.52,-0.616 2.706,-0.262 3.561,1.068c0.141,0.192 0.237,0.426 0.284,0.712c0,0.381 -0.021,0.713 -0.072,0.998c0.051,-0.285 0.072,-0.617 0.072,-0.998c-0.047,-0.286 -0.143,-0.52 -0.284,-0.712c-0.855,-1.33 -2.041,-1.684 -3.561,-1.068c-0.38,0.144 -0.714,0.309 -0.998,0.5c-0.378,0.234 -0.712,0.522 -0.997,0.853m14.317,2.707l0,0Zm18.519,0.285c0.715,0.143 1.497,0.143 2.352,0c0.144,-0.048 0.332,-0.071 0.571,-0.071c-0.239,0 -0.427,0.023 -0.571,0.071c-0.855,0.143 -1.637,0.143 -2.352,0" style="fill:#419cd6;fill-rule:nonzero;"/><path id="path24088" d="M5.607,33.711c0.476,-1.332 1.355,-2.355 2.637,-3.07c0.476,-0.285 0.976,-0.522 1.498,-0.712c1.474,-0.522 2.638,-0.192 3.494,0.996c0.238,0.29 0.475,0.575 0.714,0.858c0.188,0.285 0.38,0.524 0.569,0.714c0.143,0.095 0.215,0.239 0.215,0.428m-0.714,-14.552c-0.192,-0.668 0,-1.214 0.571,-1.642c0.237,-0.286 0.524,-0.57 0.855,-0.858c1.332,-1.189 2.852,-1.52 4.565,-0.997c0.425,0.141 0.76,0.404 0.999,0.784c0.425,0.572 0.664,1.191 0.712,1.855m-7.203,41.165c0,-0.332 0.143,-0.643 0.431,-0.928c0.233,-0.189 0.496,-0.381 0.781,-0.569c0.761,-0.619 1.593,-1.046 2.496,-1.286c0.38,-0.094 0.713,-0.166 0.999,-0.214c1.473,-0.334 2.614,0.072 3.421,1.213c0.239,0.333 0.452,0.521 0.643,0.571m7.985,-42.092c0.857,-1.855 2.259,-3.116 4.208,-3.78c0.285,-0.144 0.571,-0.216 0.856,-0.216c0.997,-0.143 1.687,0.238 2.068,1.142c0.143,0.238 0.307,0.523 0.499,0.856c0.141,0.38 0.262,0.831 0.357,1.358m-20.823,9.058c-0.094,-0.38 0.144,-0.713 0.714,-0.998c0.617,-0.286 1.282,-0.62 1.996,-1c1.473,-0.808 2.948,-0.855 4.422,-0.14c0.238,0.093 0.475,0.285 0.714,0.57c0.188,0.188 0.353,0.427 0.498,0.712c0.188,0.428 0.523,0.691 0.999,0.786m15.259,0.428c0.284,-1.142 0.95,-2.07 1.996,-2.784c0.997,-0.618 2.092,-0.879 3.28,-0.783c0.285,0.045 0.5,0.165 0.641,0.356c0.333,0.523 0.665,1.023 1,1.497c0.381,0.667 0.641,1.379 0.784,2.142m10.911,-15.554c0.094,-1.569 0.901,-2.686 2.422,-3.353c0.618,-0.284 1.235,-0.499 1.855,-0.643c1.615,-0.38 2.877,0.096 3.779,1.427c0.476,0.619 0.832,1.287 1.07,2m-7.202,21.473c0,-0.808 0.426,-1.452 1.282,-1.926c0.999,-0.522 2.044,-0.832 3.136,-0.927c0.714,-0.096 1.286,0.143 1.714,0.713c0.38,0.427 0.736,0.88 1.07,1.355m3.708,-12.912c0.38,-0.809 1.092,-1.332 2.138,-1.571c0.333,-0.046 0.69,-0.118 1.07,-0.213c1.33,-0.24 2.375,0.189 3.136,1.283c0.618,0.812 1.12,1.666 1.499,2.569m5.56,6.279c0.953,-1.762 2.472,-2.592 4.564,-2.498c0.524,0.047 0.999,0.214 1.427,0.5c0.428,0.236 0.784,0.594 1.07,1.07c0.238,0.382 0.427,0.737 0.571,1.07m-11.481,11.058c0.429,-1.142 1.236,-1.998 2.424,-2.568c0.95,-0.523 1.972,-0.69 3.066,-0.502c0.476,0.096 0.927,0.335 1.355,0.716c0.476,0.428 0.737,0.95 0.785,1.568c0,0.239 0.07,0.502 0.212,0.786m-0.142,10.629c1.474,-1.855 3.281,-2.377 5.42,-1.569c0.333,0.142 0.618,0.381 0.856,0.712c0.237,0.43 0.428,0.882 0.569,1.358m-22.032,-1.214c0.999,-1.046 2.233,-1.687 3.708,-1.927c0.523,-0.092 1.069,-0.047 1.639,0.143c0.429,0.049 0.786,0.264 1.07,0.642c0.191,0.239 0.356,0.451 0.499,0.643c0.189,0.287 0.309,0.548 0.357,0.785c0.094,0.287 0.214,0.571 0.356,0.856m-2.852,12.842c1.188,-1.998 2.9,-3.187 5.134,-3.567c0.618,-0.097 1.045,0.141 1.284,0.713c0.141,0.284 0.285,0.57 0.428,0.856m-20.894,0.712c0.095,-1.046 0.643,-1.877 1.642,-2.496c0.474,-0.333 0.973,-0.596 1.496,-0.784c0.477,-0.238 0.998,-0.356 1.569,-0.356c1.141,-0.049 2.092,0.379 2.852,1.283c0.237,0.381 0.5,0.735 0.785,1.069c0.142,0.192 0.238,0.382 0.286,0.572c0.096,0.284 0.188,0.548 0.284,0.786m-13.263,-15.054c0.571,-1.57 1.664,-2.638 3.28,-3.212c0.855,-0.237 1.521,0 1.997,0.715c0.523,0.761 0.903,1.568 1.14,2.424m-20.609,-7.704c0.477,-1.047 1.309,-1.736 2.499,-2.069c0.285,-0.142 0.596,-0.262 0.926,-0.356c1.187,-0.475 2.211,-0.238 3.067,0.713c0.427,0.428 0.807,0.927 1.14,1.499c0.428,0.617 0.784,1.212 1.071,1.782m-11.411,23.972c1,-1.474 2.305,-2.569 3.924,-3.282c0.521,-0.239 1.068,-0.404 1.639,-0.5c1.189,-0.236 2.044,0.168 2.568,1.213c0.284,0.524 0.45,1.071 0.5,1.641m-0.072,5.35c0.997,-1.332 2.326,-2.163 3.992,-2.495c1.045,-0.237 1.924,0.047 2.638,0.855c0.236,0.237 0.452,0.452 0.642,0.641m-29.734,-29.749c0.048,-1.14 0.666,-1.926 1.855,-2.354c0.473,-0.19 0.951,-0.381 1.425,-0.57c0.619,-0.24 1.068,-0.167 1.355,0.213c0.236,0.381 0.521,0.763 0.855,1.143c0.286,0.428 0.546,0.854 0.785,1.284c0.143,0.237 0.237,0.45 0.285,0.642m-1.212,10.342c1.474,-1.71 3.304,-2.566 5.491,-2.566c0.236,0 0.451,0.071 0.641,0.214c1.331,0.665 2.138,1.782 2.423,3.353m-27.951,-5.495c1.236,-1.616 2.926,-2.424 5.064,-2.424c0.379,0.048 0.736,0.118 1.07,0.212c0.332,0.096 0.664,0.216 0.996,0.359c0.477,0.189 0.833,0.523 1.072,0.997m-2.927,10.131c0.62,-1.332 1.689,-2.235 3.211,-2.709c0.476,-0.144 0.998,-0.215 1.568,-0.215c0.238,0 0.452,0.071 0.641,0.215c0.192,0.236 0.381,0.474 0.572,0.713c0.475,0.664 0.76,1.403 0.856,2.211m2.067,15.337c0.286,-0.331 0.62,-0.619 0.998,-0.855c0.286,-0.19 0.619,-0.356 0.999,-0.5c1.521,-0.617 2.709,-0.262 3.565,1.07c0.142,0.193 0.238,0.428 0.284,0.713c0,0.381 -0.021,0.713 -0.072,1" style="fill:none;fill-rule:nonzero;stroke:#fff;stroke-width:2px;"/><path id="path24092" d="M5.825,17.305c-1.76,2.043 -2.902,4.373 -3.423,6.988c-0.569,2.571 -0.975,5.16 -1.213,7.775c-0.188,1.333 -0.238,2.664 -0.14,3.994c0.045,0.81 0.093,1.616 0.14,2.426c0.142,2.758 0.572,5.396 1.285,7.917c0.571,1.949 1.188,3.851 1.853,5.705c0.048,0.288 0.142,0.524 0.286,0.715c0.761,1.664 1.662,3.281 2.708,4.851l0.144,0.284c0.236,0.285 0.452,0.546 0.64,0.784c1.617,1.998 3.376,3.877 5.277,5.636c1.571,1.426 3.328,2.568 5.276,3.421c0.997,0.525 2.068,1.024 3.207,1.499c0.668,0.238 1.332,0.477 1.998,0.717c0.619,0.283 1.238,0.544 1.854,0.783c1.853,0.713 3.73,1.258 5.633,1.637c2.612,0.525 5.297,0.859 8.057,1c0.712,0.047 1.448,0.072 2.21,0.072c2.662,-0.143 5.346,-0.167 8.057,-0.072c2.66,0.047 5.345,-0.023 8.056,-0.215c2.567,-0.236 5.111,-0.474 7.629,-0.712c2.756,-0.238 5.49,-0.665 8.2,-1.284c0.522,-0.142 1.094,-0.261 1.711,-0.357c2.565,-0.521 5.084,-1.307 7.559,-2.353c0.853,-0.38 1.64,-0.783 2.352,-1.212c1.236,-0.714 2.446,-1.474 3.636,-2.282c2.233,-1.569 4.229,-3.377 5.989,-5.424c1.805,-1.9 3.28,-4.017 4.42,-6.345c0.855,-1.808 1.567,-3.685 2.14,-5.635c0.855,-2.568 1.283,-5.206 1.283,-7.917l0,-2.709c-0.05,-2.618 -0.286,-5.21 -0.714,-7.776c-0.049,-0.524 -0.166,-1.023 -0.356,-1.498c-0.904,-2.616 -2.02,-5.112 -3.35,-7.489c-1.284,-2.236 -2.828,-4.28 -4.635,-6.135c-0.333,-0.378 -0.691,-0.76 -1.071,-1.14c-1.853,-1.902 -3.897,-3.59 -6.132,-5.065c-2.424,-1.523 -4.966,-2.661 -7.628,-3.423c-0.477,-0.096 -0.95,-0.238 -1.425,-0.428c-2.52,-0.998 -5.207,-1.666 -8.057,-1.998c-2.662,-0.38 -5.324,-0.619 -7.986,-0.714c-0.569,-0.046 -1.142,-0.07 -1.71,-0.07c-2.806,-0.238 -5.611,-0.311 -8.415,-0.215c-0.619,0 -1.259,0.047 -1.924,0.144c-2.757,0.284 -5.491,0.595 -8.2,0.927c-1.331,0.142 -2.637,0.38 -3.921,0.713c-0.619,0.143 -1.259,0.285 -1.926,0.428c-0.664,0.141 -1.306,0.309 -1.924,0.5c-2.71,0.568 -5.418,1.307 -8.129,2.209c-0.521,0.143 -1.068,0.311 -1.64,0.499c-0.857,0.143 -1.641,0.453 -2.353,0.928c-0.52,0.333 -1.07,0.596 -1.639,0.785c-2.615,1.094 -5.111,2.378 -7.488,3.851c-2.28,1.428 -4.347,3.187 -6.201,5.28Zm0.498,7.417c0.81,0.048 1.594,0.048 2.355,0c0.237,0 0.449,-0.024 0.641,-0.07m-2.353,17.402c1.045,0.143 2.044,0.215 2.995,0.215c0.426,-0.048 0.878,-0.048 1.352,0m3.64,6.848c0.568,-0.096 1.138,-0.193 1.708,-0.287l0.429,0m-8.059,4.066c0.431,0.096 0.858,0.214 1.287,0.357c0.141,0.048 0.307,0.141 0.496,0.284m14.26,-42.723c0.713,-0.096 1.452,-0.166 2.211,-0.214c0.381,-0.095 0.76,-0.166 1.14,-0.215m6.917,13.053c1.095,0.047 2.235,0.142 3.421,0.286c0.382,0 0.738,0.024 1.07,0.07m32.654,-14.122c0.287,0 0.574,0.024 0.856,0.072c0.382,-0.048 0.811,-0.072 1.286,-0.072m-30.802,2.494c1.14,0.288 2.352,0.455 3.638,0.502c0.188,0 0.402,0.025 0.641,0.07m-3.709,-5.277l2.566,0c0.712,0 1.427,-0.047 2.139,-0.143m10.624,17.546c0.476,-0.047 0.951,-0.068 1.425,-0.068c0.194,-0.05 0.404,-0.026 0.643,0.068m17.611,-0.212c0.712,-0.096 1.425,-0.12 2.138,-0.072l0.43,0m12.618,5.349c0.81,0 1.618,0.047 2.424,0.144c0.143,0.045 0.286,0.045 0.428,0m-9.554,12.339c0.618,0.045 1.214,0.142 1.782,0.285c0.144,0 0.287,0.021 0.427,0.071m-11.619,10.269c0.76,-0.141 1.52,-0.236 2.282,-0.285c0.426,-0.044 0.83,-0.092 1.212,-0.142m-4.422,12.126c0.808,-0.094 1.594,-0.143 2.354,-0.143l0.856,0m11.194,-12.268c0.38,0.141 0.76,0.216 1.139,0.216c0.143,0.045 0.333,0.045 0.571,0m-23.1,-17.619c0.664,-0.096 1.353,-0.166 2.065,-0.213c0.192,0 0.405,-0.025 0.643,-0.073m-28.806,4.637c0.904,-0.191 1.807,-0.213 2.71,-0.072c0.334,0.047 0.642,0.144 0.929,0.284m8.697,7.348c0.712,-0.095 1.403,-0.167 2.067,-0.213c0.431,-0.047 0.833,-0.095 1.213,-0.144m3.422,13.622c0.668,0.43 1.402,0.572 2.212,0.43c0.093,-0.05 0.213,-0.071 0.354,-0.071m-44.346,-27.248c0.426,0.333 0.95,0.452 1.568,0.357l1.069,0m3.423,25.394c0.332,0.093 0.737,0.165 1.212,0.212l0.497,0m-5.631,5.706c0.951,-0.094 1.876,-0.189 2.779,-0.285c0.144,-0.048 0.287,-0.071 0.429,-0.071m12.194,-9.77c0.901,0.141 1.829,0.189 2.778,0.141c0.192,-0.047 0.382,-0.096 0.571,-0.141m3.993,13.834l2.138,0m16.398,0.287c0.715,0.143 1.5,0.143 2.355,0c0.144,-0.048 0.332,-0.072 0.571,-0.072" style="fill:none;fill-rule:nonzero;stroke:#3267a4;stroke-width:2px;"/><path id="path24096" d="M66.058,49.741c-0.093,-0.238 -0.213,-0.452 -0.354,-0.64c-0.239,-0.382 -0.475,-0.76 -0.715,-1.142c-0.141,-0.188 -0.331,-0.354 -0.569,-0.498c-0.286,-0.238 -0.64,-0.331 -1.07,-0.286c-0.568,0 -1.068,0.144 -1.494,0.43c-0.095,0.046 -0.212,0.117 -0.355,0.212c-0.143,0.097 -0.264,0.19 -0.359,0.284c-0.236,0.144 -0.425,0.31 -0.566,0.501c-0.334,0.475 -0.714,0.972 -1.142,1.496c-0.333,0.379 -0.689,0.759 -1.069,1.139c0,0.048 -0.071,0.07 -0.213,0.07c-0.712,0.095 -1.378,0.072 -1.994,-0.07c-0.522,-0.143 -0.974,-0.452 -1.354,-0.927l-0.14,-0.284c-0.287,-0.855 -0.691,-1.615 -1.212,-2.28c-0.24,-0.38 -0.643,-0.592 -1.211,-0.643l-0.429,0c-1.14,0.335 -2.088,0.998 -2.85,1.998c-0.045,0.094 -0.117,0.214 -0.214,0.354c-0.332,0.711 -0.735,1.378 -1.21,1.996l-0.285,0.142c-0.901,0.52 -1.805,0.498 -2.705,-0.071c-0.096,-0.048 -0.166,-0.143 -0.215,-0.285c-0.332,-1.234 -0.76,-2.422 -1.281,-3.562c-0.191,-0.334 -0.43,-0.572 -0.714,-0.712c-0.428,-0.237 -0.926,-0.309 -1.496,-0.214c-0.333,0 -0.64,0.022 -0.925,0.072c-0.997,0.142 -1.829,0.64 -2.493,1.496c-0.763,-1.426 -1.522,-2.803 -2.279,-4.132c-1.093,-1.947 -2.068,-3.919 -2.921,-5.912c-0.806,-1.948 -1.687,-3.846 -2.636,-5.7c-0.852,-1.755 -1.663,-3.488 -2.422,-5.199c1.758,-0.095 3.468,-0.071 5.128,0.071l5.13,0c0.141,-0.047 0.258,-0.118 0.357,-0.214c0.236,-0.141 0.451,-0.285 0.64,-0.428c0.189,-0.142 0.38,-0.306 0.571,-0.497l0.285,-0.287c0.188,-0.141 0.38,-0.306 0.568,-0.496c0.237,-0.192 0.476,-0.381 0.712,-0.57c0.192,-0.142 0.404,-0.311 0.641,-0.499c0.192,-0.191 0.403,-0.356 0.643,-0.5c0.189,-0.188 0.379,-0.379 0.569,-0.569c0.191,-0.191 0.404,-0.356 0.642,-0.499c0.189,-0.189 0.354,-0.38 0.497,-0.569c0.192,-0.191 0.403,-0.355 0.643,-0.5c0.19,-0.188 0.378,-0.379 0.568,-0.57c0.192,-0.142 0.378,-0.308 0.57,-0.498c0.143,-0.095 0.238,-0.19 0.284,-0.284c0.239,-0.143 0.452,-0.308 0.642,-0.499c0.192,-0.189 0.404,-0.38 0.642,-0.568c0.238,-0.192 0.451,-0.381 0.64,-0.572c0.191,-0.189 0.38,-0.356 0.572,-0.499c0.235,-0.189 0.45,-0.357 0.638,-0.498c0.192,-0.19 0.406,-0.38 0.644,-0.57c0.236,-0.189 0.425,-0.378 0.569,-0.569c0.237,-0.144 0.475,-0.311 0.711,-0.499c0.237,-0.237 0.498,-0.453 0.785,-0.64c0.284,-0.238 0.545,-0.476 0.784,-0.713c0.237,-0.144 0.475,-0.308 0.711,-0.5c0.142,-0.143 0.333,-0.283 0.57,-0.425c0.286,-0.286 0.568,-0.547 0.855,-0.784c0.237,-0.143 0.452,-0.311 0.64,-0.5c0.239,-0.142 0.452,-0.284 0.641,-0.428c0.191,-0.143 0.403,-0.284 0.643,-0.427c0.188,-0.189 0.403,-0.357 0.639,-0.499c0.097,-0.093 0.24,-0.189 0.429,-0.284c0.141,-0.096 0.285,-0.19 0.428,-0.285c0.141,-0.143 0.284,-0.261 0.427,-0.356c0.141,-0.096 0.26,-0.213 0.356,-0.357l0,0.072c1.328,1.568 2.23,2.682 2.706,3.348c0.523,0.618 0.926,1.093 1.211,1.425c0.236,0.237 0.547,0.641 0.927,1.211c0.38,0.524 0.853,1.186 1.424,1.993c0.569,0.761 1.02,1.425 1.352,1.996c0.38,0.616 0.666,1.044 0.854,1.281c0.43,0.762 0.926,1.495 1.496,2.208c0.286,0.427 0.572,0.832 0.855,1.212c0.523,0.808 1.047,1.591 1.569,2.351c0.19,0.237 0.38,0.499 0.568,0.783l0.858,0c2.089,0.048 4.178,0.094 6.266,0.142l0.642,0c-0.523,0.808 -1.022,1.614 -1.498,2.423c-0.33,0.428 -0.593,0.876 -0.781,1.352c-0.952,1.757 -1.947,3.489 -2.993,5.201c-1.139,1.85 -2.302,3.703 -3.49,5.556c-1.141,1.758 -2.256,3.563 -3.348,5.412c-0.332,0.619 -0.713,1.212 -1.14,1.782m-18.734,-22.296l0,0c1.949,0 3.896,0.024 5.844,0.07c0.71,0 1.398,0.024 2.065,0.074c0.044,-0.238 0.093,-0.452 0.141,-0.643c0,-0.189 0.023,-0.379 0.071,-0.569c0.047,-0.238 0.072,-0.451 0.072,-0.643c0.048,-0.187 0.095,-0.377 0.141,-0.568c0,-0.333 0.05,-0.664 0.142,-0.997c0.049,-0.334 0.094,-0.666 0.145,-0.996c0.048,-0.287 0.116,-0.596 0.213,-0.926c0,-0.285 0.047,-0.548 0.143,-0.785c0.047,-0.38 0.095,-0.736 0.141,-1.071c0.047,-0.282 0.095,-0.566 0.143,-0.852c0.048,-0.333 0.095,-0.642 0.144,-0.928c0.092,-0.332 0.165,-0.662 0.211,-0.994c0.049,-0.286 0.097,-0.571 0.142,-0.856c0.098,-0.238 0.191,-0.475 0.287,-0.712c0.048,-0.236 0.093,-0.475 0.141,-0.714c0.048,-0.285 0.119,-0.544 0.215,-0.782c0.048,-0.238 0.095,-0.475 0.141,-0.714c0.048,-0.285 0.118,-0.521 0.215,-0.71c0,-0.238 0.023,-0.475 0.071,-0.712c0.096,-0.286 0.165,-0.548 0.213,-0.784c0,-0.332 0.048,-0.667 0.145,-0.999c0.044,-0.189 0.07,-0.38 0.07,-0.569c0,0.189 -0.026,0.38 -0.07,0.569c-0.097,0.332 -0.145,0.667 -0.145,0.999c-0.048,0.236 -0.117,0.498 -0.213,0.784c-0.048,0.237 -0.071,0.474 -0.071,0.712c-0.097,0.189 -0.167,0.425 -0.215,0.71c-0.046,0.239 -0.093,0.476 -0.141,0.714c-0.096,0.238 -0.167,0.497 -0.215,0.782c-0.048,0.239 -0.093,0.478 -0.141,0.714c-0.096,0.237 -0.189,0.474 -0.287,0.712c-0.045,0.285 -0.093,0.57 -0.142,0.856c-0.046,0.332 -0.119,0.662 -0.211,0.994c-0.049,0.286 -0.096,0.595 -0.144,0.928c-0.048,0.286 -0.096,0.57 -0.143,0.852c-0.046,0.335 -0.094,0.691 -0.141,1.071c-0.096,0.237 -0.143,0.5 -0.143,0.785c-0.097,0.33 -0.165,0.639 -0.213,0.926c-0.051,0.33 -0.096,0.662 -0.145,0.996c-0.092,0.333 -0.142,0.664 -0.142,0.997c-0.046,0.191 -0.093,0.381 -0.141,0.568c0,0.192 -0.025,0.405 -0.072,0.643c-0.048,0.19 -0.071,0.38 -0.071,0.569c-0.048,0.191 -0.097,0.405 -0.141,0.643c-0.667,-0.05 -1.355,-0.074 -2.065,-0.074c-1.948,-0.046 -3.895,-0.07 -5.844,-0.07Zm8.834,0.144l0,0c1.092,0.048 2.159,0.07 3.204,0.07c1.092,0.095 2.162,0.143 3.206,0.143l3.421,0c0.947,0 1.873,0.023 2.776,0.071c-0.903,-0.048 -1.829,-0.071 -2.776,-0.071l-3.421,0c-1.044,0 -2.114,-0.048 -3.206,-0.143c-1.045,0 -2.112,-0.022 -3.204,-0.07Z" style="fill:#fff;fill-rule:nonzero;"/><path id="path24100" d="M37.394,48.362c-0.763,-1.428 -1.524,-2.81 -2.283,-4.142c-1.094,-1.952 -2.072,-3.929 -2.926,-5.926c-0.807,-1.954 -1.69,-3.856 -2.64,-5.715c-0.855,-1.759 -1.667,-3.497 -2.427,-5.212c1.76,-0.093 3.473,-0.071 5.139,0.072l5.137,0c0.143,-0.047 0.26,-0.119 0.359,-0.213c0.236,-0.143 0.45,-0.287 0.641,-0.431c0.189,-0.141 0.38,-0.307 0.571,-0.497l0.286,-0.288c0.188,-0.142 0.38,-0.308 0.568,-0.498c0.239,-0.192 0.478,-0.381 0.715,-0.572c0.191,-0.141 0.404,-0.31 0.643,-0.5c0.192,-0.19 0.402,-0.357 0.642,-0.5c0.191,-0.189 0.38,-0.381 0.572,-0.57c0.19,-0.192 0.403,-0.358 0.642,-0.502c0.189,-0.188 0.354,-0.38 0.498,-0.57c0.192,-0.19 0.404,-0.356 0.643,-0.5c0.192,-0.19 0.38,-0.382 0.571,-0.571c0.19,-0.144 0.378,-0.309 0.572,-0.5c0.141,-0.096 0.237,-0.191 0.284,-0.284c0.238,-0.144 0.452,-0.309 0.642,-0.501c0.192,-0.191 0.406,-0.38 0.643,-0.57c0.237,-0.193 0.452,-0.381 0.641,-0.573c0.192,-0.189 0.382,-0.357 0.574,-0.499c0.234,-0.19 0.449,-0.358 0.638,-0.501c0.192,-0.189 0.407,-0.38 0.646,-0.571c0.236,-0.189 0.426,-0.378 0.57,-0.57c0.238,-0.144 0.475,-0.311 0.712,-0.5c0.238,-0.238 0.499,-0.454 0.787,-0.642c0.284,-0.238 0.547,-0.477 0.784,-0.716c0.239,-0.142 0.476,-0.306 0.713,-0.5c0.143,-0.142 0.334,-0.284 0.571,-0.426c0.287,-0.287 0.569,-0.548 0.857,-0.786c0.238,-0.142 0.452,-0.31 0.642,-0.501c0.238,-0.143 0.452,-0.285 0.642,-0.429c0.191,-0.143 0.403,-0.286 0.644,-0.428c0.188,-0.19 0.403,-0.358 0.64,-0.5c0.098,-0.094 0.239,-0.19 0.43,-0.284c0.141,-0.096 0.285,-0.191 0.429,-0.287c0.14,-0.143 0.284,-0.261 0.427,-0.357c0.141,-0.096 0.261,-0.214 0.357,-0.358l0,0.072c1.329,1.572 2.233,2.69 2.711,3.356c0.524,0.62 0.928,1.096 1.213,1.428c0.237,0.239 0.547,0.644 0.928,1.215c0.381,0.525 0.856,1.191 1.427,1.999c0.57,0.762 1.021,1.428 1.356,2c0.38,0.617 0.666,1.048 0.856,1.285c0.429,0.763 0.926,1.499 1.498,2.212c0.286,0.429 0.574,0.836 0.856,1.216c0.524,0.809 1.05,1.593 1.571,2.356c0.191,0.237 0.383,0.5 0.571,0.785l0.858,0c2.092,0.048 4.187,0.095 6.279,0.143l0.641,0c-0.522,0.809 -1.022,1.617 -1.498,2.428c-0.332,0.429 -0.595,0.879 -0.784,1.355c-0.954,1.762 -1.95,3.498 -2.999,5.214c-1.14,1.855 -2.305,3.711 -3.496,5.57c-1.143,1.762 -2.26,3.572 -3.355,5.425c-0.332,0.62 -0.713,1.216 -1.141,1.785m-28.688,-22.349l9.919,0c1.953,0 3.902,0.024 5.854,0.071c0.712,0 1.402,0.024 2.07,0.073c0.044,-0.237 0.093,-0.453 0.141,-0.644c0,-0.189 0.024,-0.38 0.072,-0.571c0.045,-0.237 0.071,-0.452 0.071,-0.644c0.049,-0.188 0.096,-0.378 0.142,-0.569c0,-0.335 0.05,-0.667 0.142,-1c0.049,-0.335 0.094,-0.667 0.145,-0.999c0.048,-0.288 0.116,-0.597 0.213,-0.928c0,-0.286 0.047,-0.549 0.144,-0.786c0.047,-0.38 0.094,-0.738 0.14,-1.074c0.048,-0.282 0.096,-0.569 0.144,-0.854c0.048,-0.335 0.095,-0.644 0.144,-0.93c0.092,-0.333 0.166,-0.665 0.212,-0.997c0.05,-0.287 0.098,-0.572 0.142,-0.857c0.097,-0.239 0.192,-0.478 0.288,-0.715c0.048,-0.237 0.094,-0.475 0.141,-0.715c0.048,-0.285 0.12,-0.545 0.215,-0.785c0.048,-0.239 0.094,-0.475 0.142,-0.715c0.048,-0.285 0.118,-0.522 0.215,-0.712c0,-0.238 0.023,-0.477 0.071,-0.714c0.096,-0.287 0.166,-0.55 0.213,-0.786c0,-0.333 0.048,-0.668 0.145,-1c0.046,-0.19 0.071,-0.382 0.071,-0.572m-3.353,17.567l0.926,0c1.094,0.049 2.164,0.071 3.21,0.071c1.096,0.096 2.166,0.144 3.212,0.144l3.428,0c0.949,0 1.877,0.021 2.781,0.07l2.783,0" style="fill:none;fill-rule:nonzero;stroke:#3267a4;stroke-width:2px;"/><path id="path24104" d="M66.102,49.746c0.287,0.433 0.523,0.847 0.715,1.231c0.142,0.196 0.285,0.34 0.428,0.436c0.144,0.097 0.264,0.146 0.357,0.146m-30.221,-3.262c0.666,-0.871 1.5,-1.378 2.501,-1.523c0.285,-0.049 0.593,-0.073 0.928,-0.073c0.571,-0.096 1.071,-0.024 1.5,0.218c0.285,0.143 0.525,0.384 0.715,0.726c0.524,1.16 0.953,2.368 1.285,3.624c0.051,0.144 0.12,0.241 0.216,0.29c0.903,0.579 1.809,0.602 2.713,0.072l0.287,-0.144c0.476,-0.63 0.88,-1.308 1.212,-2.032c0.099,-0.142 0.171,-0.265 0.217,-0.361c0.763,-1.016 1.714,-1.692 2.858,-2.032l0.429,0c0.571,0.052 0.975,0.267 1.215,0.655c0.522,0.676 0.928,1.45 1.216,2.32l0.141,0.288c0.38,0.484 0.833,0.798 1.357,0.944c0.619,0.144 1.286,0.168 2,0.072c0.143,0 0.215,-0.024 0.215,-0.072c0.38,-0.387 0.737,-0.774 1.072,-1.159c0.429,-0.533 0.811,-1.039 1.144,-1.523c0.143,-0.194 0.333,-0.364 0.569,-0.509c0.095,-0.096 0.218,-0.191 0.359,-0.291c0.144,-0.096 0.261,-0.168 0.356,-0.214c0.429,-0.291 0.929,-0.438 1.5,-0.438c0.431,-0.046 0.787,0.05 1.073,0.291c0.238,0.147 0.428,0.316 0.571,0.507c0.24,0.388 0.476,0.774 0.716,1.161c0.143,0.192 0.263,0.411 0.356,0.652m-30.436,2.465c-0.047,-1.062 0.263,-2.032 0.927,-2.898c0.193,-0.196 0.358,-0.438 0.502,-0.726c0.047,-0.098 0.142,-0.194 0.286,-0.29" style="fill:none;fill-rule:nonzero;stroke:#fff;stroke-width:2px;"/></g></svg>