<?xml version="1.0" encoding="UTF-8" standalone="no"?><!DOCTYPE svg PUBLIC "-//W3C//DTD SVG 1.1//EN" "http://www.w3.org/Graphics/SVG/1.1/DTD/svg11.dtd"><svg width="100%" height="100%" viewBox="0 0 124 138" version="1.1" xmlns="http://www.w3.org/2000/svg" xmlns:xlink="http://www.w3.org/1999/xlink" xml:space="preserve" xmlns:serif="http://www.serif.com/" style="fill-rule:evenodd;clip-rule:evenodd;stroke-linecap:round;stroke-linejoin:round;stroke-miterlimit:3;"><g><path id="path23984" d="M12.797,101.803c-0.964,-3.791 -1.444,-7.763 -1.444,-11.918c0,-0.638 0.022,-1.278 0.072,-1.918c0.432,-12.374 5.317,-22.988 14.658,-31.848c9.822,-9.314 21.688,-13.97 35.6,-13.97c13.866,0 25.686,4.656 35.458,13.97c5.728,5.434 9.797,11.553 12.204,18.357c1.684,4.793 2.526,9.929 2.526,15.409l0,0.686c-0.192,12.828 -5.102,23.812 -14.73,32.942c-0.482,0.41 -0.964,0.822 -1.444,1.232c-3.371,3.059 -7.006,5.571 -10.906,7.535c-4.669,2.329 -9.674,3.881 -15.02,4.655c-2.648,0.366 -5.342,0.55 -8.088,0.55c-1.637,0 -3.2,-0.068 -4.693,-0.206c-11.939,-0.958 -22.241,-5.547 -30.907,-13.766c-6.692,-6.348 -11.121,-13.584 -13.286,-21.71" style="fill:#91dbe9;fill-rule:nonzero;"/><path id="path24020" d="M85.211,65.208c0.26,0.392 0.52,0.783 0.782,1.172c0.955,1.607 1.844,3.323 2.67,5.147c0.217,0.52 0.521,0.999 0.912,1.433c0.217,0.218 0.456,0.456 0.716,0.716c0.434,0.564 0.848,1.151 1.238,1.76c-0.304,-0.044 -0.564,-0.088 -0.781,-0.13c-2.693,-0.262 -5.364,-0.695 -8.013,-1.304c-0.391,-0.044 -0.76,-0.108 -1.107,-0.194c-0.304,-0.088 -0.587,-0.197 -0.847,-0.326c-1.954,-0.566 -3.909,-1.152 -5.862,-1.76c-1.522,-0.39 -2.955,-0.868 -4.3,-1.434c0.825,-0.389 1.65,-0.736 2.476,-1.041c0.433,-0.131 0.825,-0.304 1.173,-0.521c1.345,-0.824 2.756,-1.498 4.233,-2.019c0.434,-0.175 0.826,-0.348 1.172,-0.523c1.086,-0.52 2.15,-0.976 3.192,-1.368c0.782,0.131 1.563,0.263 2.346,0.392c-0.783,-0.129 -1.564,-0.261 -2.346,-0.392c-0.521,-0.129 -1.064,-0.216 -1.629,-0.26c-2.604,-0.562 -5.123,-1.389 -7.556,-2.473c-1.041,-0.523 -1.997,-1.109 -2.867,-1.761c0.652,-0.216 1.327,-0.476 2.022,-0.78c2.865,-1.262 5.536,-2.824 8.012,-4.69c0.737,-0.478 1.432,-1.022 2.084,-1.629c0.608,-0.435 1.172,-0.955 1.693,-1.564c2.041,-2.301 3.887,-4.756 5.537,-7.361c0.478,-0.739 0.934,-1.476 1.368,-2.215c1.738,-2.821 2.758,-5.841 3.062,-9.053c0.044,-0.696 0.109,-1.391 0.196,-2.086c0.129,-1.129 0.086,-2.216 -0.131,-3.257c-0.173,-0.695 -0.283,-1.389 -0.325,-2.084c-0.262,-3.257 -1.022,-6.384 -2.28,-9.38c-0.304,-0.695 -0.652,-1.389 -1.043,-2.085c-0.868,-1.434 -1.781,-2.8 -2.736,-4.104c2.171,-0.347 4.408,-0.455 6.709,-0.326c0.826,0.043 1.63,0.087 2.411,0.131c0.695,0.043 1.389,0.108 2.084,0.195c2.867,0.304 5.603,1.152 8.208,2.541c2.605,1.389 4.843,3.213 6.709,5.472c1.651,1.997 3.04,4.147 4.17,6.448c0.39,0.739 0.804,1.499 1.237,2.28c0.608,1.216 1.087,2.497 1.433,3.843c0.739,2.781 1.064,5.602 0.978,8.468c-0.043,1.565 -0.239,3.128 -0.587,4.692c-0.695,2.777 -1.824,5.384 -3.387,7.816c-1.39,2.172 -3.149,4.038 -5.277,5.602c-0.911,0.652 -1.823,1.326 -2.736,2.02c-1.911,1.432 -3.995,2.604 -6.253,3.518c-1.086,0.476 -2.192,0.889 -3.322,1.238c-1.129,0.39 -2.258,0.715 -3.388,0.975c-1.128,0.217 -2.236,0.371 -3.322,0.456c-1.084,0.088 -2.171,0.152 -3.256,0.197c-1.347,0.086 -2.715,0.043 -4.104,-0.13c-0.218,-0.044 -0.435,-0.088 -0.652,-0.131c-0.26,-0.043 -0.499,-0.087 -0.716,-0.131" style="fill:#edf050;fill-rule:nonzero;"/><path id="path24024" d="M60.587,60.918c0.087,0 0.195,0.021 0.326,0.065c-0.131,-0.044 -0.239,-0.065 -0.326,-0.065c-0.477,-0.13 -0.933,-0.26 -1.368,-0.39c-3.169,-0.954 -6.058,-2.406 -8.664,-4.36c-0.304,-0.216 -0.608,-0.456 -0.912,-0.717c-1.997,-1.56 -3.756,-3.361 -5.276,-5.4c-0.521,-0.649 -0.934,-1.365 -1.238,-2.147c-1.302,-3.037 -2.236,-5.986 -2.8,-8.849c-0.695,-2.908 -1.02,-5.228 -0.978,-6.963c0.043,-1.736 0.152,-3.189 0.326,-4.36c0.174,-1.128 0.544,-2.45 1.108,-3.969c0.13,-0.435 0.304,-0.869 0.521,-1.301c0.173,-0.391 0.368,-0.782 0.587,-1.172c0.302,-0.738 0.608,-1.475 0.91,-2.212c1.086,-2.906 2.715,-5.51 4.887,-7.808c2.257,-2.344 4.841,-4.36 7.751,-6.054c0.652,-0.345 1.304,-0.736 1.954,-1.17c0.912,-0.563 1.846,-0.955 2.802,-1.171c0.954,-0.261 1.932,-0.543 2.93,-0.847c3.171,-0.953 6.363,-1.214 9.576,-0.78c1.434,0.172 2.844,0.434 4.234,0.78c3.128,0.826 5.885,2.3 8.273,4.426c0.521,0.52 0.999,1.02 1.433,1.496c0.566,0.696 1.108,1.41 1.63,2.148c0.954,1.301 1.866,2.668 2.734,4.1c0.392,0.693 0.739,1.388 1.043,2.081c1.26,2.993 2.02,6.117 2.28,9.371c0.044,0.693 0.152,1.388 0.325,2.082c0.218,1.04 0.262,2.126 0.131,3.254c-0.087,0.693 -0.152,1.388 -0.196,2.082c-0.303,3.21 -1.324,6.226 -3.061,9.044c-0.434,0.739 -0.891,1.475 -1.368,2.212c-1.65,2.604 -3.495,5.055 -5.536,7.355c-0.522,0.608 -1.087,1.127 -1.695,1.563c-0.651,0.605 -1.345,1.148 -2.084,1.626c-2.476,1.863 -5.147,3.424 -8.012,4.683c-0.695,0.304 -1.368,0.565 -2.02,0.78c-2.215,0.696 -4.472,1.021 -6.773,0.976c-0.696,-0.041 -1.37,-0.107 -2.022,-0.193c-0.129,-0.043 -0.237,-0.066 -0.325,-0.066c-0.26,-0.042 -0.52,-0.065 -0.781,-0.065c0.348,0.392 0.694,0.76 1.042,1.108c1.172,1.3 2.388,2.559 3.648,3.772c0.348,0.392 0.695,0.781 1.042,1.172c0.305,0.389 0.608,0.78 0.912,1.172c-1.954,0.303 -3.93,0.541 -5.927,0.715c-0.739,0.044 -1.477,0.086 -2.215,0.129c-2.562,0.131 -5.125,0.304 -7.688,0.523c0.783,-0.652 1.564,-1.324 2.347,-2.019c1.345,-1.127 2.605,-2.343 3.777,-3.644c0.652,-0.78 1.324,-1.56 2.02,-2.343c0.218,-0.216 0.456,-0.432 0.716,-0.65" style="fill:#ed1770;fill-rule:nonzero;"/><path id="path24028" d="M41.371,62.863c0.129,-0.044 0.217,-0.088 0.26,-0.129c-0.043,0.041 -0.131,0.085 -0.26,0.129l-0.262,0.131c-0.216,0.131 -0.434,0.26 -0.65,0.391c-1.216,0.65 -2.432,1.238 -3.648,1.758c-1.607,0.608 -3.214,1.13 -4.82,1.564c-1.651,0.432 -3.323,0.608 -5.018,0.522c-1.041,-0.046 -2.084,-0.154 -3.125,-0.327c-1.477,-0.392 -2.953,-0.847 -4.429,-1.369c-1.13,-0.434 -2.215,-0.955 -3.258,-1.562c-1.521,-0.825 -2.953,-1.758 -4.3,-2.802c-1.302,-0.998 -2.496,-2.084 -3.582,-3.256c-1.432,-1.39 -2.692,-2.888 -3.779,-4.495c-0.389,-0.608 -0.781,-1.216 -1.172,-1.824c-0.693,-1.303 -1.303,-2.627 -1.824,-3.973c-0.129,-0.348 -0.239,-0.718 -0.325,-1.107c-0.043,-0.305 -0.087,-0.631 -0.131,-0.977c0,-1.174 0.044,-2.324 0.131,-3.455c0.042,-0.605 0.086,-1.192 0.13,-1.757c0.087,-1.26 0.37,-2.499 0.847,-3.714c0.825,-1.997 1.78,-3.953 2.865,-5.862c1,-1.782 2.086,-3.474 3.258,-5.08c1.302,-1.651 2.757,-3.171 4.365,-4.562c0.781,-0.606 1.563,-1.216 2.344,-1.822c1.737,-1.216 3.605,-2.128 5.603,-2.736c0.564,-0.175 1.108,-0.348 1.628,-0.523c1.216,-0.303 2.433,-0.541 3.648,-0.715c1.781,-0.13 3.54,0.064 5.277,0.586c0.868,0.26 1.715,0.521 2.54,0.781c2.084,0.739 4.017,1.716 5.797,2.931c0.826,0.521 1.628,1.065 2.411,1.629c-0.217,0.391 -0.413,0.781 -0.587,1.173c-0.217,0.434 -0.39,0.868 -0.521,1.303c-0.564,1.52 -0.933,2.844 -1.107,3.973c-0.173,1.172 -0.282,2.628 -0.326,4.366c-0.043,1.736 0.282,4.06 0.977,6.969c0.565,2.867 1.499,5.819 2.801,8.859c0.304,0.782 0.718,1.498 1.238,2.15c1.52,2.04 3.278,3.844 5.276,5.406c-1.042,1.476 -2.258,2.824 -3.648,4.04c-1.346,1.172 -2.8,2.257 -4.364,3.257c1.302,0.391 2.605,0.651 3.909,0.78c1.128,0.175 2.215,0.436 3.256,0.783c0.131,0.044 0.283,0.065 0.457,0.065c-0.348,0.216 -0.717,0.412 -1.108,0.585c-1.693,0.868 -3.321,1.803 -4.885,2.802c-0.175,0.13 -0.369,0.26 -0.587,0.39c-0.477,0.304 -0.998,0.608 -1.564,0.912c-0.434,0.26 -0.889,0.5 -1.366,0.716c-0.696,0.348 -1.412,0.631 -2.151,0.848c0.608,-1.26 1.195,-2.498 1.759,-3.713c0.261,-0.477 0.478,-0.933 0.652,-1.369c0.392,-0.78 0.781,-1.562 1.172,-2.344c0.088,-0.087 0.152,-0.195 0.196,-0.326" style="fill:#419cd6;fill-rule:nonzero;"/><path id="path24032" d="M85.229,65.248c0.218,0.044 0.456,0.088 0.718,0.131c0.217,0.043 0.434,0.087 0.652,0.131c1.39,0.173 2.758,0.216 4.106,0.13c1.087,-0.045 2.174,-0.109 3.26,-0.197c1.087,-0.085 2.195,-0.239 3.324,-0.456c1.131,-0.26 2.262,-0.585 3.391,-0.976c1.131,-0.348 2.239,-0.761 3.325,-1.237c2.26,-0.914 4.346,-2.087 6.258,-3.519c0.913,-0.695 1.826,-1.368 2.738,-2.02c2.13,-1.564 3.89,-3.432 5.28,-5.604c1.566,-2.432 2.695,-5.039 3.391,-7.817c0.348,-1.564 0.544,-3.128 0.587,-4.692c0.088,-2.867 -0.239,-5.69 -0.979,-8.471c-0.347,-1.345 -0.825,-2.627 -1.433,-3.843c-0.435,-0.782 -0.848,-1.541 -1.239,-2.281c-1.131,-2.301 -2.521,-4.451 -4.172,-6.448c-1.869,-2.26 -4.108,-4.084 -6.716,-5.473c-2.607,-1.39 -5.345,-2.238 -8.213,-2.542c-0.696,-0.086 -1.391,-0.152 -2.087,-0.196c-0.781,-0.044 -1.585,-0.086 -2.412,-0.129c-2.304,-0.129 -4.541,-0.023 -6.715,0.325c0.956,1.303 1.87,2.671 2.738,4.106c0.392,0.694 0.74,1.389 1.044,2.084c1.26,2.997 2.02,6.124 2.281,9.382c0.044,0.695 0.152,1.39 0.325,2.084c0.218,1.042 0.262,2.128 0.131,3.258c-0.087,0.694 -0.151,1.39 -0.196,2.086c-0.303,3.212 -1.324,6.232 -3.063,9.054c-0.434,0.741 -0.892,1.477 -1.369,2.216c-1.652,2.606 -3.499,5.061 -5.541,7.362c-0.522,0.61 -1.087,1.13 -1.696,1.566c-0.651,0.605 -1.347,1.149 -2.086,1.628c-2.477,1.866 -5.15,3.43 -8.018,4.69c-0.695,0.304 -1.37,0.564 -2.022,0.78c0.87,0.654 1.826,1.239 2.868,1.762c2.435,1.085 4.956,1.912 7.563,2.474c0.565,0.044 1.108,0.131 1.629,0.26c0.783,0.131 1.566,0.263 2.348,0.392Zm3.064,-55.184c-0.521,-0.737 -1.065,-1.454 -1.629,-2.15c-0.436,-0.478 -0.913,-0.978 -1.435,-1.498c-2.39,-2.129 -5.15,-3.605 -8.28,-4.43c-1.39,-0.348 -2.802,-0.61 -4.237,-0.783c-3.216,-0.433 -6.411,-0.173 -9.583,0.783c-1,0.302 -1.978,0.585 -2.934,0.846c-0.956,0.218 -1.89,0.608 -2.803,1.172c-0.652,0.436 -1.304,0.827 -1.956,1.174c-2.912,1.694 -5.499,3.713 -7.757,6.06c-2.174,2.302 -3.804,4.908 -4.891,7.817c-0.303,0.739 -0.608,1.477 -0.912,2.215c-0.217,0.392 -0.413,0.782 -0.587,1.174c-0.217,0.432 -0.39,0.868 -0.521,1.302c-0.565,1.521 -0.935,2.845 -1.109,3.974c-0.174,1.174 -0.283,2.628 -0.326,4.367c-0.042,1.736 0.283,4.06 0.979,6.971c0.564,2.866 1.499,5.82 2.803,8.86c0.304,0.782 0.717,1.498 1.238,2.15c1.522,2.042 3.282,3.844 5.28,5.407c0.304,0.26 0.61,0.5 0.914,0.717c2.608,1.956 5.498,3.41 8.67,4.366c0.435,0.129 0.891,0.26 1.37,0.39c0.086,0 0.194,0.022 0.325,0.066c0.261,0 0.523,0.021 0.783,0.065c0.086,0 0.196,0.021 0.325,0.065c0.652,0.087 1.327,0.152 2.021,0.195c2.304,0.044 4.564,-0.281 6.78,-0.979m-28.945,-39.09c-0.783,-0.564 -1.587,-1.107 -2.412,-1.63c-1.783,-1.214 -3.716,-2.192 -5.803,-2.93c-0.825,-0.26 -1.673,-0.522 -2.542,-0.783c-1.738,-0.521 -3.499,-0.715 -5.28,-0.585c-1.218,0.173 -2.435,0.412 -3.651,0.716c-0.521,0.174 -1.065,0.348 -1.631,0.522c-1.998,0.607 -3.868,1.519 -5.605,2.736c-0.783,0.607 -1.565,1.216 -2.348,1.824c-1.608,1.39 -3.064,2.911 -4.368,4.562c-1.173,1.606 -2.259,3.3 -3.259,5.081c-1.086,1.909 -2.044,3.865 -2.868,5.864c-0.478,1.215 -0.761,2.453 -0.848,3.713c-0.044,0.566 -0.088,1.152 -0.13,1.758c-0.088,1.13 -0.131,2.282 -0.131,3.454c0.043,0.347 0.088,0.674 0.131,0.978c0.086,0.39 0.196,0.76 0.325,1.108c0.523,1.346 1.131,2.67 1.825,3.973c0.392,0.608 0.783,1.217 1.174,1.824c1.086,1.607 2.348,3.107 3.781,4.496c1.087,1.173 2.281,2.26 3.585,3.257c1.348,1.043 2.782,1.978 4.304,2.803c1.043,0.607 2.13,1.128 3.259,1.563c1.479,0.521 2.956,0.977 4.433,1.369c1.043,0.173 2.087,0.281 3.13,0.327c1.696,0.085 3.368,-0.09 5.02,-0.523c1.608,-0.433 3.216,-0.956 4.824,-1.564c1.217,-0.52 2.434,-1.108 3.652,-1.759c0.216,-0.13 0.433,-0.261 0.65,-0.39l0.262,-0.131c0.129,-0.044 0.217,-0.088 0.26,-0.129c1.565,-1 3.021,-2.087 4.368,-3.258c1.392,-1.217 2.608,-2.564 3.65,-4.041m-8.278,7.428c-0.044,0.131 -0.11,0.239 -0.196,0.325c-0.391,0.783 -0.782,1.564 -1.174,2.346c-0.173,0.434 -0.39,0.89 -0.652,1.369c-0.565,1.215 -1.152,2.453 -1.76,3.713c0.739,-0.217 1.456,-0.5 2.152,-0.848c0.478,-0.216 0.934,-0.456 1.368,-0.717c0.566,-0.303 1.087,-0.607 1.566,-0.912c0.217,-0.129 0.412,-0.259 0.586,-0.389c1.566,-1 3.195,-1.934 4.89,-2.803c0.39,-0.173 0.761,-0.369 1.108,-0.585c-0.174,0 -0.327,-0.022 -0.456,-0.066c-1.043,-0.346 -2.131,-0.608 -3.26,-0.782c-1.304,-0.13 -2.608,-0.391 -3.912,-0.78m-0.456,0.454l-0.066,-0.194m40.551,10.816c-1.304,2.43 -2.587,4.842 -3.847,7.23c-1.129,2.084 -2.194,4.192 -3.194,6.319c-0.522,1.044 -1.043,2.108 -1.564,3.193c-0.348,0.738 -0.718,1.478 -1.11,2.215c-1.304,2.52 -2.628,5.039 -3.976,7.559c-0.434,0.825 -0.846,1.65 -1.24,2.476c-0.26,0.565 -0.585,1.108 -0.977,1.629c-0.912,1.475 -1.868,3.019 -2.868,4.625c-0.391,0.651 -0.76,1.302 -1.108,1.955c-0.131,0.217 -0.219,0.433 -0.261,0.651l-0.131,0.13c-0.043,-0.173 -0.108,-0.348 -0.195,-0.52c-0.086,-0.349 -0.196,-0.696 -0.326,-1.044c-0.564,-1.562 -1.195,-3.105 -1.891,-4.626c-1.173,-2.648 -2.303,-5.276 -3.389,-7.883c-0.479,-1.172 -0.979,-2.365 -1.499,-3.584c-1.044,-2.257 -1.979,-4.56 -2.804,-6.905c-0.565,-1.39 -1.108,-2.802 -1.631,-4.235c-0.998,-2.563 -2.02,-5.125 -3.062,-7.688c-0.654,-1.563 -1.304,-3.105 -1.956,-4.627c-0.435,-0.956 -0.891,-1.932 -1.37,-2.93m18.775,-6.646c-0.043,0.303 -0.065,0.63 -0.065,0.978c1.174,1.302 2.39,2.562 3.652,3.777c0.348,0.392 0.694,0.783 1.042,1.173c0.304,0.391 0.608,0.782 0.912,1.175c-1.954,0.303 -3.932,0.541 -5.932,0.715c-0.173,2.216 -0.348,4.452 -0.521,6.71c-0.131,2.476 -0.196,4.954 -0.196,7.428l0,2.738c0.087,2.473 0.175,4.928 0.261,7.361c0,0.956 0.043,1.911 0.131,2.867c0.131,2.432 0.237,4.842 0.325,7.232c0.043,1.346 0.043,2.692 0,4.04c0.043,1.258 0.088,2.497 0.131,3.713m0.195,-48.929c-0.347,-0.348 -0.695,-0.716 -1.043,-1.108m-0.325,-0.066c-0.262,0.218 -0.5,0.435 -0.718,0.651c-0.696,0.784 -1.369,1.564 -2.021,2.345c-1.173,1.304 -2.433,2.52 -3.78,3.65c-0.783,0.694 -1.565,1.368 -2.348,2.021c2.564,-0.219 5.129,-0.392 7.693,-0.524c0.739,-0.041 1.478,-0.085 2.216,-0.129m20.015,4.888c-0.305,-0.088 -0.588,-0.198 -0.848,-0.327c-1.955,-0.565 -3.912,-1.152 -5.867,-1.76c-1.522,-0.391 -2.956,-0.868 -4.304,-1.433c0.827,-0.391 1.652,-0.738 2.478,-1.042c0.434,-0.13 0.826,-0.304 1.174,-0.521c1.347,-0.825 2.76,-1.497 4.238,-2.02c0.433,-0.175 0.825,-0.348 1.173,-0.523c1.085,-0.52 2.151,-0.976 3.193,-1.368m3.718,0.654c-0.218,0.26 -0.414,0.542 -0.587,0.845l0,0.067c0.956,1.606 1.847,3.322 2.672,5.146c0.217,0.52 0.523,0.999 0.913,1.434c0.218,0.217 0.456,0.456 0.716,0.717c0.436,0.563 0.848,1.151 1.24,1.759c-0.304,-0.043 -0.565,-0.087 -0.782,-0.131c-2.695,-0.261 -5.368,-0.695 -8.019,-1.304c-0.392,-0.044 -0.761,-0.108 -1.108,-0.193m4.368,-7.428c-0.261,-0.391 -0.523,-0.782 -0.783,-1.174m-24.056,46.064c0.174,0.086 0.283,0.215 0.326,0.39" style="fill:none;fill-rule:nonzero;stroke:#3267a4;stroke-width:2px;"/></g></svg>