<?xml version="1.0" encoding="UTF-8" standalone="no"?><!DOCTYPE svg PUBLIC "-//W3C//DTD SVG 1.1//EN" "http://www.w3.org/Graphics/SVG/1.1/DTD/svg11.dtd"><svg width="100%" height="100%" viewBox="0 0 142 93" version="1.1" xmlns="http://www.w3.org/2000/svg" xmlns:xlink="http://www.w3.org/1999/xlink" xml:space="preserve" xmlns:serif="http://www.serif.com/" style="fill-rule:evenodd;clip-rule:evenodd;stroke-linecap:round;stroke-linejoin:round;stroke-miterlimit:3;"><g><path id="path24012" d="M11.707,76.007c-2.851,-2.135 -5.156,-4.393 -6.923,-6.777c-3.188,-4.235 -4.784,-8.807 -4.784,-13.718c0,-8.326 4.547,-15.657 13.641,-21.99c2.103,-1.495 4.48,-2.918 7.127,-4.271c0.068,-0.035 0.168,-0.071 0.303,-0.104c13.777,-7.191 30.404,-10.784 49.878,-10.784c1.835,0 3.666,0.017 5.496,0.055c6.243,0.248 12.216,0.889 17.915,1.92c9.775,1.778 18.631,4.752 26.573,8.913c13.842,7.26 20.762,16.013 20.762,26.261c0,1.567 -0.168,3.06 -0.508,4.483c-1.02,4.696 -3.599,9.056 -7.736,13.076c-3.188,3.097 -7.364,5.98 -12.518,8.647c-13.778,7.26 -30.437,10.889 -49.984,10.889c-19.61,0 -36.34,-3.629 -50.181,-10.889c-3.463,-1.814 -6.481,-3.718 -9.061,-5.711" style="fill:#fab7c3;fill-rule:nonzero;"/><path id="path24128" d="M61.165,29.657c-0.043,1.868 -0.172,3.669 -0.391,5.407c0,0.173 -0.129,2.432 -0.391,6.774c0.262,-4.342 0.391,-6.601 0.391,-6.774c0.219,-1.738 0.348,-3.539 0.391,-5.407c0.478,0 0.977,0.044 1.498,0.129c0.739,0 1.478,0.023 2.216,0.066c1.78,0.132 3.516,0.346 5.211,0.652c0.52,0.13 1.041,0.196 1.561,0.196c3.303,0.302 6.647,0.434 10.034,0.39c0.436,0 0.868,0.022 1.302,0.064c1.216,0.175 2.412,0.283 3.583,0.327c0.175,0 0.327,0.021 0.457,0.065c0.086,0 0.194,0.02 0.326,0.066c1.693,0.173 3.344,0.412 4.95,0.717c0.13,0 0.283,0.021 0.456,0.064c-0.13,0.652 -0.24,1.325 -0.326,2.02c-0.608,3.735 -1.194,7.511 -1.758,11.333c-0.305,1.911 -0.652,3.822 -1.042,5.734c-0.088,0.39 -0.175,0.781 -0.26,1.172l-0.458,0c-1.562,0 -3.104,-0.044 -4.625,-0.13c-3.387,-0.13 -6.753,-0.282 -10.096,-0.457c-0.695,-0.044 -1.368,-0.087 -2.019,-0.129c-0.738,-0.087 -1.433,-0.175 -2.085,-0.262c-1.999,-0.217 -3.996,-0.456 -5.993,-0.716c-3.215,-0.39 -6.383,-0.868 -9.511,-1.432c-0.175,-0.045 -0.325,-0.089 -0.455,-0.132c0.215,-3.473 0.63,-6.926 1.236,-10.357c0.566,-3.169 1.087,-6.34 1.564,-9.511c1.434,0.043 2.846,0.087 4.234,0.131m25.862,1.889c-0.045,0.392 -0.066,0.76 -0.066,1.107c0,0.913 -0.043,1.803 -0.13,2.672c-0.174,1.736 -0.369,3.473 -0.588,5.211c0.219,-1.738 0.414,-3.475 0.588,-5.211c0.087,-0.869 0.13,-1.759 0.13,-2.672c0,-0.347 0.021,-0.715 0.066,-1.107" style="fill:#ed1770;fill-rule:nonzero;"/><path id="path24132" d="M95.321,60.967c0.39,-2.045 0.781,-4.111 1.173,-6.199c0.696,-3.784 1.349,-7.568 1.957,-11.352c0.218,-1.174 0.412,-2.326 0.586,-3.457c0.697,-3.611 1.392,-7.2 2.086,-10.767c0.739,-3.782 1.414,-7.566 2.023,-11.35c0.173,-1.046 0.368,-2.11 0.585,-3.198c0.566,-2.174 1.262,-6.154 2.087,-11.94l0,-0.064c-2.781,-0.174 -4.26,-0.282 -4.432,-0.326c-0.393,-0.043 -1.261,-0.132 -2.608,-0.262c-1.349,-0.086 -2.979,-0.174 -4.892,-0.261c-1.955,-0.044 -3.739,-0.064 -5.347,-0.064c-0.129,2.175 -0.304,4.371 -0.52,6.588c-0.089,0.784 -0.13,1.545 -0.13,2.284c-0.044,3.609 -0.196,7.176 -0.458,10.7c-0.26,3.305 -0.39,6.611 -0.39,9.917c0.086,0 0.194,0.02 0.325,0.066c1.696,0.173 3.348,0.412 4.956,0.717c0.129,0 0.283,0.021 0.456,0.064c-0.129,0.653 -0.24,1.328 -0.327,2.024c-0.608,3.74 -1.194,7.523 -1.76,11.351c-0.304,1.914 -0.652,3.828 -1.042,5.742c-0.088,0.391 -0.175,0.783 -0.26,1.174l-0.459,0c-1.564,0 -3.107,-0.043 -4.628,-0.13c-3.391,-0.13 -6.761,-0.282 -10.107,-0.458c-0.696,-0.043 -1.369,-0.086 -2.021,-0.13c-0.739,-0.086 -1.435,-0.174 -2.085,-0.261c-2.002,-0.217 -4.002,-0.456 -6,-0.717c-3.218,-0.391 -6.39,-0.87 -9.519,-1.435c-0.175,-0.044 -0.327,-0.088 -0.457,-0.131c0.216,-3.48 0.63,-6.938 1.238,-10.373c0.566,-3.175 1.088,-6.351 1.566,-9.527c1.434,0.044 2.848,0.088 4.237,0.132c0.479,0 0.977,0.043 1.5,0.13c0.739,0 1.479,0.021 2.217,0.065c1.782,0.132 3.52,0.348 5.218,0.652c0.52,0.132 1.041,0.197 1.562,0.197c3.306,0.303 6.652,0.435 10.042,0.391c0.436,0 0.869,0.023 1.304,0.064c1.217,0.176 2.414,0.284 3.586,0.327c0.175,0 0.327,0.022 0.458,0.066c-0.046,0.392 -0.067,0.762 -0.067,1.108c0,0.915 -0.043,1.806 -0.129,2.676c-0.176,1.739 -0.37,3.479 -0.588,5.219m-25.103,-10.895c0,-0.393 0.044,-0.848 0.131,-1.37c0,-0.523 0.022,-0.935 0.065,-1.239c0,-0.263 0.044,-0.892 0.131,-1.893c0.085,-1.043 0.238,-2.567 0.457,-4.567c0.391,-3.913 0.737,-7.807 1.043,-11.679c0.085,-0.738 0.152,-1.501 0.194,-2.282c0.044,-1.566 0.11,-3.088 0.196,-4.567c-1.781,-0.088 -3.521,-0.219 -5.216,-0.392c-3.302,-0.261 -6.606,-0.369 -9.91,-0.325l0,2.738c-0.046,1.219 -0.11,2.894 -0.196,5.026c-0.131,2.173 -0.196,4.5 -0.196,6.98c-0.044,2.522 -0.13,5.088 -0.26,7.698c-0.044,2.61 -0.067,5.611 -0.067,9.003c0,3.305 -0.043,6.047 -0.129,8.22c-0.174,2.175 -0.262,3.655 -0.262,4.437c-0.304,5.22 -0.802,10.396 -1.498,15.528m-25.43,-1.63c1.218,-2.786 2.435,-5.546 3.652,-8.287c0.262,-0.479 0.478,-0.979 0.652,-1.5c0.695,-1.567 1.412,-3.111 2.151,-4.633c1.477,-3.218 2.956,-6.414 4.435,-9.59c0.608,-1.262 1.238,-2.545 1.89,-3.85c1,-2 1.999,-4.002 2.999,-6.002c1.608,-3.176 3.239,-6.198 4.891,-9.069c1.608,-2.871 2.825,-5.263 3.65,-7.176c0.784,-1.913 2.023,-4.524 3.718,-7.829m12.909,28.25c-0.043,1.87 -0.172,3.675 -0.391,5.415c0,0.173 -0.13,2.436 -0.39,6.785m45.445,-38.82l0.131,0m-42.578,-0.977l4.89,0c3.174,-0.088 6.37,-0.131 9.585,-0.131c3.173,0 6.348,0.043 9.52,0.131l1.173,0m17.932,0.636c0.043,0.303 14.235,58.691 14.279,58.995c0.129,0.521 0.196,1.044 0.196,1.565m-25.625,-1.956c-0.175,0.825 -0.347,1.652 -0.522,2.477m-76.026,-0.913c0.13,-0.607 0.346,-1.173 0.652,-1.695c0.261,-0.61 0.521,-1.218 0.782,-1.826" style="fill:none;fill-rule:nonzero;stroke:#3267a4;stroke-width:2px;"/></g></svg>