<?xml version="1.0" encoding="UTF-8" standalone="no"?><!DOCTYPE svg PUBLIC "-//W3C//DTD SVG 1.1//EN" "http://www.w3.org/Graphics/SVG/1.1/DTD/svg11.dtd"><svg width="100%" height="100%" viewBox="0 0 110 127" version="1.1" xmlns="http://www.w3.org/2000/svg" xmlns:xlink="http://www.w3.org/1999/xlink" xml:space="preserve" xmlns:serif="http://www.serif.com/" style="fill-rule:evenodd;clip-rule:evenodd;stroke-linecap:round;stroke-linejoin:round;stroke-miterlimit:3;"><g><path id="path23992" d="M32.569,123.143c-5.692,-2.084 -10.934,-5.038 -15.73,-8.859c-0.263,-0.261 -0.5,-0.476 -0.712,-0.651c-10.751,-8.816 -16.127,-19.477 -16.127,-31.984c0,-0.609 0.027,-1.216 0.081,-1.825c0.158,-5.167 1.316,-10.052 3.478,-14.656c2.633,-5.689 6.825,-10.9 12.568,-15.635c10.75,-8.858 23.74,-13.286 38.972,-13.286c15.122,0 28.061,4.428 38.81,13.286c10.699,8.86 16.05,19.566 16.05,32.116l0,0.912c-0.055,4.299 -0.791,8.382 -2.215,12.246c-2.477,6.993 -7.088,13.268 -13.835,18.826c-10.749,8.859 -23.688,13.29 -38.81,13.29c-8.17,0 -15.68,-1.26 -22.53,-3.78" style="fill:#256830;fill-rule:nonzero;"/><path id="path24036" d="M16.312,34.559c8.371,-0.045 15.379,-0.068 21.022,-0.068c7.864,-0.046 14.221,0 19.077,0.138c4.767,0.14 9.459,0.254 14.085,0.345c4.856,0.095 9.715,0.164 14.57,0.211c3.932,0 7.888,0.022 11.864,0.069c-0.092,5.411 -0.186,10.892 -0.278,16.441c-0.093,5.738 -0.208,11.403 -0.346,16.999c-0.094,5.133 -0.208,10.245 -0.347,15.333c-0.048,2.407 -0.093,4.834 -0.14,7.286c-1.433,-0.047 -2.913,-0.094 -4.439,-0.14l-5.204,0c-1.757,-0.046 -3.516,-0.091 -5.272,-0.138c-1.712,0 -3.4,-0.024 -5.065,-0.068c-1.667,-0.049 -3.353,-0.073 -5.064,-0.073c-1.575,0 -3.145,-0.023 -4.72,-0.068c-1.619,-0.047 -3.237,-0.093 -4.856,-0.137c-1.525,0 -3.052,-0.024 -4.579,-0.07c-1.433,-0.046 -2.866,-0.093 -4.302,-0.14c-1.434,0 -2.89,-0.022 -4.37,-0.068c-1.388,0 -2.798,-0.024 -4.232,-0.069c-1.342,0 -2.684,-0.025 -4.024,-0.068c-1.296,-0.049 -2.614,-0.096 -3.954,-0.141c-1.251,0 -2.476,-0.023 -3.678,-0.07c-2.266,-0.046 -4.533,-0.092 -6.8,-0.138c-2.082,-0.047 -4.185,-0.071 -6.313,-0.071l-3.26,0c0.047,-5.643 0.115,-11.352 0.208,-17.136c0.045,-5.827 0.139,-11.448 0.277,-16.859c0.091,-5.457 0.116,-10.73 0.07,-15.82l0,-5.48l0.07,0Zm23.659,26.85c-0.141,3.052 -0.211,5.85 -0.211,8.394l0,7.772l16.791,0.555l16.999,0.555c0,-6.199 0.022,-11.632 0.069,-16.304c0.092,-7.492 0.229,-13.044 0.415,-16.652c-6.522,-0.23 -12.278,-0.392 -17.275,-0.484c-6.752,-0.232 -12.117,-0.415 -16.095,-0.556c-0.092,2.314 -0.256,6.06 -0.488,11.24c-0.09,1.896 -0.161,3.722 -0.205,5.48" style="fill:#edf050;fill-rule:nonzero;"/><path id="path24040" d="M96.929,35.254c-3.976,-0.046 -7.932,-0.069 -11.863,-0.069c-4.856,-0.047 -9.713,-0.116 -14.57,-0.211c-4.626,-0.09 -9.319,-0.205 -14.086,-0.345c-4.856,-0.137 -11.213,-0.184 -19.077,-0.137c-5.643,0 -12.651,0.022 -21.021,0.068c3.237,-3.054 5.456,-5.043 6.66,-5.967c1.156,-0.925 2.336,-1.943 3.537,-3.053c1.203,-1.156 2.383,-2.219 3.539,-3.192c0.97,-0.694 1.896,-1.41 2.776,-2.15c1.016,-0.786 2.034,-1.572 3.052,-2.36c1.064,-0.833 2.128,-1.686 3.19,-2.566c1.204,-0.832 2.406,-1.712 3.61,-2.636c1.202,-0.88 2.426,-1.779 3.676,-2.706c1.294,-0.88 2.59,-1.781 3.885,-2.706c1.248,-0.878 2.476,-1.78 3.679,-2.707c1.201,-0.831 2.402,-1.711 3.605,-2.636c0.371,-0.277 0.765,-0.555 1.181,-0.832c0.091,0.139 0.206,0.232 0.347,0.277c1.248,0.972 2.473,1.967 3.676,2.986c1.204,1.109 2.383,2.194 3.54,3.258c0.969,0.834 1.895,1.691 2.775,2.568c0.97,0.878 1.942,1.758 2.912,2.636c1.065,0.926 2.128,1.874 3.192,2.844c0.557,0.464 1.088,0.95 1.596,1.459c1.064,0.971 2.105,1.941 3.122,2.913c1.066,0.971 2.127,1.92 3.192,2.844c1.018,0.927 2.012,1.851 2.983,2.775c0.879,0.788 1.757,1.597 2.635,2.428c0.372,0.324 3.124,2.729 8.257,7.217" style="fill:#ed1770;fill-rule:nonzero;"/><path id="path24044" d="M73.619,62.381c-1.204,-0.046 -2.405,-0.093 -3.609,-0.137c-1.25,-0.047 -2.544,-0.119 -3.884,-0.209c-1.25,0 -2.498,-0.023 -3.748,-0.071l-1.735,0c-0.6,-0.045 -1.248,-0.092 -1.941,-0.139l-2.291,0l0,-0.554c0,-0.555 0.024,-1.086 0.071,-1.596l0,-1.595c0.048,-1.063 0.069,-2.128 0.069,-3.191l0,-2.916c0,-0.877 0.023,-1.801 0.069,-2.774c0.047,-0.786 0.07,-1.572 0.07,-2.359c0.045,-0.553 0.069,-1.087 0.069,-1.595c4.997,0.091 10.753,0.255 17.275,0.484c-0.186,3.608 -0.323,9.16 -0.415,16.652m-33.649,-0.972c0.045,-1.757 0.114,-3.584 0.206,-5.48c0.232,-5.18 0.396,-8.926 0.487,-11.24c3.979,0.142 9.344,0.324 16.096,0.556c0,0.508 -0.024,1.042 -0.069,1.595c0,0.787 -0.023,1.573 -0.07,2.359c-0.046,0.973 -0.069,1.897 -0.069,2.774l0,2.916c0,1.063 -0.021,2.128 -0.069,3.191l0,1.595c-0.047,0.51 -0.071,1.041 -0.071,1.596l0,0.554l2.291,0c0.693,0.047 1.341,0.094 1.941,0.139l1.735,0c1.25,0.048 2.498,0.071 3.748,0.071c1.34,0.09 2.634,0.162 3.884,0.209c1.204,0.044 2.405,0.091 3.609,0.137c-0.047,4.671 -0.069,10.106 -0.069,16.304l-16.999,-0.554c0,-0.51 -0.021,-1.019 -0.069,-1.527c-0.047,-1.017 -0.071,-2.035 -0.071,-3.053c-0.044,-1.156 -0.069,-2.334 -0.069,-3.538l0,-7.076c0,-0.372 0.025,-0.74 0.069,-1.112c-0.971,0 -1.917,-0.021 -2.844,-0.069c-1.063,0 -2.127,-0.023 -3.191,-0.069c-0.926,0 -1.873,-0.022 -2.844,-0.068l-2.637,0c-0.371,0 -0.763,-0.024 -1.179,-0.071c-0.693,0 -1.41,-0.023 -2.152,-0.068c-0.553,0 -1.088,-0.023 -1.594,-0.071c0.506,0.048 1.041,0.071 1.594,0.071c0.742,0.045 1.459,0.068 2.152,0.068c0.416,0.047 0.808,0.071 1.179,0.071l2.637,0c0.971,0.046 1.918,0.068 2.844,0.068c1.064,0.046 2.128,0.069 3.191,0.069c0.927,0.048 1.873,0.069 2.844,0.069c-0.044,0.372 -0.069,0.74 -0.069,1.112l0,7.076c0,1.204 0.025,2.382 0.069,3.538c0,1.018 0.024,2.036 0.071,3.053c0.048,0.508 0.069,1.017 0.069,1.527l-16.791,-0.556l0,-7.771c0,-2.544 0.07,-5.343 0.21,-8.395" style="fill:#fff;fill-rule:nonzero;"/><path id="path24048" d="M96.977,35.243c-0.092,5.416 -0.184,10.902 -0.277,16.458c-0.093,5.744 -0.208,11.415 -0.347,17.018c-0.093,5.138 -0.208,10.256 -0.348,15.349c-0.048,2.409 -0.092,4.839 -0.138,7.293c-1.435,-0.046 -2.919,-0.093 -4.444,-0.14l-5.212,0c-1.759,-0.045 -3.519,-0.092 -5.278,-0.138c-1.713,0 -3.404,-0.023 -5.072,-0.068c-1.668,-0.05 -3.356,-0.072 -5.069,-0.072c-1.576,0 -3.149,-0.024 -4.725,-0.068c-1.62,-0.047 -3.242,-0.094 -4.863,-0.139c-1.525,0 -3.055,-0.023 -4.583,-0.069c-1.436,-0.047 -2.87,-0.094 -4.308,-0.14c-1.434,0 -2.893,-0.023 -4.374,-0.068c-1.39,0 -2.803,-0.023 -4.238,-0.07c-1.344,0 -2.688,-0.025 -4.029,-0.068c-1.297,-0.049 -2.617,-0.096 -3.959,-0.141c-1.252,0 -2.48,-0.023 -3.682,-0.069c-2.27,-0.047 -4.539,-0.092 -6.808,-0.139c-2.084,-0.048 -4.191,-0.071 -6.322,-0.071l-3.262,0c0.046,-5.649 0.114,-11.365 0.208,-17.154c0.045,-5.834 0.138,-11.46 0.278,-16.878c0.09,-5.462 0.115,-10.741 0.068,-15.836l0,-5.486l0.071,0c3.241,-3.056 5.463,-5.047 6.668,-5.972c1.157,-0.927 2.339,-1.946 3.541,-3.058c1.204,-1.157 2.386,-2.22 3.544,-3.194c0.971,-0.695 1.898,-1.412 2.778,-2.152c1.018,-0.787 2.038,-1.575 3.056,-2.363c1.066,-0.833 2.13,-1.689 3.196,-2.569c1.205,-0.834 2.408,-1.714 3.613,-2.639c1.204,-0.881 2.429,-1.781 3.68,-2.708c1.296,-0.881 2.593,-1.783 3.889,-2.709c1.251,-0.879 2.479,-1.783 3.683,-2.711c1.203,-0.832 2.407,-1.712 3.611,-2.639c0.37,-0.277 0.765,-0.556 1.182,-0.833c0.091,0.14 0.207,0.233 0.347,0.277c1.249,0.974 2.476,1.97 3.68,2.99c1.205,1.11 2.387,2.197 3.545,3.262c0.971,0.834 1.898,1.692 2.778,2.571c0.972,0.879 1.944,1.759 2.916,2.639c1.066,0.926 2.13,1.876 3.196,2.848c0.557,0.464 1.088,0.949 1.597,1.458c1.065,0.972 2.108,1.943 3.127,2.918c1.065,0.972 2.129,1.921 3.194,2.846c1.02,0.928 2.015,1.854 2.987,2.778c0.88,0.789 1.76,1.6 2.639,2.432c0.372,0.324 3.126,2.73 8.266,7.224c-3.981,-0.047 -7.941,-0.07 -11.877,-0.07c-4.861,-0.046 -9.725,-0.116 -14.588,-0.21c-4.631,-0.092 -9.329,-0.207 -14.101,-0.346c-4.862,-0.138 -11.227,-0.185 -19.1,-0.138c-5.65,0 -12.667,0.024 -21.047,0.068m23.687,26.878c-0.142,3.056 -0.211,5.858 -0.211,8.404l0,7.779l16.811,0.557c0,-0.51 -0.022,-1.02 -0.07,-1.528c-0.046,-1.02 -0.07,-2.037 -0.07,-3.057c-0.044,-1.157 -0.068,-2.336 -0.068,-3.541l0,-7.084c0,-0.372 0.024,-0.74 0.068,-1.112c-0.972,0 -1.919,-0.023 -2.847,-0.071c-1.065,0 -2.129,-0.023 -3.196,-0.069c-0.925,0 -1.875,-0.022 -2.847,-0.068l-2.64,0c-0.372,0 -0.764,-0.024 -1.18,-0.07c-0.694,0 -1.412,-0.024 -2.154,-0.069c-0.555,0 -1.09,-0.023 -1.596,-0.071Zm16.808,-16.181c-6.759,-0.232 -12.132,-0.416 -16.114,-0.556c-0.092,2.316 -0.256,6.065 -0.488,11.251c-0.092,1.898 -0.161,3.726 -0.206,5.486m33.689,0.974c0.091,-7.502 0.229,-13.059 0.415,-16.67c-6.53,-0.229 -12.292,-0.393 -17.296,-0.485c0,0.508 -0.023,1.043 -0.068,1.597c0,0.787 -0.024,1.575 -0.07,2.36c-0.046,0.975 -0.07,1.899 -0.07,2.778l0,2.918c0,1.066 -0.022,2.131 -0.07,3.196l0,1.596c-0.046,0.511 -0.07,1.043 -0.07,1.598l0,0.556l2.294,0c0.694,0.046 1.342,0.092 1.943,0.137l1.737,0c1.252,0.048 2.502,0.072 3.751,0.072c1.343,0.091 2.64,0.163 3.891,0.208c1.205,0.045 2.408,0.092 3.613,0.139Zm-17.089,15.766l17.018,0.555c0,-6.205 0.024,-11.645 0.071,-16.321" style="fill:none;fill-rule:nonzero;stroke:#3267a4;stroke-width:2px;"/></g></svg>