<?xml version="1.0" encoding="UTF-8" standalone="no"?><!DOCTYPE svg PUBLIC "-//W3C//DTD SVG 1.1//EN" "http://www.w3.org/Graphics/SVG/1.1/DTD/svg11.dtd"><svg width="100%" height="100%" viewBox="0 0 95 100" version="1.1" xmlns="http://www.w3.org/2000/svg" xmlns:xlink="http://www.w3.org/1999/xlink" xml:space="preserve" xmlns:serif="http://www.serif.com/" style="fill-rule:evenodd;clip-rule:evenodd;stroke-linecap:round;stroke-linejoin:round;stroke-miterlimit:3;"><g><path id="path23988" d="M30.334,96.47c-6.014,-2.307 -11.46,-5.9 -16.343,-10.784c-2.352,-2.351 -4.387,-4.815 -6.105,-7.391c-5.155,-7.596 -7.731,-16.232 -7.731,-25.908c0,-9.222 2.305,-17.473 6.917,-24.754c1.899,-3.074 4.206,-5.967 6.919,-8.68c0.903,-0.86 1.807,-1.672 2.711,-2.44c6.737,-5.879 14.401,-9.474 22.99,-10.783c2.532,-0.409 5.11,-0.612 7.732,-0.612c2.578,0 5.087,0.181 7.527,0.543c9.812,1.448 18.403,5.878 25.772,13.292c9.224,9.224 13.836,20.369 13.836,33.434c0,12.027 -3.933,22.426 -11.801,31.198c-0.678,0.722 -1.356,1.424 -2.035,2.101c-2.937,2.984 -6.104,5.473 -9.495,7.461c-7.053,4.251 -14.988,6.375 -23.804,6.375c-0.994,0 -1.966,-0.023 -2.916,-0.068c-5.018,-0.272 -9.744,-1.267 -14.174,-2.984" style="fill:#f5f79a;fill-rule:nonzero;"/><path id="path24068" d="M11.427,1.048l0.332,0.055c0.7,0.112 1.419,0.239 2.155,0.388c0.738,0.147 1.493,0.296 2.266,0.44c0.407,0.077 0.811,0.132 1.216,0.168c0.663,0.148 1.31,0.312 1.935,0.496c0.185,0.037 0.351,0.093 0.497,0.167c0.222,0.074 0.479,0.148 0.775,0.221c-0.221,0.517 -0.405,1.032 -0.553,1.548c-0.074,0.183 -0.13,0.368 -0.167,0.552l-0.055,0.277c-0.074,0.222 -0.165,0.442 -0.276,0.663c-0.405,-0.185 -0.829,-0.312 -1.27,-0.387c-0.702,-0.148 -1.402,-0.293 -2.102,-0.444c-0.404,-0.109 -0.81,-0.22 -1.216,-0.33c-0.441,-0.111 -0.902,-0.24 -1.381,-0.386c-0.48,-0.076 -0.957,-0.148 -1.437,-0.222c-0.258,-0.038 -0.534,-0.071 -0.83,-0.111c-0.33,-0.037 -0.644,-0.111 -0.938,-0.22l0.056,-0.168c0.182,-0.515 0.349,-1.032 0.496,-1.547c0.148,-0.368 0.294,-0.754 0.442,-1.16l0.055,0Zm27.304,10.778c0.072,-0.186 0.111,-0.331 0.111,-0.442c0.109,-0.406 0.238,-0.829 0.385,-1.272c0.148,0.036 0.277,0.074 0.387,0.112c0.665,0.222 1.328,0.44 1.992,0.662c0.146,0.112 0.33,0.184 0.552,0.222c0.662,0.22 1.289,0.442 1.878,0.663c0.7,0.257 1.399,0.497 2.099,0.719c0.627,0.258 1.272,0.533 1.936,0.829c0.111,0.072 0.239,0.128 0.387,0.163l0.276,0.168l-0.111,0.332l-0.111,0.277c-0.257,0.736 -0.514,1.417 -0.773,2.043l-0.111,0c-0.664,-0.331 -1.344,-0.57 -2.045,-0.718c-0.7,-0.184 -1.4,-0.332 -2.1,-0.442c-0.221,-0.074 -0.441,-0.147 -0.663,-0.223c-0.662,-0.256 -1.326,-0.496 -1.989,-0.716c-0.701,-0.221 -1.381,-0.388 -2.047,-0.499c-0.184,-0.073 -0.366,-0.128 -0.552,-0.166c0.186,-0.44 0.314,-0.883 0.388,-1.326c0.036,-0.112 0.074,-0.238 0.111,-0.386m29.733,56.098c1.031,-0.221 2.008,-0.11 2.93,0.331c0.221,0.073 0.405,0.203 0.552,0.387c0.222,0.222 0.424,0.442 0.609,0.664c0.109,0.994 0,1.97 -0.332,2.929c-0.369,1.288 -1.197,1.916 -2.487,1.879c-0.258,0 -0.534,-0.039 -0.829,-0.111c-0.552,-0.111 -0.995,-0.405 -1.327,-0.884c-0.148,-0.257 -0.294,-0.499 -0.442,-0.719c-0.663,-0.958 -0.682,-2.062 -0.055,-3.316c0.295,-0.626 0.756,-1.013 1.381,-1.16m-53.389,-16.029c-0.295,0.775 -0.589,1.548 -0.884,2.321c0.295,-0.773 0.589,-1.546 0.884,-2.321l0.111,0c0.994,0.443 1.621,1.217 1.88,2.321c0.036,0.295 0,0.646 -0.112,1.051c-0.258,1.18 -0.884,2.1 -1.879,2.761c-0.995,0.592 -1.989,0.814 -2.984,0.664c-0.811,-0.11 -1.511,-0.552 -2.101,-1.325c-0.626,-0.995 -0.588,-2.044 0.112,-3.151c1.068,-1.732 2.43,-2.56 4.089,-2.485c0.295,0.036 0.589,0.092 0.884,0.164" style="fill:#ed1770;fill-rule:nonzero;"/><path id="path24072" d="M72.058,57.09c2.026,0.332 3.832,1.051 5.416,2.156c1.584,1.068 2.708,2.101 3.372,3.095c0.736,0.921 1.233,1.604 1.49,2.044c0.259,0.48 0.462,1.033 0.608,1.66c0.148,0.662 0.314,1.325 0.499,1.989c-0.037,1.805 -0.424,3.593 -1.161,5.361c-0.258,0.626 -0.498,1.234 -0.718,1.824c-0.774,2.063 -2.028,3.832 -3.758,5.306c-0.443,0.368 -0.922,0.756 -1.438,1.16c-1.585,1.326 -3.372,2.193 -5.361,2.598c-0.479,0.111 -0.995,0.183 -1.547,0.22c-2.026,0.075 -3.888,-0.332 -5.582,-1.214c-0.442,-0.259 -0.866,-0.554 -1.271,-0.886c-1.512,-1.216 -2.801,-2.653 -3.869,-4.31c-0.995,-1.658 -1.53,-3.482 -1.603,-5.472c-0.111,-2.099 0.203,-4.163 0.939,-6.188c0.296,-0.666 0.59,-1.31 0.885,-1.935c0.22,-0.407 0.46,-0.812 0.719,-1.217c1.178,-1.732 2.652,-3.223 4.421,-4.476c1.511,-0.996 3.149,-1.642 4.919,-1.936c0.589,-0.072 1.16,-0.055 1.713,0.056c0.443,0.073 0.884,0.129 1.327,0.165m1.16,5.251c-0.626,-0.184 -1.252,-0.368 -1.879,-0.552c-0.995,-0.295 -2.027,-0.315 -3.096,-0.055c-0.995,0.221 -1.935,0.699 -2.817,1.437c-0.775,0.7 -1.456,1.454 -2.046,2.264c-0.626,0.923 -1.088,1.899 -1.381,2.931c-0.111,0.293 -0.165,0.571 -0.165,0.829c-0.186,1.068 -0.203,2.118 -0.056,3.15c0.072,0.921 0.257,1.841 0.552,2.765c0.184,0.587 0.442,1.16 0.773,1.712c0.517,0.92 1.18,1.695 1.991,2.323c0.221,0.182 0.46,0.368 0.718,0.552c0.406,0.368 0.92,0.608 1.547,0.717c0.7,0.147 1.456,0.24 2.267,0.275c0.33,0 0.644,0.018 0.94,0.058c0.7,0.036 1.4,-0.093 2.098,-0.388c0.222,-0.074 0.48,-0.182 0.775,-0.332c0.221,-0.148 0.441,-0.294 0.664,-0.442c0.957,-0.627 1.823,-1.363 2.597,-2.211c0.774,-0.736 1.344,-1.601 1.714,-2.597c0.11,-0.296 0.238,-0.608 0.386,-0.939c0.258,-0.591 0.424,-1.161 0.496,-1.716c0.075,-0.735 0.056,-1.453 -0.053,-2.153c-0.075,-0.295 -0.165,-0.591 -0.277,-0.884c-0.074,-0.515 -0.222,-1.014 -0.442,-1.492c-0.442,-0.886 -0.994,-1.659 -1.658,-2.323c-0.186,-0.256 -0.387,-0.477 -0.608,-0.663c-0.7,-0.736 -1.492,-1.364 -2.378,-1.88c-0.182,-0.182 -0.405,-0.312 -0.662,-0.386m-55.159,-19.343c-0.219,0.625 -0.404,1.252 -0.552,1.877c-0.111,0.554 -0.277,1.107 -0.497,1.659c0.22,-0.552 0.386,-1.105 0.497,-1.659c0.148,-0.625 0.333,-1.252 0.552,-1.877c1.659,0.551 3.077,1.381 4.256,2.487c1.548,1.364 2.507,3.038 2.875,5.029c0.368,1.584 0.442,3.225 0.22,4.919c-0.183,2.1 -0.699,4.164 -1.547,6.19c-0.847,2.138 -2.192,3.906 -4.035,5.306c-0.552,0.441 -1.105,0.866 -1.657,1.27c-0.479,0.295 -0.921,0.516 -1.327,0.666c-2.137,0.846 -3.813,1.214 -5.029,1.104c-1.253,-0.222 -2.192,-0.443 -2.819,-0.664c-0.626,-0.147 -1.51,-0.57 -2.653,-1.271c-1.216,-0.7 -2.321,-1.897 -3.316,-3.592c-0.332,-0.516 -0.644,-1.087 -0.94,-1.715c-0.553,-1.104 -0.884,-2.338 -0.995,-3.701c-0.146,-2.101 0.075,-4.183 0.664,-6.245c0.331,-1.182 0.866,-2.323 1.603,-3.428c1.252,-1.843 2.855,-3.335 4.808,-4.478c1.879,-1.14 3.849,-1.896 5.913,-2.262c0.516,-0.076 1.05,-0.112 1.604,-0.112c0.478,-0.039 0.958,0.017 1.436,0.165c0.37,0.072 0.682,0.184 0.939,0.332m-1.049,3.536c-0.663,-0.405 -1.419,-0.663 -2.267,-0.773c-2.173,-0.443 -4.236,0.184 -6.189,1.878c-0.774,0.738 -1.419,1.567 -1.935,2.49c-0.22,0.366 -0.516,1.066 -0.884,2.097c-0.368,0.996 -0.645,2.009 -0.828,3.041c-0.149,1.07 -0.203,1.896 -0.167,2.487c-0.036,0.589 0.055,1.252 0.276,1.989c0.222,0.738 0.626,1.53 1.216,2.376c0.59,0.884 1.254,1.531 1.991,1.935c0.736,0.444 1.767,0.848 3.093,1.216c1.364,0.368 3.04,-0.017 5.031,-1.16c1.989,-1.031 3.463,-2.579 4.421,-4.643c0.147,-0.294 0.276,-0.626 0.387,-0.994c0.109,-0.295 0.203,-0.627 0.277,-0.995c0.699,-2.173 0.662,-4.292 -0.112,-6.357c-0.221,-0.59 -0.497,-1.122 -0.828,-1.6c-0.221,-0.223 -0.424,-0.462 -0.609,-0.72c-0.809,-0.995 -1.768,-1.751 -2.873,-2.267" style="fill:#231f20;fill-rule:nonzero;"/><path id="path24076" d="M73.218,62.413c0.257,0.073 0.479,0.203 0.663,0.385c0.885,0.514 1.677,1.139 2.376,1.872c0.222,0.184 0.424,0.406 0.609,0.66c0.664,0.662 1.216,1.432 1.657,2.314c0.222,0.477 0.37,0.973 0.443,1.485c0.111,0.293 0.203,0.588 0.276,0.881c0.111,0.698 0.129,1.414 0.055,2.146c-0.072,0.553 -0.239,1.121 -0.496,1.709c-0.148,0.329 -0.278,0.641 -0.388,0.935c-0.37,0.992 -0.939,1.854 -1.712,2.586c-0.775,0.846 -1.64,1.579 -2.599,2.203c-0.221,0.148 -0.441,0.295 -0.664,0.441c-0.293,0.148 -0.552,0.258 -0.773,0.331c-0.699,0.293 -1.4,0.423 -2.1,0.385c-0.295,-0.038 -0.608,-0.057 -0.94,-0.057c-0.81,-0.035 -1.566,-0.127 -2.266,-0.275c-0.626,-0.108 -1.141,-0.348 -1.546,-0.713c-0.259,-0.184 -0.499,-0.368 -0.719,-0.551c-0.812,-0.625 -1.475,-1.396 -1.991,-2.313c-0.33,-0.551 -0.589,-1.121 -0.773,-1.705c-0.296,-0.92 -0.48,-1.836 -0.552,-2.754c-0.148,-1.028 -0.129,-2.073 0.055,-3.138c0,-0.258 0.054,-0.534 0.165,-0.826c0.295,-1.028 0.756,-2 1.381,-2.918c0.591,-0.808 1.272,-1.559 2.047,-2.256c0.883,-0.736 1.823,-1.212 2.817,-1.432c1.07,-0.259 2.102,-0.239 3.096,0.054c0.627,0.184 1.254,0.367 1.879,0.551m-4.753,5.561c-0.627,0.147 -1.087,0.531 -1.382,1.155c-0.626,1.249 -0.608,2.349 0.055,3.304c0.148,0.22 0.295,0.459 0.443,0.716c0.332,0.477 0.773,0.769 1.325,0.88c0.296,0.072 0.572,0.111 0.829,0.111c1.291,0.037 2.119,-0.588 2.488,-1.872c0.331,-0.955 0.442,-1.927 0.331,-2.918c-0.184,-0.221 -0.385,-0.44 -0.608,-0.661c-0.147,-0.184 -0.331,-0.312 -0.552,-0.385c-0.921,-0.44 -1.899,-0.551 -2.929,-0.33m-53.39,-15.966c-0.294,-0.072 -0.589,-0.128 -0.884,-0.164c-1.658,-0.075 -3.021,0.75 -4.089,2.476c-0.7,1.102 -0.739,2.148 -0.112,3.138c0.591,0.771 1.291,1.211 2.101,1.32c0.995,0.148 1.99,-0.072 2.984,-0.661c0.995,-0.659 1.62,-1.575 1.879,-2.749c0.111,-0.404 0.148,-0.754 0.111,-1.048c-0.259,-1.1 -0.884,-1.872 -1.879,-2.312l-0.111,0c0.479,-1.32 0.959,-2.606 1.436,-3.854c0.184,-0.552 0.351,-1.045 0.499,-1.486c1.105,0.514 2.063,1.268 2.873,2.257c0.186,0.259 0.388,0.496 0.61,0.717c0.33,0.476 0.606,1.007 0.828,1.595c0.773,2.057 0.81,4.167 0.11,6.332c-0.073,0.367 -0.166,0.697 -0.276,0.991c-0.11,0.366 -0.24,0.697 -0.386,0.99c-0.959,2.056 -2.434,3.599 -4.423,4.626c-1.989,1.137 -3.665,1.521 -5.029,1.154c-1.327,-0.366 -2.358,-0.769 -3.094,-1.21c-0.737,-0.403 -1.401,-1.047 -1.99,-1.927c-0.591,-0.845 -0.995,-1.633 -1.216,-2.368c-0.222,-0.733 -0.314,-1.395 -0.278,-1.981c-0.036,-0.588 0.019,-1.412 0.167,-2.476c0.184,-1.028 0.46,-2.039 0.829,-3.03c0.368,-1.026 0.663,-1.724 0.884,-2.09c0.516,-0.919 1.16,-1.744 1.935,-2.479c1.952,-1.688 4.016,-2.312 6.189,-1.872c0.848,0.111 1.603,0.367 2.267,0.771c-0.148,0.441 -0.315,0.934 -0.499,1.486c-0.477,1.248 -0.957,2.534 -1.436,3.854" style="fill:#fff;fill-rule:nonzero;"/><path id="path24080" d="M11.391,1l-0.055,0c-0.148,0.405 -0.295,0.792 -0.443,1.161c-0.146,0.516 -0.313,1.034 -0.497,1.548l-0.056,0.17c0.295,0.109 0.608,0.182 0.94,0.22c0.296,0.038 0.572,0.073 0.831,0.11c0.48,0.075 0.958,0.147 1.438,0.223c0.48,0.145 0.94,0.276 1.383,0.387c0.405,0.11 0.812,0.221 1.217,0.33c0.702,0.15 1.402,0.296 2.104,0.444c0.442,0.075 0.866,0.203 1.272,0.387c0.111,-0.221 0.202,-0.441 0.276,-0.663l0.055,-0.277c0.037,-0.185 0.093,-0.371 0.167,-0.553c0.148,-0.518 0.332,-1.032 0.553,-1.551c-0.296,-0.073 -0.553,-0.145 -0.775,-0.221c-0.146,-0.074 -0.312,-0.13 -0.497,-0.167c-0.627,-0.184 -1.273,-0.348 -1.937,-0.496c-0.407,-0.036 -0.811,-0.092 -1.218,-0.168c-0.773,-0.144 -1.53,-0.293 -2.269,-0.441c-0.737,-0.15 -1.456,-0.276 -2.156,-0.388l-0.333,-0.055Zm8.465,4.04c0.591,0.183 1.163,0.369 1.716,0.553c2.324,0.736 4.169,1.328 5.533,1.77c1.364,0.48 2.232,0.793 2.6,0.941c1.255,0.553 2.823,1.181 4.704,1.883c1.328,0.477 2.766,1.013 4.316,1.604c0.072,-0.187 0.111,-0.332 0.111,-0.443c0.109,-0.408 0.239,-0.829 0.387,-1.273c0.146,0.036 0.276,0.073 0.386,0.112c0.666,0.221 1.328,0.441 1.994,0.662c0.146,0.112 0.332,0.183 0.553,0.223c0.663,0.22 1.291,0.441 1.88,0.663c0.701,0.258 1.401,0.498 2.103,0.72c0.626,0.258 1.272,0.534 1.937,0.83c0.111,0.072 0.239,0.128 0.387,0.163l0.277,0.168l-0.111,0.332l-0.11,0.277c-0.259,0.738 -0.516,1.419 -0.775,2.047l-0.112,0c-0.664,-0.332 -1.345,-0.572 -2.047,-0.719c-0.701,-0.185 -1.401,-0.332 -2.102,-0.442c-0.222,-0.075 -0.442,-0.148 -0.664,-0.224c-0.663,-0.256 -1.328,-0.498 -1.992,-0.718c-0.7,-0.221 -1.383,-0.388 -2.047,-0.498c-0.185,-0.074 -0.369,-0.128 -0.553,-0.167c0.184,-0.441 0.313,-0.884 0.388,-1.327c0.036,-0.112 0.073,-0.238 0.11,-0.386m-9.02,-3.487c-0.073,0.184 -0.146,0.369 -0.22,0.553c-0.296,1.291 -0.646,2.564 -1.052,3.818c-0.221,0.702 -0.406,1.382 -0.553,2.048c-0.148,0.517 -0.295,1.032 -0.444,1.549c-0.477,1.623 -0.976,3.247 -1.493,4.869c-0.22,0.739 -0.462,1.494 -0.719,2.268c-0.775,2.179 -1.567,4.372 -2.379,6.586c-0.776,2.065 -1.55,4.15 -2.325,6.252c-0.552,1.512 -1.088,3.006 -1.604,4.482l0.277,0.11c0.222,0.184 0.462,0.333 0.719,0.444c0.368,0.109 0.737,0.202 1.107,0.277c1.954,0.7 3.541,1.937 4.758,3.707c1.143,1.66 1.844,3.558 2.103,5.7c0.295,2.14 0.368,3.89 0.221,5.256c-0.037,0.182 -0.054,0.332 -0.054,0.441c-0.112,1.069 -0.186,1.716 -0.223,1.936c0,0.223 -0.017,0.425 -0.055,0.609c0.775,0.186 1.531,0.388 2.268,0.61c2.03,0.552 4.058,1.089 6.087,1.605c1.144,0.332 2.287,0.663 3.431,0.996c1.844,0.588 3.744,1.143 5.7,1.659c0.182,0.037 0.404,0.074 0.662,0.112l0.332,0.056c0.775,0.109 1.531,0.22 2.27,0.33c2.065,0.443 4.038,1.087 5.92,1.936c0.405,0.186 0.774,0.334 1.106,0.444c0.479,-1.218 0.978,-2.416 1.494,-3.597l0.056,0c0.405,-1.069 0.902,-2.121 1.493,-3.153c0.148,-0.334 0.332,-0.666 0.553,-0.998c0.739,-1.105 1.531,-2.12 2.38,-3.041c1.587,-1.623 3.412,-2.731 5.478,-3.321c1.106,-0.332 2.232,-0.571 3.376,-0.719c1.106,-0.149 2.176,-0.149 3.208,0c2.102,0.368 4.038,1.051 5.809,2.047c1.772,1.033 3.247,2.397 4.428,4.094c1.143,1.771 1.955,3.726 2.433,5.866c0.48,2.138 0.683,4.298 0.61,6.474m-14.774,-13.502c2.03,0.332 3.836,1.052 5.422,2.158c1.586,1.07 2.712,2.104 3.376,3.099c0.737,0.923 1.236,1.605 1.493,2.045c0.259,0.482 0.461,1.035 0.609,1.662c0.148,0.665 0.314,1.328 0.498,1.993c-0.036,1.807 -0.424,3.596 -1.162,5.367c-0.257,0.626 -0.498,1.234 -0.718,1.826c-0.775,2.066 -2.03,3.836 -3.763,5.311c-0.444,0.369 -0.923,0.757 -1.439,1.161c-1.586,1.328 -3.376,2.196 -5.368,2.603c-0.478,0.111 -0.996,0.183 -1.548,0.22c-2.029,0.075 -3.892,-0.332 -5.589,-1.217c-0.443,-0.258 -0.867,-0.554 -1.272,-0.886c-1.513,-1.217 -2.804,-2.656 -3.873,-4.314c-0.996,-1.662 -1.531,-3.487 -1.606,-5.479c-0.11,-2.103 0.204,-4.169 0.942,-6.196c0.294,-0.667 0.59,-1.311 0.885,-1.937c0.221,-0.407 0.461,-0.814 0.719,-1.219c1.181,-1.733 2.656,-3.227 4.426,-4.481c1.512,-0.996 3.154,-1.643 4.926,-1.938c0.589,-0.073 1.161,-0.054 1.714,0.056c0.443,0.074 0.886,0.13 1.328,0.166Zm1.162,5.257c0.258,0.073 0.48,0.204 0.664,0.387c0.886,0.516 1.678,1.145 2.378,1.881c0.223,0.187 0.424,0.408 0.61,0.664c0.665,0.664 1.218,1.44 1.66,2.325c0.221,0.479 0.369,0.979 0.442,1.494c0.112,0.293 0.203,0.59 0.278,0.885c0.109,0.701 0.128,1.42 0.054,2.156c-0.073,0.556 -0.24,1.127 -0.497,1.719c-0.148,0.33 -0.277,0.644 -0.388,0.938c-0.369,0.998 -0.941,1.864 -1.715,2.6c-0.774,0.85 -1.642,1.587 -2.601,2.215c-0.221,0.148 -0.443,0.295 -0.664,0.443c-0.295,0.149 -0.553,0.258 -0.775,0.332c-0.7,0.294 -1.401,0.425 -2.101,0.388c-0.296,-0.04 -0.609,-0.058 -0.941,-0.058c-0.811,-0.036 -1.568,-0.128 -2.27,-0.276c-0.626,-0.109 -1.142,-0.349 -1.548,-0.717c-0.258,-0.184 -0.498,-0.371 -0.72,-0.553c-0.812,-0.63 -1.474,-1.404 -1.992,-2.326c-0.332,-0.553 -0.589,-1.126 -0.774,-1.714c-0.296,-0.924 -0.48,-1.846 -0.552,-2.767c-0.148,-1.033 -0.13,-2.084 0.054,-3.155c0,-0.258 0.055,-0.536 0.166,-0.829c0.294,-1.033 0.756,-2.011 1.382,-2.935c0.591,-0.81 1.274,-1.565 2.05,-2.266c0.884,-0.74 1.824,-1.218 2.82,-1.439c1.07,-0.26 2.104,-0.241 3.1,0.055c0.626,0.184 1.253,0.369 1.88,0.553Zm-4.758,5.589c1.031,-0.221 2.01,-0.11 2.932,0.332c0.222,0.072 0.406,0.202 0.554,0.387c0.221,0.223 0.424,0.443 0.608,0.664c0.11,0.996 0,1.973 -0.332,2.933c-0.37,1.29 -1.199,1.919 -2.49,1.882c-0.258,0 -0.534,-0.04 -0.83,-0.112c-0.552,-0.111 -0.995,-0.406 -1.327,-0.884c-0.148,-0.259 -0.296,-0.499 -0.444,-0.72c-0.664,-0.96 -0.683,-2.066 -0.055,-3.32c0.295,-0.628 0.756,-1.015 1.384,-1.162Zm-50.462,-24.956l0.165,-0.332c0.221,-0.626 0.461,-1.273 0.72,-1.936c-1.66,-0.96 -3.523,-1.382 -5.588,-1.272c-0.332,0 -0.664,0.018 -0.996,0.054c-0.591,0.04 -1.163,0.149 -1.715,0.333c-1.106,0.405 -2.177,0.903 -3.21,1.493c-0.996,0.591 -1.974,1.255 -2.932,1.991c-0.184,0.187 -0.331,0.352 -0.443,0.499c-0.664,0.702 -1.253,1.402 -1.771,2.104m15.77,-2.934c1.66,0.554 3.08,1.384 4.261,2.491c1.548,1.365 2.508,3.041 2.877,5.035c0.368,1.586 0.443,3.229 0.22,4.925c-0.184,2.101 -0.7,4.168 -1.549,6.197c-0.848,2.14 -2.195,3.91 -4.039,5.312c-0.552,0.442 -1.106,0.867 -1.658,1.272c-0.48,0.295 -0.923,0.516 -1.33,0.666c-2.138,0.848 -3.817,1.216 -5.034,1.105c-1.255,-0.221 -2.195,-0.443 -2.822,-0.664c-0.628,-0.148 -1.512,-0.571 -2.656,-1.272c-1.217,-0.701 -2.325,-1.9 -3.32,-3.597c-0.332,-0.516 -0.645,-1.088 -0.94,-1.716c-0.554,-1.106 -0.886,-2.342 -0.997,-3.707c-0.147,-2.103 0.075,-4.187 0.664,-6.252c0.333,-1.181 0.867,-2.324 1.605,-3.431c1.254,-1.845 2.859,-3.338 4.814,-4.482c1.881,-1.143 3.854,-1.9 5.92,-2.267c0.517,-0.076 1.052,-0.112 1.605,-0.112c0.479,-0.037 0.959,0.019 1.439,0.165c0.369,0.074 0.681,0.186 0.94,0.332c-0.22,0.627 -0.406,1.255 -0.554,1.882c-0.11,0.553 -0.277,1.106 -0.497,1.66c1.107,0.516 2.065,1.273 2.876,2.268c0.185,0.26 0.388,0.498 0.609,0.722c0.332,0.478 0.608,1.011 0.83,1.602c0.774,2.068 0.812,4.188 0.112,6.364c-0.075,0.369 -0.167,0.701 -0.278,0.996c-0.11,0.369 -0.24,0.701 -0.386,0.996c-0.96,2.066 -2.436,3.616 -4.427,4.648c-1.993,1.144 -3.671,1.529 -5.036,1.161c-1.328,-0.368 -2.36,-0.773 -3.097,-1.217c-0.738,-0.404 -1.403,-1.052 -1.992,-1.936c-0.592,-0.85 -0.996,-1.642 -1.219,-2.38c-0.221,-0.738 -0.312,-1.402 -0.276,-1.992c-0.036,-0.591 0.019,-1.419 0.167,-2.488c0.184,-1.034 0.46,-2.05 0.829,-3.046c0.368,-1.032 0.664,-1.733 0.885,-2.1c0.518,-0.924 1.162,-1.753 1.938,-2.492c1.954,-1.697 4.02,-2.324 6.196,-1.881c0.848,0.111 1.605,0.369 2.269,0.775m-1.937,5.366c0.48,-1.326 0.96,-2.618 1.438,-3.873c0.184,-0.555 0.351,-1.051 0.499,-1.493m-1.937,5.366l0.11,0c0.996,0.443 1.623,1.219 1.882,2.324c0.037,0.296 0,0.647 -0.111,1.054c-0.259,1.18 -0.885,2.101 -1.881,2.764c-0.996,0.592 -1.992,0.813 -2.987,0.664c-0.812,-0.111 -1.513,-0.552 -2.104,-1.327c-0.627,-0.996 -0.589,-2.045 0.112,-3.155c1.069,-1.733 2.433,-2.562 4.093,-2.488c0.296,0.036 0.591,0.092 0.886,0.164c-0.295,0.776 -0.59,1.55 -0.886,2.324" style="fill:none;fill-rule:nonzero;stroke:#3267a4;stroke-width:2px;"/></g></svg>