<?xml version="1.0" encoding="UTF-8" standalone="no"?><!DOCTYPE svg PUBLIC "-//W3C//DTD SVG 1.1//EN" "http://www.w3.org/Graphics/SVG/1.1/DTD/svg11.dtd"><svg width="100%" height="100%" viewBox="0 0 97 119" version="1.1" xmlns="http://www.w3.org/2000/svg" xmlns:xlink="http://www.w3.org/1999/xlink" xml:space="preserve" xmlns:serif="http://www.serif.com/" style="fill-rule:evenodd;clip-rule:evenodd;stroke-linecap:round;stroke-linejoin:round;stroke-miterlimit:10;"><g><path id="path24008" d="M96.347,70.107c0.044,0.997 0.065,1.999 0.065,2.997c0,4.386 -0.543,8.555 -1.628,12.507c-2.041,7.296 -5.928,13.788 -11.661,19.477c-5.688,5.731 -12.159,9.619 -19.411,11.662c-3.215,0.909 -6.58,1.432 -10.097,1.561c-0.826,0.045 -1.65,0.067 -2.476,0.067c-12.551,0 -23.254,-4.431 -32.114,-13.29c-8.86,-8.816 -13.289,-19.477 -13.289,-31.984c0,-4.734 0.629,-9.208 1.888,-13.42c1.175,-3.952 2.911,-7.665 5.212,-11.138c1.737,-2.65 3.8,-5.147 6.189,-7.492c8.86,-8.859 19.563,-13.29 32.114,-13.29l0.652,0c4.733,0.046 9.185,0.74 13.353,2.087c6.645,2.128 12.637,5.861 17.979,11.203c8.121,8.121 12.529,17.805 13.224,29.053" style="fill:#a34a31;fill-rule:nonzero;"/><path id="path24148" d="M20.294,17.827c0,1.23 -0.937,2.227 -2.093,2.227c-1.159,0 -2.096,-0.997 -2.096,-2.227c0,-1.23 0.937,-2.228 2.096,-2.228c1.156,0 2.093,0.998 2.093,2.228" style="fill:#fff;fill-rule:nonzero;"/><path id="path24152" d="M19.478,35.658c0,1.23 -0.937,2.227 -2.093,2.227c-1.159,0 -2.096,-0.997 -2.096,-2.227c0,-1.23 0.937,-2.228 2.096,-2.228c1.156,0 2.093,0.998 2.093,2.228" style="fill:#fff;fill-rule:nonzero;"/><path id="path24156" d="M20.256,54.923c0,1.229 -0.937,2.226 -2.093,2.226c-1.159,0 -2.096,-0.997 -2.096,-2.226c0,-1.231 0.937,-2.228 2.096,-2.228c1.156,0 2.093,0.997 2.093,2.228" style="fill:#fff;fill-rule:nonzero;"/><path id="path24160" d="M20.701,71.959c0,1.23 -0.937,2.227 -2.093,2.227c-1.159,0 -2.096,-0.997 -2.096,-2.227c0,-1.23 0.937,-2.228 2.096,-2.228c1.156,0 2.093,0.998 2.093,2.228" style="fill:#fff;fill-rule:nonzero;"/><path id="path24164" d="M53.475,59.139c0,-0.477 0.021,-0.977 0.065,-1.497c0,-0.652 0.044,-1.325 0.129,-2.02l0,-0.392l0.067,0c0.695,0.045 1.932,0.089 3.712,0.131c1.78,0.088 3.909,0.13 6.384,0.13c2.692,0.087 5.341,0.196 7.948,0.326l0.195,0l4.038,0.132c-0.044,0.129 -0.065,0.258 -0.065,0.389c-0.044,0.868 -0.065,1.736 -0.065,2.607c-0.043,0.129 -0.064,0.304 -0.064,0.52c-0.219,0 -0.479,-0.023 -0.782,-0.064c-0.393,0.041 -0.761,0.041 -1.108,0c-0.694,0 -1.389,-0.023 -2.084,-0.067l-1.109,0c-1.563,0 -3.125,-0.021 -4.689,-0.064c-1.563,-0.043 -2.866,-0.087 -3.908,-0.131c-0.956,0 -2.063,-0.021 -3.323,-0.065c-1.259,-0.044 -2.411,-0.044 -3.452,0c-1.043,0.044 -1.672,0.065 -1.889,0.065m-28.598,-37.977c0,-1.345 0.023,-2.669 0.066,-3.973c0.044,-0.174 0.066,-0.326 0.066,-0.456c0.432,0.042 0.868,0.109 1.302,0.194c0.521,0.131 1.064,0.218 1.629,0.262c0.78,0.044 1.564,0.044 2.344,0c1.693,-0.044 3.388,0.021 5.083,0.194c0.997,0.087 2.061,0.154 3.19,0.196c1.607,0.044 3.171,0.11 4.691,0.195c0.303,0.045 0.651,0.067 1.041,0.067c0.175,0.086 0.327,0.108 0.458,0.065c1.476,0.085 2.952,0.151 4.428,0.195c-0.043,0.13 -0.086,0.26 -0.13,0.392c-0.044,0.304 -0.086,0.629 -0.13,0.977c-0.044,0.432 -0.087,0.888 -0.131,1.368c-0.043,0.172 -0.064,0.347 -0.064,0.52c-0.044,0.175 -0.087,0.369 -0.131,0.587c-0.868,-0.044 -1.76,-0.088 -2.672,-0.132c-0.564,-0.042 -1.17,-0.064 -1.822,-0.064c-0.131,-0.087 -0.262,-0.11 -0.392,-0.067c-1.736,-0.129 -3.43,-0.193 -5.079,-0.193c-1.781,-0.044 -3.561,-0.066 -5.343,-0.066c-1.606,0 -3.213,-0.022 -4.82,-0.065c-0.652,0 -1.324,-0.044 -2.02,-0.131c-0.564,0 -1.085,-0.021 -1.564,-0.065m18.5,15.96c0.696,0.085 1.412,0.151 2.151,0.195c0.869,0.132 1.78,0.24 2.735,0.325c0.132,0 0.238,0.021 0.326,0.067l-0.065,0.26l0,0.457c-0.044,0.303 -0.065,0.607 -0.065,0.911l0,0.846c0,0.347 -0.022,0.695 -0.064,1.042l0,0.132c-0.652,-0.087 -1.324,-0.176 -2.02,-0.262c-1.044,-0.085 -2.086,-0.174 -3.127,-0.261c-1.345,-0.173 -2.693,-0.325 -4.039,-0.455c-1.65,-0.173 -3.301,-0.369 -4.95,-0.586c-1.695,-0.175 -3.41,-0.283 -5.147,-0.326c-0.868,-0.086 -1.737,-0.174 -2.605,-0.261c-0.652,-0.087 -1.282,-0.195 -1.89,-0.327l0,-1.237c0.044,-0.824 0.066,-1.628 0.066,-2.409c0.174,0.044 0.346,0.064 0.521,0.064c1.389,0.392 2.821,0.586 4.3,0.586c1.476,-0.042 2.975,0.023 4.495,0.198c0.65,0.085 1.302,0.172 1.953,0.258c1.476,0.218 2.975,0.392 4.493,0.522c1,0.086 1.978,0.174 2.932,0.261m-0.585,17.263c0.999,0.086 1.997,0.194 2.996,0.325c0.825,0.085 1.629,0.152 2.409,0.195l0,0.132c-0.042,0.606 -0.064,1.257 -0.064,1.953c-0.044,0.348 -0.065,0.695 -0.065,1.043c-0.043,0.302 -0.064,0.585 -0.064,0.845c-0.436,-0.043 -0.848,-0.087 -1.239,-0.131c-1.434,-0.085 -2.801,-0.149 -4.104,-0.193c-0.129,-0.045 -0.261,-0.067 -0.39,-0.067c-1.086,-0.086 -2.172,-0.172 -3.258,-0.26c-1.737,-0.173 -3.474,-0.304 -5.21,-0.392c-1.086,-0.042 -2.151,-0.064 -3.194,-0.064c-1.736,-0.086 -3.472,-0.152 -5.21,-0.194c-0.304,-0.046 -0.608,-0.066 -0.912,-0.066l0,-0.132c-0.043,-1.476 -0.066,-2.973 -0.066,-4.493c0.912,0.087 1.847,0.173 2.802,0.261c1.694,0.086 3.366,0.174 5.017,0.26c1.041,0.043 2.061,0.13 3.061,0.262c1.823,0.085 3.647,0.237 5.471,0.454c0.651,0.087 1.324,0.175 2.02,0.262m-0.195,18.108c0.564,0.088 1.127,0.153 1.692,0.196c1.174,0.174 2.324,0.325 3.454,0.456c0,0.346 -0.022,0.696 -0.066,1.042c-0.044,0.259 -0.065,0.542 -0.065,0.847c-0.088,0.521 -0.129,1.02 -0.129,1.499c0,0.214 -0.023,0.389 -0.066,0.52l-0.065,0c-0.955,-0.044 -1.889,-0.108 -2.801,-0.195c-0.782,-0.087 -1.522,-0.196 -2.216,-0.325c-0.912,-0.087 -1.844,-0.175 -2.8,-0.262c-0.435,0 -0.891,-0.021 -1.368,-0.065c-1.738,-0.217 -3.495,-0.391 -5.276,-0.521c-0.914,-0.043 -1.78,-0.13 -2.607,-0.262c-1.78,-0.214 -3.561,-0.324 -5.341,-0.324l-0.066,0c-0.042,-1.304 -0.086,-2.628 -0.13,-3.973l0,-0.717c0.348,0.044 0.673,0.108 0.977,0.196c0.391,0.173 0.761,0.28 1.108,0.325c1.78,0.391 3.561,0.608 5.341,0.651c0.347,0 0.674,0.022 0.978,0.066c1.606,0.26 3.213,0.434 4.82,0.52c0.521,0 1.042,0.022 1.564,0.067c1,0.085 2.02,0.172 3.062,0.259m29.116,1.824l4.56,0.129l0,0.848c0,0.739 -0.021,1.453 -0.064,2.151l0,0.389l-4.625,-0.064l-1.889,0c-2.302,-0.175 -4.624,-0.239 -6.97,-0.196c-2.692,0 -5.408,-0.087 -8.142,-0.261c-0.566,0 -1.087,-0.022 -1.564,-0.064l0,-0.522c0,-0.868 0.021,-1.716 0.065,-2.54c2.172,0.087 4.344,0.151 6.513,0.195c2.216,-0.044 4.496,-0.087 6.842,-0.129c1.78,-0.044 3.538,-0.022 5.274,0.064" style="fill:#fff;fill-rule:nonzero;"/><path id="path24168" d="M44.409,21.087c0.653,0 1.26,0.021 1.827,0.064c0.912,0.044 1.805,0.088 2.674,0.132c0.044,-0.218 0.087,-0.414 0.131,-0.588c0,-0.174 0.021,-0.348 0.064,-0.522c0.044,-0.478 0.087,-0.936 0.131,-1.369c0.045,-0.348 0.086,-0.673 0.13,-0.977c0.044,-0.132 0.088,-0.262 0.131,-0.394c-1.479,-0.042 -2.957,-0.108 -4.435,-0.194c-0.13,0.044 -0.282,0.021 -0.457,-0.064l0,-0.459c0.085,-2.869 0.196,-5.324 0.327,-7.368c0.173,-2.044 0.346,-4.719 0.521,-8.021c3.044,0.042 6.111,-0.066 9.196,-0.327l0.524,0c-0.045,3.696 -0.111,6.696 -0.197,9c-0.086,2.261 -0.13,4.629 -0.13,7.108c0,2.479 -0.045,5.021 -0.13,7.631c-0.044,2.564 -0.067,4.26 -0.067,5.085c-0.129,2.131 -0.195,4.261 -0.195,6.391c0,2.348 -0.044,4.696 -0.13,7.044c-0.087,3.39 -0.196,6.781 -0.327,10.173l0,1.564c-0.085,0.696 -0.129,1.369 -0.129,2.023c-0.044,0.521 -0.066,1.021 -0.066,1.498c-0.044,0.61 -0.065,1.175 -0.065,1.696c0,3.915 -0.087,7.87 -0.261,11.868l0,1.176c-0.044,0.086 -0.064,0.194 -0.064,0.326c-0.044,0.825 -0.067,1.673 -0.067,2.542l0,0.523c-0.043,1.479 -0.021,2.933 0.067,4.368c0.041,0.347 0.064,0.697 0.064,1.044c0.045,2.087 0.045,4.152 0,6.196c-2.306,0.216 -4.61,0.412 -6.914,0.585c-0.61,0.088 -1.218,0.088 -1.826,0c-0.783,-0.086 -1.566,-0.13 -2.35,-0.13c0,-0.347 -0.021,-0.716 -0.065,-1.108c0,-1.912 0.023,-3.826 0.065,-5.738c0.046,-1.957 0.131,-3.936 0.262,-5.934c0.694,0.129 1.436,0.238 2.217,0.325c0.913,0.087 1.849,0.151 2.807,0.195l0.064,0c0.044,-0.13 0.065,-0.306 0.065,-0.52c0,-0.479 0.043,-0.979 0.131,-1.502c0,-0.304 0.021,-0.586 0.065,-0.846c0.044,-0.348 0.065,-0.698 0.065,-1.044c-1.132,-0.131 -2.284,-0.282 -3.457,-0.458c-0.567,-0.041 -1.131,-0.106 -1.696,-0.194c0.131,-2.262 0.175,-4.566 0.131,-6.914c-0.088,-2.346 -0.11,-4.693 -0.066,-7.041c1.304,0.044 2.674,0.108 4.11,0.193c0.39,0.044 0.804,0.088 1.24,0.132c0,-0.261 0.021,-0.544 0.064,-0.848c0,-0.348 0.022,-0.694 0.065,-1.044c0,-0.694 0.023,-1.346 0.065,-1.954l0,-0.132c-0.782,-0.044 -1.588,-0.11 -2.413,-0.195c-1,-0.132 -2,-0.24 -3,-0.325c0.129,-3.304 0.217,-6.067 0.26,-8.284c0.045,-1.739 0.109,-3.499 0.196,-5.282c1.044,0.087 2.087,0.175 3.132,0.262c0.696,0.085 1.369,0.174 2.021,0.26l0,-0.131c0.044,-0.347 0.064,-0.696 0.064,-1.043l0,-0.846c0,-0.306 0.023,-0.611 0.067,-0.914l0,-0.457l0.065,-0.26c-0.088,-0.045 -0.196,-0.067 -0.326,-0.067c-0.958,-0.086 -1.87,-0.194 -2.74,-0.325c-0.739,-0.044 -1.455,-0.109 -2.152,-0.196c0.086,-2.651 0.238,-5.825 0.456,-9.52c0.088,-2.175 0.173,-4.131 0.261,-5.869m-19.243,-0.588c-0.088,3.129 -0.132,6.26 -0.132,9.39c0,1.611 -0.02,3.174 -0.064,4.696c0,0.782 -0.021,1.587 -0.065,2.412l0,1.239c-0.043,0.74 -0.087,1.501 -0.131,2.284l0,2.477c-0.042,3.13 -0.065,6.218 -0.065,9.262c0,1.52 0.023,3.018 0.065,4.497l0,0.132c0,4.304 0.088,8.608 0.26,12.912l0,0.717c0.044,1.347 0.088,2.674 0.132,3.978c0.044,2.13 0.11,4.282 0.195,6.456c0,1 0.023,1.978 0.067,2.934c0.042,1.262 0.065,2.544 0.065,3.847l-0.459,0c-0.302,0 -0.673,-0.041 -1.106,-0.129c-0.48,0 -1,-0.02 -1.567,-0.066l-1.631,0c-0.434,-0.086 -0.804,-0.13 -1.108,-0.13c-1.393,-0.043 -2.805,-0.066 -4.24,-0.066c-0.478,-0.041 -0.978,-0.085 -1.501,-0.13c-0.261,-0.043 -0.544,-0.064 -0.848,-0.064c-0.173,-2.392 -0.325,-4.76 -0.456,-7.11l0,-0.326c-0.261,-3.78 -0.456,-7.563 -0.588,-11.346c-0.043,-1.608 -0.065,-3.238 -0.065,-4.89c-0.043,-4.044 -0.043,-8.044 0,-12c0,-1.564 -0.02,-3.108 -0.064,-4.63c-0.131,-4.26 -0.175,-8.5 -0.131,-12.717c0,-1.259 0.044,-2.543 0.131,-3.847c0,-2 0.021,-4.022 0.064,-6.065c0.13,-4.608 0.37,-9.173 0.717,-13.695c0.176,-2.521 0.24,-5.021 0.197,-7.5l0,-1.369c1.218,0.088 2.456,0.065 3.718,-0.064c1.261,-0.131 2.544,-0.196 3.848,-0.196l2.154,0c0.826,-0.043 1.631,-0.043 2.412,0c0.131,2.783 0.262,5.585 0.391,8.413c0,2.086 -0.021,4.174 -0.064,6.26c0,0.131 -0.021,0.283 -0.065,0.456c-0.044,1.306 -0.066,2.631 -0.066,3.978m56.882,63.452c-0.044,1.348 -0.108,2.717 -0.198,4.108l-0.194,-0.064c-0.523,0.042 -1.044,0.021 -1.566,-0.066c-1.653,-0.217 -3.348,-0.346 -5.089,-0.392c-0.912,-0.086 -1.847,-0.086 -2.804,0c-0.175,0 -0.368,0.022 -0.587,0.066c0.043,-1.35 0.087,-2.675 0.13,-3.978c0.045,-1.61 0.109,-3.217 0.197,-4.825l0,-1.631l4.631,0.064l0,-0.39c0.044,-0.698 0.064,-1.414 0.064,-2.152l0,-0.848l-4.566,-0.131l0,-1.433c0.088,-2.696 0.131,-5.415 0.131,-8.151c0.087,-1.784 0.087,-3.588 0,-5.415c0.696,0.044 1.392,0.066 2.088,0.066c0.347,0.042 0.716,0.042 1.109,0c0.304,0.042 0.564,0.065 0.783,0.065c0,-0.216 0.021,-0.392 0.064,-0.521c0,-0.871 0.021,-1.74 0.065,-2.61c0,-0.13 0.022,-0.26 0.066,-0.39l-4.044,-0.131l-0.196,0c0,-0.435 -0.02,-0.825 -0.066,-1.172c0,-3.915 0.11,-7.783 0.327,-11.609c3.001,-0.304 6.023,-0.522 9.067,-0.654c0.044,2.698 0.174,5.394 0.39,8.088c0.306,3.608 0.415,7.195 0.327,10.76c-0.044,1.262 -0.044,2.544 0,3.848c0,1.911 0.021,3.803 0.065,5.674c0.044,2.085 0.066,4.15 0.066,6.194l0,2.347c-0.087,1.392 -0.152,2.784 -0.196,4.173c0,0.35 -0.023,0.718 -0.064,1.11m-62.558,-68.016c-0.608,-0.348 -1.217,-0.348 -1.825,0c-0.173,0.172 -0.348,0.304 -0.523,0.39c-0.173,0.218 -0.304,0.435 -0.39,0.652c-0.087,0.131 -0.154,0.327 -0.196,0.588c-0.043,0.172 -0.066,0.455 -0.066,0.847c0.044,0.392 0.24,0.761 0.588,1.108c0.347,0.261 0.587,0.413 0.716,0.457c0.219,0.131 0.479,0.196 0.784,0.196c0.608,0.087 1.13,-0.13 1.564,-0.653c0.176,-0.216 0.262,-0.477 0.262,-0.783c0.088,-0.304 0.152,-0.585 0.197,-0.846c0.085,-0.608 -0.132,-1.152 -0.652,-1.631c-0.132,-0.131 -0.283,-0.239 -0.459,-0.325m-4.304,19.629c0.043,1.217 0.414,1.935 1.108,2.152c0.61,0.304 1.283,0.368 2.024,0.195c0.868,-0.174 1.282,-0.868 1.239,-2.087c0,-1.261 -0.327,-2.043 -0.979,-2.347c-0.696,-0.305 -1.37,-0.37 -2.022,-0.196c-0.914,0.347 -1.37,1.107 -1.37,2.283m2.087,17.216c-0.348,0.172 -0.652,0.413 -0.912,0.716c-0.305,0.392 -0.459,0.849 -0.459,1.369c-0.041,0.566 0.176,1.044 0.654,1.436c0.478,0.347 0.977,0.543 1.501,0.587c0.608,-0.044 1.065,-0.281 1.369,-0.717c0.434,-0.435 0.631,-0.935 0.587,-1.499c-0.043,-0.523 -0.217,-0.979 -0.523,-1.371c-0.26,-0.305 -0.586,-0.521 -0.978,-0.652c-0.476,-0.088 -0.891,-0.044 -1.239,0.131m0.327,17.281c-0.26,0.216 -0.522,0.435 -0.783,0.651l-0.065,0.131l0,0.196c-0.087,0.174 -0.154,0.369 -0.196,0.588c-0.043,0.521 0.021,0.998 0.196,1.433c0.086,0.175 0.196,0.305 0.326,0.391c0.13,0.132 0.262,0.24 0.391,0.326c0.131,0.044 0.261,0.066 0.391,0.066c0.176,0.044 0.348,0.088 0.522,0.13c0.566,0 1.087,-0.173 1.567,-0.522c0.085,-0.042 0.172,-0.13 0.26,-0.26c0.087,-0.174 0.131,-0.326 0.131,-0.458c0.086,-0.302 0.108,-0.652 0.064,-1.042c0,-0.739 -0.326,-1.326 -0.978,-1.762c-0.044,-0.044 -0.13,-0.085 -0.262,-0.129c-0.172,-0.087 -0.368,-0.108 -0.586,-0.065c-0.349,0 -0.674,0.109 -0.978,0.326" style="fill:#f25822;fill-rule:nonzero;"/><path id="path24172" d="M44.409,21.087c0.653,0 1.26,0.021 1.827,0.064c0.912,0.044 1.805,0.088 2.674,0.132c0.044,-0.218 0.087,-0.414 0.131,-0.588c0,-0.174 0.021,-0.348 0.064,-0.522c0.044,-0.478 0.087,-0.936 0.131,-1.369c0.045,-0.348 0.086,-0.673 0.13,-0.977c0.044,-0.132 0.088,-0.262 0.131,-0.394c-1.479,-0.042 -2.957,-0.108 -4.435,-0.194c-0.13,0.044 -0.282,0.021 -0.457,-0.064l0,-0.459c0.085,-2.869 0.196,-5.324 0.327,-7.368c0.173,-2.044 0.346,-4.719 0.521,-8.021c3.044,0.042 6.111,-0.066 9.196,-0.327l0.524,0c-0.045,3.696 -0.111,6.696 -0.197,9c-0.086,2.261 -0.13,4.629 -0.13,7.108c0,2.479 -0.045,5.021 -0.13,7.631c-0.044,2.564 -0.067,4.26 -0.067,5.085c-0.129,2.131 -0.195,4.261 -0.195,6.391c0,2.348 -0.044,4.696 -0.13,7.044c-0.087,3.39 -0.196,6.781 -0.327,10.173l0,1.564c-0.085,0.696 -0.129,1.369 -0.129,2.023c-0.044,0.521 -0.066,1.021 -0.066,1.498c-0.044,0.61 -0.065,1.175 -0.065,1.696c0,3.915 -0.087,7.87 -0.261,11.868l0,1.176c-0.044,0.086 -0.064,0.194 -0.064,0.326c-0.044,0.825 -0.067,1.673 -0.067,2.542l0,0.523c-0.043,1.479 -0.021,2.933 0.067,4.368c0.041,0.347 0.064,0.697 0.064,1.044c0.045,2.087 0.045,4.152 0,6.196c-2.306,0.216 -4.61,0.412 -6.914,0.585c-0.61,0.088 -1.218,0.088 -1.826,0c-0.783,-0.086 -1.566,-0.13 -2.35,-0.13c0,-0.347 -0.021,-0.716 -0.065,-1.108c0,-1.912 0.023,-3.826 0.065,-5.738c0.046,-1.957 0.131,-3.936 0.262,-5.934c0.694,0.129 1.436,0.238 2.217,0.325c0.913,0.087 1.849,0.151 2.807,0.195l0.064,0c0.044,-0.13 0.065,-0.306 0.065,-0.52c0,-0.479 0.043,-0.979 0.131,-1.502c0,-0.304 0.021,-0.586 0.065,-0.846c0.044,-0.348 0.065,-0.698 0.065,-1.044c-1.132,-0.131 -2.284,-0.282 -3.457,-0.458c-0.567,-0.041 -1.131,-0.106 -1.696,-0.194c0.131,-2.262 0.175,-4.566 0.131,-6.914c-0.088,-2.346 -0.11,-4.693 -0.066,-7.041c1.304,0.044 2.674,0.108 4.11,0.193c0.39,0.044 0.804,0.088 1.24,0.132c0,-0.261 0.021,-0.544 0.064,-0.848c0,-0.348 0.022,-0.694 0.065,-1.044c0,-0.694 0.023,-1.346 0.065,-1.954l0,-0.132c-0.782,-0.044 -1.588,-0.11 -2.413,-0.195c-1,-0.132 -2,-0.24 -3,-0.325c0.129,-3.304 0.217,-6.067 0.26,-8.284c0.045,-1.739 0.109,-3.499 0.196,-5.282c1.044,0.087 2.087,0.175 3.132,0.262c0.696,0.085 1.369,0.174 2.021,0.26l0,-0.131c0.044,-0.347 0.064,-0.696 0.064,-1.043l0,-0.846c0,-0.306 0.023,-0.611 0.067,-0.914l0,-0.457l0.065,-0.26c-0.088,-0.045 -0.196,-0.067 -0.326,-0.067c-0.958,-0.086 -1.87,-0.194 -2.74,-0.325c-0.739,-0.044 -1.455,-0.109 -2.152,-0.196c0.086,-2.651 0.238,-5.825 0.456,-9.52c0.088,-2.175 0.173,-4.131 0.261,-5.869Zm-19.243,-0.588c-0.088,3.129 -0.132,6.26 -0.132,9.39c0,1.611 -0.02,3.174 -0.064,4.696c0,0.782 -0.021,1.587 -0.065,2.412l0,1.239c-0.043,0.74 -0.087,1.501 -0.131,2.284l0,2.477c-0.042,3.13 -0.065,6.218 -0.065,9.262c0,1.52 0.023,3.018 0.065,4.497l0,0.132c0,4.304 0.088,8.608 0.26,12.912l0,0.717c0.044,1.347 0.088,2.674 0.132,3.978c0.044,2.13 0.11,4.282 0.195,6.456c0,1 0.023,1.978 0.067,2.934c0.042,1.262 0.065,2.544 0.065,3.847l-0.459,0c-0.302,0 -0.673,-0.041 -1.106,-0.129c-0.48,0 -1,-0.02 -1.567,-0.066l-1.631,0c-0.434,-0.086 -0.804,-0.13 -1.108,-0.13c-1.393,-0.043 -2.805,-0.066 -4.24,-0.066c-0.478,-0.041 -0.978,-0.085 -1.501,-0.13c-0.261,-0.043 -0.544,-0.064 -0.848,-0.064c-0.173,-2.392 -0.325,-4.76 -0.456,-7.11l0,-0.326c-0.261,-3.78 -0.456,-7.563 -0.588,-11.346c-0.043,-1.608 -0.065,-3.238 -0.065,-4.89c-0.043,-4.044 -0.043,-8.044 0,-12c0,-1.564 -0.02,-3.108 -0.064,-4.63c-0.131,-4.26 -0.175,-8.5 -0.131,-12.717c0,-1.259 0.044,-2.543 0.131,-3.847c0,-2 0.021,-4.022 0.064,-6.065c0.13,-4.608 0.37,-9.173 0.717,-13.695c0.176,-2.521 0.24,-5.021 0.197,-7.5l0,-1.369c1.218,0.088 2.456,0.065 3.718,-0.064c1.261,-0.131 2.544,-0.196 3.848,-0.196l2.154,0c0.826,-0.043 1.631,-0.043 2.412,0c0.131,2.783 0.262,5.585 0.391,8.413c0,2.086 -0.021,4.174 -0.064,6.26c0,0.131 -0.021,0.283 -0.065,0.456c-0.044,1.306 -0.066,2.631 -0.066,3.978Zm56.882,63.452c-0.044,1.348 -0.108,2.717 -0.198,4.108l-0.194,-0.064c-0.523,0.042 -1.044,0.021 -1.566,-0.066c-1.653,-0.217 -3.348,-0.346 -5.089,-0.392c-0.912,-0.086 -1.847,-0.086 -2.804,0c-0.175,0 -0.368,0.022 -0.587,0.066c0.043,-1.35 0.087,-2.675 0.13,-3.978c0.045,-1.61 0.109,-3.217 0.197,-4.825l0,-1.631l4.631,0.064l0,-0.39c0.044,-0.698 0.064,-1.414 0.064,-2.152l0,-0.848l-4.566,-0.131l0,-1.433c0.088,-2.696 0.131,-5.415 0.131,-8.151c0.087,-1.784 0.087,-3.588 0,-5.415c0.696,0.044 1.392,0.066 2.088,0.066c0.347,0.042 0.716,0.042 1.109,0c0.304,0.042 0.564,0.065 0.783,0.065c0,-0.216 0.021,-0.392 0.064,-0.521c0,-0.871 0.021,-1.74 0.065,-2.61c0,-0.13 0.022,-0.26 0.066,-0.39l-4.044,-0.131l-0.196,0c0,-0.435 -0.02,-0.825 -0.066,-1.172c0,-3.915 0.11,-7.783 0.327,-11.609c3.001,-0.304 6.023,-0.522 9.067,-0.654c0.044,2.698 0.174,5.394 0.39,8.088c0.306,3.608 0.415,7.195 0.327,10.76c-0.044,1.262 -0.044,2.544 0,3.848c0,1.911 0.021,3.803 0.065,5.674c0.044,2.085 0.066,4.15 0.066,6.194l0,2.347c-0.087,1.392 -0.152,2.784 -0.196,4.173c0,0.35 -0.023,0.718 -0.064,1.11Zm-62.558,-68.016c-0.608,-0.348 -1.217,-0.348 -1.825,0c-0.173,0.172 -0.348,0.304 -0.523,0.39c-0.173,0.218 -0.304,0.435 -0.39,0.652c-0.087,0.131 -0.154,0.327 -0.196,0.588c-0.043,0.172 -0.066,0.455 -0.066,0.847c0.044,0.392 0.24,0.761 0.588,1.108c0.347,0.261 0.587,0.413 0.716,0.457c0.219,0.131 0.479,0.196 0.784,0.196c0.608,0.087 1.13,-0.13 1.564,-0.653c0.176,-0.216 0.262,-0.477 0.262,-0.783c0.088,-0.304 0.152,-0.585 0.197,-0.846c0.085,-0.608 -0.132,-1.152 -0.652,-1.631c-0.132,-0.131 -0.283,-0.239 -0.459,-0.325Zm-4.304,19.629c0.043,1.217 0.414,1.935 1.108,2.152c0.61,0.304 1.283,0.368 2.024,0.195c0.868,-0.174 1.282,-0.868 1.239,-2.087c0,-1.261 -0.327,-2.043 -0.979,-2.347c-0.696,-0.305 -1.37,-0.37 -2.022,-0.196c-0.914,0.347 -1.37,1.107 -1.37,2.283Zm2.087,17.216c-0.348,0.172 -0.652,0.413 -0.912,0.716c-0.305,0.392 -0.459,0.849 -0.459,1.369c-0.041,0.566 0.176,1.044 0.654,1.436c0.478,0.347 0.977,0.543 1.501,0.587c0.608,-0.044 1.065,-0.281 1.369,-0.717c0.434,-0.435 0.631,-0.935 0.587,-1.499c-0.043,-0.523 -0.217,-0.979 -0.523,-1.371c-0.26,-0.305 -0.586,-0.521 -0.978,-0.652c-0.476,-0.088 -0.891,-0.044 -1.239,0.131Zm0.327,17.281c-0.26,0.216 -0.522,0.435 -0.783,0.651l-0.065,0.131l0,0.196c-0.087,0.174 -0.154,0.369 -0.196,0.588c-0.043,0.521 0.021,0.998 0.196,1.433c0.086,0.175 0.196,0.305 0.326,0.391c0.13,0.132 0.262,0.24 0.391,0.326c0.131,0.044 0.261,0.066 0.391,0.066c0.176,0.044 0.348,0.088 0.522,0.13c0.566,0 1.087,-0.173 1.567,-0.522c0.085,-0.042 0.172,-0.13 0.26,-0.26c0.087,-0.174 0.131,-0.326 0.131,-0.458c0.086,-0.302 0.108,-0.652 0.064,-1.042c0,-0.739 -0.326,-1.326 -0.978,-1.762c-0.044,-0.044 -0.13,-0.085 -0.262,-0.129c-0.172,-0.087 -0.368,-0.108 -0.586,-0.065c-0.349,0 -0.674,0.109 -0.978,0.326Z" style="fill:none;fill-rule:nonzero;stroke:#3267a4;stroke-width:2px;"/><path id="path24176" d="M25.026,20.611c0.478,0.044 1.001,0.066 1.565,0.066c0.699,0.086 1.372,0.13 2.024,0.13c1.611,0.043 3.22,0.066 4.829,0.066c1.786,0 3.568,0.021 5.354,0.065c1.653,0 3.349,0.064 5.088,0.195c0.132,-0.043 0.261,-0.022 0.393,0.066c0.653,0 1.26,0.022 1.827,0.064c0.913,0.044 1.806,0.088 2.676,0.131c0.044,-0.217 0.088,-0.412 0.132,-0.587c0,-0.174 0.02,-0.349 0.064,-0.521c0.044,-0.48 0.085,-0.936 0.129,-1.369c0.045,-0.35 0.088,-0.674 0.132,-0.979c0.044,-0.132 0.087,-0.261 0.129,-0.392c-1.478,-0.044 -22.164,-1.001 -23.642,-1.087c-0.131,0.043 18.922,0.912 18.748,0.827m-19.644,17.415c0,0.781 -0.022,1.586 -0.066,2.412l0,1.24c0.611,0.13 1.24,0.238 1.894,0.326c0.869,0.087 1.74,0.175 2.61,0.262c1.74,0.044 3.459,0.152 5.156,0.326c1.654,0.218 3.307,0.412 4.96,0.587c1.348,0.129 2.698,0.283 4.047,0.456c1.043,0.087 2.087,0.175 3.132,0.261c0.697,0.086 1.371,0.175 2.023,0.262l0,-0.132c0.044,-0.347 0.065,-0.696 0.065,-1.043l0,-0.848c0,-0.304 0.021,-0.609 0.065,-0.912l0,-0.459l0.066,-0.26c-0.088,-0.044 -0.196,-0.066 -0.327,-0.066c-0.957,-0.086 -1.869,-0.194 -2.74,-0.326c-0.74,-0.044 -1.457,-0.109 -2.155,-0.194m-0.717,21.46c-0.131,-0.046 -0.261,-0.067 -0.392,-0.067c-1.087,-0.087 -2.176,-0.173 -3.263,-0.26c-1.741,-0.173 -3.481,-0.305 -5.221,-0.392c-1.088,-0.044 -2.155,-0.064 -3.199,-0.064c-1.74,-0.088 -3.478,-0.152 -5.22,-0.196c-0.305,-0.045 -0.61,-0.065 -0.914,-0.065c0,4.305 0.088,8.609 0.261,12.914c0.348,0.044 0.673,0.108 0.979,0.196c0.39,0.174 0.762,0.282 1.11,0.327c1.783,0.391 3.568,0.608 5.351,0.652c0.348,0 0.675,0.021 0.98,0.065c1.609,0.262 3.219,0.435 4.828,0.52c0.523,0 1.045,0.023 1.568,0.068c1.001,0.086 2.023,0.172 3.067,0.26c0.13,-2.262 0.174,-4.566 0.13,-6.914c-0.088,-2.348 -0.109,-4.696 -0.065,-7.044c1.304,0.044 2.675,0.108 4.112,0.194c0.391,0.043 0.804,0.087 1.24,0.131c0,-0.261 0.023,-0.544 0.064,-0.848c0,-0.348 0.023,-0.695 0.065,-1.044c0,-0.696 0.023,-1.347 0.066,-1.956l0,-0.131c-0.783,-0.044 -1.588,-0.109 -2.415,-0.196c-1,-0.13 -2,-0.238 -3.001,-0.325m-17.948,20.741c-0.044,-1.305 -0.088,-2.63 -0.131,-3.978l0,-0.718m0.131,4.696l0.065,0c1.784,0 3.568,0.111 5.352,0.326c0.827,0.132 1.696,0.218 2.611,0.261c1.784,0.132 3.545,0.305 5.285,0.523c0.479,0.044 0.936,0.065 1.372,0.065c0.957,0.087 1.891,0.175 2.804,0.261c0.697,0.13 1.437,0.239 2.22,0.327c0.913,0.085 1.851,0.151 2.808,0.193l0.064,0c0.044,-0.129 0.065,-0.304 0.065,-0.52c0,-0.478 0.043,-0.978 0.131,-1.501c0,-0.304 0.021,-0.588 0.065,-0.847c0.044,-0.348 0.066,-0.697 0.066,-1.045c-1.132,-0.129 -2.286,-0.281 -3.46,-0.456c-0.566,-0.043 -1.131,-0.108 -1.696,-0.195m10.898,-13.372c0.218,0 0.848,-0.022 1.894,-0.065c1.042,-0.044 2.197,-0.044 3.457,0c1.263,0.043 2.372,0.065 3.329,0.065c1.046,0.044 2.35,0.087 3.915,0.131c1.568,0.043 3.133,0.064 4.7,0.064l1.111,0c0.696,0.044 1.392,0.067 2.088,0.067c0.346,0.041 0.716,0.041 1.11,0c0.303,0.041 0.563,0.064 0.782,0.064m-22.776,14.742c0,-0.132 0.02,-0.24 0.064,-0.325l0,-1.176c0.174,-4 0.261,-7.956 0.261,-11.871c0,-0.522 0.021,-1.088 0.065,-1.696c0,-0.478 0.022,-0.978 0.066,-1.5c0,-0.653 0.044,-1.326 0.13,-2.022l0,-0.392m-0.653,22.048l0,-0.523c0,-0.869 0.023,-1.717 0.067,-2.543c2.176,0.087 4.35,0.151 6.525,0.195c2.22,-0.044 4.504,-0.087 6.853,-0.129c1.783,-0.044 3.546,-0.023 5.286,0.064l0,-1.434c0.088,-2.697 0.132,-5.416 0.132,-8.153c0.085,-1.784 0.085,-3.588 0,-5.416m-0.139,18.332l-18.545,0.355m-11.143,4.47c-0.043,1.914 -0.065,3.827 -0.065,5.739c0.044,0.393 0.065,0.761 0.065,1.109c0.784,0 1.567,0.043 2.351,0.13c0.608,0.089 1.217,0.089 1.826,0c2.306,-0.172 4.612,-0.37 6.918,-0.586c0.045,-2.044 0.093,-8.776 0.048,-10.862m-10.883,-1.466c-0.129,2 -0.216,3.979 -0.26,5.936" style="fill:none;fill-rule:nonzero;stroke:#3267a4;stroke-width:2px;stroke-miterlimit:3;"/><path id="path24180" d="M44.013,36.413l-18.183,-1.812m16.907,19.189l-17.013,-1.172m29.314,1.644l17.303,0.967" style="fill:none;fill-rule:nonzero;stroke:#3267a4;stroke-width:2px;"/><path id="path24184" d="M68.016,87.528c4.547,0.18 17.141,0.722 19.132,0.797c1.244,0.047 2.868,0.548 2.868,0.548m-89.016,-0.767c0,0 3.399,0 6.692,-0.11c3.293,-0.11 5.436,-0.764 9.241,-0.658c3.807,0.108 8.606,0.548 12.854,1.426c4.249,0.877 6.798,1.536 6.798,1.536m17.422,-2.084c0.85,0 6.054,-0.11 6.054,-0.11" style="fill:none;fill-rule:nonzero;stroke:#3267a4;stroke-width:2px;stroke-miterlimit:3;"/></g></svg>